<svg width="42" height="43" viewBox="0 0 42 43" fill="none" xmlns="http://www.w3.org/2000/svg">
<g clip-path="url(#clip0_299_2227)">
<path d="M21.0193 42.1461C32.5535 42.1461 41.9039 32.7957 41.9039 21.2615C41.9039 9.72729 32.5535 0.376953 21.0193 0.376953C9.4851 0.376953 0.134766 9.72729 0.134766 21.2615C0.134766 32.7957 9.4851 42.1461 21.0193 42.1461Z" fill="#F0F0F0"/>
<path d="M35.6332 6.34504C31.8664 2.65435 26.7091 0.37793 21.0191 0.37793C19.203 0.37793 13.8895 2.65435 10.1228 6.34504H35.6332Z" fill="#6DA544"/>
<path d="M21.0193 18.2795H41.6908C41.3894 16.1727 40.7741 14.1675 39.8929 12.3125H20.1113L21.0193 18.2795Z" fill="#6DA544"/>
<path d="M2.1456 30.2132H39.8926C40.7739 28.3583 41.3892 26.3529 41.6906 24.2461H0.347656C0.649095 26.353 1.26429 28.3584 2.1456 30.2132Z" fill="#6DA544"/>
<path d="M6.40479 36.1797C10.1716 39.8704 15.3289 42.1468 21.0189 42.1468C26.7089 42.1468 31.8662 39.8704 35.633 36.1797H6.40479Z" fill="#6DA544"/>
<path d="M21.0196 0.376953C10.4985 0.376953 1.79603 8.15735 0.348145 18.278H21.0196V0.376953Z" fill="#D80027"/>
<path d="M10.5775 16.3882L9.66946 14.5722V10.9401L11.9395 9.12402L14.2096 10.9401V13.6641L15.1176 12.7561V14.5722L13.3015 16.3882H10.5775Z" fill="#F0F0F0"/>
<path d="M5.6939 10.8193L5.93436 11.5594H6.71244L6.08294 12.0169L6.32348 12.7569L5.6939 12.2995L5.06431 12.7569L5.30486 12.0169L4.67535 11.5594H5.45344L5.6939 10.8193Z" fill="#F0F0F0"/>
<path d="M7.51027 9.00391L7.75073 9.74397H8.5289L7.89932 10.2015L8.13978 10.9414L7.51027 10.4841L6.88077 10.9414L7.12131 10.2015L6.49173 9.74397H7.26973L7.51027 9.00391Z" fill="#F0F0F0"/>
<path d="M9.32619 7.1875L9.56665 7.92756H10.3447L9.71523 8.38506L9.95561 9.12504L9.32619 8.66771L8.69661 9.12504L8.93707 8.38506L8.30765 7.92756H9.08565L9.32619 7.1875Z" fill="#F0F0F0"/>
<path d="M18.1856 10.8193L17.9451 11.5594H17.1671L17.7965 12.0169L17.5561 12.7569L18.1856 12.2995L18.8152 12.7569L18.5747 12.0169L19.2041 11.5594H18.4261L18.1856 10.8193Z" fill="#F0F0F0"/>
<path d="M16.3701 9.00391L16.1296 9.74397H15.3516L15.981 10.2015L15.7406 10.9414L16.3701 10.4841L16.9996 10.9414L16.7591 10.2015L17.3886 9.74397H16.6106L16.3701 9.00391Z" fill="#F0F0F0"/>
<path d="M14.5537 7.1875L14.3132 7.92756H13.5352L14.1646 8.38506L13.9241 9.12504L14.5537 8.66771L15.1832 9.12504L14.9428 8.38506L15.5722 7.92756H14.7942L14.5537 7.1875Z" fill="#F0F0F0"/>
<path d="M11.9398 6.2793L11.6992 7.01936H10.9212L11.5507 7.47678L11.3102 8.21676L11.9398 7.75942L12.5693 8.21676L12.3288 7.47678L12.9582 7.01936H12.1802L11.9398 6.2793Z" fill="#F0F0F0"/>
</g>
<defs>
<clipPath id="clip0_299_2227">
<rect width="41.7691" height="41.7691" fill="white" transform="translate(0.135254 0.376953)"/>
</clipPath>
</defs>
</svg>
