<svg width="43" height="43" viewBox="0 0 43 43" fill="none" xmlns="http://www.w3.org/2000/svg">
<g clip-path="url(#clip0_299_2244)">
<path d="M30.5019 2.44926C27.7562 1.12162 24.6759 0.376953 21.4217 0.376953C18.1674 0.376953 15.0871 1.12162 12.3414 2.44926L10.5254 21.2615L12.3414 40.0738C15.0871 41.4014 18.1674 42.1461 21.4217 42.1461C24.6759 42.1461 27.7562 41.4014 30.5019 40.0738L32.3179 21.2615L30.5019 2.44926Z" fill="#D80027"/>
<path d="M12.3413 2.4502C5.35555 5.82819 0.536926 12.9819 0.536926 21.2617C0.536926 29.5415 5.35555 36.6952 12.3413 40.0732V2.4502Z" fill="black"/>
<path d="M30.5021 2.4502V40.0732C37.4879 36.6952 42.3065 29.5415 42.3065 21.2617C42.3065 12.9819 37.4879 5.82819 30.5021 2.4502Z" fill="#496E2D"/>
<path d="M21.4214 13.9971C17.4094 13.9971 14.1572 17.2494 14.1572 21.2612C14.1572 25.2731 17.4095 28.5254 21.4214 28.5254C25.4333 28.5254 28.6855 25.2731 28.6855 21.2612C28.6855 17.2494 25.4333 13.9971 21.4214 13.9971ZM21.4214 25.8013C18.9139 25.8013 16.8813 23.7686 16.8813 21.2612C16.8813 18.7539 18.914 16.7211 21.4214 16.7211C23.9288 16.7211 25.9615 18.7539 25.9615 21.2612C25.9615 23.7686 23.9288 25.8013 21.4214 25.8013Z" fill="#FFDA44"/>
<path d="M21.4215 18.5371C20.4183 18.5371 19.6051 19.3503 19.6051 20.3535V23.078H23.2379V20.3535C23.2379 19.3503 22.4247 18.5371 21.4215 18.5371Z" fill="#FFDA44"/>
</g>
<defs>
<clipPath id="clip0_299_2244">
<rect width="41.7691" height="41.7691" fill="white" transform="translate(0.536621 0.376953)"/>
</clipPath>
</defs>
</svg>
