<svg width="43" height="43" viewBox="0 0 43 43" fill="none" xmlns="http://www.w3.org/2000/svg">
<g clip-path="url(#clip0_299_2251)">
<path d="M41.9871 26.7093C42.4553 24.9722 42.7066 23.1462 42.7066 21.2611C42.7066 19.3761 42.4553 17.5501 41.9871 15.813L20.006 0.456055C15.9253 0.807666 12.1805 2.3324 9.10972 4.69178L1.65696 15.813C1.18877 17.5501 0.9375 19.3761 0.9375 21.2611C0.9375 23.1352 1.18575 24.9511 1.64872 26.6791L9.10964 37.8305C12.1804 40.1899 15.9252 41.7147 20.0059 42.0662L41.9871 26.7093Z" fill="#FFDA44"/>
<path d="M1.65723 26.7109C2.86559 31.1945 5.52878 35.0805 9.10999 37.8321V26.7109H1.65723Z" fill="#0052B4"/>
<path d="M20.0063 42.0679C20.605 42.1194 21.2104 42.1473 21.8224 42.1473C31.4716 42.1473 39.591 35.6029 41.9875 26.7109H20.0063V42.0679Z" fill="#0052B4"/>
<path d="M41.9876 15.8143C39.5911 6.92238 31.4718 0.37793 21.8225 0.37793C21.2105 0.37793 20.6051 0.40583 20.0065 0.457389V15.8143H41.9876Z" fill="#0052B4"/>
<path d="M9.11007 4.69312C5.52886 7.44482 2.86567 11.3307 1.6573 15.8143H9.11007V4.69312Z" fill="#0052B4"/>
<path d="M42.5298 18.5371H17.282H17.2819V0.873047C15.3519 1.30102 13.5222 1.99469 11.8338 2.91598V18.5371H1.11428C0.998033 19.4288 0.9375 20.3379 0.9375 21.2612C0.9375 22.1844 0.998033 23.0936 1.11428 23.9852H11.8337H11.8338V39.6063C13.5222 40.5275 15.3519 41.2214 17.2819 41.6492V23.9855V23.9853H42.5298C42.6459 23.0936 42.7066 22.1844 42.7066 21.2612C42.7066 20.3379 42.6459 19.4288 42.5298 18.5371Z" fill="#D80027"/>
</g>
<defs>
<clipPath id="clip0_299_2251">
<rect width="41.7691" height="41.7691" fill="white" transform="translate(0.9375 0.376953)"/>
</clipPath>
</defs>
</svg>
