<svg width="43" height="43" viewBox="0 0 43 43" fill="none" xmlns="http://www.w3.org/2000/svg">
<g clip-path="url(#clip0_299_2259)">
<path d="M21.2234 42.1461C32.7576 42.1461 42.108 32.7957 42.108 21.2615C42.108 9.72729 32.7576 0.376953 21.2234 0.376953C9.6892 0.376953 0.338867 9.72729 0.338867 21.2615C0.338867 32.7957 9.6892 42.1461 21.2234 42.1461Z" fill="#D80027"/>
<path d="M33.0278 15.8781H25.4632C25.9302 15.3891 26.2176 14.7271 26.2176 13.9975C26.2176 12.4931 24.998 11.2734 23.4935 11.2734C22.5457 11.2734 21.7114 11.7577 21.2235 12.492C20.7356 11.7577 19.9012 11.2734 18.9534 11.2734C17.449 11.2734 16.2294 12.4931 16.2294 13.9975C16.2294 14.7271 16.5168 15.3892 16.9838 15.8781H9.41924C9.41924 17.8841 11.1664 19.5101 13.1723 19.5101H13.0512C13.0512 21.5162 14.6773 23.1423 16.6834 23.1423C16.6834 23.792 16.8546 24.4011 17.1535 24.9284L14.1408 27.9413L16.4523 30.2526L19.7311 26.9738C19.8596 27.0209 19.9924 27.0587 20.1297 27.0844L18.1483 31.5578L21.2235 34.882L24.2987 31.5576L22.3173 27.0842C22.4546 27.0585 22.5874 27.0208 22.7158 26.9736L25.9947 30.2524L28.3062 27.941L25.2934 24.9282C25.5924 24.4009 25.7636 23.7918 25.7636 23.1421C27.7696 23.1421 29.3957 21.516 29.3957 19.5099H29.2747C31.2806 19.51 33.0278 17.8841 33.0278 15.8781Z" fill="black"/>
</g>
<defs>
<clipPath id="clip0_299_2259">
<rect width="41.7691" height="41.7691" fill="white" transform="translate(0.338867 0.376953)"/>
</clipPath>
</defs>
</svg>
