<svg width="43" height="43" viewBox="0 0 43 43" fill="none" xmlns="http://www.w3.org/2000/svg">
<g clip-path="url(#clip0_299_2262)">
<path d="M21.6249 0.376953C33.1591 0.376953 42.5095 9.72736 42.5095 21.2615C42.5095 32.7957 33.1591 42.1461 21.6249 42.1461C21.6249 41.2381 18.9009 21.2615 18.9009 21.2615L21.6249 0.376953Z" fill="#F0F0F0"/>
<path d="M21.6248 42.1461C10.0906 42.1461 0.740234 32.7957 0.740234 21.2615C0.740234 9.72736 10.0906 0.376953 21.6248 0.376953" fill="#496E2D"/>
<path d="M26.1122 17.2559L24.3987 19.6172L21.6235 18.7172L23.3398 21.0765L21.6265 23.4379L24.4005 22.5347L26.1168 24.8939L26.115 21.9765L28.8892 21.0732L26.1141 20.1734L26.1122 17.2559Z" fill="#D80027"/>
<path d="M23.3579 27.1635C20.0983 27.1635 17.4558 24.5209 17.4558 21.2613C17.4558 18.0017 20.0983 15.3591 23.3579 15.3591C24.3743 15.3591 25.3306 15.6161 26.1655 16.0686C24.8557 14.7877 23.0645 13.9971 21.0879 13.9971C17.0759 13.9971 13.8237 17.2494 13.8237 21.2612C13.8237 25.2731 17.076 28.5254 21.0879 28.5254C23.0646 28.5254 24.8558 27.7348 26.1655 26.4539C25.3306 26.9065 24.3743 27.1635 23.3579 27.1635Z" fill="#D80027"/>
</g>
<defs>
<clipPath id="clip0_299_2262">
<rect width="41.7691" height="41.7691" fill="white" transform="translate(0.740234 0.376953)"/>
</clipPath>
</defs>
</svg>
