<svg width="42" height="43" viewBox="0 0 42 43" fill="none" xmlns="http://www.w3.org/2000/svg">
<g clip-path="url(#clip0_299_2268)">
<path d="M21.026 42.1461C32.5602 42.1461 41.9105 32.7957 41.9105 21.2615C41.9105 9.72729 32.5602 0.376953 21.026 0.376953C9.49177 0.376953 0.141434 9.72729 0.141434 21.2615C0.141434 32.7957 9.49177 42.1461 21.026 42.1461Z" fill="#F0F0F0"/>
<path d="M31.1581 2.99764C28.1573 1.32948 24.703 0.37793 21.0262 0.37793C9.49283 0.37793 0.14307 9.72687 0.141602 21.26L14.67 13.9983L31.1581 2.99764Z" fill="#0052B4"/>
<path d="M0.141602 21.2649C0.14307 32.7981 9.49283 42.147 21.0262 42.147C24.703 42.147 28.1573 41.1956 31.1581 39.5273L14.67 28.5266L0.141602 21.2649Z" fill="#0052B4"/>
<path d="M32.8985 4.07931C32.3376 3.69107 31.7563 3.33 31.1574 2.99707L0.141602 21.2591V21.2616C0.141602 21.2616 0.141602 21.2633 0.141602 21.264L31.1574 39.526C31.7564 39.193 32.3376 38.832 32.8986 38.4438L3.71661 21.2616L32.8985 4.07931Z" fill="#D80027"/>
<path d="M36.4625 20.4836H33.9747C34.6216 19.707 34.5817 18.5515 33.8529 17.823C34.6249 17.0511 34.6249 15.7996 33.8529 15.0276L33.8064 15.0743C34.5783 14.3024 34.6249 13.0043 33.8529 12.2324L22.6719 23.4135C23.4438 24.1855 24.6734 24.1763 25.4452 23.4044L25.6604 23.2077L31.0144 22.721V25.0236H32.8304V22.5558L35.5545 22.3082L36.4625 20.4836Z" fill="#A2001D"/>
<path d="M22.8424 25.8017L21.0257 24.8937L22.8424 23.9856H34.6467V25.8017H22.8424Z" fill="#FFDA44"/>
</g>
<defs>
<clipPath id="clip0_299_2268">
<rect width="41.7691" height="41.7691" fill="white" transform="translate(0.141602 0.376953)"/>
</clipPath>
</defs>
</svg>
