<svg width="43" height="43" viewBox="0 0 43 43" fill="none" xmlns="http://www.w3.org/2000/svg">
<g clip-path="url(#clip0_299_2276)">
<path d="M12.3468 40.0738C15.0925 41.4014 18.1727 42.1461 21.427 42.1461C24.6814 42.1461 27.7616 41.4014 30.5072 40.0738L32.3233 21.2615L30.5072 2.44926C27.7616 1.12162 24.6814 0.376953 21.427 0.376953C18.1727 0.376953 15.0925 1.12162 12.3468 2.44926L10.5308 21.2615L12.3468 40.0738Z" fill="#FFDA44"/>
<path d="M30.5069 40.0732C37.4927 36.6953 42.3112 29.5415 42.3112 21.2617C42.3112 12.9819 37.4927 5.82811 30.5069 2.4502V40.0732Z" fill="#D80027"/>
<path d="M12.3465 40.0732V2.4502C5.36073 5.82811 0.542191 12.9818 0.542191 21.2617C0.542191 29.5416 5.36073 36.6953 12.3465 40.0732Z" fill="#0052B4"/>
<path d="M21.4273 28.5261C21.4273 25.1935 21.4273 21.262 21.4273 21.262H26.8755V23.986C26.8755 24.4593 25.9675 26.1933 23.7263 27.6181C22.8774 28.1579 21.9987 28.3315 21.4273 28.5261Z" fill="#D80027"/>
<path d="M15.9789 15.8135H21.428V21.2626H15.9789V15.8135Z" fill="#D80027"/>
<path d="M24.1509 13.9975C24.1509 12.9944 23.3378 12.1814 22.3348 12.1814C22.0036 12.1814 21.6941 12.2715 21.4268 12.4263C21.1595 12.2715 20.8501 12.1814 20.5189 12.1814C19.5159 12.1814 18.7028 12.9944 18.7028 13.9975H14.1627V23.0776C14.1627 26.4579 16.8472 28.4129 18.9523 29.4262C18.7948 29.6953 18.7028 30.0075 18.7028 30.3419C18.7028 31.3449 19.5159 32.158 20.5189 32.158C20.8501 32.158 21.1596 32.0679 21.4268 31.9131C21.6942 32.0679 22.0036 32.158 22.3348 32.158C23.3378 32.158 24.1509 31.3449 24.1509 30.3419C24.1509 30.0075 24.0589 29.6953 23.9013 29.4262C26.0064 28.4129 28.691 26.458 28.691 23.0776V13.9975H24.1509ZM25.967 23.0776C25.967 23.5508 25.9669 24.9908 23.7258 26.4157C22.8769 26.9554 21.9982 27.3054 21.4268 27.5C20.8555 27.3054 19.9768 26.9554 19.1279 26.4157C16.8867 24.9908 16.8867 23.5508 16.8867 23.0776V16.7215H25.967V23.0776Z" fill="#FF9811"/>
</g>
<defs>
<clipPath id="clip0_299_2276">
<rect width="41.7691" height="41.7691" fill="white" transform="translate(0.54248 0.376953)"/>
</clipPath>
</defs>
</svg>
