<svg width="43" height="43" viewBox="0 0 43 43" fill="none" xmlns="http://www.w3.org/2000/svg">
<g clip-path="url(#clip0_299_2284)">
<path d="M0.943359 21.2615C0.943359 9.72736 10.2938 0.376953 21.8279 0.376953C33.3621 0.376953 42.7125 9.72736 42.7125 21.2615C41.8045 21.2615 21.8279 23.9856 21.8279 23.9856L0.943359 21.2615Z" fill="#D80027"/>
<path d="M42.7124 21.262C42.7124 32.7961 33.362 42.1465 21.8279 42.1465C10.2937 42.1465 0.943344 32.7961 0.943344 21.262" fill="black"/>
<path d="M18.9641 16.9889L20.7348 18.2741L20.06 20.3554L21.8295 19.0681L23.6004 20.3533L22.923 18.2726L24.6923 16.9855L22.5044 16.9868L21.8269 14.9062L21.152 16.9876L18.9641 16.9889Z" fill="#FFDA44"/>
<path d="M27.0487 12.2188C25.4029 11.2686 23.6035 10.8202 21.8275 10.8233V13.5467C23.1402 13.5444 24.4701 13.8756 25.6866 14.578C29.3722 16.7059 30.6396 21.4356 28.5116 25.1213C26.3837 28.8069 21.6541 30.0742 17.9684 27.9463C16.8946 27.3264 16.0278 26.4846 15.3889 25.5133L13.1147 27.0147C13.9793 28.3288 15.1537 29.4666 16.6064 30.3053C21.5929 33.1843 27.9918 31.4697 30.8707 26.4832C33.7497 21.4967 32.0352 15.0977 27.0487 12.2188Z" fill="#FFDA44"/>
<path d="M15.8059 19.4453C15.0839 20.7652 15.5686 22.4205 16.8884 23.1425L25.7357 27.977C25.1341 29.0768 25.4536 30.4154 26.5534 31.0171L28.9433 32.3244C30.0431 32.9261 31.4227 32.5221 32.0244 31.4223L33.3317 29.0325L15.8059 19.4453Z" fill="#FFDA44"/>
</g>
<defs>
<clipPath id="clip0_299_2284">
<rect width="41.7691" height="41.7691" fill="white" transform="translate(0.943848 0.376953)"/>
</clipPath>
</defs>
</svg>
