<svg width="43" height="43" viewBox="0 0 43 43" fill="none" xmlns="http://www.w3.org/2000/svg">
<g clip-path="url(#clip0_299_2291)">
<path d="M42.1143 21.2615C42.1143 32.7957 32.7639 42.1461 21.2298 42.1461C9.69562 42.1461 0.345215 32.7957 0.345215 21.2615C0.345215 21.2665 21.2298 0.379237 21.2298 0.376953C32.7639 0.376953 42.1143 9.72736 42.1143 21.2615Z" fill="#0052B4"/>
<path d="M21.1733 21.2629H21.2292C21.2292 21.2442 21.2292 21.2259 21.2292 21.207C21.2106 21.2257 21.192 21.2443 21.1733 21.2629Z" fill="#F0F0F0"/>
<path d="M21.2293 11.2742C21.2293 7.59942 21.2293 5.19157 21.2293 0.37793H21.2258C9.69309 0.379888 0.344727 9.7294 0.344727 21.2625H11.241V15.1267L17.3767 21.2625H21.1735C21.1921 21.2439 21.2107 21.2253 21.2294 21.2066C21.2294 19.7996 21.2294 18.5441 21.2294 17.4101L15.0935 11.2742H21.2293Z" fill="#F0F0F0"/>
<path d="M10.9102 3.10156C7.64379 4.96151 4.92823 7.67699 3.06836 10.9434V21.2621H8.51654V8.5499V8.54974H21.2289C21.2289 6.83141 21.2289 5.19442 21.2289 3.10156H10.9102Z" fill="#D80027"/>
<path d="M21.2287 18.6941L13.8086 11.2742H11.2404V11.2743L21.2286 21.2624H21.2287C21.2287 21.2624 21.2287 19.4915 21.2287 18.6941Z" fill="#D80027"/>
<path d="M35.6643 24.3187C36.2648 23.4925 36.6659 22.4835 36.6659 21.2616V12.1813C35.9071 12.7514 34.964 13.0893 33.9419 13.0893C32.4566 13.0893 31.1381 12.3761 30.3098 11.2734C29.4814 12.3761 28.1628 13.0893 26.6777 13.0893C25.6555 13.0893 24.7124 12.7513 23.9536 12.1815V21.2616C23.9536 22.4835 24.3547 23.4925 24.9553 24.3187H35.6643Z" fill="#F3F3F3"/>
<path d="M33.7763 19.5773C34.0655 18.8718 34.2903 17.8407 34.2903 17.3276C34.2903 16.5031 33.2154 15.8347 33.2154 15.8347C33.2154 15.8347 32.1405 16.5031 32.1405 17.3276C32.1405 17.8408 32.3655 18.8719 32.6545 19.5773L32.0339 20.9784C32.3987 21.1267 32.7973 21.2091 33.2155 21.2091C33.6337 21.2091 34.0323 21.1266 34.3971 20.9784L33.7763 19.5773Z" fill="#FF9811"/>
<path d="M29.5756 15.0413C28.8204 15.1437 27.8149 15.4647 27.3705 15.7213C26.6565 16.1336 26.615 17.3985 26.615 17.3985C26.615 17.3985 27.7314 17.9952 28.4453 17.583C28.8899 17.3264 29.6702 16.6162 30.1364 16.013L31.6603 15.8499C31.6063 15.46 31.4781 15.0735 31.2693 14.7115C31.06 14.3494 30.7896 14.0452 30.4787 13.8035L29.5756 15.0413Z" fill="#FF9811"/>
<path d="M27.7477 20.9477C28.2138 21.5505 28.9944 22.2606 29.4389 22.5173C30.153 22.9295 31.2693 22.333 31.2693 22.333C31.2693 22.333 31.2277 21.0679 30.5138 20.6556C30.0692 20.399 29.0639 20.0782 28.3085 19.9761L27.4054 18.738C27.0947 18.9797 26.8241 19.2841 26.615 19.6458C26.406 20.008 26.2781 20.3943 26.2239 20.7844L27.7477 20.9477Z" fill="#FF9811"/>
<path d="M24.7307 23.9861C26.4265 26.7072 30.3098 27.618 30.3098 27.618C30.3098 27.618 34.1931 26.7072 35.889 23.9861H24.7307Z" fill="#338AF3"/>
</g>
<defs>
<clipPath id="clip0_299_2291">
<rect width="41.7691" height="41.7691" fill="white" transform="translate(0.344727 0.376953)"/>
</clipPath>
</defs>
</svg>
