<svg width="43" height="43" viewBox="0 0 43 43" fill="none" xmlns="http://www.w3.org/2000/svg">
<g clip-path="url(#clip0_299_2306)">
<path d="M0.746582 21.2626C0.746582 22.6931 0.890816 24.09 1.16484 25.4395L21.6311 26.7108L42.0975 25.4395C42.3716 24.09 42.5157 22.6931 42.5157 21.2626C42.5157 19.8321 42.3715 18.4353 42.0975 17.0857L21.6311 15.8145L1.16484 17.0857C0.890816 18.4353 0.746582 19.8321 0.746582 21.2626H0.746582Z" fill="#0052B4"/>
<path d="M42.0974 25.4385H1.1647C3.09971 34.9711 11.5274 42.1461 21.631 42.1461C31.7346 42.1461 40.1623 34.9711 42.0974 25.4385Z" fill="#F0F0F0"/>
<path d="M1.16455 17.0846H42.0973C40.1621 7.55194 31.7346 0.376953 21.6308 0.376953C11.527 0.376953 3.09955 7.55194 1.16455 17.0846Z" fill="black"/>
<path d="M30.711 17.085H12.5506L16.2608 15.3397L14.285 11.7465L18.3139 12.517L18.8246 8.44702L21.6308 11.4405L24.4371 8.44702L24.9475 12.517L28.9765 11.7465L27.0009 15.3398L30.711 17.085Z" fill="#FFDA44"/>
<path d="M0.746124 21.2617C0.746124 32.7958 10.0965 42.1462 21.6307 42.1462L4.92271 8.73022C2.30039 12.221 0.746124 16.5596 0.746124 21.2617Z" fill="#A2001D"/>
<path d="M21.6306 42.1462C33.1647 42.1462 42.5151 32.7958 42.5151 21.2617C42.5151 16.5596 40.9608 12.221 38.3385 8.73022L21.6306 42.1462Z" fill="#A2001D"/>
</g>
<defs>
<clipPath id="clip0_299_2306">
<rect width="41.7691" height="41.7691" fill="white" transform="translate(0.746094 0.376953)"/>
</clipPath>
</defs>
</svg>
