<svg width="42" height="43" viewBox="0 0 42 43" fill="none" xmlns="http://www.w3.org/2000/svg">
<g clip-path="url(#clip0_299_2314)">
<path d="M21.0193 42.5484C32.5535 42.5484 41.9039 33.1981 41.9039 21.6638C41.9039 10.1296 32.5535 0.779297 21.0193 0.779297C9.4851 0.779297 0.134766 10.1296 0.134766 21.6638C0.134766 33.1981 9.4851 42.5484 21.0193 42.5484Z" fill="#F0F0F0"/>
<path d="M21.0193 0.77832C12.7394 0.77832 5.58514 5.59686 2.20706 12.5827H39.8315C36.4535 5.59686 29.2991 0.77832 21.0193 0.77832Z" fill="#338AF3"/>
<path d="M21.0193 42.5473C29.2991 42.5473 36.4535 37.7287 39.8316 30.7429H2.20706C5.58514 37.7287 12.7394 42.5473 21.0193 42.5473Z" fill="#338AF3"/>
<path d="M27.2617 21.6636L24.7111 22.8634L26.0693 25.3335L23.2996 24.8037L22.9487 27.6016L21.0196 25.5438L19.0903 27.6016L18.7395 24.8037L15.9698 25.3335L17.328 22.8633L14.7774 21.6636L17.328 20.4638L15.9698 17.9937L18.7394 18.5235L19.0904 15.7256L21.0196 17.7834L22.9488 15.7256L23.2996 18.5235L26.0694 17.9937L24.7111 20.4639L27.2617 21.6636Z" fill="#FFDA44"/>
</g>
<defs>
<clipPath id="clip0_299_2314">
<rect width="41.7691" height="41.7691" fill="white" transform="translate(0.135254 0.779297)"/>
</clipPath>
</defs>
</svg>
