<svg width="43" height="43" viewBox="0 0 43 43" fill="none" xmlns="http://www.w3.org/2000/svg">
<g clip-path="url(#clip0_299_2320)">
<path d="M42.3062 21.6634C42.3062 19.1088 41.8468 16.6617 41.0072 14.3993L21.4217 13.4912L1.83611 14.3992C0.996651 16.6617 0.537109 19.1088 0.537109 21.6634C0.537109 24.218 0.996651 26.6652 1.83611 28.9276L21.4217 29.8357L41.0072 28.9277C41.8468 26.6652 42.3062 24.218 42.3062 21.6634Z" fill="#0052B4"/>
<path d="M21.4215 42.5481C30.4011 42.5481 38.0562 36.8806 41.007 28.9277H1.83594C4.78678 36.8806 12.4419 42.5481 21.4215 42.5481Z" fill="#FF9811"/>
<path d="M1.83594 14.3997H41.0071C38.0562 6.44684 30.4011 0.779297 21.4215 0.779297C12.4419 0.779297 4.78678 6.44684 1.83594 14.3997Z" fill="#D80027"/>
</g>
<defs>
<clipPath id="clip0_299_2320">
<rect width="41.7691" height="41.7691" fill="white" transform="translate(0.536621 0.779297)"/>
</clipPath>
</defs>
</svg>
