<svg width="43" height="43" viewBox="0 0 43 43" fill="none" xmlns="http://www.w3.org/2000/svg">
<g clip-path="url(#clip0_299_2324)">
<path d="M21.8221 42.5484C33.3563 42.5484 42.7066 33.1981 42.7066 21.6638C42.7066 10.1296 33.3563 0.779297 21.8221 0.779297C10.2878 0.779297 0.9375 10.1296 0.9375 21.6638C0.9375 33.1981 10.2878 42.5484 21.8221 42.5484Z" fill="#FFDA44"/>
<path d="M21.8225 42.5474C28.1524 42.5474 33.8241 39.7309 37.654 35.2832H5.99091C9.82086 39.7309 15.4926 42.5474 21.8225 42.5474Z" fill="#338AF3"/>
<path d="M42.7068 21.6629C42.7068 10.1287 33.3564 0.77832 21.8222 0.77832C10.2881 0.77832 0.937683 10.1287 0.937683 21.6629C0.937683 23.548 1.18895 25.3739 1.65714 27.111H41.9874C42.4555 25.3739 42.7068 23.548 42.7068 21.6629Z" fill="#338AF3"/>
<path d="M2.59796 29.8352C3.00056 30.7812 3.4712 31.691 4.00318 32.5593H39.6417C40.1737 31.6909 40.6443 30.7811 41.0471 29.8352H2.59796Z" fill="#338AF3"/>
<path d="M10.5081 13.9514L6.42773 12.1506L10.5081 10.3498L12.3088 6.26953L14.1095 10.3498L18.1897 12.1506L14.1095 13.9514L12.3088 18.0316L10.5081 13.9514Z" fill="#F0F0F0"/>
<path d="M12.3094 8.51758L13.4214 11.0375L15.9414 12.1497L13.4214 13.2618L12.3094 15.7817L11.1972 13.2618L8.67725 12.1497L11.1972 11.0375L12.3094 8.51758Z" fill="#D80027"/>
</g>
<defs>
<clipPath id="clip0_299_2324">
<rect width="41.7691" height="41.7691" fill="white" transform="translate(0.9375 0.779297)"/>
</clipPath>
</defs>
</svg>
