<svg width="43" height="43" viewBox="0 0 43 43" fill="none" xmlns="http://www.w3.org/2000/svg">
<g clip-path="url(#clip0_299_2332)">
<path d="M42.108 21.6638C42.108 33.198 32.7576 42.5484 21.2234 42.5484C9.68927 42.5484 0.338867 33.198 0.338867 21.6638C0.338867 21.6687 21.2234 0.781663 21.2234 0.779297C32.7576 0.779297 42.108 10.1297 42.108 21.6638Z" fill="#0052B4"/>
<path d="M21.1683 21.6633H21.2242C21.2242 21.6444 21.2242 21.6263 21.2242 21.6074C21.2056 21.6261 21.187 21.6447 21.1683 21.6633Z" fill="#F0F0F0"/>
<path d="M21.2242 11.6746C21.2242 7.99981 21.2242 5.5918 21.2242 0.77832H21.2207C9.68811 0.780197 0.339661 10.1297 0.339661 21.6628H11.2359V15.527L17.3717 21.6628H21.1684C21.1871 21.6442 21.2057 21.6256 21.2243 21.6069C21.2243 20.1999 21.2243 18.9445 21.2243 17.8105L15.0884 11.6746H21.2242Z" fill="#F0F0F0"/>
<path d="M10.9053 3.50293C7.63891 5.36288 4.92343 8.07836 3.06348 11.3448V21.6634H8.51165V8.95119V8.95111H21.224C21.224 7.23278 21.224 5.59579 21.224 3.50293H10.9053Z" fill="#D80027"/>
<path d="M21.2238 19.0955L13.8038 11.6756H11.2356C11.2356 11.6755 11.2356 11.6756 11.2356 11.6756L21.2237 21.6637H21.2238C21.2238 21.6637 21.2238 19.893 21.2238 19.0955Z" fill="#D80027"/>
<path d="M12.9345 25.2959L14.0807 27.6926L16.669 27.0943L15.5099 29.4848L17.5913 31.1354L14.9998 31.7195L15.007 34.3761L12.9345 32.7141L10.862 34.3761L10.8693 31.7195L8.27764 31.1354L10.3592 29.4848L9.19991 27.0943L11.7884 27.6926L12.9345 25.2959Z" fill="#F0F0F0"/>
<path d="M31.6075 29.8362L32.1807 31.0347L33.4752 30.7355L32.8954 31.931L33.9364 32.7564L32.6404 33.0486L32.6439 34.3771L31.6075 33.5459L30.5711 34.3771L30.5747 33.0486L29.2787 32.7564L30.3196 31.931L29.74 30.7355L31.0343 31.0347L31.6075 29.8362Z" fill="#F0F0F0"/>
<path d="M26.2759 17.124L26.8491 18.3226L28.1435 18.0234L27.5638 19.2188L28.6047 20.0443L27.3088 20.3364L27.3123 21.6649L26.2759 20.8337L25.2395 21.6649L25.243 20.3364L23.9471 20.0443L24.988 19.2188L24.4083 18.0234L25.7027 18.3226L26.2759 17.124Z" fill="#F0F0F0"/>
<path d="M31.6075 9.85938L32.1807 11.058L33.4752 10.7588L32.8955 11.9542L33.9363 12.7796L32.6404 13.0718L32.6439 14.4004L31.6075 13.5692L30.5711 14.4004L30.5747 13.0718L29.2787 12.7796L30.3196 11.9542L29.74 10.7588L31.0343 11.058L31.6075 9.85938Z" fill="#F0F0F0"/>
<path d="M36.2647 15.3076L36.8378 16.5062L38.1323 16.207L37.5526 17.4024L38.5935 18.2279L37.2975 18.5201L37.301 19.8485L36.2647 19.0174L35.2283 19.8485L35.2318 18.5201L33.9358 18.2279L34.9767 17.4024L34.3971 16.207L35.6914 16.5062L36.2647 15.3076Z" fill="#F0F0F0"/>
<path d="M32.9346 21.6631L33.3854 23.0507H34.8445L33.664 23.9083L34.115 25.2958L32.9346 24.4383L31.7542 25.2958L32.2051 23.9083L31.0247 23.0507H32.4837L32.9346 21.6631Z" fill="#F0F0F0"/>
</g>
<defs>
<clipPath id="clip0_299_2332">
<rect width="41.7691" height="41.7691" fill="white" transform="translate(0.338867 0.779297)"/>
</clipPath>
</defs>
</svg>
