<svg width="43" height="43" viewBox="0 0 43 43" fill="none" xmlns="http://www.w3.org/2000/svg">
<g clip-path="url(#clip0_299_2348)">
<path d="M41.2105 28.9274C42.05 26.665 42.5095 24.2178 42.5095 21.6632C42.5095 19.1086 42.05 16.6616 41.2105 14.3991L21.625 12.583L2.03941 14.3991C1.19995 16.6616 0.740404 19.1086 0.740404 21.6632C0.740404 24.2178 1.19995 26.665 2.03941 28.9274L21.625 30.7434L41.2105 28.9274Z" fill="#F0F0F0"/>
<path d="M21.6254 42.5472C30.6049 42.5472 38.2601 36.8796 41.2109 28.9268H2.03975C4.99068 36.8796 12.6457 42.5472 21.6254 42.5472Z" fill="#D80027"/>
<path d="M21.6254 0.77832C12.6457 0.77832 4.99068 6.44587 2.03975 14.3987H41.2109C38.2601 6.44587 30.6049 0.77832 21.6254 0.77832Z" fill="#D80027"/>
</g>
<defs>
<clipPath id="clip0_299_2348">
<rect width="41.7691" height="41.7691" fill="white" transform="translate(0.740234 0.779297)"/>
</clipPath>
</defs>
</svg>
