<svg width="42" height="43" viewBox="0 0 42 43" fill="none" xmlns="http://www.w3.org/2000/svg">
<g clip-path="url(#clip0_299_2353)">
<path d="M41.9107 21.6634C41.9107 19.1088 41.4512 16.6617 40.6117 14.3993L21.0262 13.4912L1.4406 14.3992C0.601143 16.6617 0.141602 19.1088 0.141602 21.6634C0.141602 24.218 0.601143 26.6652 1.4406 28.9276L21.0262 29.8357L40.6117 28.9277C41.4512 26.6652 41.9107 24.218 41.9107 21.6634Z" fill="#D80027"/>
<path d="M21.026 42.5481C30.0056 42.5481 37.6607 36.8806 40.6115 28.9277H1.44043C4.39127 36.8806 12.0464 42.5481 21.026 42.5481Z" fill="#6DA544"/>
<path d="M1.44043 14.3997H40.6116C37.6607 6.44684 30.0056 0.779297 21.026 0.779297C12.0464 0.779297 4.39127 6.44684 1.44043 14.3997Z" fill="#338AF3"/>
<path d="M21.4803 27.5656C18.2207 27.5656 15.5782 24.923 15.5782 21.6634C15.5782 18.4038 18.2207 15.7612 21.4803 15.7612C22.4967 15.7612 23.453 16.0182 24.2879 16.4707C22.9781 15.1898 21.1869 14.3992 19.2103 14.3992C15.1983 14.3992 11.9461 17.6515 11.9461 21.6633C11.9461 25.6752 15.1984 28.9275 19.2103 28.9275C21.187 28.9275 22.9782 28.1369 24.2879 26.856C23.453 27.3086 22.4967 27.5656 21.4803 27.5656Z" fill="#F0F0F0"/>
<path d="M26.0207 17.5771L26.8024 19.7758L28.91 18.7739L27.9081 20.8814L30.1068 21.6633L27.9081 22.4451L28.91 24.5527L26.8024 23.5507L26.0207 25.7494L25.2389 23.5507L23.1313 24.5527L24.1333 22.4451L21.9345 21.6633L24.1333 20.8814L23.1313 18.7739L25.2389 19.7758L26.0207 17.5771Z" fill="#F0F0F0"/>
</g>
<defs>
<clipPath id="clip0_299_2353">
<rect width="41.7691" height="41.7691" fill="white" transform="translate(0.141602 0.779297)"/>
</clipPath>
</defs>
</svg>
