<svg width="43" height="43" viewBox="0 0 43 43" fill="none" xmlns="http://www.w3.org/2000/svg">
<g clip-path="url(#clip0_299_2360)">
<path d="M21.4265 42.5484C32.9608 42.5484 42.3111 33.1981 42.3111 21.6638C42.3111 10.1296 32.9608 0.779297 21.4265 0.779297C9.89232 0.779297 0.541992 10.1296 0.541992 21.6638C0.541992 33.1981 9.89232 42.5484 21.4265 42.5484Z" fill="#F0F0F0"/>
<path d="M0.542191 21.6633C0.542191 29.5795 4.94671 36.4665 11.4385 40.0085V3.31812C4.94671 6.86017 0.542191 13.7472 0.542191 21.6633Z" fill="#D80027"/>
<path d="M0.542191 21.6631C0.542191 31.3124 7.08664 39.4317 15.9786 41.8282V1.49805C7.08664 3.89455 0.542191 12.0139 0.542191 21.6631Z" fill="#0052B4"/>
<path d="M8.03323 8.04321V11.4483C8.03323 13.1408 9.40525 14.5129 11.0978 14.5129C12.7903 14.5129 14.1624 13.1408 14.1624 11.4483V8.04321H8.03323Z" fill="#D80027"/>
<path d="M11.0983 12.6964C10.4098 12.6964 9.84961 12.1363 9.84961 11.4477V9.8584H12.3471V11.4477C12.3471 12.1363 11.7869 12.6964 11.0983 12.6964Z" fill="#F0F0F0"/>
<path d="M23.243 22.5709H17.7948C17.7948 21.568 16.9817 20.7549 15.9787 20.7549C14.9758 20.7549 14.1627 21.568 14.1627 22.5709H8.71451C8.71451 23.574 9.58815 24.387 10.591 24.387H10.5306C10.5306 25.39 11.3435 26.2031 12.3466 26.2031C12.3466 27.2061 13.1596 28.0191 14.1627 28.0191H17.7948C18.7978 28.0191 19.6109 27.2061 19.6109 26.2031C20.6138 26.2031 21.4269 25.39 21.4269 24.387H21.3665C22.3693 24.387 23.243 23.574 23.243 22.5709Z" fill="#FFDA44"/>
<path d="M23.9894 19.6638L23.5125 20.4273L24.091 21.1166L23.2176 20.8992L22.7406 21.6623L22.6777 20.7644L21.8044 20.5466L22.6391 20.2095L22.5763 19.3115L23.1549 20.0012L23.9894 19.6638Z" fill="#FFDA44"/>
<path d="M21.2074 17.3301L21.0205 18.2106L21.7999 18.6606L20.9047 18.755L20.7176 19.6353L20.3514 18.813L19.4562 18.907L20.1252 18.3046L19.7592 17.4825L20.5386 17.9325L21.2074 17.3301Z" fill="#FFDA44"/>
<path d="M17.7951 16.0879L17.9204 16.9793L18.8067 17.1356L17.9978 17.5302L18.123 18.4216L17.4979 17.774L16.6888 18.1686L17.1113 17.3738L16.4861 16.7264L17.3726 16.8826L17.7951 16.0879Z" fill="#FFDA44"/>
<path d="M14.1631 16.0879L14.5858 16.8826L15.4722 16.7264L14.8469 17.374L15.2695 18.1687L14.4606 17.774L13.8352 18.4214L13.9605 17.5302L13.1515 17.1356L14.0379 16.9793L14.1631 16.0879Z" fill="#FFDA44"/>
<path d="M10.7502 17.3301L11.4191 17.9325L12.1985 17.4825L11.8326 18.305L12.5013 18.9071L11.6063 18.813L11.24 19.6353L11.0531 18.7549L10.1579 18.6609L10.9373 18.2106L10.7502 17.3301Z" fill="#FFDA44"/>
<path d="M7.96827 19.6647L8.80307 20.0021L9.38133 19.3125L9.31883 20.2106L10.1533 20.5478L9.27982 20.7654L9.21683 21.6632L8.74024 20.9001L7.86685 21.1177L8.44544 20.4282L7.96827 19.6647Z" fill="#FFDA44"/>
</g>
<defs>
<clipPath id="clip0_299_2360">
<rect width="41.7691" height="41.7691" fill="white" transform="translate(0.54248 0.779297)"/>
</clipPath>
</defs>
</svg>
