<svg width="43" height="43" viewBox="0 0 43 43" fill="none" xmlns="http://www.w3.org/2000/svg">
<g clip-path="url(#clip0_299_2374)">
<path d="M21.828 42.5482C33.3622 42.5482 42.7126 33.1978 42.7126 21.6636C42.7126 10.1294 33.3622 0.779053 21.828 0.779053C10.2938 0.779053 0.943451 10.1294 0.943451 21.6636C0.943451 33.1978 10.2938 42.5482 21.828 42.5482Z" fill="#FFDA44"/>
<path d="M13.6555 14.3987H41.4132C38.4625 6.44587 30.8073 0.77832 21.8278 0.77832C16.0605 0.77832 10.84 3.11633 7.06084 6.89594L13.6555 14.3987Z" fill="#338AF3"/>
<path d="M13.6555 28.9277H41.4132C38.4625 36.8806 30.8073 42.5481 21.8278 42.5481C16.0605 42.5481 10.84 40.2101 7.06084 36.4305L13.6555 28.9277Z" fill="#338AF3"/>
<path d="M7.06029 6.89551C-1.09562 15.0514 -1.09562 28.2748 7.06029 36.4308C10.4306 33.0605 13.672 29.8191 21.828 21.6632L7.06029 6.89551Z" fill="black"/>
</g>
<defs>
<clipPath id="clip0_299_2374">
<rect width="41.7691" height="41.7691" fill="white" transform="translate(0.943848 0.779297)"/>
</clipPath>
</defs>
</svg>
