<svg width="43" height="43" viewBox="0 0 43 43" fill="none" xmlns="http://www.w3.org/2000/svg">
<g clip-path="url(#clip0_299_2380)">
<path d="M21.2298 42.5484C32.764 42.5484 42.1143 33.1981 42.1143 21.6638C42.1143 10.1296 32.764 0.779297 21.2298 0.779297C9.69555 0.779297 0.345215 10.1296 0.345215 21.6638C0.345215 33.1981 9.69555 42.5484 21.2298 42.5484Z" fill="#F0F0F0"/>
<path d="M21.2294 0.779297C17.0381 0.779297 13.136 2.01483 9.86529 4.14024L15.2365 7.7403L8.51709 11.221L15.2365 14.7017L8.51709 18.1824L15.2365 21.6627L8.51709 25.1433L15.2365 28.624L8.51709 32.105L15.2365 35.5857L9.86463 39.1869C13.1355 41.3127 17.0379 42.5484 21.2294 42.5484C32.7636 42.5484 42.114 33.198 42.114 21.6638C42.114 10.1297 32.7636 0.779297 21.2294 0.779297V0.779297Z" fill="#D80027"/>
</g>
<defs>
<clipPath id="clip0_299_2380">
<rect width="41.7691" height="41.7691" fill="white" transform="translate(0.344727 0.779297)"/>
</clipPath>
</defs>
</svg>
