<svg width="43" height="43" viewBox="0 0 43 43" fill="none" xmlns="http://www.w3.org/2000/svg">
<g clip-path="url(#clip0_299_2383)">
<path d="M21.6311 0.779297C33.1653 0.779297 42.5157 10.1297 42.5157 21.6639C42.5157 33.198 33.1653 42.5484 21.6311 42.5484C10.097 42.5484 0.746582 33.198 0.746582 21.6639" fill="#FFDA44"/>
<path d="M21.1765 10.0609H38.9973C37.8238 8.30803 36.3918 6.74332 34.7562 5.41992H21.1765V10.0609Z" fill="#D80027"/>
<path d="M21.1765 19.3431H42.3862C42.2082 17.7338 41.8475 16.18 41.3252 14.7021H21.1765V19.3431Z" fill="#D80027"/>
<path d="M1.93603 28.6245H41.325C41.8474 27.1467 42.2081 25.5927 42.3862 23.9834H0.875C1.05285 25.5927 1.41359 27.1468 1.93603 28.6245Z" fill="#D80027"/>
<path d="M8.5049 37.9074H34.7561C36.3917 36.5841 37.8238 35.0192 38.9972 33.2664H4.26395C5.4374 35.0192 6.86929 36.584 8.5049 37.9074Z" fill="#D80027"/>
<path d="M21.6312 0.779297C10.097 0.779297 0.7465 10.1297 0.746582 21.664C5.51299 21.6638 10.097 21.664 21.6311 21.664L21.6312 0.779297Z" fill="#4A1F63"/>
<path d="M17.9985 11.6745V13.4905H17.0906V11.6745H15.2745V13.4905H14.3665V9.8584H10.7344V13.4905H9.82632V11.6745H8.01034V13.4905H7.10227V11.6745H5.28613V17.1226H19.8146V11.6745H17.9985Z" fill="#F0F0F0"/>
</g>
<defs>
<clipPath id="clip0_299_2383">
<rect width="41.7692" height="41.7692" fill="white" transform="translate(0.746094 0.779297)"/>
</clipPath>
</defs>
</svg>
