<svg width="43" height="42" viewBox="0 0 43 42" fill="none" xmlns="http://www.w3.org/2000/svg">
<g clip-path="url(#clip0_299_2395)">
<path d="M30.5019 2.25199C27.7562 0.924352 24.6759 0.179688 21.4217 0.179688C18.1674 0.179688 15.0871 0.924352 12.3414 2.25199L10.5254 21.0642L12.3414 39.8765C15.0871 41.2041 18.1674 41.9488 21.4217 41.9488C24.6759 41.9488 27.7562 41.2041 30.5019 39.8765L32.3179 21.0642L30.5019 2.25199Z" fill="#FFDA44"/>
<path d="M12.3418 2.25317C5.3561 5.63109 0.537476 12.7848 0.537476 21.0647C0.537476 29.3446 5.3561 36.4983 12.3418 39.8762V2.25317Z" fill="#0052B4"/>
<path d="M30.502 2.25342V39.8764C37.4877 36.4985 42.3064 29.3448 42.3064 21.0649C42.3064 12.7851 37.4877 5.63133 30.502 2.25342Z" fill="#0052B4"/>
<path d="M27.7779 12.8925L28.9962 13.5016L27.7779 12.8925L26.5596 12.2834C26.4862 12.4303 24.8955 15.6669 24.6356 20.6107H22.7838V12.8925L21.4218 11.0764L20.0597 12.8925V20.6107H18.2079C17.948 15.6669 16.3573 12.4303 16.2838 12.2834L13.8474 13.5016C13.8642 13.5351 15.5197 16.9048 15.5197 21.9728V23.3348H20.0598V31.0531H22.7838V23.3348H27.3239V21.9727C27.3239 19.3525 27.7773 17.1919 28.1577 15.8408C28.5724 14.3674 28.9936 13.507 28.9977 13.4985L27.7779 12.8925Z" fill="black"/>
</g>
<defs>
<clipPath id="clip0_299_2395">
<rect width="41.7691" height="41.7691" fill="white" transform="translate(0.536621 0.179688)"/>
</clipPath>
</defs>
</svg>
