<svg width="43" height="42" viewBox="0 0 43 42" fill="none" xmlns="http://www.w3.org/2000/svg">
<g clip-path="url(#clip0_299_2401)">
<path d="M21.8221 41.949C33.3564 41.949 42.7067 32.5987 42.7067 21.0645C42.7067 9.53026 33.3564 0.179932 21.8221 0.179932C10.2879 0.179932 0.937592 9.53026 0.937592 21.0645C0.937592 32.5987 10.2879 41.949 21.8221 41.949Z" fill="#F0F0F0"/>
<path d="M1.11459 23.7888C1.60049 27.5181 3.07073 30.9375 5.2552 33.7795L16.3741 23.7888H1.11459Z" fill="#D80027"/>
<path d="M19.0984 41.773V26.5134L9.10771 37.6324C11.9497 39.8169 15.3691 41.2872 19.0984 41.773Z" fill="#D80027"/>
<path d="M19.0984 0.357178C15.3691 0.84307 11.9497 2.31331 9.10771 4.49779L19.0984 15.6169V0.357178Z" fill="#D80027"/>
<path d="M1.11459 18.341H16.3741L5.25512 8.35034C3.07064 11.1923 1.6004 14.6117 1.11459 18.341Z" fill="#D80027"/>
<path d="M24.5462 0.357178V15.6168L34.537 4.49779C31.695 2.31347 28.2755 0.842988 24.5462 0.357178Z" fill="#D80027"/>
<path d="M42.53 18.3401C42.0441 14.6108 40.5738 11.1914 38.3893 8.34937L27.2704 18.3401H42.53Z" fill="#D80027"/>
<path d="M27.2704 23.7888L38.3894 33.7795C40.5738 30.9375 42.0442 27.5181 42.53 23.7888H27.2704Z" fill="#D80027"/>
<path d="M24.5462 41.773C28.2754 41.2871 31.695 39.8169 34.5369 37.6323L24.5462 26.5134V41.773Z" fill="#D80027"/>
<path d="M38.391 33.7803L25.6748 21.064L25.6747 21.0639L38.391 8.3475C37.8426 7.63482 37.2427 6.94922 36.5899 6.29625C35.9371 5.64344 35.2514 5.04342 34.5386 4.49512L21.8223 17.2114H21.8222L9.10588 4.49512C8.3932 5.0435 7.70752 5.64336 7.05455 6.29625C6.40174 6.94922 5.80172 7.63482 5.25342 8.34758L17.9697 21.0638L17.9698 21.0639L5.2535 33.7803C5.80188 34.4929 6.40182 35.1786 7.05463 35.8316C7.70752 36.4844 8.3932 37.0844 9.10597 37.6327L21.8222 24.9164L34.5386 37.6327C35.2512 37.0843 35.9369 36.4844 36.5899 35.8316C37.2428 35.1786 37.8426 34.4929 38.391 33.7803Z" fill="#496E2D"/>
<path d="M24.5462 41.7723V23.7888V23.7886H42.5299C42.6462 22.8969 42.7067 21.9877 42.7067 21.0645C42.7067 20.1413 42.6461 19.2322 42.5299 18.3405H24.5464L24.5463 18.3404V0.356798C23.6546 0.240709 22.7456 0.179932 21.8221 0.179932C20.8989 0.180013 19.9898 0.240709 19.0981 0.356798L19.0982 18.3403V18.3404H1.11446C0.998287 19.2321 0.937592 20.1412 0.937592 21.0645C0.937673 21.9879 0.998287 22.8969 1.11446 23.7885H19.098L19.0981 41.7723C19.9898 41.8883 20.8987 41.949 21.8221 41.949C22.7456 41.949 23.6546 41.8883 24.5462 41.7723Z" fill="#F0F0F0"/>
</g>
<defs>
<clipPath id="clip0_299_2401">
<rect width="41.7691" height="41.7691" fill="white" transform="translate(0.9375 0.179688)"/>
</clipPath>
</defs>
</svg>
