<svg width="43" height="42" viewBox="0 0 43 42" fill="none" xmlns="http://www.w3.org/2000/svg">
<g clip-path="url(#clip0_299_2414)">
<path d="M21.2234 41.9488C32.7576 41.9488 42.108 32.5985 42.108 21.0642C42.108 9.53002 32.7576 0.179688 21.2234 0.179688C9.6892 0.179688 0.338867 9.53002 0.338867 21.0642C0.338867 32.5985 9.6892 41.9488 21.2234 41.9488Z" fill="#FCFCFC"/>
<path d="M8.96484 19.5509L6.69479 15.4325L8.96484 11.3787L11.2349 15.4325L8.96484 19.5509Z" fill="#A2001D"/>
<path d="M4.42486 19.5509L2.1548 15.4325L4.42486 11.3787L6.69491 15.4325L4.42486 19.5509Z" fill="#A2001D"/>
<path d="M8.9649 30.7494L6.69484 26.631L8.9649 22.5771L11.2349 26.631L8.9649 30.7494Z" fill="#A2001D"/>
<path d="M4.42486 30.7494L2.1548 26.631L4.42486 22.5771L6.69491 26.631L4.42486 30.7494Z" fill="#A2001D"/>
<path d="M11.2357 4.23381L10.5929 3.08594C9.43997 3.76905 8.35859 4.55994 7.36224 5.44475L8.96525 8.35286L11.2357 4.23381Z" fill="#A2001D"/>
<path d="M8.96521 33.7764L7.34523 36.6694C8.34069 37.5553 9.42132 38.3475 10.5738 39.032L11.2357 37.831L8.96521 33.7764Z" fill="#A2001D"/>
<path d="M13.0513 26.5117V40.2876C15.5614 41.3561 18.3232 41.9481 21.2235 41.9481C30.2031 41.9481 37.8582 36.2806 40.809 28.3277L13.0513 26.5117Z" fill="#6DA544"/>
<path d="M40.809 28.3284C41.6486 26.0659 42.108 23.6188 42.108 21.0642C42.108 9.53009 32.7576 0.179688 21.2235 0.179688C18.3234 0.179688 15.5614 0.771389 13.0513 1.83968V28.3285H40.809V28.3284Z" fill="#A2001D"/>
</g>
<defs>
<clipPath id="clip0_299_2414">
<rect width="41.7691" height="41.7691" fill="white" transform="translate(0.338867 0.179688)"/>
</clipPath>
</defs>
</svg>
