<svg width="43" height="42" viewBox="0 0 43 42" fill="none" xmlns="http://www.w3.org/2000/svg">
<g clip-path="url(#clip0_299_2425)">
<path d="M28.8888 1.47869C26.6263 0.639229 24.1793 0.179688 21.6246 0.179688C19.07 0.179688 16.623 0.639229 14.3605 1.47869L12.5444 21.0642L14.3605 40.6498C16.623 41.4893 19.07 41.9488 21.6246 41.9488C24.1793 41.9488 26.6263 41.4893 28.8888 40.6498L30.7049 21.0642L28.8888 1.47869Z" fill="#FFDA44"/>
<path d="M42.5091 21.065C42.5091 12.0854 36.8415 4.43025 28.8887 1.47949V40.6507C36.8415 37.6997 42.5091 30.0447 42.5091 21.065Z" fill="#D80027"/>
<path d="M0.740234 21.065C0.740234 30.0447 6.40778 37.6997 14.3606 40.6506V1.47949C6.40778 4.43025 0.740234 12.0854 0.740234 21.065Z" fill="black"/>
</g>
<defs>
<clipPath id="clip0_299_2425">
<rect width="41.7691" height="41.7691" fill="white" transform="translate(0.740234 0.179688)"/>
</clipPath>
</defs>
</svg>
