<svg width="42" height="42" viewBox="0 0 42 42" fill="none" xmlns="http://www.w3.org/2000/svg">
<g clip-path="url(#clip0_299_2429)">
<path d="M41.9105 21.0641C41.9105 13.8963 38.2991 7.57281 32.797 3.81163L21.026 2.90356L9.25501 3.81155C3.75299 7.57281 0.141434 13.8964 0.141434 21.0641C0.141434 28.232 3.75299 34.5553 9.25501 38.3165L21.026 39.2246L32.797 38.3166C38.2991 34.5553 41.9105 28.232 41.9105 21.0641Z" fill="#0052B4"/>
<path d="M32.7966 3.81156C29.4449 1.5203 25.3922 0.179443 21.0257 0.179443C16.6593 0.179443 12.6064 1.5203 9.2547 3.81156H32.7966Z" fill="#A2001D"/>
<path d="M9.25452 38.3159C12.6062 40.6072 16.6591 41.948 21.0255 41.948C25.392 41.948 29.4447 40.6072 32.7965 38.3159H9.25452Z" fill="#A2001D"/>
<path d="M21.0261 31.053C26.5425 31.053 31.0144 26.5811 31.0144 21.0647C31.0144 15.5483 26.5425 11.0764 21.0261 11.0764C15.5097 11.0764 11.0378 15.5483 11.0378 21.0647C11.0378 26.5811 15.5097 31.053 21.0261 31.053Z" fill="#F0F0F0"/>
<path d="M21.0257 29.237C25.5391 29.237 29.198 25.5782 29.198 21.0648C29.198 16.5514 25.5391 12.8926 21.0257 12.8926C16.5123 12.8926 12.8535 16.5514 12.8535 21.0648C12.8535 25.5782 16.5123 29.237 21.0257 29.237Z" fill="#6DA544"/>
<path d="M21.026 26.5126C24.0349 26.5126 26.4742 24.0733 26.4742 21.0644C26.4742 18.0554 24.0349 15.6162 21.026 15.6162C18.0171 15.6162 15.5778 18.0554 15.5778 21.0644C15.5778 24.0733 18.0171 26.5126 21.026 26.5126Z" fill="#F0F0F0"/>
<path d="M21.0257 19.7021L18.0746 21.0642V23.3343L21.0257 25.1503L23.9768 23.3343V21.0642L21.0257 19.7021Z" fill="#0052B4"/>
<path d="M18.0747 18.3408H23.9769V21.0649H18.0747V18.3408Z" fill="#FFDA44"/>
</g>
<defs>
<clipPath id="clip0_299_2429">
<rect width="41.7691" height="41.7691" fill="white" transform="translate(0.141602 0.179688)"/>
</clipPath>
</defs>
</svg>
