<svg width="43" height="42" viewBox="0 0 43 42" fill="none" xmlns="http://www.w3.org/2000/svg">
<g clip-path="url(#clip0_299_2443)">
<path d="M42.7126 21.0645C42.7126 32.5986 33.3621 41.949 21.828 41.949C10.2939 41.949 0.943451 32.5986 0.943451 21.0645C0.943451 21.0695 21.828 0.182216 21.828 0.179932C33.3621 0.179932 42.7126 9.53034 42.7126 21.0645Z" fill="#D80027"/>
<path d="M21.8275 10.168V17.2119L14.5633 10.168H21.8275Z" fill="#0052B4"/>
<path d="M11.8392 21.0648H17.9749L11.8392 12.8926L10.9312 19.2487L11.8392 21.0648Z" fill="#0052B4"/>
<path d="M21.7725 21.0647H21.8284C21.8284 21.0459 21.8284 21.0276 21.8284 21.0088C21.8097 21.0275 21.7911 21.0461 21.7725 21.0647Z" fill="#F0F0F0"/>
<path d="M21.8284 11.076C21.8284 7.40117 21.8284 4.99333 21.8284 0.179688H21.8249C10.2922 0.181645 0.943848 9.53115 0.943848 21.0642H11.8401V14.9285L17.9759 21.0642H21.7726C21.7912 21.0456 21.8098 21.027 21.8285 21.0084C21.8285 19.6013 21.8285 18.3459 21.8285 17.2119L15.6926 11.076H21.8284Z" fill="#F0F0F0"/>
<path d="M11.5083 2.90405C8.24195 4.764 5.52639 7.47948 3.66652 10.7459V21.9725H9.1147V8.35239V8.35223H22.735C22.735 6.6339 22.735 4.99691 22.735 2.90405H11.5083Z" fill="#D80027"/>
<path d="M22.6571 19.3268L14.4068 11.0767H11.8386V11.0768L22.6569 21.8951H22.6571C22.6571 21.8952 22.6571 20.1243 22.6571 19.3268Z" fill="#D80027"/>
<path d="M24.5517 11.0764V21.0646C24.5517 25.9301 37.264 25.9301 37.264 21.0646V11.0764H24.5517Z" fill="#F3F3F3"/>
<path d="M24.5518 21.0645V21.0645C24.5518 25.9299 30.9079 27.4207 30.9079 27.4207C30.9079 27.4207 37.2641 25.9299 37.2641 21.0645V21.0645H24.5518Z" fill="#6DA544"/>
<path d="M30.9081 17.0693L27.957 18.3406V21.0646L30.9081 22.8807L33.8591 21.0646V18.3406L30.9081 17.0693Z" fill="#A2001D"/>
<path d="M27.957 15.6162H33.8591V18.3403H27.957V15.6162Z" fill="#338AF3"/>
</g>
<defs>
<clipPath id="clip0_299_2443">
<rect width="41.7691" height="41.7691" fill="white" transform="translate(0.943848 0.179688)"/>
</clipPath>
</defs>
</svg>
