<svg width="43" height="42" viewBox="0 0 43 42" fill="none" xmlns="http://www.w3.org/2000/svg">
<g clip-path="url(#clip0_299_2459)">
<path d="M35.9969 35.8324C27.841 43.9883 14.6176 43.9883 6.46166 35.8324C-1.69425 27.6765 -1.69425 14.453 6.46166 6.29706C6.46459 6.29706 25.2299 0.752289 33.3858 8.9082C41.5418 17.0641 36.0025 35.8267 35.9969 35.8324Z" fill="#FFDA44"/>
<path d="M35.9972 35.832C44.1531 27.6761 44.1531 14.4526 35.9972 6.29665C27.8413 -1.85934 14.6179 -1.85926 6.46191 6.29665L35.9972 35.832Z" fill="#D80027"/>
<path d="M26.6886 26.5252C25.8307 26.8622 24.8338 26.8264 23.969 26.3411C22.441 25.4835 21.8956 23.5424 22.7534 22.0142L22.493 21.8681C25.1093 21.2373 27.045 18.8625 27.0111 16.06C26.99 14.3177 26.2115 12.759 24.9937 11.6924L23.087 13.6459C23.8078 14.2204 24.2752 15.1016 24.2872 16.0931C24.3084 17.8454 22.9001 19.2883 21.1479 19.3095L21.1516 19.6078C19.297 17.6575 16.2726 17.1686 13.8627 18.5992C12.3644 19.4888 11.4038 20.9422 11.0889 22.5302L13.734 23.2048C13.8712 22.2933 14.4005 21.4479 15.2531 20.9417C16.76 20.0472 18.7137 20.5455 19.6082 22.0523L19.865 21.9C19.1032 24.481 20.1919 27.3447 22.636 28.7166C24.1555 29.5694 25.8945 29.6746 27.4272 29.1533L26.6886 26.5252ZM21.1698 21.1251L21.1697 21.1252L21.1698 21.1251Z" fill="#FF9811"/>
<path d="M28.9623 14.3242L27.4862 19.5919L23.0572 18.7741L20.2063 12.8975L12.5045 15.6305L11.8972 13.9189L9.88214 13.6707L11.4004 17.9495L16.7006 16.5939L18.2068 20.8385L14.5429 26.2457L20.7607 31.5489L19.5821 32.9306L20.3747 34.8001L23.3212 31.3456L19.4972 27.4333L22.42 24.0067L28.9348 24.4761L30.4187 16.4396L32.2045 16.7694L33.4274 15.1484L28.9623 14.3242ZM21.2281 21.2064V21.2066V21.2064Z" fill="#FFEACF"/>
</g>
<defs>
<clipPath id="clip0_299_2459">
<rect width="41.7691" height="41.7691" fill="white" transform="translate(0.344727 0.179688)"/>
</clipPath>
</defs>
</svg>
