<svg width="43" height="42" viewBox="0 0 43 42" fill="none" xmlns="http://www.w3.org/2000/svg">
<g clip-path="url(#clip0_299_2464)">
<path d="M42.5157 21.0648C42.5157 18.5102 42.0562 16.063 41.2167 13.8006L21.6311 12.8926L2.04558 13.8006C1.20604 16.063 0.746582 18.5102 0.746582 21.0648C0.746582 23.6194 1.20604 26.0666 2.04558 28.329L21.6311 29.237L41.2167 28.329C42.0562 26.0666 42.5157 23.6194 42.5157 21.0648Z" fill="#FFDA44"/>
<path d="M21.631 41.9485C30.6106 41.9485 38.2657 36.281 41.2165 28.3281H2.04541C4.99625 36.281 12.6513 41.9485 21.631 41.9485Z" fill="#6DA544"/>
<path d="M2.04541 13.8001H41.2166C38.2657 5.84723 30.6106 0.179688 21.631 0.179688C12.6513 0.179688 4.99625 5.84723 2.04541 13.8001Z" fill="#D80027"/>
</g>
<defs>
<clipPath id="clip0_299_2464">
<rect width="41.7691" height="41.7691" fill="white" transform="translate(0.746094 0.179688)"/>
</clipPath>
</defs>
</svg>
