<svg width="42" height="43" viewBox="0 0 42 43" fill="none" xmlns="http://www.w3.org/2000/svg">
<g clip-path="url(#clip0_299_2468)">
<path d="M21.0193 42.3502C32.5535 42.3502 41.9039 32.9998 41.9039 21.4656C41.9039 9.93139 32.5535 0.581055 21.0193 0.581055C9.4851 0.581055 0.134766 9.93139 0.134766 21.4656C0.134766 32.9998 9.4851 42.3502 21.0193 42.3502Z" fill="#F0F0F0"/>
<path d="M6.25166 6.69755C1.77576 11.1735 -0.243108 17.1756 0.193592 23.0287L22.5827 0.639565C16.7297 0.202784 10.7276 2.22165 6.25166 6.69755Z" fill="#FFDA44"/>
<path d="M7.59229 37.4609C15.7977 44.3644 28.064 43.9561 35.7872 36.233C43.5104 28.5098 43.9188 16.2434 37.0152 8.03809L7.59229 37.4609Z" fill="#0052B4"/>
<path d="M20.9448 20.6238L22.7446 19.6489L20.9448 18.674C20.5246 15.9442 18.3678 13.7873 15.638 13.3672L14.663 11.5674L13.6882 13.3671C10.9585 13.7873 8.80167 15.9442 8.38137 18.6739L6.58154 19.6489L8.38129 20.6238C8.80151 23.3535 10.9583 25.5104 13.6881 25.9306L14.663 27.7304L15.6379 25.9307C18.3678 25.5104 20.5246 23.3535 20.9448 20.6238ZM14.6631 23.281C12.6572 23.281 11.031 21.6549 11.031 19.6489C11.031 17.6428 12.6571 16.0168 14.6631 16.0168C16.6692 16.0168 18.2952 17.6428 18.2952 19.6489C18.2952 21.6549 16.6691 23.281 14.6631 23.281Z" fill="black"/>
<path d="M14.6637 16.9258L15.4502 18.288H17.0232L16.2366 19.6503L17.0232 21.0126H15.4502L14.6637 22.3748L13.8772 21.0126H12.3042L13.0907 19.6503L12.3042 18.288H13.8772L14.6637 16.9258Z" fill="#D80027"/>
</g>
<defs>
<clipPath id="clip0_299_2468">
<rect width="41.7691" height="41.7691" fill="white" transform="translate(0.135254 0.581055)"/>
</clipPath>
</defs>
</svg>
