<svg width="43" height="43" viewBox="0 0 43 43" fill="none" xmlns="http://www.w3.org/2000/svg">
<g clip-path="url(#clip0_299_2474)">
<path d="M21.4217 42.3502C32.9559 42.3502 42.3062 32.9998 42.3062 21.4656C42.3062 9.93139 32.9559 0.581055 21.4217 0.581055C9.88744 0.581055 0.537109 9.93139 0.537109 21.4656C0.537109 32.9998 9.88744 42.3502 21.4217 42.3502Z" fill="#F0F0F0"/>
<path d="M21.422 0.581055C14.0169 0.581055 7.51251 4.43515 3.8042 10.2466L32.1255 39.401C38.2231 35.7541 42.3065 29.0871 42.3065 21.4656C42.3065 9.93146 32.9561 0.581055 21.422 0.581055Z" fill="#FFDA44"/>
<path d="M42.3065 21.4647C42.3065 16.0459 40.2427 11.1097 36.8583 7.39795V35.5315C40.2427 31.8197 42.3065 26.8834 42.3065 21.4647Z" fill="#0052B4"/>
<path d="M26.6258 39.8921L28.8134 39.8907L29.4882 37.8096L30.1655 39.8899L31.2628 39.8892C31.9356 39.529 32.5863 39.1332 33.2125 38.7039L4.18309 9.67456C3.70471 10.3726 3.26842 11.1014 2.8761 11.8568L3.13405 12.6491L5.32163 12.6478L3.55264 13.9347L4.22992 16.0149L2.4593 14.7302L1.40325 15.4983C0.840261 17.389 0.537354 19.3918 0.537354 21.4653C0.537354 32.9994 9.88776 42.3498 21.4219 42.3498C23.8605 42.3498 26.2011 41.9312 28.3766 41.1627L26.6258 39.8921ZM5.19551 20.5573L5.87018 18.4763L4.09972 17.1914L6.2873 17.1901L6.96205 15.109L7.63933 17.1892L9.8269 17.1879L8.05783 18.4748L8.73511 20.555L6.96449 19.2703L5.19551 20.5573ZM9.70078 25.0974L10.3754 23.0164L8.60499 21.7316L10.7926 21.7302L11.4673 19.6491L12.1446 21.7294L14.3322 21.728L12.5632 23.0149L13.2405 25.0951L11.4698 23.8104L9.70078 25.0974ZM14.206 29.6375L14.8806 27.5566L13.1102 26.2717L15.2978 26.2703L15.9725 24.1892L16.6498 26.2695L18.8374 26.2681L17.0684 27.555L17.7457 29.6352L15.975 28.3503L14.206 29.6375ZM20.4802 32.8907L18.7112 34.1776L19.3858 32.0967L17.6154 30.8118L19.8029 30.8104L20.4778 28.7293L21.1551 30.8096L23.3426 30.8082L21.5736 32.0951L22.2509 34.1753L20.4802 32.8907ZM23.2164 38.7177L23.8911 36.6368L22.1206 35.3519L24.3082 35.3505L24.983 33.2695L25.6602 35.3497L27.8478 35.3483L26.0788 36.6352L26.7561 38.7154L24.9855 37.4305L23.2164 38.7177Z" fill="#0052B4"/>
</g>
<defs>
<clipPath id="clip0_299_2474">
<rect width="41.7691" height="41.7691" fill="white" transform="translate(0.536621 0.581055)"/>
</clipPath>
</defs>
</svg>
