<svg width="43" height="43" viewBox="0 0 43 43" fill="none" xmlns="http://www.w3.org/2000/svg">
<g clip-path="url(#clip0_299_2480)">
<path d="M1.92372 15.1092C1.28397 17.1135 0.937495 19.2487 0.937576 21.4653C0.937495 23.6818 1.28397 25.8171 1.9238 27.8215L21.8221 28.7296L41.7204 27.8215C42.3601 25.8171 42.7066 23.6817 42.7066 21.4654C42.7066 19.2489 42.3601 17.1135 41.7204 15.1092L21.822 14.2012L1.92372 15.1092Z" fill="#F0F0F0"/>
<path d="M42.7067 21.4655C42.7067 20.2265 42.5982 19.0129 42.3912 17.8333H1.25313C1.04608 19.0129 0.937576 20.2263 0.937576 21.4654C0.937576 22.7044 1.04616 23.9178 1.25313 25.0975H42.3912C42.5981 23.9178 42.7067 22.7043 42.7067 21.4655Z" fill="black"/>
<path d="M21.8223 42.3498C31.1401 42.3498 39.0313 36.2473 41.7205 27.8213H1.92397C4.61326 36.2472 12.5046 42.3496 21.8223 42.3498Z" fill="#338AF3"/>
<path d="M21.8224 0.581055C12.5047 0.581055 4.61342 6.68351 1.92397 15.1093L41.7205 15.1094C39.0313 6.68351 31.14 0.580892 21.8224 0.581055Z" fill="#338AF3"/>
</g>
<defs>
<clipPath id="clip0_299_2480">
<rect width="41.7691" height="41.7691" fill="white" transform="translate(0.9375 0.581055)"/>
</clipPath>
</defs>
</svg>
