<svg width="43" height="43" viewBox="0 0 43 43" fill="none" xmlns="http://www.w3.org/2000/svg">
<g clip-path="url(#clip0_299_2486)">
<path d="M21.2234 42.3502C32.7576 42.3502 42.108 32.9998 42.108 21.4656C42.108 9.93139 32.7576 0.581055 21.2234 0.581055C9.6892 0.581055 0.338867 9.93139 0.338867 21.4656C0.338867 32.9998 9.6892 42.3502 21.2234 42.3502Z" fill="#6DA544"/>
<path d="M21.2231 8.75293L38.4756 21.4653L21.2231 34.1776L3.9707 21.4653L21.2231 8.75293Z" fill="#FFDA44"/>
<path d="M21.2234 28.7295C25.2353 28.7295 28.4875 25.4772 28.4875 21.4653C28.4875 17.4534 25.2353 14.2012 21.2234 14.2012C17.2115 14.2012 13.9592 17.4534 13.9592 21.4653C13.9592 25.4772 17.2115 28.7295 21.2234 28.7295Z" fill="#F0F0F0"/>
<path d="M17.5917 21.0107C16.3285 21.0107 15.1095 21.2029 13.962 21.5594C14.0128 25.5274 17.2437 28.729 21.2238 28.729C23.6849 28.729 25.8586 27.5039 27.1726 25.6315C24.9245 22.8173 21.4654 21.0107 17.5917 21.0107Z" fill="#0052B4"/>
<path d="M28.3532 22.8571C28.4407 22.4064 28.4879 21.9415 28.4879 21.4653C28.4879 17.4534 25.2356 14.2012 21.2238 14.2012C18.2302 14.2012 15.6605 16.0123 14.5484 18.5983C15.5314 18.3946 16.5492 18.2873 17.5917 18.2873C21.8108 18.2872 25.6276 20.041 28.3532 22.8571Z" fill="#0052B4"/>
</g>
<defs>
<clipPath id="clip0_299_2486">
<rect width="41.7691" height="41.7691" fill="white" transform="translate(0.338867 0.581055)"/>
</clipPath>
</defs>
</svg>
