<svg width="43" height="43" viewBox="0 0 43 43" fill="none" xmlns="http://www.w3.org/2000/svg">
<g clip-path="url(#clip0_299_2493)">
<path d="M0.740234 21.4656C0.740234 9.93146 10.0906 0.581055 21.6248 0.581055C33.1589 0.581055 42.5093 9.93146 42.5093 21.4656H0.740234Z" fill="#F0F0F0"/>
<path d="M16.1759 20.324L15.034 21.4659H16.1759V20.324Z" fill="#0052B4"/>
<path d="M27.0721 20.324V21.4658H28.2139L27.0721 20.324Z" fill="#0052B4"/>
<path d="M1.34204 16.4717C0.949229 18.072 0.739486 19.7443 0.739486 21.4657H7.3293L12.3233 16.4717H1.34204Z" fill="#0052B4"/>
<path d="M30.9245 16.4717L35.9185 21.4657H42.5085C42.5085 19.7443 42.2986 18.072 41.9059 16.4717H30.9245Z" fill="#0052B4"/>
<path d="M29.6411 16.4717H27.0728L32.0669 21.4657H34.6352L29.6411 16.4717Z" fill="#D80027"/>
<path d="M16.1775 19.0402V16.4717H16.1774L11.1825 21.4666H13.7512L16.1775 19.0402Z" fill="#D80027"/>
<path d="M10.5242 3.77441C9.66319 4.31588 8.84455 4.91821 8.07422 5.57561H12.3253L10.5242 3.77441Z" fill="#0052B4"/>
<path d="M35.1768 5.57561C34.4065 4.91812 33.5879 4.31579 32.727 3.77441L30.9259 5.57561H35.1768Z" fill="#0052B4"/>
<path d="M24.3482 13.7474H41.0355C40.2459 11.7634 39.1608 9.92967 37.8348 8.2992H24.3483H24.3482V0.757839C23.4566 0.64175 22.5474 0.581055 21.6242 0.581055C20.7008 0.581055 19.7918 0.64175 18.9001 0.757839V8.29912V8.2992H5.41353C4.08761 9.92967 3.00242 11.7634 2.21289 13.7474H18.9H18.9001V21.4656H24.3482V13.7475V13.7474Z" fill="#D80027"/>
<path d="M16.1768 5.57582V5.57573L13.0278 2.42676C12.4456 2.69006 11.8782 2.98013 11.326 3.2937L13.6082 5.57582H16.1768Z" fill="#D80027"/>
<path d="M27.0723 5.57634L30.2213 2.42737C29.6223 2.15656 29.0082 1.91373 28.3807 1.69922L27.0723 3.00775V5.57634Z" fill="#D80027"/>
<path d="M42.5093 21.4658C42.5093 33 33.1589 42.3504 21.6248 42.3504C10.0906 42.3504 0.740234 33 0.740234 21.4658H42.5093Z" fill="#F0F0F0"/>
<path d="M39.0284 24.1294C37.2881 24.1294 37.2881 22.5381 35.5476 22.5381C33.8073 22.5381 33.8073 24.1294 32.067 24.1294C30.3267 24.1294 30.3267 22.5381 28.5864 22.5381C26.846 22.5381 26.846 24.1294 25.1056 24.1294C23.3652 24.1294 23.3651 22.5381 21.6246 22.5381C19.8842 22.5381 19.8842 24.1294 18.144 24.1294C16.4038 24.1294 16.4038 22.5381 14.6635 22.5381C12.923 22.5381 12.923 24.1294 11.1825 24.1294C9.44195 24.1294 9.44195 22.5381 7.70143 22.5381C5.96133 22.5381 5.96133 24.1294 4.22097 24.1294C2.49 24.1294 2.47997 22.5556 0.767516 22.5388C0.81573 23.4941 0.929779 24.432 1.10224 25.3491C2.48943 25.553 2.6109 26.914 4.22105 26.914C5.96141 26.914 5.96141 25.3228 7.70151 25.3228C9.44203 25.3228 9.44203 26.914 11.1825 26.914C12.9231 26.914 12.9231 25.3228 14.6636 25.3228C16.4039 25.3228 16.4039 26.914 18.144 26.914C19.8844 26.914 19.8844 25.3228 21.6247 25.3228C23.3652 25.3228 23.3652 26.914 25.1057 26.914C26.8462 26.914 26.8462 25.3228 28.5865 25.3228C30.3268 25.3228 30.3268 26.914 32.0671 26.914C33.8074 26.914 33.8075 25.3228 35.5477 25.3228C37.2882 25.3228 37.2882 26.914 39.0285 26.914C40.6388 26.914 40.7603 25.553 42.1476 25.3492C42.3201 24.432 42.434 23.4942 42.4825 22.5389C40.7697 22.5558 40.7595 24.1294 39.0284 24.1294Z" fill="#0052B4"/>
<path d="M35.5476 27.9866C33.8072 27.9866 33.8072 29.5779 32.067 29.5779C30.3267 29.5779 30.3266 27.9866 28.5863 27.9866C26.846 27.9866 26.846 29.5779 25.1055 29.5779C23.365 29.5779 23.365 27.9866 21.6245 27.9866C19.8842 27.9866 19.8842 29.5779 18.1439 29.5779C16.4038 29.5779 16.4038 27.9866 14.6634 27.9866C12.9229 27.9866 12.9229 29.5779 11.1824 29.5779C9.44189 29.5779 9.44189 27.9866 7.70137 27.9866C5.96127 27.9866 5.96127 29.5779 4.22091 29.5779C2.97738 29.5779 2.62218 28.7657 1.88592 28.3016C2.37606 29.7178 3.01369 31.0649 3.7816 32.3242C3.91515 32.3488 4.06053 32.3625 4.22091 32.3625C5.96127 32.3625 5.96127 30.7713 7.70137 30.7713C9.44189 30.7713 9.44189 32.3625 11.1824 32.3625C12.9229 32.3625 12.9229 30.7713 14.6634 30.7713C16.4038 30.7713 16.4038 32.3625 18.1439 32.3625C19.8842 32.3625 19.8842 30.7713 21.6245 30.7713C23.365 30.7713 23.365 32.3625 25.1055 32.3625C26.8461 32.3625 26.8461 30.7713 28.5863 30.7713C30.3267 30.7713 30.3267 32.3625 32.067 32.3625C33.8072 32.3625 33.8073 30.7713 35.5476 30.7713C37.2881 30.7713 37.2881 32.3625 39.0284 32.3625C39.1888 32.3625 39.3343 32.3488 39.4678 32.3241C40.2358 31.0649 40.8734 29.7178 41.3637 28.3017C40.6273 28.7655 40.2721 29.5779 39.0284 29.5779C37.2881 29.5779 37.2881 27.9866 35.5476 27.9866Z" fill="#0052B4"/>
<path d="M42.4972 20.8086C42.499 20.8666 42.5011 20.9246 42.5024 20.9829C42.5011 20.9247 42.4989 20.8666 42.4972 20.8086Z" fill="#F0F0F0"/>
<path d="M0.745241 20.9829C0.746628 20.9247 0.748587 20.8667 0.750382 20.8086C0.748668 20.8667 0.746547 20.9248 0.745241 20.9829Z" fill="#F0F0F0"/>
<path d="M0.739258 21.4647C0.739258 21.3036 0.741706 21.1431 0.745377 20.9827C0.741624 21.1431 0.739258 21.3036 0.739258 21.4647Z" fill="#F0F0F0"/>
<path d="M0.739258 21.4646C0.739258 21.845 0.750026 22.223 0.77034 22.5983C2.47888 22.6175 2.49022 24.1886 4.21996 24.1886C5.96031 24.1886 5.96031 22.5975 7.70042 22.5975C9.44094 22.5975 9.44094 24.1886 11.1815 24.1886C12.922 24.1886 12.922 22.5975 14.6625 22.5975C16.4028 22.5975 16.4028 24.1886 18.1429 24.1886C19.8833 24.1886 19.8833 22.5975 21.6236 22.5975C23.3641 22.5975 23.3641 24.1886 25.1046 24.1886C26.8451 24.1886 26.8451 22.5975 28.5854 22.5975C30.3257 22.5975 30.3257 24.1886 32.066 24.1886C33.8063 24.1886 33.8064 22.5975 35.5466 22.5975C37.2871 22.5975 37.2871 24.1886 39.0274 24.1886C40.7573 24.1886 40.7687 22.6175 42.4775 22.5983C42.4976 22.2229 42.5084 21.845 42.5084 21.4646H0.739258Z" fill="#F0F0F0"/>
<path d="M42.5021 20.9827C42.5058 21.1429 42.5082 21.3035 42.5082 21.4647C42.5082 21.3036 42.5059 21.1431 42.5021 20.9827Z" fill="#F0F0F0"/>
<path d="M35.5474 33.4343C33.807 33.4343 33.807 35.0256 32.0667 35.0256C30.3265 35.0256 30.3264 33.4343 28.5861 33.4343C26.8458 33.4343 26.8458 35.0256 25.1053 35.0256C23.3648 35.0256 23.3648 33.4343 21.6243 33.4343C19.8839 33.4343 19.8839 35.0256 18.1437 35.0256C16.4036 35.0256 16.4036 33.4343 14.6632 33.4343C12.9227 33.4343 12.9227 35.0256 11.1822 35.0256C9.44167 35.0256 9.44167 33.4343 7.70115 33.4343C6.49915 33.4343 6.12722 34.1933 5.43868 34.663C7.26519 36.9004 9.54699 38.751 12.1416 40.076L21.6246 39.5983L31.1075 40.0759C33.7021 38.7508 35.9839 36.9005 37.8104 34.6631C37.1215 34.1935 36.7496 33.4343 35.5474 33.4343Z" fill="#0052B4"/>
<path d="M33.2076 33.9319L26.8546 35.1471L26.0497 28.7296L21.6246 33.4494L17.1997 28.7295L16.3945 35.147L10.0418 33.9319L13.1572 39.5978L12.1398 40.0763C14.9859 41.5299 18.2094 42.3499 21.6246 42.3499C25.0398 42.3499 28.2633 41.5299 31.1095 40.0765L30.0924 39.598L33.2076 33.9319Z" fill="#FFDA44"/>
</g>
<defs>
<clipPath id="clip0_299_2493">
<rect width="41.7691" height="41.7691" fill="white" transform="translate(0.740234 0.581055)"/>
</clipPath>
</defs>
</svg>
