<svg width="43" height="43" viewBox="0 0 43 43" fill="none" xmlns="http://www.w3.org/2000/svg">
<g clip-path="url(#clip0_299_2551)">
<path d="M42.3111 21.4656C42.3111 32.9998 32.9607 42.3502 21.4265 42.3502C9.8924 42.3502 0.541992 32.9998 0.541992 21.4656C0.541992 21.4706 21.4265 0.583339 21.4265 0.581055C32.9607 0.581055 42.3111 9.93146 42.3111 21.4656Z" fill="#0052B4"/>
<path d="M21.3706 21.466H21.4265C21.4265 21.4473 21.4265 21.429 21.4265 21.4102C21.4079 21.4288 21.3893 21.4474 21.3706 21.466Z" fill="#F0F0F0"/>
<path d="M21.4265 11.4773C21.4265 7.80254 21.4265 5.3947 21.4265 0.581055H21.423C9.89036 0.583013 0.541992 9.93252 0.541992 21.4656H11.4383V15.3299L17.574 21.4656H21.3707C21.3893 21.447 21.4079 21.4284 21.4266 21.4097C21.4266 20.0027 21.4266 18.7473 21.4266 17.6132L15.2907 11.4773H21.4265Z" fill="#F0F0F0"/>
<path d="M11.1082 3.30493C7.84183 5.16488 5.12627 7.88036 3.2664 11.1468V21.4654H8.71458V8.75327V8.75311H21.4269C21.4269 7.03478 21.4269 5.39779 21.4269 3.30493H11.1082Z" fill="#D80027"/>
<path d="M30.5071 21.4658L24.8623 27.1106C25.9202 29.151 28.0501 30.546 30.5071 30.546C32.964 30.546 35.0939 29.151 36.1519 27.1106L30.5071 21.4658Z" fill="#FFDA44"/>
<path d="M21.4268 18.8975L14.0066 11.4775H11.4385V11.4777L21.4266 21.4657H21.4268C21.4268 21.4657 21.4268 19.6949 21.4268 18.8975Z" fill="#D80027"/>
<path d="M24.1506 11.4775V21.4657V21.4658C24.1506 26.3312 30.5067 27.822 30.5067 27.822C30.5067 27.822 36.8628 26.3312 36.8629 21.4658V21.4657V11.4775H24.1506Z" fill="#6DA544"/>
<path d="M29.1448 16.0176H31.8688V23.2817H29.1448V16.0176Z" fill="#F0F0F0"/>
<path d="M30.5071 17.3799C31.2594 17.3799 31.8694 16.77 31.8694 16.0176C31.8694 15.2652 31.2594 14.6553 30.5071 14.6553C29.7547 14.6553 29.1448 15.2652 29.1448 16.0176C29.1448 16.77 29.7547 17.3799 30.5071 17.3799Z" fill="#A2001D"/>
<path d="M25.9663 13.2939H27.7827V15.1103H25.9663V13.2939Z" fill="#FFDA44"/>
<path d="M25.9663 17.3796H27.7827V19.196H25.9663V17.3796Z" fill="#FFDA44"/>
<path d="M25.9663 21.4666H27.7827V23.2829H25.9663V21.4666Z" fill="#FFDA44"/>
<path d="M33.2305 13.2939H35.0469V15.1103H33.2305V13.2939Z" fill="#FFDA44"/>
<path d="M33.2305 17.3796H35.0469V19.196H33.2305V17.3796Z" fill="#FFDA44"/>
<path d="M33.2305 21.4666H35.0469V23.2829H33.2305V21.4666Z" fill="#FFDA44"/>
</g>
<defs>
<clipPath id="clip0_299_2551">
<rect width="41.7691" height="41.7691" fill="white" transform="translate(0.54248 0.581055)"/>
</clipPath>
</defs>
</svg>
