<svg width="42" height="43" viewBox="0 0 42 43" fill="none" xmlns="http://www.w3.org/2000/svg">
<g clip-path="url(#clip0_299_2522)">
<path d="M21.0262 42.3502C32.5604 42.3502 41.9107 32.9998 41.9107 21.4656C41.9107 9.93139 32.5604 0.581055 21.0262 0.581055C9.49193 0.581055 0.141602 9.93139 0.141602 21.4656C0.141602 32.9998 9.49193 42.3502 21.0262 42.3502Z" fill="#F0F0F0"/>
<path d="M38.4291 23.9656C36.6888 23.9656 36.6888 22.3743 34.9483 22.3743C33.208 22.3743 33.208 23.9656 31.4677 23.9656C29.7274 23.9656 29.7273 22.3743 27.9871 22.3743C26.2467 22.3743 26.2467 23.9656 24.5063 23.9656C22.7659 23.9656 22.7658 22.3743 21.0253 22.3743C19.2849 22.3743 19.2849 23.9656 17.5446 23.9656C15.8045 23.9656 15.8045 22.3743 14.0642 22.3743C12.3237 22.3743 12.3237 23.9656 10.5831 23.9656C8.84263 23.9656 8.84263 22.3743 7.10211 22.3743C5.36201 22.3743 5.36201 23.9656 3.62165 23.9656C1.89068 23.9656 1.88065 22.3918 0.168198 22.375C0.216412 23.3302 0.330461 24.2682 0.502922 25.1854C1.89011 25.3891 2.01159 26.7501 3.62182 26.7501C5.36217 26.7501 5.36217 25.1589 7.10228 25.1589C8.84279 25.1589 8.84279 26.7501 10.5833 26.7501C12.3238 26.7501 12.3238 25.1589 14.0643 25.1589C15.8047 25.1589 15.8047 26.7501 17.5448 26.7501C19.2852 26.7501 19.2852 25.1589 21.0254 25.1589C22.7659 25.1589 22.7659 26.7501 24.5065 26.7501C26.247 26.7501 26.247 25.1589 27.9872 25.1589C29.7276 25.1589 29.7276 26.7501 31.4679 26.7501C33.2082 26.7501 33.2082 25.1589 34.9485 25.1589C36.689 25.1589 36.689 26.7501 38.4293 26.7501C40.0396 26.7501 40.1611 25.3891 41.5483 25.1854C41.7209 24.2681 41.8348 23.3303 41.8832 22.375C40.1704 22.3919 40.1602 23.9656 38.4291 23.9656Z" fill="#0052B4"/>
<path d="M34.9489 27.8225C33.2085 27.8225 33.2085 29.4138 31.4683 29.4138C29.728 29.4138 29.7279 27.8225 27.9876 27.8225C26.2473 27.8225 26.2473 29.4138 24.5069 29.4138C22.7663 29.4138 22.7663 27.8225 21.0258 27.8225C19.2855 27.8225 19.2855 29.4138 17.5452 29.4138C15.8051 29.4138 15.8051 27.8225 14.0647 27.8225C12.3242 27.8225 12.3242 29.4138 10.5837 29.4138C8.84319 29.4138 8.84319 27.8225 7.10268 27.8225C5.36257 27.8225 5.36257 29.4138 3.62222 29.4138C2.34018 29.4138 2.00171 28.5509 1.21666 28.0963C1.69211 29.5173 2.31661 30.8699 3.07082 32.1363C3.23414 32.1757 3.41574 32.1984 3.62214 32.1984C5.36249 32.1984 5.36249 30.6073 7.1026 30.6073C8.84311 30.6073 8.84311 32.1984 10.5836 32.1984C12.3241 32.1984 12.3241 30.6073 14.0647 30.6073C15.805 30.6073 15.805 32.1984 17.5451 32.1984C19.2855 32.1984 19.2855 30.6073 21.0257 30.6073C22.7663 30.6073 22.7663 32.1984 24.5068 32.1984C26.2473 32.1984 26.2473 30.6073 27.9876 30.6073C29.7279 30.6073 29.7279 32.1984 31.4682 32.1984C33.2085 32.1984 33.2085 30.6073 34.9488 30.6073C36.6893 30.6073 36.6893 32.1984 38.4296 32.1984C38.6362 32.1984 38.8179 32.1757 38.9813 32.1362C39.7356 30.8699 40.36 29.5173 40.8354 28.0964C40.0503 28.5509 39.7118 29.4139 38.4296 29.4139C36.6894 29.4138 36.6894 27.8225 34.9489 27.8225Z" fill="#0052B4"/>
<path d="M41.4249 16.9744C40.1527 17.2385 39.9906 18.5173 38.4298 18.5173C36.6894 18.5173 36.6894 16.926 34.949 16.926C33.2086 16.926 33.2086 18.5173 31.4684 18.5173C29.7281 18.5173 29.728 16.926 27.9877 16.926C26.2474 16.926 26.2474 18.5173 24.5069 18.5173C22.7665 18.5173 22.7664 16.926 21.0259 16.926C20.0855 16.926 19.6532 17.3905 19.1799 17.8177V20.6023C19.6532 20.1752 20.0855 19.7108 21.0259 19.7108C22.7664 19.7108 22.7664 21.3019 24.5069 21.3019C26.2475 21.3019 26.2475 19.7108 27.9877 19.7108C29.7281 19.7108 29.7281 21.3019 31.4684 21.3019C33.2086 21.3019 33.2087 19.7108 34.949 19.7108C36.6895 19.7108 36.6895 21.3019 38.4298 21.3019C40.0401 21.3019 40.1616 19.941 41.5488 19.7372C41.6377 19.7372 41.7371 19.7363 41.8388 19.7351C41.7617 18.7958 41.6222 17.8743 41.4249 16.9744Z" fill="#0052B4"/>
<path d="M39.899 12.5146C39.5384 12.8175 39.1215 13.0691 38.4295 13.0691C36.6892 13.0691 36.6892 11.4778 34.9487 11.4778C33.2084 11.4778 33.2084 13.0691 31.4681 13.0691C29.7279 13.0691 29.7278 11.4778 27.9875 11.4778C26.2472 11.4778 26.2471 13.0691 24.5067 13.0691C22.7663 13.0691 22.7662 11.4778 21.0257 11.4778C20.0853 11.4778 19.6529 11.9423 19.1797 12.3695V15.154C19.6529 14.727 20.0852 14.2625 21.0257 14.2625C22.7662 14.2625 22.7662 15.8537 24.5067 15.8537C26.2471 15.8537 26.2471 14.2625 27.9874 14.2625C29.7278 14.2625 29.7278 15.8537 31.468 15.8537C33.2083 15.8537 33.2083 14.2625 34.9487 14.2625C36.6892 14.2625 36.6892 15.8537 38.4295 15.8537C39.6643 15.8537 40.024 15.0538 40.7501 14.5886C40.5027 13.8791 40.2185 13.1869 39.899 12.5146Z" fill="#0052B4"/>
<path d="M35.0977 6.03378C35.0494 6.03117 35.0002 6.02954 34.9491 6.02954C33.2087 6.02954 33.2087 7.62085 31.4684 7.62085C29.7281 7.62085 29.7281 6.02954 27.9878 6.02954C26.2475 6.02954 26.2475 7.62085 24.5069 7.62085C22.7664 7.62085 22.7664 6.02954 21.0259 6.02954C20.0855 6.02954 19.6532 6.49406 19.1799 6.92121V9.70579C19.6532 9.27872 20.0855 8.81428 21.0259 8.81428C22.7664 8.81428 22.7664 10.4054 24.5069 10.4054C26.2475 10.4054 26.2475 8.81428 27.9877 8.81428C29.7281 8.81428 29.7281 10.4054 31.4684 10.4054C33.2086 10.4054 33.2087 8.81428 34.949 8.81428C36.6895 8.81428 36.6895 10.4054 38.4298 10.4054C38.537 10.4054 38.6371 10.3991 38.7319 10.3877C37.721 8.77537 36.497 7.31043 35.0977 6.03378Z" fill="#0052B4"/>
<path d="M26.3638 1.27106C25.8861 1.70082 25.4544 2.17285 24.5065 2.17285C22.766 2.17285 22.766 0.581706 21.0255 0.581543H21.0252C20.1252 0.581625 19.6907 1.00723 19.2401 1.41831V4.20297C19.6906 3.79189 20.1253 3.3662 21.0255 3.3662C22.766 3.3662 22.766 4.95735 24.5066 4.95735C26.247 4.95735 26.247 3.3662 27.9874 3.3662C29.7277 3.3662 29.7277 4.95735 31.468 4.95735C32.1982 4.95735 32.6218 4.67704 32.9964 4.35186C31.011 2.96051 28.7726 1.906 26.3638 1.27106Z" fill="#0052B4"/>
<path d="M24.5064 40.3097C22.7659 40.3097 22.7659 38.7183 21.0254 38.7183C19.285 38.7183 19.285 40.3097 17.5448 40.3097C15.8047 40.3097 15.8047 38.7183 14.0643 38.7183C12.7312 38.7183 12.4185 39.6511 11.5635 40.0882C13.9212 41.2886 16.5372 42.0538 19.3061 42.2795C19.7343 41.8882 20.1693 41.503 21.0254 41.503C21.8817 41.503 22.3167 41.8882 22.745 42.2796C25.5139 42.0539 28.1301 41.2887 30.4879 40.0883C29.6328 39.6513 29.3201 38.7183 27.9872 38.7183C26.2469 38.7183 26.2469 40.3097 24.5064 40.3097Z" fill="#0052B4"/>
<path d="M31.4683 34.8621C29.7279 34.8621 29.7279 33.2708 27.9876 33.2708C26.2473 33.2708 26.2473 34.8621 24.5068 34.8621C22.7663 34.8621 22.7663 33.2708 21.0258 33.2708C19.2855 33.2708 19.2855 34.8621 17.5452 34.8621C15.8051 34.8621 15.8051 33.2708 14.0647 33.2708C12.3242 33.2708 12.3242 34.8621 10.5837 34.8621C8.84319 34.8621 8.84319 33.2708 7.10267 33.2708C5.85115 33.2708 5.4997 34.0939 4.75365 34.556C5.22127 35.1367 5.71842 35.6926 6.24453 36.2196C6.48021 36.119 6.75677 36.0554 7.10259 36.0554C8.8431 36.0554 8.8431 37.6466 10.5836 37.6466C12.3241 37.6466 12.3241 36.0554 14.0647 36.0554C15.805 36.0554 15.805 37.6466 17.5451 37.6466C19.2855 37.6466 19.2855 36.0554 21.0257 36.0554C22.7663 36.0554 22.7663 37.6466 24.5068 37.6466C26.2473 37.6466 26.2473 36.0554 27.9876 36.0554C29.7278 36.0554 29.7279 37.6466 31.4682 37.6466C33.2084 37.6466 33.2085 36.0554 34.9488 36.0554C35.295 36.0554 35.5716 36.119 35.8074 36.2198C36.3336 35.6927 36.8308 35.1368 37.2984 34.5561C36.5523 34.0941 36.2008 33.2708 34.9489 33.2708C33.2085 33.2708 33.2085 34.8621 31.4683 34.8621Z" fill="#0052B4"/>
<path d="M20.9707 21.466H21.0266C21.0266 21.4473 21.0266 21.429 21.0266 21.4102C21.008 21.4288 20.9894 21.4474 20.9707 21.466Z" fill="#F0F0F0"/>
<path d="M21.0252 11.4763V17.6122L13.761 10.5684L21.0252 11.4763Z" fill="#0052B4"/>
<path d="M11.037 21.4652H17.1726L11.0369 13.293L10.1289 19.6491L11.037 21.4652Z" fill="#0052B4"/>
<path d="M21.0262 11.4773C21.0262 7.80254 21.0262 5.3947 21.0262 0.581055H21.0226C9.49005 0.583013 0.141602 9.93252 0.141602 21.4656H11.038V15.3299L17.1736 21.4656H20.9704C20.989 21.447 21.0076 21.4284 21.0262 21.4097C21.0262 20.0027 21.0262 18.7473 21.0262 17.6132L14.8903 11.4773H21.0262Z" fill="#F0F0F0"/>
<path d="M10.7071 3.30469C7.44066 5.16464 4.72518 7.88012 2.86523 11.1465V21.4652H8.31341V8.75303V8.75286H21.0257C21.0257 7.03454 21.0257 5.39755 21.0257 3.30469H10.7071Z" fill="#D80027"/>
<path d="M21.0256 18.8973L13.6055 11.4773H11.0373V11.4775L21.0254 21.4655H21.0256C21.0256 21.4655 21.0256 19.6946 21.0256 18.8973Z" fill="#D80027"/>
<path d="M27.382 11.4775H35.5542L31.4681 15.5637L27.382 11.4775Z" fill="#6DA544"/>
<path d="M30.5602 14.6555H32.3766V19.6505H30.5602V14.6555Z" fill="#A2001D"/>
<path d="M30.5602 27.8215H32.3766V32.8165H30.5602V27.8215Z" fill="#A2001D"/>
<path d="M36.9163 25.0974C36.9163 23.593 35.6967 22.3733 34.1922 22.3733C33.4944 22.3733 32.8582 22.636 32.3762 23.0675V21.4653H33.2842V19.6492H32.3762V18.7412H30.5601V19.6492H29.6521V21.4653H30.5601V23.0675C30.0781 22.636 29.4419 22.3733 28.7441 22.3733C27.2396 22.3733 26.02 23.593 26.02 25.0974C26.02 25.904 26.3709 26.6284 26.928 27.1273V28.7295H36.0082V27.1273C36.5654 26.6284 36.9163 25.904 36.9163 25.0974Z" fill="#FFDA44"/>
<path d="M34.1923 24.1895C33.9059 24.1895 33.7053 24.3153 33.5875 24.4207L32.3762 25.5049H30.5603L29.349 24.4207C29.2312 24.3153 29.0306 24.1895 28.7442 24.1895C28.2435 24.1895 27.8362 24.5968 27.8362 25.0974C27.8362 25.4501 28.0264 25.6729 28.1397 25.7745L28.7443 26.3158V26.9135H34.1925V26.3158L34.797 25.7745C34.9104 25.673 35.1005 25.4501 35.1005 25.0974C35.1004 24.5968 34.693 24.1895 34.1923 24.1895Z" fill="#D80027"/>
</g>
<defs>
<clipPath id="clip0_299_2522">
<rect width="41.7691" height="41.7691" fill="white" transform="translate(0.141602 0.581055)"/>
</clipPath>
</defs>
</svg>
