<svg width="43" height="43" viewBox="0 0 43 43" fill="none" xmlns="http://www.w3.org/2000/svg">
<g clip-path="url(#clip0_299_2573)">
<path d="M21.8277 42.3461C33.3599 42.3461 42.7087 32.9973 42.7087 21.465C42.7087 9.93275 33.3599 0.583984 21.8277 0.583984C10.2954 0.583984 0.946609 9.93275 0.946609 21.465C0.946609 32.9973 10.2954 42.3461 21.8277 42.3461Z" fill="#F0F0F0"/>
<path d="M3.74413 11.0244C2.80163 12.6567 2.1064 14.3632 1.64343 16.1014L36.5645 36.2632C37.8384 34.9931 38.9688 33.5376 39.911 31.9055L3.74413 11.0244Z" fill="black"/>
<path d="M32.2681 3.38162C23.913 -1.44214 13.611 0.165562 7.09056 6.66686L42.0117 26.8285C44.3818 17.9312 40.6231 8.20546 32.2681 3.38162Z" fill="#FFDA44"/>
<path d="M11.3874 39.5489C19.7424 44.3726 30.0446 42.7649 36.5649 36.2637L1.6437 16.1018C-0.72629 24.9994 3.03228 34.7251 11.3874 39.5489Z" fill="#FFDA44"/>
<path d="M27.7277 19.1939C27.7277 22.4529 25.0856 25.0951 21.8265 25.0951C18.5674 25.0951 15.9253 22.453 15.9253 19.1939C15.9253 18.1777 16.1822 17.2215 16.6346 16.3867C15.3541 17.6963 14.5635 19.4872 14.5635 21.4635C14.5635 25.4748 17.8152 28.7266 21.8265 28.7266C25.8378 28.7266 29.0895 25.4748 29.0895 21.4635C29.0895 19.4872 28.299 17.6963 27.0183 16.3867C27.4708 17.2217 27.7277 18.1777 27.7277 19.1939Z" fill="#D80027"/>
<path d="M20.4651 12.3857H23.1888V26.0039H20.4651V12.3857Z" fill="#D80027"/>
<path d="M26.3665 15.1094H17.2878C17.2878 15.7362 17.8338 16.2442 18.4605 16.2442H18.4227C18.4227 16.871 18.9308 17.3791 19.5575 17.3791C19.5575 18.0059 20.0657 18.514 20.6924 18.514H22.962C23.5888 18.514 24.0969 18.0059 24.0969 17.3791C24.7237 17.3791 25.2318 16.871 25.2318 16.2442H25.194C25.8205 16.2442 26.3665 15.7362 26.3665 15.1094Z" fill="#D80027"/>
<path d="M15.472 26.9119H28.1822V29.6355H15.472V26.9119Z" fill="#D80027"/>
<path d="M24.5504 27.8193H29.9985V30.5435H24.5504V27.8193Z" fill="#D80027"/>
<path d="M13.6562 27.8193H19.1044V30.5435H13.6562V27.8193Z" fill="#D80027"/>
</g>
<defs>
<clipPath id="clip0_299_2573">
<rect width="41.7682" height="41.7682" fill="white" transform="translate(0.943848 0.581055)"/>
</clipPath>
</defs>
</svg>
