<svg width="43" height="43" viewBox="0 0 43 43" fill="none" xmlns="http://www.w3.org/2000/svg">
<g clip-path="url(#clip0_299_2586)">
<path d="M42.1138 21.4652C42.1138 18.9106 41.6544 16.4634 40.8148 14.201L21.2293 13.293L1.64373 14.201C0.804268 16.4634 0.344727 18.9106 0.344727 21.4652C0.344727 24.0198 0.804268 26.467 1.64373 28.7293L21.2293 29.6374L40.8148 28.7294C41.6544 26.467 42.1138 24.0198 42.1138 21.4652Z" fill="#496E2D"/>
<path d="M21.2292 42.3499C30.2088 42.3499 37.8639 36.6823 40.8148 28.7295H1.64365C4.59449 36.6823 12.2496 42.3499 21.2292 42.3499Z" fill="#D80027"/>
<path d="M1.64355 14.2015H40.8147C37.8638 6.2486 30.2087 0.581055 21.2291 0.581055C12.2495 0.581055 4.5944 6.2486 1.64355 14.2015Z" fill="#F0F0F0"/>
</g>
<defs>
<clipPath id="clip0_299_2586">
<rect width="41.7691" height="41.7691" fill="white" transform="translate(0.344238 0.581055)"/>
</clipPath>
</defs>
</svg>
