<svg width="43" height="43" viewBox="0 0 43 43" fill="none" xmlns="http://www.w3.org/2000/svg">
<g clip-path="url(#clip0_299_2590)">
<path d="M0.745117 21.4656C0.745117 9.93146 10.0955 0.581055 21.6297 0.581055C33.1638 0.581055 42.5142 9.93146 42.5142 21.4656C41.6062 21.4656 21.6297 24.1897 21.6297 24.1897L0.745117 21.4656Z" fill="#D80027"/>
<path d="M42.5142 21.4658C42.5142 33 33.1638 42.3504 21.6297 42.3504C10.0955 42.3504 0.745117 33 0.745117 21.4658" fill="#6DA544"/>
<path d="M21.6298 14.2012L23.2073 19.0567H28.3132L24.1826 22.0577L25.7602 26.9135L21.6298 23.9126L17.4993 26.9135L19.0771 22.0577L14.9465 19.0567H20.0521L21.6298 14.2012Z" fill="#FFDA44"/>
</g>
<defs>
<clipPath id="clip0_299_2590">
<rect width="41.7691" height="41.7691" fill="white" transform="translate(0.745117 0.581055)"/>
</clipPath>
</defs>
</svg>
