<svg width="42" height="43" viewBox="0 0 42 43" fill="none" xmlns="http://www.w3.org/2000/svg">
<g clip-path="url(#clip0_299_2594)">
<path d="M21.0194 42.7515C32.5536 42.7515 41.904 33.4012 41.904 21.867C41.904 10.3328 32.5536 0.982422 21.0194 0.982422C9.48519 0.982422 0.134857 10.3328 0.134857 21.867C0.134857 33.4012 9.48519 42.7515 21.0194 42.7515Z" fill="#F0F0F0"/>
<path d="M33.7357 5.29856C26.2587 -0.454974 15.7799 -0.454974 8.30289 5.29848L21.0193 18.0149L33.7357 5.29856Z" fill="#D80027"/>
<path d="M21.0191 25.7201L8.30289 38.4364C15.7799 44.1899 26.2587 44.1899 33.7357 38.4364L21.0193 25.72L21.0191 25.7201Z" fill="#D80027"/>
<path d="M17.1673 21.8668L4.45095 9.15039C-1.30258 16.6274 -1.30258 27.1062 4.45095 34.5832L17.1673 21.8668Z" fill="#6DA544"/>
<path d="M24.8723 21.8668L37.5886 34.5832C43.3421 27.1062 43.3421 16.6274 37.5886 9.15039L24.8723 21.8668Z" fill="#6DA544"/>
<path d="M21.0192 30.9466C26.0341 30.9466 30.0994 26.8812 30.0994 21.8663C30.0994 16.8515 26.0341 12.7861 21.0192 12.7861C16.0044 12.7861 11.939 16.8515 11.939 21.8663C11.939 26.8812 16.0044 30.9466 21.0192 30.9466Z" fill="#F0F0F0"/>
<path d="M21.0194 15.5107L21.8059 16.873H23.379L22.5924 18.2353L23.379 19.5976H21.8059L21.0194 20.9599L20.233 19.5976H18.66L19.4465 18.2353L18.66 16.873H20.233L21.0194 15.5107Z" fill="#D80027"/>
<path d="M17.0224 21.8669L17.8089 23.2292H19.3819L18.5954 24.5915L19.3819 25.9538H17.8089L17.0224 27.3161L16.2359 25.9538H14.6629L15.4494 24.5915L14.6629 23.2292H16.2359L17.0224 21.8669Z" fill="#D80027"/>
<path d="M25.0166 21.8669L25.8031 23.2292H27.3761L26.5896 24.5915L27.3761 25.9538H25.8031L25.0166 27.3161L24.2301 25.9538H22.6571L23.4436 24.5915L22.6571 23.2292H24.2301L25.0166 21.8669Z" fill="#D80027"/>
</g>
<defs>
<clipPath id="clip0_299_2594">
<rect width="41.7691" height="41.7691" fill="white" transform="translate(0.135315 0.982422)"/>
</clipPath>
</defs>
</svg>
