<svg width="43" height="43" viewBox="0 0 43 43" fill="none" xmlns="http://www.w3.org/2000/svg">
<g clip-path="url(#clip0_299_2607)">
<path d="M0.536743 21.8666C0.536743 25.4847 1.45721 28.8877 3.07609 31.8549L21.4213 33.6709L39.7665 31.8549C41.3854 28.8877 42.3058 25.4847 42.3058 21.8666C42.3058 18.2485 41.3854 14.8455 39.7665 11.8783L21.4213 10.0623L3.07609 11.8783C1.45721 14.8455 0.536743 18.2485 0.536743 21.8666H0.536743Z" fill="#D80027"/>
<path d="M3.07648 11.8787H39.7668C36.2248 5.38686 29.3378 0.982422 21.4217 0.982422C13.5055 0.982422 6.61861 5.38686 3.07648 11.8787Z" fill="#0052B4"/>
<path d="M21.4217 42.7517C29.3378 42.7517 36.2248 38.3473 39.7669 31.8555H3.07648C6.61861 38.3473 13.5055 42.7517 21.4217 42.7517Z" fill="#0052B4"/>
<path d="M28.6853 25.953V23.229H26.8693V19.5969L25.0533 17.7808L23.2372 19.5969V15.9647L21.4211 14.1487L19.6051 15.9647V19.5969L17.789 17.7808L15.973 19.5969V23.229H14.157V25.953H12.3409V28.6771H30.5014V25.953H28.6853Z" fill="#F0F0F0"/>
</g>
<defs>
<clipPath id="clip0_299_2607">
<rect width="41.7691" height="41.7691" fill="white" transform="translate(0.536438 0.982422)"/>
</clipPath>
</defs>
</svg>
