<svg width="43" height="43" viewBox="0 0 43 43" fill="none" xmlns="http://www.w3.org/2000/svg">
<g clip-path="url(#clip0_299_2613)">
<path d="M30.9025 3.05472C28.1569 1.72709 25.0766 0.982422 21.8223 0.982422C18.5681 0.982422 15.4878 1.72709 12.7421 3.05472L10.9261 21.867L12.7421 40.6792C15.4878 42.0069 18.5681 42.7515 21.8223 42.7515C25.0766 42.7515 28.1569 42.0069 30.9025 40.6792L32.7186 21.867L30.9025 3.05472Z" fill="#D80027"/>
<path d="M21.8215 14.6025L23.6245 20.1515H29.4597L24.7392 23.5815L26.5422 29.1308L21.8215 25.7011L17.1009 29.1308L18.9042 23.5815L14.1837 20.1515H20.0185L21.8215 14.6025Z" fill="#FFDA44"/>
<path d="M12.7421 3.05566C5.75638 6.43358 0.937759 13.5873 0.937759 21.8672C0.937759 30.1471 5.75638 37.3008 12.7421 40.6787V3.05566Z" fill="#496E2D"/>
<path d="M30.9024 3.05566V40.6787C37.8881 37.3008 42.7068 30.147 42.7068 21.8672C42.7068 13.5874 37.8881 6.43358 30.9024 3.05566Z" fill="#FFDA44"/>
</g>
<defs>
<clipPath id="clip0_299_2613">
<rect width="41.7691" height="41.7691" fill="white" transform="translate(0.937576 0.982422)"/>
</clipPath>
</defs>
</svg>
