<svg width="43" height="43" viewBox="0 0 43 43" fill="none" xmlns="http://www.w3.org/2000/svg">
<g clip-path="url(#clip0_299_2618)">
<path d="M21.2231 42.7515C32.7573 42.7515 42.1077 33.4012 42.1077 21.867C42.1077 10.3328 32.7573 0.982422 21.2231 0.982422C9.6889 0.982422 0.338566 10.3328 0.338566 21.867C0.338566 33.4012 9.6889 42.7515 21.2231 42.7515Z" fill="#F0F0F0"/>
<path d="M42.1087 21.8669C42.1087 13.587 37.2902 6.43276 30.3044 3.05469V40.6791C37.2902 37.3011 42.1087 30.1468 42.1087 21.8669Z" fill="#D80027"/>
<path d="M0.339691 21.8669C0.339691 30.1469 5.15823 37.3011 12.144 40.6792V3.05469C5.15823 6.43276 0.339691 13.587 0.339691 21.8669Z" fill="#D80027"/>
<path d="M24.8565 24.5907L28.4885 22.7747L26.6725 21.8667V20.0506L23.0404 21.8667L24.8565 18.2345H23.0404L21.2243 15.5105L19.4083 18.2345H17.5922L19.4083 21.8667L15.7762 20.0506V21.8667L13.9602 22.7747L17.5922 24.5907L16.6842 26.4068H20.3164V29.1308H22.1323V26.4068H25.7645L24.8565 24.5907Z" fill="#D80027"/>
</g>
<defs>
<clipPath id="clip0_299_2618">
<rect width="41.7691" height="41.7691" fill="white" transform="translate(0.338715 0.982422)"/>
</clipPath>
</defs>
</svg>
