<svg width="43" height="43" viewBox="0 0 43 43" fill="none" xmlns="http://www.w3.org/2000/svg">
<g clip-path="url(#clip0_299_2624)">
<path d="M21.6249 0.982422C19.0703 0.982422 16.6231 1.44196 14.3607 2.28142L13.4527 21.867L14.3606 41.4525C16.6231 42.2921 19.0703 42.7515 21.6249 42.7515C24.1795 42.7515 26.6266 42.2921 28.889 41.4525L29.7971 21.867L28.8891 2.28142C26.6266 1.44196 24.1795 0.982422 21.6249 0.982422V0.982422Z" fill="#338AF3"/>
<path d="M42.5093 21.8668C42.5093 12.8872 36.8418 5.23209 28.8889 2.28125V41.4524C36.8418 38.5015 42.5093 30.8464 42.5093 21.8668Z" fill="#FFDA44"/>
<path d="M14.361 41.4524V2.28125C6.40813 5.23209 0.740587 12.8872 0.740587 21.8668C0.740587 30.8464 6.40813 38.5015 14.361 41.4524Z" fill="#F0F0F0"/>
</g>
<defs>
<clipPath id="clip0_299_2624">
<rect width="41.7691" height="41.7691" fill="white" transform="translate(0.740417 0.982422)"/>
</clipPath>
</defs>
</svg>
