<svg width="42" height="43" viewBox="0 0 42 43" fill="none" xmlns="http://www.w3.org/2000/svg">
<g clip-path="url(#clip0_299_2628)">
<path d="M21.0261 42.7515C32.5603 42.7515 41.9106 33.4012 41.9106 21.867C41.9106 10.3328 32.5603 0.982422 21.0261 0.982422C9.49187 0.982422 0.141541 10.3328 0.141541 21.867C0.141541 33.4012 9.49187 42.7515 21.0261 42.7515Z" fill="#F0F0F0"/>
<path d="M21.0258 42.7515C27.3557 42.7515 33.0274 39.935 36.8574 35.4873H5.19427C9.02422 39.935 14.6959 42.7515 21.0258 42.7515Z" fill="#0052B4"/>
<path d="M41.9106 21.867C41.9106 10.3328 32.5602 0.982422 21.0261 0.982422C9.49195 0.982422 0.141541 10.3328 0.141541 21.867C0.141541 23.7521 0.392808 25.578 0.860997 27.3152H41.1913C41.6594 25.578 41.9106 23.7521 41.9106 21.867Z" fill="#0052B4"/>
<path d="M1.80114 30.0391C2.20374 30.9851 2.67438 31.8949 3.20652 32.7631H38.845C39.377 31.8948 39.8477 30.985 40.2504 30.0391H1.80114Z" fill="#D80027"/>
<path d="M15.0704 23.2285L15.4086 24.2692H16.5028L15.6176 24.9124L15.9557 25.953L15.0704 25.3098L14.1851 25.953L14.5234 24.9124L13.6381 24.2692H14.7324L15.0704 23.2285Z" fill="#FFDA44"/>
<path d="M15.0704 36.8486L15.4086 37.8894H16.5028L15.6176 38.5325L15.9557 39.5732L15.0704 38.93L14.1851 39.5732L14.5234 38.5325L13.6381 37.8894H14.7324L15.0704 36.8486Z" fill="#FFDA44"/>
<path d="M8.73028 32.2432L9.06841 33.2837H10.1627L9.27746 33.9269L9.61558 34.9677L8.73028 34.3245L7.84498 34.9677L8.18327 33.9269L7.29797 33.2837H8.39216L8.73028 32.2432Z" fill="#FFDA44"/>
<path d="M11.1523 24.5908L11.4905 25.6316H12.5846L11.6995 26.2747L12.0376 27.3154L11.1523 26.6722L10.267 27.3154L10.6053 26.2747L9.71995 25.6316H10.8142L11.1523 24.5908Z" fill="#FFDA44"/>
<path d="M7.29816 28.8758L8.39218 28.8759L8.73038 27.835L9.06859 28.8758L10.1629 28.8757L9.27756 29.5189L9.61577 30.5596L8.73038 29.9164L7.84517 30.5594L8.18329 29.5188L7.29816 28.8758Z" fill="#FFDA44"/>
<path d="M10.2671 38.0124L10.6052 36.972L9.71985 36.3288H10.8141L11.1523 35.2881L11.4905 36.3287H12.5847L11.6994 36.9719L12.0375 38.0127L11.1522 37.3694L10.2671 38.0124Z" fill="#FFDA44"/>
<path d="M21.408 32.2432L21.07 33.2837H19.9757L20.8608 33.9269L20.5227 34.9677L21.408 34.3245L22.2933 34.9677L21.9551 33.9269L22.8404 33.2837H21.7461L21.408 32.2432Z" fill="#FFDA44"/>
<path d="M18.9865 24.5906L18.6485 25.6313H17.5542L18.4393 26.2744L18.1012 27.3152L18.9865 26.672L19.8718 27.3152L19.5336 26.2744L20.4189 25.6313H19.3246L18.9865 24.5906Z" fill="#FFDA44"/>
<path d="M22.8407 28.8758L21.7466 28.8759L21.4083 27.835L21.0702 28.8758L19.976 28.8757L20.8612 29.5189L20.523 30.5596L21.4083 29.9164L22.2936 30.5594L21.9554 29.5188L22.8407 28.8758Z" fill="#FFDA44"/>
<path d="M19.8719 38.0124L19.5339 36.972L20.4192 36.3288H19.3249L18.9867 35.2881L18.6486 36.3287H17.5543L18.4396 36.9719L18.1015 38.0127L18.9868 37.3694L19.8719 38.0124Z" fill="#FFDA44"/>
</g>
<defs>
<clipPath id="clip0_299_2628">
<rect width="41.7691" height="41.7691" fill="white" transform="translate(0.141541 0.982422)"/>
</clipPath>
</defs>
</svg>
