<svg width="43" height="43" viewBox="0 0 43 43" fill="none" xmlns="http://www.w3.org/2000/svg">
<g clip-path="url(#clip0_299_2645)">
<path d="M42.3115 21.867C42.3115 33.4011 32.9611 42.7515 21.4269 42.7515C9.89278 42.7515 0.542374 33.4011 0.542374 21.867C0.542374 21.872 21.4269 0.984706 21.4269 0.982422C32.9611 0.982422 42.3115 10.3328 42.3115 21.867Z" fill="#0052B4"/>
<path d="M21.3708 21.8674H21.4267C21.4267 21.8486 21.4267 21.8304 21.4267 21.8115C21.4081 21.8302 21.3895 21.8488 21.3708 21.8674Z" fill="#F0F0F0"/>
<path d="M21.4267 11.8787C21.4267 8.20391 21.4267 5.79607 21.4267 0.982422H21.4232C9.89054 0.98438 0.542175 10.3339 0.542175 21.867H11.4384V15.7312L17.5742 21.867H21.3709C21.3895 21.8484 21.4081 21.8298 21.4268 21.8111C21.4268 20.4041 21.4268 19.1486 21.4268 18.0146L15.2909 11.8787H21.4267Z" fill="#F0F0F0"/>
<path d="M30.5071 16.4185C32.513 16.4185 34.1392 14.7924 34.1392 12.7864C34.1392 10.7805 32.513 9.1543 30.5071 9.1543C28.5011 9.1543 26.8749 10.7805 26.8749 12.7864C26.8749 14.7924 28.5011 16.4185 30.5071 16.4185Z" fill="#6DA544"/>
<path d="M11.1076 3.70703C7.84122 5.56698 5.12566 8.28246 3.26579 11.5489V21.8675H8.71397V9.15537V9.15521H21.4263C21.4263 7.43688 21.4263 5.79989 21.4263 3.70703H11.1076Z" fill="#D80027"/>
<path d="M21.4262 19.2991L14.006 11.8792H11.4379V11.8793L21.426 21.8674H21.4262C21.4262 21.8674 21.4262 20.0965 21.4262 19.2991Z" fill="#D80027"/>
<path d="M24.1505 11.8792H36.8628V17.3273H24.1505V11.8792Z" fill="#D80027"/>
<path d="M24.1506 25.499V29.1311H26.0615C27.2073 30.254 28.7757 30.9472 30.5067 30.9472C32.2378 30.9472 33.8062 30.254 34.952 29.1311H35.0468H36.8629V25.499H24.1506Z" fill="#FFDA44"/>
<path d="M24.1506 16.4189V21.8671C24.1506 26.7325 30.5067 28.2233 30.5067 28.2233C30.5067 28.2233 36.8629 26.7325 36.8629 21.8671V16.4189H24.1506Z" fill="#338AF3"/>
<path d="M30.507 19.3293C28.9181 19.3293 28.9181 20.7822 27.3292 20.7822C25.7402 20.7822 25.7402 19.3293 24.1513 19.3293V21.8718C25.7402 21.8718 25.7402 23.3247 27.3292 23.3247C28.9181 23.3247 28.9181 21.8718 30.507 21.8718C32.0961 21.8718 32.0961 23.3247 33.6853 23.3247C35.2745 23.3247 35.2744 21.8718 36.8636 21.8718V19.3293C35.2745 19.3293 35.2745 20.7822 33.6853 20.7822C32.0961 20.7822 32.0961 19.3293 30.507 19.3293Z" fill="#F3F3F3"/>
<path d="M30.507 14.2395C28.9181 14.2395 28.9181 15.6924 27.3292 15.6924C25.7402 15.6924 25.7402 14.2395 24.1513 14.2395V16.782C25.7402 16.782 25.7402 18.2348 27.3292 18.2348C28.9181 18.2348 28.9181 16.782 30.507 16.782C32.0961 16.782 32.0961 18.2348 33.6853 18.2348C35.2745 18.2348 35.2744 16.782 36.8636 16.782V14.2395C35.2745 14.2395 35.2745 15.6924 33.6853 15.6924C32.0961 15.6924 32.0961 14.2395 30.507 14.2395Z" fill="#F3F3F3"/>
</g>
<defs>
<clipPath id="clip0_299_2645">
<rect width="41.7691" height="41.7691" fill="white" transform="translate(0.542664 0.982422)"/>
</clipPath>
</defs>
</svg>
