<svg width="43" height="43" viewBox="0 0 43 43" fill="none" xmlns="http://www.w3.org/2000/svg">
<g clip-path="url(#clip0_299_2664)">
<path d="M21.828 42.7501C33.3622 42.7501 42.7126 33.3997 42.7126 21.8655C42.7126 10.3313 33.3622 0.980957 21.828 0.980957C10.2938 0.980957 0.943451 10.3313 0.943451 21.8655C0.943451 33.3997 10.2938 42.7501 21.828 42.7501Z" fill="#F0F0F0"/>
<path d="M40.1727 11.8772C37.474 6.93104 32.8335 3.1972 27.2757 1.69922L26.3677 11.8772H40.1727Z" fill="#0052B4"/>
<path d="M3.48228 11.8772H17.2873L16.3793 1.69922C10.8215 3.1972 6.18104 6.93113 3.48228 11.8772Z" fill="#0052B4"/>
<path d="M26.3685 21.865V31.8533H40.1735C41.7925 28.8861 42.713 25.4831 42.713 21.865H26.3685Z" fill="#6DA544"/>
<path d="M17.2883 21.865H0.943848C0.943848 25.4831 1.86432 28.8861 3.4832 31.8533H17.2882V21.865H17.2883Z" fill="#6DA544"/>
<path d="M3.48242 31.8542C6.18118 36.8004 10.8216 40.5342 16.3795 42.0322L17.2874 33.1311L3.48242 31.8542Z" fill="#FFDA44"/>
<path d="M27.2758 42.0322C32.8336 40.5342 37.4742 36.8004 40.1728 31.8542L26.3678 33.1309L27.2758 42.0322Z" fill="#FFDA44"/>
<path d="M26.3678 33.1309L40.1729 31.8542H26.3678V33.1309Z" fill="#FFDA44"/>
<path d="M17.2875 31.8542H3.48242L17.2875 33.1309V31.8542Z" fill="#FFDA44"/>
<path d="M21.8278 0.980957C19.9427 0.980957 18.1168 1.23222 16.3796 1.70041V42.0307C18.1168 42.4988 19.9427 42.7501 21.8278 42.7501C23.7129 42.7501 25.5388 42.4988 27.276 42.0306V1.70041C25.5388 1.23222 23.7129 0.980957 21.8278 0.980957V0.980957Z" fill="#D80027"/>
<path d="M12.1772 5.52124L12.7407 7.25569H14.5645L13.0891 8.32768L13.6527 10.0621L12.1772 8.99023L10.7017 10.0621L11.2654 8.32768L9.79004 7.25569H11.6138L12.1772 5.52124Z" fill="#FFDA44"/>
</g>
<defs>
<clipPath id="clip0_299_2664">
<rect width="41.7691" height="41.7691" fill="white" transform="translate(0.943848 0.981201)"/>
</clipPath>
</defs>
</svg>
