<svg width="43" height="43" viewBox="0 0 43 43" fill="none" xmlns="http://www.w3.org/2000/svg">
<g clip-path="url(#clip0_299_2679)">
<path d="M21.2298 42.7515C32.764 42.7515 42.1143 33.4012 42.1143 21.867C42.1143 10.3328 32.764 0.982422 21.2298 0.982422C9.69558 0.982422 0.345245 10.3328 0.345245 21.867C0.345245 33.4012 9.69558 42.7515 21.2298 42.7515Z" fill="#F0F0F0"/>
<path d="M21.2296 0.982422C15.4624 0.982422 10.2413 3.32002 6.46191 7.09931L21.2296 21.867V0.982422Z" fill="black"/>
<path d="M0.345215 21.8662C0.345215 27.6334 2.68282 32.8545 6.4621 36.6339L21.2298 21.8662H0.345215Z" fill="black"/>
<path d="M21.2295 42.7508C26.9966 42.7508 32.2178 40.4132 35.9972 36.6339L21.2295 21.8662V42.7508Z" fill="black"/>
<path d="M42.1142 21.8663C42.1142 16.0991 39.7766 10.878 35.9973 7.09863L21.2297 21.8663H42.1142Z" fill="black"/>
<path d="M13.9653 15.5103L21.2295 16.4186L28.4936 15.5103V11.1518L25.588 12.6047L21.2295 8.24609L16.871 12.6047L13.9653 11.1518V15.5103Z" fill="#FFDA44"/>
<path d="M21.2296 32.763C17.2241 32.763 13.9655 29.5043 13.9655 25.4989V18.235L16.6895 15.5107H25.7697L28.4938 18.235V25.4989C28.4938 29.5043 25.2351 32.763 21.2296 32.763Z" fill="#D80027"/>
<path d="M21.2296 30.0395C18.7261 30.0395 16.6895 28.0028 16.6895 25.4994V18.2354H25.7697V25.4993C25.7697 28.0028 23.733 30.0395 21.2296 30.0395Z" fill="#F0F0F0"/>
<path d="M13.9651 15.5107H16.6896V18.2353H13.9651V15.5107Z" fill="#FFDA44"/>
<path d="M25.7693 15.5107H28.4938V18.2353H25.7693V15.5107Z" fill="#FFDA44"/>
<path d="M25.7693 21.4131H28.4938V24.1376H25.7693V21.4131Z" fill="#FFDA44"/>
<path d="M13.9651 21.4131H16.6896V24.1376H13.9651V21.4131Z" fill="#FFDA44"/>
<path d="M21.2295 30.0394C20.755 30.0394 20.2975 29.9659 19.8672 29.8303V32.634C20.3088 32.7182 20.7638 32.764 21.2295 32.764C21.6953 32.764 22.1502 32.7182 22.5918 32.634V29.8303C22.1616 29.9659 21.7041 30.0394 21.2295 30.0394Z" fill="#FFDA44"/>
<path d="M16.7503 26.2363L14.576 28.4107C14.953 29.269 15.4908 30.0408 16.1519 30.6878L18.0775 28.7622C17.3903 28.0982 16.9116 27.2203 16.7503 26.2363Z" fill="#FFDA44"/>
<path d="M27.8831 28.4107L25.7088 26.2363C25.5474 27.2202 25.0687 28.0981 24.3816 28.7622L26.3073 30.6879C26.9682 30.0408 27.5061 29.2689 27.8831 28.4107Z" fill="#FFDA44"/>
<path d="M20.3214 19.7471V21.2606C20.3214 21.7621 20.728 22.1688 21.2295 22.1688C21.7311 22.1688 22.1377 21.7621 22.1377 21.2606V19.7471H20.3214Z" fill="#0052B4"/>
<path d="M20.3214 25.801V27.3146C20.3214 27.8161 20.728 28.2227 21.2295 28.2227C21.7311 28.2227 22.1377 27.8161 22.1377 27.3146V25.801H20.3214Z" fill="#0052B4"/>
<path d="M23.0454 22.7734V24.2872C23.0454 24.7887 23.452 25.1953 23.9536 25.1953C24.4551 25.1953 24.8617 24.7887 24.8617 24.2872V22.7734H23.0454Z" fill="#0052B4"/>
<path d="M20.3213 22.7734V24.2872C20.3213 24.7887 20.7279 25.1953 21.2294 25.1953C21.731 25.1953 22.1376 24.7887 22.1376 24.2872V22.7734H20.3213Z" fill="#0052B4"/>
<path d="M17.5972 22.7734V24.2872C17.5972 24.7887 18.0038 25.1953 18.5053 25.1953C19.0069 25.1953 19.4135 24.7887 19.4135 24.2872V22.7734H17.5972Z" fill="#0052B4"/>
</g>
<defs>
<clipPath id="clip0_299_2679">
<rect width="41.7691" height="41.7691" fill="white" transform="translate(0.344727 0.982422)"/>
</clipPath>
</defs>
</svg>
