<svg width="43" height="43" viewBox="0 0 43 43" fill="none" xmlns="http://www.w3.org/2000/svg">
<g clip-path="url(#clip0_299_2702)">
<path d="M21.6309 0.982422C19.0763 0.982422 16.6292 1.44196 14.3668 2.28142L13.4587 21.867L14.3667 41.4525C16.6292 42.2921 19.0763 42.7515 21.6309 42.7515C24.1855 42.7515 26.6327 42.2921 28.8951 41.4525L29.8032 21.867L28.8952 2.28142C26.6327 1.44196 24.1855 0.982422 21.6309 0.982422V0.982422Z" fill="#FFDA44"/>
<path d="M42.5154 21.8668C42.5154 12.8872 36.8478 5.23209 28.895 2.28125V41.4524C36.8478 38.5015 42.5154 30.8464 42.5154 21.8668Z" fill="#D80027"/>
<path d="M14.3668 41.4524V2.28125C6.41391 5.23209 0.746368 12.8872 0.746368 21.8668C0.746368 30.8464 6.41391 38.5015 14.3668 41.4524Z" fill="#0052B4"/>
</g>
<defs>
<clipPath id="clip0_299_2702">
<rect width="41.7691" height="41.7691" fill="white" transform="translate(0.746094 0.982422)"/>
</clipPath>
</defs>
</svg>
