<svg width="42" height="43" viewBox="0 0 42 43" fill="none" xmlns="http://www.w3.org/2000/svg">
<g clip-path="url(#clip0_299_2706)">
<path d="M21.0193 42.1529C32.5535 42.1529 41.9039 32.8026 41.9039 21.2683C41.9039 9.73412 32.5535 0.383789 21.0193 0.383789C9.4851 0.383789 0.134766 9.73412 0.134766 21.2683C0.134766 32.8026 9.4851 42.1529 21.0193 42.1529Z" fill="#F0F0F0"/>
<path d="M41.9039 21.2681C41.9039 32.8023 32.5535 42.1527 21.0193 42.1527C9.4852 42.1527 0.134796 32.8023 0.134796 21.2681C0.134796 9.73399 21.0193 21.2681 21.0193 21.2681C21.0193 21.2681 36.8264 21.2681 41.9039 21.2681Z" fill="#D80027"/>
<path d="M0.134766 21.2683C0.134766 9.73419 9.48517 0.383789 21.0193 0.383789V21.2683C21.0193 21.2683 7.39892 21.2683 0.134766 21.2683Z" fill="#0052B4"/>
<path d="M12.5667 7.64771L13.9191 11.8098H18.2953L14.7549 14.382L16.1072 18.5441L12.5667 15.9717L9.02631 18.5441L10.3786 14.382L6.83817 11.8098H11.2144L12.5667 7.64771Z" fill="#F0F0F0"/>
</g>
<defs>
<clipPath id="clip0_299_2706">
<rect width="41.7691" height="41.7691" fill="white" transform="translate(0.135254 0.383789)"/>
</clipPath>
</defs>
</svg>
