<svg width="43" height="43" viewBox="0 0 43 43" fill="none" xmlns="http://www.w3.org/2000/svg">
<g clip-path="url(#clip0_299_2711)">
<path d="M21.4217 42.1529C32.9559 42.1529 42.3062 32.8026 42.3062 21.2683C42.3062 9.73412 32.9559 0.383789 21.4217 0.383789C9.88744 0.383789 0.537109 9.73412 0.537109 21.2683C0.537109 32.8026 9.88744 42.1529 21.4217 42.1529Z" fill="#D80027"/>
<path d="M11.9665 13.0935L13.7694 18.641H19.6024L14.8871 22.0755L16.69 27.623L11.9665 24.1966L7.24298 27.623L9.05407 22.0755L4.33057 18.641H10.1636L11.9665 13.0935Z" fill="#FFDA44"/>
<path d="M25.2973 32.7305L23.9183 31.0334L21.8784 31.8248L23.0616 29.9889L21.6826 28.2836L23.7959 28.8466L24.9872 27.0107L25.1014 29.1975L27.2229 29.7605L25.1749 30.5438L25.2973 32.7305Z" fill="#FFDA44"/>
<path d="M28.038 27.7543L28.6907 25.6655L26.9038 24.4008L29.0905 24.3681L29.7351 22.2793L30.445 24.3518L32.6317 24.3273L30.8775 25.6328L31.5792 27.7053L29.7923 26.4406L28.038 27.7543Z" fill="#FFDA44"/>
<path d="M31.734 15.7119L30.7712 17.6784L32.3378 19.2042L30.1756 18.8941L29.2127 20.8524L28.8374 18.6983L26.667 18.3882L28.6089 17.3683L28.2336 15.2061L29.8002 16.7319L31.734 15.7119Z" fill="#FFDA44"/>
<path d="M25.3545 9.75684L25.1913 11.9354L27.223 12.7595L25.0934 13.2817L24.9383 15.4685L23.7879 13.6081L21.6582 14.1303L23.0698 12.4576L21.9112 10.6054L23.9429 11.4295L25.3545 9.75684Z" fill="#FFDA44"/>
</g>
<defs>
<clipPath id="clip0_299_2711">
<rect width="41.7691" height="41.7691" fill="white" transform="translate(0.536621 0.383789)"/>
</clipPath>
</defs>
</svg>
