<svg width="42" height="43" viewBox="0 0 42 43" fill="none" xmlns="http://www.w3.org/2000/svg">
<g clip-path="url(#clip0_299_2719)">
<path d="M20.9578 42.1529C32.492 42.1529 41.8423 32.8026 41.8423 21.2683C41.8423 9.73412 32.492 0.383789 20.9578 0.383789C9.42357 0.383789 0.0732422 9.73412 0.0732422 21.2683C0.0732422 32.8026 9.42357 42.1529 20.9578 42.1529Z" fill="#6DA544"/>
<path d="M32.1329 30.3477L32.7061 31.5462L34.0005 31.2471L33.4208 32.4425L34.4617 33.2679L33.1657 33.56L33.1694 34.8886L32.1329 34.0574L31.0965 34.8886L31.1 33.56L29.8041 33.2679L30.845 32.4425L30.2653 31.2471L31.5597 31.5462L32.1329 30.3477Z" fill="#FFDA44"/>
<path d="M26.8014 17.6355L27.3747 18.834L28.6691 18.5348L28.0894 19.7304L29.1303 20.5558L27.8343 20.8479L27.8379 22.1764L26.8014 21.3453L25.765 22.1764L25.7685 20.8479L24.4726 20.5558L25.5135 19.7304L24.9338 18.5348L26.2283 18.834L26.8014 17.6355Z" fill="#FFDA44"/>
<path d="M32.1328 10.3711L32.706 11.5696L34.0004 11.2703L33.4208 12.4659L34.4617 13.2914L33.1656 13.5834L33.1691 14.912L32.1328 14.0808L31.0964 14.912L31.1 13.5834L29.8041 13.2914L30.8449 12.4659L30.2653 11.2703L31.5596 11.5696L32.1328 10.3711Z" fill="#FFDA44"/>
<path d="M36.7898 15.8193L37.363 17.0179L38.6575 16.7187L38.0778 17.9142L39.1187 18.7396L37.8227 19.0317L37.8263 20.3603L36.7898 19.5291L35.7534 20.3603L35.7569 19.0317L34.461 18.7396L35.5019 17.9142L34.9222 16.7187L36.2166 17.0179L36.7898 15.8193Z" fill="#FFDA44"/>
<path d="M33.46 22.1758L33.911 23.5635H35.3699L34.1895 24.421L34.6405 25.8085L33.46 24.9511L32.2797 25.8085L32.7305 24.421L31.5502 23.5635H33.0092L33.46 22.1758Z" fill="#FFDA44"/>
<path d="M23.2275 27.1703C19.9678 27.1703 17.3253 24.5278 17.3253 21.2681C17.3253 18.0085 19.9677 15.366 23.2275 15.366C24.2439 15.366 25.2002 15.623 26.0351 16.0754C24.7253 14.7944 22.9343 14.0039 20.9573 14.0039C16.9455 14.0039 13.6932 17.2562 13.6932 21.2681C13.6932 25.2799 16.9455 28.5322 20.9573 28.5322C22.9342 28.5322 24.7253 27.7417 26.035 26.4607C25.2002 26.9133 24.2439 27.1703 23.2275 27.1703Z" fill="#FFDA44"/>
<path d="M13.2059 8.55532C12.5778 7.46997 11.4051 6.73926 10.0609 6.73926C8.71682 6.73926 7.54411 7.46997 6.91594 8.55532H13.2059Z" fill="#FFDA44"/>
<path d="M13.2182 8.57617L10.0611 11.7332L6.90405 8.57617C6.60228 9.10571 6.42908 9.71813 6.42908 10.3713C6.42908 12.3772 8.05522 14.0034 10.0612 14.0034C12.0672 14.0034 13.6933 12.3773 13.6933 10.3713C13.6932 9.71813 13.52 9.10571 13.2182 8.57617Z" fill="#FFDA44"/>
<path d="M9.15381 10.8252V13.8894C9.44404 13.9641 9.74839 14.0038 10.062 14.0038C10.3755 14.0038 10.6799 13.964 10.9701 13.8894V10.8252H9.15381Z" fill="#A2001D"/>
</g>
<defs>
<clipPath id="clip0_299_2719">
<rect width="41.7691" height="41.7691" fill="white" transform="translate(0.0732422 0.383789)"/>
</clipPath>
</defs>
</svg>
