<svg width="43" height="43" viewBox="0 0 43 43" fill="none" xmlns="http://www.w3.org/2000/svg">
<g clip-path="url(#clip0_299_2735)">
<path d="M21.2312 42.1529C32.7655 42.1529 42.1158 32.8026 42.1158 21.2683C42.1158 9.73412 32.7655 0.383789 21.2312 0.383789C9.69701 0.383789 0.34668 9.73412 0.34668 21.2683C0.34668 32.8026 9.69701 42.1529 21.2312 42.1529Z" fill="#F0F0F0"/>
<path d="M42.115 21.2073H19.4756C14.9808 25.7022 12.2627 29.1724 9.48734 31.9477L21.2917 33.0115L39.6092 31.1955C41.2078 28.2427 42.1157 24.8613 42.1157 21.2677C42.1157 21.2475 42.115 21.2275 42.115 21.2073Z" fill="#D80027"/>
<path d="M9.48773 11.2196H39.5429C35.991 4.76106 29.1228 0.383789 21.2315 0.383789C15.4796 0.383789 10.2719 2.70972 6.49512 6.47164L9.48773 11.2196Z" fill="#FFDA44"/>
<path d="M10.3955 31.1953C8.51805 33.0728 7.79248 34.6458 6.43408 36.0041C10.2157 39.8015 15.4487 42.1521 21.2313 42.1521C29.172 42.1521 36.0773 37.7203 39.6094 31.1953H10.3955Z" fill="#0052B4"/>
<path d="M6.46361 6.44043C-1.6923 14.5963 -1.6923 27.8198 6.46361 35.9758C9.83394 32.6054 13.0754 29.364 21.2313 21.2081L6.46361 6.44043Z" fill="#6DA544"/>
<path d="M5.85544 21.2075C5.85544 18.1647 7.9939 15.6227 10.8495 14.9991C10.4106 14.9033 9.95526 14.8513 9.48747 14.8513C5.97699 14.8513 3.13131 17.697 3.13131 21.2075C3.13131 24.718 5.97699 27.5636 9.48747 27.5636C9.95517 27.5636 10.4106 27.5117 10.8495 27.4158C7.9939 26.7921 5.85544 24.2503 5.85544 21.2075Z" fill="#F0F0F0"/>
<path d="M10.7795 15.7595L11.1177 16.8002H12.2119L11.3266 17.4434L11.6648 18.484L10.7795 17.8409L9.89422 18.484L10.2324 17.4434L9.34713 16.8002H10.4413L10.7795 15.7595Z" fill="#F0F0F0"/>
<path d="M10.7795 18.4832L11.1177 19.5239H12.2119L11.3266 20.167L11.6648 21.2078L10.7795 20.5645L9.89422 21.2078L10.2324 20.167L9.34713 19.5239H10.4413L10.7795 18.4832Z" fill="#F0F0F0"/>
<path d="M10.7797 21.2075L11.1179 22.2482H12.212L11.3267 22.8914L11.665 23.932L10.7797 23.2888L9.89436 23.932L10.2326 22.8914L9.34727 22.2482H10.4414L10.7797 21.2075Z" fill="#F0F0F0"/>
<path d="M10.7797 23.9314L11.1179 24.9721H12.212L11.3267 25.6153L11.665 26.6559L10.7797 26.0128L9.89436 26.6559L10.2326 25.6153L9.34727 24.9721H10.4414L10.7797 23.9314Z" fill="#F0F0F0"/>
</g>
<defs>
<clipPath id="clip0_299_2735">
<rect width="41.7691" height="41.7691" fill="white" transform="translate(0.34668 0.383789)"/>
</clipPath>
</defs>
</svg>
