<svg width="42" height="43" viewBox="0 0 42 43" fill="none" xmlns="http://www.w3.org/2000/svg">
<g clip-path="url(#clip0_299_2747)">
<path d="M41.8609 21.2683C41.8609 32.8025 32.5105 42.1529 20.9763 42.1529C9.4422 42.1529 0.0917969 32.8025 0.0917969 21.2683C0.0917969 21.2733 20.9763 0.386073 20.9763 0.383789C32.5105 0.383789 41.8609 9.73419 41.8609 21.2683Z" fill="#0052B4"/>
<path d="M20.9214 21.2678H20.9773C20.9773 21.249 20.9773 21.2308 20.9773 21.2119C20.9587 21.2306 20.9401 21.2492 20.9214 21.2678Z" fill="#F0F0F0"/>
<path d="M20.9773 11.2791C20.9773 7.6043 20.9773 5.19646 20.9773 0.382812H20.9738C9.44114 0.38477 0.0927734 9.73428 0.0927734 21.2674H10.989V15.1316L17.1248 21.2674H20.9215C20.9401 21.2488 20.9587 21.2302 20.9774 21.2115C20.9774 19.8045 20.9774 18.549 20.9774 17.415L14.8415 11.2791H20.9773Z" fill="#F0F0F0"/>
<path d="M10.6582 3.10645C7.39184 4.96639 4.67627 7.68188 2.81641 10.9483V21.267H8.26458V8.55479V8.55462H20.9769C20.9769 6.8363 20.9769 5.19931 20.9769 3.10645H10.6582Z" fill="#D80027"/>
<path d="M20.9768 18.699L13.5566 11.2791H10.9885V11.2792L20.9766 21.2673H20.9768C20.9768 21.2673 20.9768 19.4964 20.9768 18.699Z" fill="#D80027"/>
<path d="M28.2405 21.2676L28.6271 22.4569H29.8776L28.866 23.1919L29.2524 24.3813L28.2405 23.6462L27.2288 24.3813L27.6153 23.1919L26.6037 22.4569H27.8541L28.2405 21.2676Z" fill="#F0F0F0"/>
<path d="M23.1044 23.3947L24.2186 23.9624L25.1029 23.0781L24.9072 24.3133L26.0215 24.881L24.7863 25.0765L24.5907 26.3119L24.0229 25.1975L22.7878 25.3932L23.6722 24.509L23.1044 23.3947Z" fill="#F0F0F0"/>
<path d="M20.9763 28.5313L22.1656 28.1449L22.1658 26.8945L22.9006 27.9061L24.09 27.5195L23.3549 28.5313L24.09 29.5432L22.9006 29.1567L22.1658 30.1683V28.9179L20.9763 28.5313Z" fill="#F0F0F0"/>
<path d="M23.1043 33.6688L23.672 32.5545L22.7877 31.6704L24.0229 31.866L24.5906 30.7517L24.7862 31.9869L26.0214 32.1824L24.9071 32.7502L25.1028 33.9855L24.2185 33.101L23.1043 33.6688Z" fill="#F0F0F0"/>
<path d="M28.2406 35.7966L27.8542 34.6072H26.6037L27.6154 33.8722L27.2289 32.6829L28.2406 33.4179L29.2525 32.6829L28.866 33.8722L29.8776 34.6072H28.6272L28.2406 35.7966Z" fill="#F0F0F0"/>
<path d="M33.3775 33.6688L32.2633 33.1012L31.3791 33.9855L31.5747 32.7502L30.4604 32.1825L31.6956 31.9869L31.8913 30.7517L32.4589 31.866L33.6941 31.6704L32.8097 32.5546L33.3775 33.6688Z" fill="#F0F0F0"/>
<path d="M35.5051 28.5313L34.3157 28.9179V30.1683L33.5806 29.1567L32.3913 29.5432L33.1264 28.5313L32.3913 27.5195L33.5806 27.9061L34.3157 26.8945V28.1449L35.5051 28.5313Z" fill="#F0F0F0"/>
<path d="M33.3775 23.3957L32.8099 24.5099L33.6941 25.3941L32.4589 25.1984L31.8913 26.3128L31.6956 25.0774L30.4604 24.8818L31.5747 24.3142L31.3791 23.0791L32.2633 23.9633L33.3775 23.3957Z" fill="#F0F0F0"/>
</g>
<defs>
<clipPath id="clip0_299_2747">
<rect width="41.7691" height="41.7691" fill="white" transform="translate(0.0922852 0.383789)"/>
</clipPath>
</defs>
</svg>
