<svg width="43" height="43" viewBox="0 0 43 43" fill="none" xmlns="http://www.w3.org/2000/svg">
<g clip-path="url(#clip0_299_2765)">
<path d="M21.7254 42.1519C33.2596 42.1519 42.6099 32.8016 42.6099 21.2674C42.6099 9.73314 33.2596 0.382812 21.7254 0.382812C10.1912 0.382812 0.84082 9.73314 0.84082 21.2674C0.84082 32.8016 10.1912 42.1519 21.7254 42.1519Z" fill="#FCFCFC"/>
<path d="M28.9971 18.0719C28.9971 13.6549 25.4164 10.0742 20.9994 10.0742C17.74 10.0742 14.9379 12.0248 13.692 14.8217L12.7056 18.3978L13.6136 19.3058L11.7976 22.9379L13.6136 23.8459L12.7056 24.7539V25.6618L13.6136 26.5698V28.3859L14.5216 29.2939L17.2457 28.3859C17.2457 28.3859 17.2457 29.2939 18.1536 30.202C19.0616 31.1099 19.9698 32.9261 19.9698 32.9261C19.9698 32.9261 22.6938 33.8341 24.5099 31.11C26.3259 28.386 28.142 27.4779 28.142 27.4779L26.3916 23.977C27.9924 22.5148 28.9971 20.4111 28.9971 18.0719Z" fill="black"/>
<path d="M29.6489 21.1298C33.3387 20.5075 33.9533 13.2822 33.9533 13.2822H28.8684C31.5016 19.6384 28.7454 20.066 28.7454 20.066C28.3721 19.7882 15.0094 13.4579 14.5858 13.2969C14.4837 13.4335 14.1081 13.7922 13.6514 14.909C13.1946 16.0259 13.0825 17.0306 13.0825 17.0306C13.2964 17.17 27.4876 22.1253 27.8627 22.1666C28.6071 22.6533 29.5231 24.1087 29.0112 28.4242L33.9055 27.0448C33.9056 27.0448 32.2446 22.6262 29.6489 21.1298Z" fill="#ACABB1"/>
</g>
<defs>
<clipPath id="clip0_299_2765">
<rect width="41.7691" height="41.7691" fill="white" transform="translate(0.841309 0.382812)"/>
</clipPath>
</defs>
</svg>
