<svg width="43" height="43" viewBox="0 0 43 43" fill="none" xmlns="http://www.w3.org/2000/svg">
<g clip-path="url(#clip0_299_2769)">
<path d="M21.3328 42.1529C32.867 42.1529 42.2173 32.8026 42.2173 21.2683C42.2173 9.73412 32.867 0.383789 21.3328 0.383789C9.79857 0.383789 0.448242 9.73412 0.448242 21.2683C0.448242 32.8026 9.79857 42.1529 21.3328 42.1529Z" fill="#F0F0F0"/>
<path d="M40.9183 14.0039H1.74718C0.907723 16.2664 0.448181 18.7135 0.448181 21.2681C0.448181 23.8227 0.907723 26.2697 1.74718 28.5322H40.9184C41.7578 26.2697 42.2173 23.8227 42.2173 21.2681C42.2173 18.7135 41.7578 16.2664 40.9183 14.0039Z" fill="#D80027"/>
<path d="M21.3325 0.382812C15.0026 0.382812 9.33093 3.19929 5.50098 7.64697H37.164C33.3341 3.19929 27.6624 0.382812 21.3325 0.382812Z" fill="#0052B4"/>
<path d="M37.1641 34.8875H5.50098C9.33093 39.3351 15.0026 42.1516 21.3325 42.1516C27.6624 42.1516 33.3341 39.3351 37.1641 34.8875Z" fill="#0052B4"/>
</g>
<defs>
<clipPath id="clip0_299_2769">
<rect width="41.7691" height="41.7691" fill="white" transform="translate(0.447754 0.383789)"/>
</clipPath>
</defs>
</svg>
