<svg width="43" height="43" viewBox="0 0 43 43" fill="none" xmlns="http://www.w3.org/2000/svg">
<g clip-path="url(#clip0_299_2775)">
<path d="M42.2097 21.2677C42.2097 18.7131 41.7502 16.2659 40.9107 14.0035L21.3252 13.0955L1.73965 14.0034C0.900185 16.2659 0.440643 18.7131 0.440643 21.2677C0.440643 23.8223 0.900185 26.2695 1.73965 28.5318L21.3252 29.4399L40.9107 28.5319C41.7502 26.2695 42.2097 23.8223 42.2097 21.2677Z" fill="#F0F0F0"/>
<path d="M21.3249 42.1529C30.3046 42.1529 37.9596 36.4853 40.9105 28.5325H1.73938C4.69022 36.4853 12.3453 42.1529 21.3249 42.1529Z" fill="#0052B4"/>
<path d="M1.73926 14.0042H40.9104C37.9595 6.05133 30.3044 0.383789 21.3248 0.383789C12.3452 0.383789 4.6901 6.05133 1.73926 14.0042Z" fill="#D80027"/>
<path d="M26.773 14.9119H23.1409L23.7463 10.3717L26.1676 8.55566L28.589 10.3717V14.0038L26.773 14.9119Z" fill="#338AF3"/>
<path d="M15.8768 14.9119H19.5089L18.9035 10.3717L16.4822 8.55566L14.0609 10.3717V14.0038L15.8768 14.9119Z" fill="#338AF3"/>
<path d="M23.7465 14.9119H18.9036V10.3717L21.325 8.55566L23.7465 10.3717V14.9119Z" fill="#0052B4"/>
<path d="M14.0609 14.0039V23.9921C14.0609 26.3704 15.2097 28.4855 16.9816 29.8114L18.2529 29.4933L19.857 31.1071C20.3314 31.2049 20.8223 31.2563 21.3251 31.2563C21.8252 31.2563 22.3136 31.2055 22.7855 31.1088L24.6167 29.584L25.6684 29.8085C27.4396 28.4826 28.5892 26.3698 28.5892 23.9921V14.0039H14.0609Z" fill="#F0F0F0"/>
<path d="M14.0609 14.0039H16.967V16.9101H14.0609V14.0039Z" fill="#D80027"/>
<path d="M19.8719 14.0039H22.7781V16.9101H19.8719V14.0039Z" fill="#D80027"/>
<path d="M25.6834 14.0039H28.5896V16.9101H25.6834V14.0039Z" fill="#D80027"/>
<path d="M16.9663 16.9094H19.8725V19.8156H16.9663V16.9094Z" fill="#D80027"/>
<path d="M22.7778 16.9094H25.684V19.8156H22.7778V16.9094Z" fill="#D80027"/>
<path d="M14.0609 19.8145H16.967V22.7206H14.0609V19.8145Z" fill="#D80027"/>
<path d="M16.9661 22.7197H19.8723V25.6259H16.9661V22.7197Z" fill="#D80027"/>
<path d="M19.8719 19.8145H22.778V22.7206H19.8719V19.8145Z" fill="#D80027"/>
<path d="M25.6834 19.8145H28.5896V22.7206H25.6834V19.8145Z" fill="#D80027"/>
<path d="M22.7776 22.7197H25.6838V25.6259H22.7776V22.7197Z" fill="#D80027"/>
<path d="M19.8719 25.625H22.778V28.5312H19.8719V25.625Z" fill="#D80027"/>
<path d="M16.9667 25.626H14.2481C14.4974 26.7063 14.9877 27.6948 15.6598 28.5321H16.9667V25.626Z" fill="#D80027"/>
<path d="M25.6834 28.5321H26.9903C27.6626 27.6948 28.1527 26.7062 28.402 25.626H25.6834V28.5321Z" fill="#D80027"/>
<path d="M16.9661 28.5322V29.8003C17.8114 30.4363 18.7991 30.8923 19.8723 31.1112V28.5322H16.9661Z" fill="#D80027"/>
<path d="M22.7776 28.5322V31.1112C23.8509 30.8925 24.8386 30.4363 25.6838 29.8003V28.5322H22.7776Z" fill="#D80027"/>
</g>
<defs>
<clipPath id="clip0_299_2775">
<rect width="41.7691" height="41.7691" fill="white" transform="translate(0.440918 0.383789)"/>
</clipPath>
</defs>
</svg>
