<svg width="42" height="43" viewBox="0 0 42 43" fill="none" xmlns="http://www.w3.org/2000/svg">
<g clip-path="url(#clip0_299_2800)">
<path d="M21.0192 42.5531C32.5534 42.5531 41.9037 33.2028 41.9037 21.6686C41.9037 10.1345 32.5534 0.78418 21.0192 0.78418C9.48506 0.78418 0.134766 10.1345 0.134766 21.6686C0.134766 33.2028 9.48506 42.5531 21.0192 42.5531Z" fill="#F0F0F0"/>
<path d="M21.019 0.785156C14.1865 0.785156 8.12063 4.06656 4.31042 9.13898H37.7274C33.9173 4.06648 27.8514 0.785156 21.019 0.785156Z" fill="#0052B4"/>
<path d="M21.019 42.554C27.8515 42.554 33.9173 39.2726 37.7275 34.2002H4.31042C8.12055 39.2727 14.1865 42.554 21.019 42.554Z" fill="#0052B4"/>
<path d="M0.134369 21.6701C0.134369 23.1006 0.278603 24.4974 0.552631 25.847H41.4853C41.7593 24.4974 41.9035 23.1006 41.9035 21.6701C41.9035 20.2396 41.7592 18.8427 41.4853 17.4932H0.552631C0.278603 18.8427 0.134369 20.2396 0.134369 21.6701Z" fill="#0052B4"/>
<path d="M6.25167 6.90161C-1.90416 15.0574 -1.90416 28.2809 6.25167 36.4369C9.62199 33.0665 12.8633 29.8251 21.0192 21.6693L6.25167 6.90161Z" fill="#D80027"/>
<path d="M8.58737 16.2217L9.93948 20.3835H14.3159L10.7756 22.9559L12.1277 27.1178L8.58737 24.5456L5.04687 27.1178L6.39931 22.9559L2.85889 20.3835H7.23502L8.58737 16.2217Z" fill="#F0F0F0"/>
</g>
<defs>
<clipPath id="clip0_299_2800">
<rect width="41.7691" height="41.7691" fill="white" transform="translate(0.135254 0.78418)"/>
</clipPath>
</defs>
</svg>
