<svg width="43" height="43" viewBox="0 0 43 43" fill="none" xmlns="http://www.w3.org/2000/svg">
<g clip-path="url(#clip0_299_2809)">
<path d="M21.4217 42.5533C32.9559 42.5533 42.3062 33.203 42.3062 21.6687C42.3062 10.1345 32.9559 0.78418 21.4217 0.78418C9.88744 0.78418 0.537109 10.1345 0.537109 21.6687C0.537109 33.203 9.88744 42.5533 21.4217 42.5533Z" fill="#FFDA44"/>
<path d="M21.4216 42.5539C28.2743 42.5539 34.3561 39.2533 38.1642 34.1553H4.67894C8.48711 39.2533 14.5688 42.5539 21.4216 42.5539Z" fill="#0052B4"/>
<path d="M42.3064 21.6697C42.3064 10.1356 32.956 0.785156 21.4219 0.785156C9.88774 0.785156 0.537338 10.1356 0.537338 21.6697C0.537338 24.1394 0.967185 26.5084 1.75419 28.7076H41.0895C41.8766 26.5084 42.3064 24.1394 42.3064 21.6697Z" fill="#0052B4"/>
<path d="M14.8318 14.1787L15.9586 17.6469H19.6056L16.6553 19.7906L17.7821 23.2589L14.8318 21.1153L11.8814 23.2589L13.0085 19.7906L10.0581 17.6469H13.7049L14.8318 14.1787Z" fill="#F0F0F0"/>
<path d="M8.56921 10.5469L9.24546 12.6282H11.4341L9.66355 13.9146L10.3398 15.996L8.56921 14.7096L6.79869 15.996L7.47503 13.9146L5.70459 12.6282H7.89312L8.56921 10.5469Z" fill="#F0F0F0"/>
</g>
<defs>
<clipPath id="clip0_299_2809">
<rect width="41.7691" height="41.7691" fill="white" transform="translate(0.536621 0.78418)"/>
</clipPath>
</defs>
</svg>
