<svg width="43" height="43" viewBox="0 0 43 43" fill="none" xmlns="http://www.w3.org/2000/svg">
<g clip-path="url(#clip0_299_2817)">
<path d="M21.8221 42.5533C33.3563 42.5533 42.7066 33.203 42.7066 21.6687C42.7066 10.1345 33.3563 0.78418 21.8221 0.78418C10.2878 0.78418 0.9375 10.1345 0.9375 21.6687C0.9375 33.203 10.2878 42.5533 21.8221 42.5533Z" fill="#FCFCFC"/>
<path d="M33.6266 18.9451C32.991 18.9451 32.204 18.9451 30.9026 18.9451C30.9026 23.96 26.8371 28.0253 21.8224 28.0253C16.8074 28.0253 12.7421 23.96 12.7421 18.9451C11.8643 18.9451 10.8957 18.9451 10.0181 18.9451C10.0181 24.3469 13.6465 28.9013 18.5992 30.3039C18.0562 31.3354 18.1389 32.6341 18.9146 33.602C19.9334 32.7855 20.9881 31.9402 21.8829 31.2233C22.7777 31.9403 23.8325 32.7856 24.8512 33.602C25.6345 32.6245 25.7116 31.3093 25.1506 30.2728C30.0491 28.8358 33.6266 24.3085 33.6266 18.9451Z" fill="#6DA544"/>
<path d="M14.5581 18.0371C14.5581 18.0371 14.5581 22.5772 19.0982 22.5772L20.0062 23.4852H21.8222C21.8222 23.4852 22.7302 20.7611 24.5463 20.7611C24.5463 20.7611 24.5463 18.9451 26.3623 18.9451C28.1784 18.9451 29.0864 18.9451 29.0864 18.9451C29.0864 18.9451 28.1784 15.3129 32.7185 12.5889L30.9024 11.6809C30.9024 11.6809 24.5463 16.221 20.0062 15.313V17.1291H18.1901L17.2821 16.2211L14.5581 18.0371Z" fill="#FFDA44"/>
</g>
<defs>
<clipPath id="clip0_299_2817">
<rect width="41.7691" height="41.7691" fill="white" transform="translate(0.9375 0.78418)"/>
</clipPath>
</defs>
</svg>
