<svg width="43" height="43" viewBox="0 0 43 43" fill="none" xmlns="http://www.w3.org/2000/svg">
<g clip-path="url(#clip0_299_2821)">
<path d="M21.2234 42.5533C32.7576 42.5533 42.108 33.203 42.108 21.6687C42.108 10.1345 32.7576 0.78418 21.2234 0.78418C9.6892 0.78418 0.338867 10.1345 0.338867 21.6687C0.338867 33.203 9.6892 42.5533 21.2234 42.5533Z" fill="#F0F0F0"/>
<path d="M19.4072 21.6689C19.4072 21.6689 6.4678 36.4395 6.45557 36.4365C10.2349 40.2159 15.4561 42.5535 21.2232 42.5535C32.7574 42.5535 42.1078 33.2031 42.1078 21.6689H19.4072Z" fill="#D80027"/>
<path d="M6.45565 6.90161C-1.70026 15.0575 -1.70026 28.281 6.45565 36.4369C9.82598 33.0666 13.0674 29.8252 21.2233 21.6693L6.45565 6.90161Z" fill="#0052B4"/>
</g>
<defs>
<clipPath id="clip0_299_2821">
<rect width="41.7691" height="41.7691" fill="white" transform="translate(0.338867 0.78418)"/>
</clipPath>
</defs>
</svg>
