<svg width="43" height="43" viewBox="0 0 43 43" fill="none" xmlns="http://www.w3.org/2000/svg">
<g clip-path="url(#clip0_299_2825)">
<path d="M40.1903 12.0928C39.2253 10.223 37.9604 8.46807 36.3931 6.90075C34.8257 5.33335 33.0706 4.06845 31.201 3.10352L16.488 16.5321L3.05935 31.245C4.02437 33.1148 5.28927 34.8698 6.85659 36.4371C8.42391 38.0045 10.1789 39.2694 12.0486 40.2344L26.7615 26.8057L40.1903 12.0928Z" fill="#FFDA44"/>
<path d="M6.8565 36.4373C7.73259 37.3134 8.66742 38.0948 9.64793 38.7828L38.7382 9.69237C38.0504 8.71185 37.269 7.77702 36.3929 6.90093C35.5167 6.02484 34.582 5.24355 33.6015 4.55566L4.51123 33.6459C5.19903 34.6262 5.98033 35.5612 6.8565 36.4373Z" fill="#D80027"/>
<path d="M6.8559 6.90139C0.2669 13.4904 -0.998002 23.3859 3.05866 31.2458L31.2003 3.10423C23.3403 -0.952347 13.4448 0.312719 6.8559 6.90139Z" fill="#338AF3"/>
<path d="M36.3924 36.438C42.9813 29.8491 44.2461 19.9536 40.1897 12.0938L12.0481 40.2353C19.908 44.2919 29.8036 43.027 36.3924 36.438Z" fill="#338AF3"/>
<path d="M11.8698 7.14062L12.9967 10.6092H16.6437L13.6933 12.7528L14.8202 16.2212L11.8698 14.0776L8.91919 16.2212L10.0463 12.7528L7.0957 10.6092H10.7427L11.8698 7.14062Z" fill="#FFDA44"/>
</g>
<defs>
<clipPath id="clip0_299_2825">
<rect width="41.7691" height="41.7691" fill="white" transform="translate(0.740234 0.78418)"/>
</clipPath>
</defs>
</svg>
