<svg width="42" height="43" viewBox="0 0 42 43" fill="none" xmlns="http://www.w3.org/2000/svg">
<g clip-path="url(#clip0_299_2832)">
<path d="M21.0262 42.5533C32.5604 42.5533 41.9107 33.203 41.9107 21.6687C41.9107 10.1345 32.5604 0.78418 21.0262 0.78418C9.49193 0.78418 0.141602 10.1345 0.141602 21.6687C0.141602 33.203 9.49193 42.5533 21.0262 42.5533Z" fill="#F0F0F0"/>
<path d="M16.4857 18.9457H41.7334C40.3985 8.69861 31.6366 0.785156 21.0257 0.785156C19.4663 0.785156 17.9475 0.957535 16.4856 1.28157V18.9457H16.4857Z" fill="#D80027"/>
<path d="M11.0377 18.9455V3.32446C5.30316 6.45339 1.19788 12.1926 0.318199 18.9456H11.0377V18.9455Z" fill="#D80027"/>
<path d="M11.0376 24.3936H0.318199C1.19788 31.1465 5.30316 36.8858 11.0377 40.0146L11.0376 24.3936Z" fill="#D80027"/>
<path d="M16.4856 24.3936V42.0576C17.9475 42.3817 19.4663 42.5541 21.0257 42.5541C31.6366 42.5541 40.3985 34.6406 41.7334 24.3936H16.4856V24.3936Z" fill="#D80027"/>
</g>
<defs>
<clipPath id="clip0_299_2832">
<rect width="41.7691" height="41.7691" fill="white" transform="translate(0.141602 0.78418)"/>
</clipPath>
</defs>
</svg>
