<svg width="43" height="43" viewBox="0 0 43 43" fill="none" xmlns="http://www.w3.org/2000/svg">
<g clip-path="url(#clip0_299_2839)">
<path d="M19.6108 23.4848C19.6108 23.4848 6.67142 6.89821 6.65918 6.90115C10.4385 3.12178 15.6597 0.78418 21.4268 0.78418C32.961 0.78418 42.3114 10.1346 42.3114 21.6687L19.6108 23.4848Z" fill="#338AF3"/>
<path d="M19.6108 21.6689C19.6108 21.6689 6.67142 36.4395 6.65918 36.4365C10.4385 40.2159 15.6597 42.5535 21.4268 42.5535C32.961 42.5535 42.3114 33.2031 42.3114 21.6689H19.6108Z" fill="#6DA544"/>
<path d="M6.65912 6.90161C-1.49679 15.0575 -1.49679 28.281 6.65912 36.4369C10.0294 33.0666 13.2709 29.8252 21.4268 21.6693L6.65912 6.90161Z" fill="#F0F0F0"/>
<path d="M8.99489 16.2209L10.3471 20.3828H14.7235L11.1831 22.9552L12.5352 27.1173L8.99489 24.545L5.45439 27.1173L6.80682 22.9552L3.2664 20.3828H7.64253L8.99489 16.2209Z" fill="#D80027"/>
</g>
<defs>
<clipPath id="clip0_299_2839">
<rect width="41.7691" height="41.7691" fill="white" transform="translate(0.54248 0.78418)"/>
</clipPath>
</defs>
</svg>
