<svg width="43" height="43" viewBox="0 0 43 43" fill="none" xmlns="http://www.w3.org/2000/svg">
<g clip-path="url(#clip0_299_2874)">
<path d="M21.2298 42.5533C32.764 42.5533 42.1143 33.203 42.1143 21.6687C42.1143 10.1345 32.764 0.78418 21.2298 0.78418C9.69555 0.78418 0.345215 10.1345 0.345215 21.6687C0.345215 33.203 9.69555 42.5533 21.2298 42.5533Z" fill="#F0F0F0"/>
<path d="M1.06445 27.1182C2.99285 34.273 8.62654 39.9068 15.7815 41.8352V27.1182H1.06445Z" fill="#D80027"/>
<path d="M15.7814 1.50391C8.62654 3.43222 2.99277 9.06599 1.06445 16.2208H15.7815V1.50391H15.7814Z" fill="#0052B4"/>
<path d="M41.3947 16.2208C39.4663 9.06599 33.8326 3.43222 26.6777 1.50391V16.2209H41.3947V16.2208Z" fill="#D80027"/>
<path d="M26.6778 41.8342C33.8326 39.9058 39.4664 34.2721 41.3948 27.1172H26.6778V41.8342Z" fill="#0052B4"/>
<path d="M26.6779 21.6691C26.6779 24.6781 24.2387 27.1173 21.2297 27.1173C18.2208 27.1173 15.7815 24.6781 15.7815 21.6691C15.7815 18.6601 21.2297 16.2209 21.2297 16.2209C21.2297 16.2209 26.6779 18.6601 26.6779 21.6691Z" fill="#496E2D"/>
<path d="M15.7815 21.6691C15.7815 18.6601 18.2208 16.2209 21.2297 16.2209C24.2387 16.2209 26.6779 18.6601 26.6779 21.6691" fill="#0052B4"/>
<path d="M18.1649 18.9451V22.3501C18.1649 24.0427 19.5369 25.4147 21.2295 25.4147C22.922 25.4147 24.294 24.0427 24.294 22.3501V18.9451H18.1649Z" fill="#D80027"/>
</g>
<defs>
<clipPath id="clip0_299_2874">
<rect width="41.7691" height="41.7691" fill="white" transform="translate(0.344727 0.78418)"/>
</clipPath>
</defs>
</svg>
