<svg width="43" height="43" viewBox="0 0 43 43" fill="none" xmlns="http://www.w3.org/2000/svg">
<g clip-path="url(#clip0_299_2844)">
<path d="M21.8279 42.5533C33.3621 42.5533 42.7124 33.203 42.7124 21.6687C42.7124 10.1345 33.3621 0.78418 21.8279 0.78418C10.2937 0.78418 0.943344 10.1345 0.943344 21.6687C0.943344 33.203 10.2937 42.5533 21.8279 42.5533Z" fill="#F0F0F0"/>
<path d="M25.9142 42.153C34.1704 40.5152 40.6741 34.0115 42.3119 25.7554H25.9142V42.153Z" fill="#496E2D"/>
<path d="M1.34415 25.7554C2.98187 34.0115 9.48561 40.5152 17.7418 42.153V25.7554H1.34415Z" fill="#496E2D"/>
<path d="M42.3119 17.5829C40.6741 9.32685 34.1704 2.82311 25.9142 1.1853V17.5829H42.3119Z" fill="#496E2D"/>
<path d="M17.7418 1.1853C9.48561 2.82311 2.98187 9.32685 1.34415 17.5829H17.7418V1.1853Z" fill="#496E2D"/>
<path d="M20.4658 25.7549H17.7417V42.1525C18.6307 42.3288 19.5401 42.4482 20.4658 42.5079V25.7549Z" fill="#FFDA44"/>
<path d="M20.4658 17.5821V0.829102C19.5401 0.888655 18.6306 1.00817 17.7417 1.18447V17.5821H20.4658Z" fill="#FFDA44"/>
<path d="M23.1901 0.82962C22.7396 0.800496 22.2857 0.78418 21.828 0.78418C21.3702 0.78418 20.9164 0.800496 20.4659 0.82962V17.5827H23.19V0.82962H23.1901Z" fill="black"/>
<path d="M20.4658 42.5079C20.9163 42.537 21.3701 42.5533 21.8279 42.5533C22.2856 42.5533 22.7395 42.537 23.19 42.5079V25.7549H20.4659V42.5079H20.4658Z" fill="black"/>
<path d="M17.7423 20.3068V17.5828H1.34465C1.16828 18.4718 1.04884 19.3811 0.989288 20.3068H17.7423Z" fill="#FFDA44"/>
<path d="M25.9146 20.3068H42.6677C42.6081 19.3811 42.4886 18.4718 42.3123 17.5828H25.9147V20.3068H25.9146Z" fill="#FFDA44"/>
<path d="M25.9136 23.0298H42.6667C42.6957 22.5794 42.712 22.1255 42.712 21.6677C42.712 21.21 42.6957 20.7561 42.6666 20.3057H25.9136V23.0298Z" fill="black"/>
<path d="M0.9888 20.3057C0.959757 20.7561 0.943359 21.21 0.943359 21.6677C0.943359 22.1255 0.959757 22.5794 0.9888 23.0298H17.7419V20.3057H0.9888V20.3057Z" fill="black"/>
<path d="M21.8281 31.6572C27.3445 31.6572 31.8164 27.1853 31.8164 21.6689C31.8164 16.1526 27.3445 11.6807 21.8281 11.6807C16.3118 11.6807 11.8398 16.1526 11.8398 21.6689C11.8398 27.1853 16.3118 31.6572 21.8281 31.6572Z" fill="#D80027"/>
<path d="M24.103 22.7824C23.3601 21.2966 22.3944 19.7907 22.3944 19.7907C22.3944 19.7907 22.4184 19.105 22.4184 18.6964C22.4184 18.081 21.9195 17.582 21.304 17.582C20.721 17.582 20.2432 18.03 20.1945 18.6003C19.736 18.6303 19.3733 19.0106 19.3733 19.4766C19.3733 19.8154 19.5652 20.109 19.8462 20.2557C19.9858 19.9291 20.2593 19.6741 20.5975 19.5578C20.6527 19.6029 20.7119 19.6432 20.7751 19.6774L20.9179 19.7458C20.9179 19.7458 20.3885 21.238 20.3885 22.0396C20.3885 24.2932 21.8744 24.9881 21.8744 24.9881V25.0114L21.1315 25.7543H22.6173V24.2684L23.3603 25.0113C23.3668 24.9974 24.7675 24.1115 24.103 22.7824Z" fill="#496E2D"/>
<path d="M21.8277 13.4961L22.1658 14.5367H23.26L22.3748 15.18L22.713 16.2206L21.8277 15.5775L20.9424 16.2206L21.2806 15.18L20.3954 14.5367H21.4896L21.8277 13.4961Z" fill="#496E2D"/>
<path d="M17.0243 15.0567L17.9095 15.6999L18.7948 15.0566L18.4566 16.0975L19.3419 16.7405L18.2477 16.7406L17.9095 17.7812L17.5713 16.7406L16.4771 16.7405L17.3624 16.0973L17.0243 15.0567Z" fill="#496E2D"/>
<path d="M14.0554 19.1432H15.1495L15.4877 18.1025L15.8258 19.1432L16.9201 19.1431L16.0349 19.7864L16.3731 20.8271L15.4877 20.1839L14.6025 20.827L14.9405 19.7863L14.0554 19.1432Z" fill="#496E2D"/>
<path d="M14.0554 24.1935L14.9405 23.5505L14.6024 22.5098L15.4877 23.153L16.373 22.5098L16.0349 23.5504L16.9202 24.1936L15.8258 24.1937L15.4877 25.2343L15.1495 24.1935H14.0554Z" fill="#496E2D"/>
<path d="M17.0245 28.2801L17.3626 27.2396L16.4773 26.5964H17.5715L17.9097 25.5557L18.2479 26.5963H19.3421L18.4568 27.2396L18.795 28.2802L17.9097 27.637L17.0245 28.2801Z" fill="#496E2D"/>
<path d="M21.8275 29.8407L21.4894 28.8002H20.3952L21.2805 28.1569L20.9422 27.1163L21.8275 27.7593L22.7128 27.1162L22.3746 28.1569L23.2599 28.8002L22.1657 28.8002L21.8275 29.8407Z" fill="#496E2D"/>
<path d="M26.6313 28.2801L25.7462 27.637L24.8609 28.2803L25.199 27.2396L24.3137 26.5964L25.408 26.5963L25.746 25.5557L26.0843 26.5964H27.1785L26.2933 27.2396L26.6313 28.2801Z" fill="#496E2D"/>
<path d="M29.6003 24.1935H28.5062L28.168 25.2342L27.8299 24.1936H26.7356L27.6209 23.5503L27.2827 22.5098L28.168 23.1529L29.0532 22.5098L28.7152 23.5504L29.6003 24.1935Z" fill="#496E2D"/>
<path d="M29.6001 19.1431L28.715 19.7862L29.053 20.8269L28.1678 20.1838L27.2825 20.8271L27.6206 19.7863L26.7354 19.1432L27.8297 19.143L28.1677 18.1025L28.506 19.1431H29.6001Z" fill="#496E2D"/>
<path d="M26.6312 15.0566L26.2932 16.0972L27.1784 16.7404H26.0842L25.7461 17.7812L25.4079 16.7405L24.3136 16.7406L25.1989 16.0972L24.8608 15.0567L25.7461 15.6998L26.6312 15.0566Z" fill="#496E2D"/>
</g>
<defs>
<clipPath id="clip0_299_2844">
<rect width="41.7691" height="41.7691" fill="white" transform="translate(0.943848 0.78418)"/>
</clipPath>
</defs>
</svg>
