<svg width="43" height="43" viewBox="0 0 43 43" fill="none" xmlns="http://www.w3.org/2000/svg">
<g clip-path="url(#clip0_299_2883)">
<path d="M21.6311 42.5533C33.1654 42.5533 42.5157 33.203 42.5157 21.6687C42.5157 10.1345 33.1654 0.78418 21.6311 0.78418C10.0969 0.78418 0.746582 10.1345 0.746582 21.6687C0.746582 33.203 10.0969 42.5533 21.6311 42.5533Z" fill="#FFDA44"/>
<path d="M21.631 0.78418C16.5178 0.78418 11.8346 2.62275 8.2041 5.67361L30.7112 21.6687L8.2041 37.6639C11.8346 40.7147 16.5178 42.5533 21.631 42.5533C33.1651 42.5533 42.5155 33.2029 42.5155 21.6687C42.5155 10.1346 33.1651 0.78418 21.631 0.78418Z" fill="#D80027"/>
<path d="M6.8633 6.90161C-1.29261 15.0575 -1.29261 28.281 6.8633 36.4369C10.2336 33.0666 13.4751 29.8252 21.631 21.6693L6.8633 6.90161Z" fill="black"/>
<path d="M6.53667 16.8848L9.71504 19.8928L13.5581 17.7991L11.6797 21.7517L14.8582 24.7598L10.5186 24.1946L8.63997 28.1471L7.83665 23.8452L3.49707 23.2798L7.33999 21.1864L6.53667 16.8848Z" fill="#F0F0F0"/>
</g>
<defs>
<clipPath id="clip0_299_2883">
<rect width="41.7691" height="41.7691" fill="white" transform="translate(0.746094 0.78418)"/>
</clipPath>
</defs>
</svg>
