<svg width="42" height="42" viewBox="0 0 42 42" fill="none" xmlns="http://www.w3.org/2000/svg">
<g clip-path="url(#clip0_299_2888)">
<path d="M0.134796 21.0703C0.134796 9.5362 9.4852 0.185791 21.0193 0.185791C32.5535 0.185791 41.9039 9.5362 41.9039 21.0703L21.0193 22.8864L0.134796 21.0703Z" fill="#FFDA44"/>
<path d="M2.9292 31.5134C6.54035 37.7556 13.289 41.9557 21.0191 41.9557C28.7493 41.9557 35.4979 37.7556 39.1091 31.5134L21.0191 30.1514L2.9292 31.5134Z" fill="#D80027"/>
<path d="M39.1093 31.5128C40.8863 28.441 41.9039 24.8747 41.9039 21.0706H0.134796C0.134796 24.8747 1.15243 28.441 2.92941 31.5128H39.1093Z" fill="#0052B4"/>
<path d="M21.0195 28.3349C25.0314 28.3349 28.2837 25.0827 28.2837 21.0708C28.2837 17.0589 25.0314 13.8066 21.0195 13.8066C17.0076 13.8066 13.7554 17.0589 13.7554 21.0708C13.7554 25.0827 17.0076 28.3349 21.0195 28.3349Z" fill="#FFDA44"/>
<path d="M21.0191 25.6109C18.5157 25.6109 16.479 23.5742 16.479 21.0708V18.3467C16.479 15.8433 18.5157 13.8066 21.0191 13.8066C23.5225 13.8066 25.5592 15.8434 25.5592 18.3467V21.0708C25.5592 23.5742 23.5226 25.6109 21.0191 25.6109Z" fill="#338AF3"/>
<path d="M28.2832 10.1745H22.8351C22.8351 9.17151 22.0219 8.3584 21.019 8.3584C20.016 8.3584 19.2029 9.17151 19.2029 10.1745H13.7548C13.7548 11.1775 14.6284 11.9905 15.6313 11.9905H15.5708C15.5708 12.9935 16.3838 13.8066 17.3869 13.8066C17.3869 14.8096 18.1999 15.6226 19.2029 15.6226H22.8351C23.8381 15.6226 24.6511 14.8096 24.6511 13.8066C25.6541 13.8066 26.4672 12.9935 26.4672 11.9905H26.4067C27.4097 11.9905 28.2832 11.1774 28.2832 10.1745Z" fill="black"/>
</g>
<defs>
<clipPath id="clip0_299_2888">
<rect width="41.7691" height="41.7691" fill="white" transform="translate(0.135254 0.186523)"/>
</clipPath>
</defs>
</svg>
