<svg width="43" height="42" viewBox="0 0 43 42" fill="none" xmlns="http://www.w3.org/2000/svg">
<g clip-path="url(#clip0_299_2895)">
<path d="M21.4215 41.9549C32.9557 41.9549 42.306 32.6046 42.306 21.0703C42.306 9.53612 32.9557 0.185791 21.4215 0.185791C9.88726 0.185791 0.536926 9.53612 0.536926 21.0703C0.536926 32.6046 9.88726 41.9549 21.4215 41.9549Z" fill="#F0F0F0"/>
<path d="M21.4215 0.185791C12.4418 0.185791 4.78676 5.85334 1.83592 13.8062H41.0071C38.0562 5.85334 30.4011 0.185791 21.4215 0.185791Z" fill="#D80027"/>
<path d="M21.4215 41.9554C30.4011 41.9554 38.0562 36.2878 41.007 28.335H1.83594C4.78678 36.2878 12.4419 41.9554 21.4215 41.9554Z" fill="black"/>
<path d="M28.6857 18.8004H23.2375C23.2375 17.7975 22.4244 16.9844 21.4215 16.9844C20.4185 16.9844 19.6054 17.7975 19.6054 18.8004H14.1572C14.1572 19.8035 15.0309 20.6165 16.0338 20.6165H15.9733C15.9733 21.6195 16.7863 22.4326 17.7893 22.4326C17.7893 23.4356 18.6024 24.2486 19.6054 24.2486H23.2375C24.2406 24.2486 25.0536 23.4356 25.0536 22.4326C26.0566 22.4326 26.8696 21.6195 26.8696 20.6165H26.8092C27.8121 20.6165 28.6857 19.8035 28.6857 18.8004Z" fill="#FF9811"/>
</g>
<defs>
<clipPath id="clip0_299_2895">
<rect width="41.7691" height="41.7691" fill="white" transform="translate(0.536621 0.186523)"/>
</clipPath>
</defs>
</svg>
