<svg width="43" height="42" viewBox="0 0 43 42" fill="none" xmlns="http://www.w3.org/2000/svg">
<g clip-path="url(#clip0_299_2900)">
<path d="M21.8221 41.9547C33.3564 41.9547 42.7067 32.6043 42.7067 21.0701C42.7067 9.53588 33.3564 0.185547 21.8221 0.185547C10.2879 0.185547 0.937592 9.53588 0.937592 21.0701C0.937592 32.6043 10.2879 41.9547 21.8221 41.9547Z" fill="#F0F0F0"/>
<path d="M21.8218 0.186279C13.5419 0.186279 6.38764 5.00482 3.00957 11.9906H40.634C37.256 5.00482 30.1016 0.186279 21.8218 0.186279Z" fill="#0052B4"/>
<path d="M21.8218 41.9555C30.1016 41.9555 37.256 37.1369 40.6341 30.1511H3.00957C6.38764 37.1369 13.5419 41.9555 21.8218 41.9555Z" fill="#0052B4"/>
<path d="M17.6283 21.9788L21.8223 14.7146L26.0163 21.9788H17.6283Z" fill="#FFDA44"/>
<path d="M27.2702 24.3772L21.822 27.1013L16.3739 24.3772V20.7451H27.2702V24.3772Z" fill="#6DA544"/>
<path d="M26.9587 15.0264L25.0325 16.9526C25.8541 17.7742 26.3623 18.9092 26.3623 20.1629C26.3623 22.6704 24.3296 24.703 21.8222 24.703C19.3149 24.703 17.2821 22.6703 17.2821 20.1629C17.2821 18.9092 17.7904 17.7742 18.612 16.9526L16.6858 15.0264C15.3711 16.3408 14.5581 18.1568 14.5581 20.1629C14.5581 24.1749 17.8104 27.4271 21.8222 27.4271C25.8341 27.4271 29.0864 24.1748 29.0864 20.1629C29.0863 18.1568 28.2733 16.3408 26.9587 15.0264Z" fill="#FFDA44"/>
</g>
<defs>
<clipPath id="clip0_299_2900">
<rect width="41.7691" height="41.7691" fill="white" transform="translate(0.9375 0.186523)"/>
</clipPath>
</defs>
</svg>
