<svg width="43" height="42" viewBox="0 0 43 42" fill="none" xmlns="http://www.w3.org/2000/svg">
<g clip-path="url(#clip0_299_2908)">
<path d="M21.2233 41.9549C32.7575 41.9549 42.1078 32.6046 42.1078 21.0703C42.1078 9.53612 32.7575 0.185791 21.2233 0.185791C9.68905 0.185791 0.338718 9.53612 0.338718 21.0703C0.338718 32.6046 9.68905 41.9549 21.2233 41.9549Z" fill="#F0F0F0"/>
<path d="M41.931 18.3463H23.9475H23.9474V0.362575C23.0556 0.246487 22.1465 0.185791 21.2233 0.185791C20.3 0.185791 19.3909 0.246487 18.4992 0.362575V18.3461V18.3462H0.515503C0.399414 19.238 0.338718 20.1469 0.338718 21.0703C0.338718 21.9937 0.399414 22.9027 0.515503 23.7944H18.4991H18.4991V41.7781C19.3909 41.8942 20.3 41.9549 21.2233 41.9549C22.1465 41.9549 23.0556 41.8943 23.9473 41.7781V23.7946V23.7945H41.931C42.0471 22.9027 42.1078 21.9937 42.1078 21.0703C42.1078 20.1469 42.0471 19.238 41.931 18.3463Z" fill="#D80027"/>
</g>
<defs>
<clipPath id="clip0_299_2908">
<rect width="41.7691" height="41.7691" fill="white" transform="translate(0.338867 0.186523)"/>
</clipPath>
</defs>
</svg>
