<svg width="43" height="42" viewBox="0 0 43 42" fill="none" xmlns="http://www.w3.org/2000/svg">
<g clip-path="url(#clip0_299_2911)">
<path d="M21.625 41.9549C33.1592 41.9549 42.5095 32.6046 42.5095 21.0703C42.5095 9.53612 33.1592 0.185791 21.625 0.185791C10.0907 0.185791 0.740404 9.53612 0.740404 21.0703C0.740404 32.6046 10.0907 41.9549 21.625 41.9549Z" fill="#F0F0F0"/>
<path d="M13.4526 13.8062H41.2103C38.2595 5.85334 30.6044 0.185791 21.6248 0.185791C15.8576 0.185791 10.637 2.5238 6.85791 6.30342L13.4526 13.8062Z" fill="#6DA544"/>
<path d="M13.4526 28.335H41.2103C38.2595 36.2878 30.6044 41.9554 21.6248 41.9554C15.8576 41.9554 10.637 39.6174 6.85791 35.8377L13.4526 28.335Z" fill="#D80027"/>
<path d="M6.85734 6.30273C-1.29857 14.4586 -1.29857 27.6821 6.85734 35.8381C10.2277 32.4677 13.4691 29.2263 21.625 21.0704L6.85734 6.30273Z" fill="#0052B4"/>
<path d="M25.2567 17.4382V21.9783C25.2567 24.7586 28.8888 25.6105 28.8888 25.6105C28.8888 25.6105 32.5209 24.7586 32.5209 21.9783V17.4382H25.2567Z" fill="#DEDDE0"/>
<path d="M27.9809 21.1614H29.7972V23.7951H27.9809V21.1614Z" fill="#786145"/>
<path d="M30.706 20.1631C30.706 19.1599 29.8928 18.3467 28.8896 18.3467C27.8864 18.3467 27.0732 19.1599 27.0732 20.1631C26.5717 20.1631 26.1651 20.5696 26.1651 21.0712C26.1651 21.5728 26.5717 21.9793 27.0732 21.9793H30.706C31.2075 21.9793 31.6141 21.5728 31.6141 21.0712C31.6141 20.5696 31.2076 20.1631 30.706 20.1631Z" fill="#6DA544"/>
</g>
<defs>
<clipPath id="clip0_299_2911">
<rect width="41.7691" height="41.7691" fill="white" transform="translate(0.740234 0.186523)"/>
</clipPath>
</defs>
</svg>
