<svg width="42" height="42" viewBox="0 0 42 42" fill="none" xmlns="http://www.w3.org/2000/svg">
<g clip-path="url(#clip0_299_2919)">
<path d="M19.2101 19.2546C19.2101 19.2546 6.27074 35.8413 6.25851 35.8383C10.0378 39.6177 15.259 41.9552 21.0262 41.9552C32.5603 41.9552 41.9107 32.6048 41.9107 21.0707L19.2101 19.2546Z" fill="#338AF3"/>
<path d="M19.2101 21.0703C19.2101 21.0703 6.27074 6.29983 6.25851 6.30276C10.0378 2.52339 15.259 0.185791 21.0262 0.185791C32.5603 0.185791 41.9107 9.5362 41.9107 21.0703H19.2101Z" fill="#6DA544"/>
<path d="M6.25848 6.30273C-1.89743 14.4586 -1.89743 27.6821 6.25848 35.8381C6.25791 35.8414 41.9107 21.0704 41.9107 21.0704L6.25848 6.30273Z" fill="#D80027"/>
<path d="M11.0376 12.4443C7.03208 12.4443 3.77344 15.7031 3.77344 19.7085V22.4325C3.77344 26.438 7.03216 29.6967 11.0376 29.6967C15.043 29.6967 18.3017 26.438 18.3017 22.4325V19.7085C18.3018 15.7031 15.0431 12.4443 11.0376 12.4443ZM15.5777 22.4326C15.5777 24.4617 14.2396 26.1838 12.3996 26.7637V23.7947L14.3268 21.8674L12.4006 19.9412L12.3996 19.2557V18.3466H9.67561V21.0706L7.74966 22.9964L9.67561 24.9223V26.7638C7.83557 26.1838 6.49749 24.4618 6.49749 22.4327V19.7087C6.49749 17.2052 8.53422 15.1685 11.0376 15.1685C13.541 15.1685 15.5777 17.2053 15.5777 19.7087V22.4326Z" fill="#FFDA44"/>
</g>
<defs>
<clipPath id="clip0_299_2919">
<rect width="41.7691" height="41.7691" fill="white" transform="translate(0.141602 0.186523)"/>
</clipPath>
</defs>
</svg>
