<svg width="43" height="42" viewBox="0 0 43 42" fill="none" xmlns="http://www.w3.org/2000/svg">
<g clip-path="url(#clip0_299_2924)">
<path d="M0.542191 21.0707C0.542191 23.6253 1.00173 26.0723 1.84119 28.3348L21.4267 29.2429L41.0123 28.3349C41.8518 26.0723 42.3113 23.6253 42.3113 21.0707C42.3113 18.5161 41.8518 16.069 41.0123 13.8065L21.4267 12.8984L1.84119 13.8064C1.00173 16.069 0.542191 18.5161 0.542191 21.0707H0.542191Z" fill="black"/>
<path d="M21.4268 0.185791C12.4471 0.185791 4.79204 5.85334 1.8412 13.8062H41.0124C38.0615 5.85334 30.4064 0.185791 21.4268 0.185791Z" fill="#0052B4"/>
<path d="M41.0124 28.335H1.84131C4.79215 36.2877 12.4472 41.9554 21.4269 41.9554C30.4065 41.9554 38.0616 36.2877 41.0124 28.335Z" fill="#F0F0F0"/>
</g>
<defs>
<clipPath id="clip0_299_2924">
<rect width="41.7691" height="41.7691" fill="white" transform="translate(0.54248 0.186523)"/>
</clipPath>
</defs>
</svg>
