<svg width="43" height="42" viewBox="0 0 43 42" fill="none" xmlns="http://www.w3.org/2000/svg">
<g clip-path="url(#clip0_299_2928)">
<path d="M0.943344 21.0697C0.943344 23.6245 1.40289 26.0716 2.24243 28.3341L21.8279 30.1499L41.4134 28.334C42.253 26.0716 42.7124 23.6244 42.7124 21.0697C42.7124 18.5501 42.2661 16.1348 41.4484 13.8984L21.8279 11.9895L2.20735 13.8985C1.38967 16.1348 0.943344 18.5501 0.943344 21.0697H0.943344Z" fill="#FFDA44"/>
<path d="M21.8277 41.9544C30.8074 41.9544 38.4625 36.2868 41.4133 28.334H2.24219C5.19303 36.2868 12.8481 41.9544 21.8277 41.9544Z" fill="#D80027"/>
<path d="M21.8282 0.185547C12.8486 0.185547 5.19352 5.85309 2.24268 13.8059H41.4139C38.4629 5.85309 30.8078 0.185547 21.8282 0.185547Z" fill="#6DA544"/>
<path d="M21.8281 31.0576C27.3445 31.0576 31.8164 26.5857 31.8164 21.0693C31.8164 15.553 27.3445 11.0811 21.8281 11.0811C16.3118 11.0811 11.8398 15.553 11.8398 21.0693C11.8398 26.5857 16.3118 31.0576 21.8281 31.0576Z" fill="#0052B4"/>
<path d="M21.8261 13.3352L23.6292 18.8845H29.4733L24.7435 22.3142L26.5607 27.8799L21.8261 24.4339L17.0987 27.8735L18.9086 22.3142L14.1831 18.8845H20.023L21.8261 13.3352Z" fill="#FFDA44"/>
<path d="M29.0171 22.4509L23.297 20.5922L26.8321 15.7267L25.363 14.6592L21.8278 19.525L18.2928 14.6593L16.8235 15.7267L20.3586 20.5925L14.6387 22.4508L15.1999 24.1781L20.9199 22.3197V28.3339H22.7359V22.3196L28.4558 24.1781L29.0171 22.4509Z" fill="#FFDA44"/>
</g>
<defs>
<clipPath id="clip0_299_2928">
<rect width="41.7691" height="41.7691" fill="white" transform="translate(0.943848 0.185547)"/>
</clipPath>
</defs>
</svg>
