<svg width="43" height="42" viewBox="0 0 43 42" fill="none" xmlns="http://www.w3.org/2000/svg">
<g clip-path="url(#clip0_299_2936)">
<path d="M21.2298 41.9549C32.764 41.9549 42.1143 32.6046 42.1143 21.0703C42.1143 9.53612 32.764 0.185791 21.2298 0.185791C9.69558 0.185791 0.345245 9.53612 0.345245 21.0703C0.345245 32.6046 9.69558 41.9549 21.2298 41.9549Z" fill="#0052B4"/>
<path d="M21.2304 8.35815L21.9068 10.4395H24.0951L22.3246 11.7259L23.001 13.8073L21.2304 12.5209L19.4598 13.8073L20.1362 11.7259L18.3657 10.4395H20.5541L21.2304 8.35815Z" fill="#FFDA44"/>
<path d="M12.2409 12.0812L14.191 13.0747L15.7384 11.5273L15.396 13.6888L17.346 14.6824L15.1845 15.0247L14.8421 17.1863L13.8485 15.2363L11.6871 15.5788L13.2345 14.0313L12.2409 12.0812Z" fill="#FFDA44"/>
<path d="M8.51761 21.0706L10.599 20.3943V18.2058L11.8853 19.9764L13.9667 19.3001L12.6802 21.0706L13.9667 22.8411L11.8853 22.1649L10.599 23.9354V21.7469L8.51761 21.0706Z" fill="#FFDA44"/>
<path d="M12.2408 30.0599L13.2344 28.1098L11.687 26.5623L13.8486 26.9049L14.842 24.9548L15.1844 27.1164L17.3459 27.4587L15.3961 28.4523L15.7384 30.6137L14.1909 29.0663L12.2408 30.0599Z" fill="#FFDA44"/>
<path d="M21.2304 33.7839L20.554 31.7025H18.3657L20.1363 30.4162L19.4598 28.335L21.2304 29.6212L23.001 28.335L22.3246 30.4162L24.0951 31.7025H21.9067L21.2304 33.7839Z" fill="#FFDA44"/>
<path d="M30.2197 30.0599L28.2697 29.0664L26.7222 30.6138L27.0646 28.4522L25.1148 27.4587L27.2762 27.1164L27.6186 24.9548L28.6121 26.9049L30.7735 26.5623L29.2261 28.1099L30.2197 30.0599Z" fill="#FFDA44"/>
<path d="M33.9431 21.0706L31.8617 21.7469V23.9354L30.5754 22.1648L28.4942 22.8411L29.7805 21.0706L28.4942 19.3001L30.5755 19.9764L31.8617 18.2058V20.3943L33.9431 21.0706Z" fill="#FFDA44"/>
<path d="M30.2199 12.0816L29.2264 14.0317L30.7738 15.5792L28.6122 15.2366L27.6188 17.1867L27.2764 15.0251L25.115 14.6827L27.0649 13.6892L26.7224 11.5278L28.27 13.0752L30.2199 12.0816Z" fill="#FFDA44"/>
</g>
<defs>
<clipPath id="clip0_299_2936">
<rect width="41.7691" height="41.7691" fill="white" transform="translate(0.344727 0.186523)"/>
</clipPath>
</defs>
</svg>
