<svg width="43" height="42" viewBox="0 0 43 42" fill="none" xmlns="http://www.w3.org/2000/svg">
<g clip-path="url(#clip0_299_2947)">
<path d="M42.5155 21.0703C42.5155 32.6045 33.1651 41.9549 21.6309 41.9549C10.0968 41.9549 0.746368 32.6045 0.746368 21.0703C0.746368 21.0753 21.6309 0.188075 21.6309 0.185791C33.1651 0.185791 42.5155 9.5362 42.5155 21.0703Z" fill="#0052B4"/>
<path d="M21.5747 21.0705H21.6306C21.6306 21.0518 21.6306 21.0335 21.6306 21.0146C21.612 21.0333 21.5934 21.0519 21.5747 21.0705Z" fill="#F0F0F0"/>
<path d="M21.6306 11.0828C21.6306 7.40801 21.6306 5.00017 21.6306 0.186523H21.6271C10.0945 0.188481 0.746094 9.53799 0.746094 21.0711H11.6424V14.9353L17.7782 21.0711H21.5748L21.6307 21.0152C21.6307 19.6082 21.6307 18.3527 21.6307 17.2187L15.4948 11.0828H21.6306Z" fill="#F0F0F0"/>
<path d="M11.3116 2.91016C8.04516 4.77011 5.32968 7.48559 3.46973 10.752V21.0707H8.9179V8.3585V8.35833H21.6302C21.6302 6.64001 21.6302 5.00302 21.6302 2.91016H11.3116Z" fill="#D80027"/>
<path d="M21.6303 18.5022L14.2103 11.0823H11.6421V11.0824L21.6301 21.0705H21.6303C21.6303 21.0705 21.6303 19.2996 21.6303 18.5022Z" fill="#D80027"/>
<path d="M34.3433 24.7021V25.6101H27.0791V24.7021H24.355V28.3342H26.171V29.2423H35.2513V28.3342H37.0673V24.7021H34.3433Z" fill="#FFDA44"/>
<path d="M24.355 11.082V21.0703C24.355 25.9357 30.7112 27.4265 30.7112 27.4265C30.7112 27.4265 37.0673 25.9357 37.0673 21.0703V11.082H24.355Z" fill="#338AF3"/>
<path d="M30.7103 18.5322C29.1214 18.5322 29.1214 19.9851 27.5324 19.9851C25.9435 19.9851 25.9435 18.5322 24.3546 18.5322V21.0747C25.9435 21.0747 25.9435 22.5275 27.5324 22.5275C29.1214 22.5275 29.1214 21.0747 30.7103 21.0747C32.2994 21.0747 32.2994 22.5275 33.8886 22.5275C35.4778 22.5275 35.4777 21.0747 37.0669 21.0747V18.5322C35.4778 18.5322 35.4778 19.9851 33.8886 19.9851C32.2994 19.9851 32.2994 18.5322 30.7103 18.5322Z" fill="#F3F3F3"/>
<path d="M30.7103 13.4424C29.1214 13.4424 29.1214 14.8952 27.5324 14.8952C25.9435 14.8952 25.9435 13.4424 24.3546 13.4424V15.9848C25.9435 15.9848 25.9435 17.4377 27.5324 17.4377C29.1214 17.4377 29.1214 15.9848 30.7103 15.9848C32.2994 15.9848 32.2994 17.4377 33.8886 17.4377C35.4778 17.4377 35.4777 15.9848 37.0669 15.9848V13.4424C35.4778 13.4424 35.4778 14.8952 33.8886 14.8952C32.2994 14.8952 32.2994 13.4424 30.7103 13.4424Z" fill="#F3F3F3"/>
</g>
<defs>
<clipPath id="clip0_299_2947">
<rect width="41.7691" height="41.7691" fill="white" transform="translate(0.746094 0.186523)"/>
</clipPath>
</defs>
</svg>
