<svg width="42" height="43" viewBox="0 0 42 43" fill="none" xmlns="http://www.w3.org/2000/svg">
<g clip-path="url(#clip0_299_2961)">
<path d="M21.0194 42.356C32.5536 42.356 41.904 33.0057 41.904 21.4715C41.904 9.93725 32.5536 0.586914 21.0194 0.586914C9.48519 0.586914 0.134857 9.93725 0.134857 21.4715C0.134857 33.0057 9.48519 42.356 21.0194 42.356Z" fill="#F0F0F0"/>
<path d="M40.9961 21.4711L41.727 18.7471C41.6056 17.8186 41.4235 16.9091 41.1847 16.023H19.2035V0.666016C18.2767 0.745801 17.3675 0.886853 16.4794 1.08379L12.8473 3.3106L11.0312 3.12729C10.0755 3.64875 9.165 4.24266 8.30719 4.90175V16.0229H0.854419C0.615633 16.9091 0.433546 17.8185 0.312154 18.747L1.04295 21.4711L0.312073 24.1952C0.433464 25.1236 0.615551 26.0331 0.854337 26.9192H8.3071V38.0404C9.16492 38.6996 10.0755 39.2934 11.0312 39.8148L13.7552 39.6315L16.4792 41.8583C17.3674 42.0552 18.2766 42.1963 19.2033 42.2761V26.9193H41.1844C41.4232 26.0332 41.6053 25.1237 41.7267 24.1952L40.9961 21.4711Z" fill="#0052B4"/>
<path d="M41.7271 18.7481H16.4794H16.4793V1.08398C14.5492 1.51195 12.7195 2.20563 11.0311 3.12692V18.748H0.311611C0.195522 19.6397 0.134827 20.5489 0.134827 21.4721C0.134827 22.3954 0.195522 23.3045 0.311611 24.1962H11.031H11.0311V39.8172C12.7195 40.7384 14.5492 41.4323 16.4793 41.8602V24.1964V24.1963H41.7271C41.8432 23.3045 41.9039 22.3954 41.9039 21.4721C41.9039 20.5489 41.8432 19.6397 41.7271 18.7481Z" fill="#D80027"/>
</g>
<defs>
<clipPath id="clip0_299_2961">
<rect width="41.7691" height="41.7691" fill="white" transform="translate(0.135315 0.586914)"/>
</clipPath>
</defs>
</svg>
