<svg width="43" height="43" viewBox="0 0 43 43" fill="none" xmlns="http://www.w3.org/2000/svg">
<g clip-path="url(#clip0_299_2965)">
<path d="M42.3058 21.4715C42.3058 33.0056 32.9554 42.356 21.4213 42.356C9.88715 42.356 0.536743 33.0056 0.536743 21.4715C0.536743 21.4764 21.4213 0.589198 21.4213 0.586914C32.9554 0.586914 42.3058 9.93732 42.3058 21.4715Z" fill="#338AF3"/>
<path d="M21.4217 10.5752V17.6191L14.1576 10.5752H21.4217Z" fill="#0052B4"/>
<path d="M11.4336 21.472H17.5694L11.4336 13.2998L10.5256 19.656L11.4336 21.472Z" fill="#0052B4"/>
<path d="M21.3658 21.4719H21.4217C21.4217 21.4531 21.4217 21.4349 21.4217 21.416C21.4031 21.4347 21.3845 21.4533 21.3658 21.4719Z" fill="#F0F0F0"/>
<path d="M21.4217 11.4832C21.4217 7.8084 21.4217 5.40056 21.4217 0.586914H21.4182C9.8856 0.588872 0.537155 9.93838 0.537155 21.4715H11.4334V15.3357L17.5692 21.4715H21.366C21.3846 21.4529 21.4032 21.4343 21.4219 21.4156C21.4219 20.0086 21.4219 18.7531 21.4219 17.6191L15.2859 11.4832H21.4217Z" fill="#F0F0F0"/>
<path d="M11.1028 3.31152C7.83639 5.17147 5.1209 7.88695 3.26096 11.1533V21.472H8.70913V8.75986V8.7597H21.4215C21.4215 7.04137 21.4215 5.40438 21.4215 3.31152H11.1028Z" fill="#D80027"/>
<path d="M21.4215 18.9034L14.0015 11.4834H11.4333V11.4836L21.4214 21.4716H21.4215C21.4215 21.4716 21.4215 19.7007 21.4215 18.9034Z" fill="#D80027"/>
<path d="M24.1456 14.2077V21.4717C24.1456 26.3372 30.5018 27.828 30.5018 27.828C30.5018 27.828 36.858 26.3372 36.858 21.4717V14.2077L30.5018 12.3916L24.1456 14.2077Z" fill="#F3F3F3"/>
<path d="M36.8581 14.2074V11.4834H24.1458V14.2074H29.5938V19.6557H24.1458V21.4716V21.4718L29.5938 21.4718V27.5493C30.1419 27.7432 30.502 27.8278 30.502 27.8278C30.502 27.8278 30.8619 27.7433 31.4099 27.5493V21.4718H36.8581V21.4716V19.6556H31.4099V14.2074H36.8581V14.2074Z" fill="#D80027"/>
</g>
<defs>
<clipPath id="clip0_299_2965">
<rect width="41.7691" height="41.7691" fill="white" transform="translate(0.536438 0.586914)"/>
</clipPath>
</defs>
</svg>
