<svg width="43" height="43" viewBox="0 0 43 43" fill="none" xmlns="http://www.w3.org/2000/svg">
<g clip-path="url(#clip0_299_2979)">
<path d="M21.8222 42.356C33.3564 42.356 42.7068 33.0057 42.7068 21.4715C42.7068 9.93725 33.3564 0.586914 21.8222 0.586914C10.288 0.586914 0.937653 9.93725 0.937653 21.4715C0.937653 33.0057 10.288 42.356 21.8222 42.356Z" fill="#F0F0F0"/>
<path d="M42.5299 18.7481H17.2821H17.282V1.08398C15.352 1.51195 13.5222 2.20563 11.8338 3.12692V18.7479V18.748H1.11436C0.998109 19.6397 0.937576 20.5489 0.937576 21.4721C0.937576 22.3954 0.998109 23.3045 1.11436 24.1962H11.8338H11.8338V39.8172C13.5222 40.7384 15.352 41.4323 17.282 41.8602V24.1964V24.1963H42.5299C42.646 23.3045 42.7067 22.3954 42.7067 21.4721C42.7067 20.5489 42.646 19.6397 42.5299 18.7481Z" fill="#0052B4"/>
</g>
<defs>
<clipPath id="clip0_299_2979">
<rect width="41.7691" height="41.7691" fill="white" transform="translate(0.937576 0.586914)"/>
</clipPath>
</defs>
</svg>
