<svg width="43" height="43" viewBox="0 0 43 43" fill="none" xmlns="http://www.w3.org/2000/svg">
<g clip-path="url(#clip0_299_2982)">
<path d="M21.2231 42.356C32.7573 42.356 42.1077 33.0057 42.1077 21.4715C42.1077 9.93725 32.7573 0.586914 21.2231 0.586914C9.6889 0.586914 0.338566 9.93725 0.338566 21.4715C0.338566 33.0057 9.6889 42.356 21.2231 42.356Z" fill="#F0F0F0"/>
<path d="M42.1079 21.4715C42.1079 12.4919 36.4403 4.83683 28.4875 1.88599V41.0572C36.4403 38.1062 42.1079 30.4512 42.1079 21.4715Z" fill="#D80027"/>
<path d="M0.338566 21.4715C0.338566 30.4512 6.00619 38.1063 13.959 41.0571V1.88599C6.00619 4.83683 0.338566 12.4919 0.338566 21.4715Z" fill="#0052B4"/>
</g>
<defs>
<clipPath id="clip0_299_2982">
<rect width="41.7691" height="41.7691" fill="white" transform="translate(0.338715 0.586914)"/>
</clipPath>
</defs>
</svg>
