<svg width="43" height="43" viewBox="0 0 43 43" fill="none" xmlns="http://www.w3.org/2000/svg">
<g clip-path="url(#clip0_299_2986)">
<path d="M21.6251 42.356C33.1594 42.356 42.5097 33.0057 42.5097 21.4715C42.5097 9.93725 33.1594 0.586914 21.6251 0.586914C10.0909 0.586914 0.740587 9.93725 0.740587 21.4715C0.740587 33.0057 10.0909 42.356 21.6251 42.356Z" fill="#F0F0F0"/>
<path d="M3.27912 11.4832H39.9694C36.4274 4.99135 29.5405 0.586914 21.6243 0.586914C13.7082 0.586914 6.82126 4.99135 3.27912 11.4832Z" fill="#D80027"/>
<path d="M21.6243 42.3562C29.5405 42.3562 36.4274 37.9518 39.9695 31.46H3.27912C6.82126 37.9518 13.7082 42.3562 21.6243 42.3562Z" fill="#D80027"/>
<path d="M28.8888 21.4712C28.8888 25.4831 25.6366 27.8273 21.6247 27.8273C17.6128 27.8273 14.3605 25.4831 14.3605 21.4712C14.3605 17.4592 17.6128 14.207 21.6247 14.207C25.6366 14.207 28.8888 17.4592 28.8888 21.4712Z" fill="#FFDA44"/>
<path d="M28.8889 21.4717C28.8889 25.4836 25.6366 28.7358 21.6247 28.7358C17.6128 28.7358 14.3605 25.4836 14.3605 21.4717" fill="#0052B4"/>
<path d="M17.0844 19.6562H18.9007V23.289H17.0844V19.6562Z" fill="#D80027"/>
<path d="M24.3485 19.6562H26.1649V23.289H24.3485V19.6562Z" fill="#D80027"/>
<path d="M20.7165 16.9316H22.5325V23.2878H20.7165V16.9316Z" fill="#D80027"/>
</g>
<defs>
<clipPath id="clip0_299_2986">
<rect width="41.7691" height="41.7691" fill="white" transform="translate(0.740417 0.586914)"/>
</clipPath>
</defs>
</svg>
