<svg width="42" height="43" viewBox="0 0 42 43" fill="none" xmlns="http://www.w3.org/2000/svg">
<g clip-path="url(#clip0_299_2997)">
<path d="M40.6116 28.736C41.4511 26.4736 41.9106 24.0264 41.9106 21.4718C41.9106 18.9172 41.4511 16.4702 40.6116 14.2077L21.026 12.3916L1.44049 14.2077C0.601029 16.4702 0.141487 18.9172 0.141487 21.4718C0.141487 24.0264 0.601029 26.4736 1.44049 28.736L21.026 30.552L40.6116 28.736Z" fill="#FFDA44"/>
<path d="M21.026 42.3558C30.0055 42.3558 37.6607 36.6882 40.6115 28.7354H1.44037C4.39129 36.6882 12.0463 42.3558 21.026 42.3558Z" fill="#0052B4"/>
<path d="M21.0261 0.586914C12.0464 0.586914 4.39141 6.25446 1.44049 14.2073H40.6117C37.6608 6.25446 30.0057 0.586914 21.0261 0.586914Z" fill="#6DA544"/>
</g>
<defs>
<clipPath id="clip0_299_2997">
<rect width="41.7691" height="41.7691" fill="white" transform="translate(0.141541 0.586914)"/>
</clipPath>
</defs>
</svg>
