<svg width="43" height="43" viewBox="0 0 43 43" fill="none" xmlns="http://www.w3.org/2000/svg">
<g clip-path="url(#clip0_299_3001)">
<path d="M42.3113 21.472C42.3113 18.9174 41.8518 16.4703 41.0123 14.2079L21.4267 13.2998L1.84118 14.2078C1.00172 16.4703 0.542175 18.9174 0.542175 21.472C0.542175 24.0266 1.00172 26.4738 1.84118 28.7362L21.4267 29.6443L41.0123 28.7363C41.8518 26.4738 42.3113 24.0266 42.3113 21.472Z" fill="#F0F0F0"/>
<path d="M21.427 42.3558C30.4067 42.3558 38.0618 36.6882 41.0126 28.7354H1.84149C4.79233 36.6882 12.4474 42.3558 21.427 42.3558Z" fill="#0052B4"/>
<path d="M1.84138 14.2073H41.0126C38.0616 6.25446 30.4066 0.586914 21.4269 0.586914C12.4473 0.586914 4.79223 6.25446 1.84138 14.2073Z" fill="#6DA544"/>
</g>
<defs>
<clipPath id="clip0_299_3001">
<rect width="41.7691" height="41.7691" fill="white" transform="translate(0.542664 0.586914)"/>
</clipPath>
</defs>
</svg>
