<svg width="43" height="43" viewBox="0 0 43 43" fill="none" xmlns="http://www.w3.org/2000/svg">
<g clip-path="url(#clip0_299_3005)">
<path d="M21.8279 42.355C33.3621 42.355 42.7125 33.0047 42.7125 21.4705C42.7125 9.93627 33.3621 0.585938 21.8279 0.585938C10.2937 0.585938 0.943359 9.93627 0.943359 21.4705C0.943359 33.0047 10.2937 42.355 21.8279 42.355Z" fill="#F0F0F0"/>
<path d="M21.8281 0.585938C13.194 0.585938 5.78425 5.82551 2.60352 13.2983H41.0527C37.872 5.82551 30.4621 0.585938 21.8281 0.585938Z" fill="#A2001D"/>
<path d="M21.8281 42.3559C30.4621 42.3559 37.872 37.1163 41.0526 29.6436H2.60352C5.78425 37.1163 13.194 42.3559 21.8281 42.3559Z" fill="#496E2D"/>
<path d="M41.993 16.0227H1.6628C1.19461 17.7598 0.943344 19.5858 0.943344 21.4709C0.943344 23.356 1.19461 25.182 1.6628 26.9191H41.9931C42.4612 25.182 42.7124 23.356 42.7124 21.4709C42.7124 19.5858 42.4612 17.7598 41.993 16.0227Z" fill="#0052B4"/>
</g>
<defs>
<clipPath id="clip0_299_3005">
<rect width="41.7691" height="41.7691" fill="white" transform="translate(0.943848 0.585938)"/>
</clipPath>
</defs>
</svg>
