<svg width="43" height="43" viewBox="0 0 43 43" fill="none" xmlns="http://www.w3.org/2000/svg">
<g clip-path="url(#clip0_299_3010)">
<path d="M21.2298 42.356C32.764 42.356 42.1143 33.0057 42.1143 21.4715C42.1143 9.93725 32.764 0.586914 21.2298 0.586914C9.69558 0.586914 0.345245 9.93725 0.345245 21.4715C0.345245 33.0057 9.69558 42.356 21.2298 42.356Z" fill="#F0F0F0"/>
<path d="M41.9375 18.7474H23.954H23.9539V0.763699C23.0621 0.64761 22.153 0.586914 21.2298 0.586914C20.3065 0.586914 19.3974 0.64761 18.5057 0.763699V18.7473V18.7473H0.521999C0.405911 19.6391 0.345215 20.5482 0.345215 21.4715C0.345215 22.3949 0.405911 23.3038 0.521999 24.1955H18.5056H18.5056V42.1792C19.3974 42.2953 20.3065 42.356 21.2298 42.356C22.153 42.356 23.0621 42.2954 23.9538 42.1792V24.1957V24.1956H41.9375C42.0536 23.3038 42.1143 22.3949 42.1143 21.4715C42.1143 20.5482 42.0536 19.6391 41.9375 18.7474Z" fill="#D80027"/>
<path d="M13.0576 10.5757V7.85156H10.3335V10.5757H7.60938V13.2997H10.3335V16.0238H13.0576V13.2997H15.7816V10.5757H13.0576Z" fill="#D80027"/>
<path d="M32.1263 10.5757V7.85156H29.4023V10.5757H26.6782V13.2997H29.4023V16.0238H32.1263V13.2997H34.8504V10.5757H32.1263Z" fill="#D80027"/>
<path d="M13.0576 29.644V26.9199H10.3335V29.644H7.60938V32.368H10.3335V35.0921H13.0576V32.368H15.7816V29.644H13.0576Z" fill="#D80027"/>
<path d="M32.1263 29.644V26.9199H29.4023V29.644H26.6782V32.368H29.4023V35.0921H32.1263V32.368H34.8504V29.644H32.1263Z" fill="#D80027"/>
</g>
<defs>
<clipPath id="clip0_299_3010">
<rect width="41.7691" height="41.7691" fill="white" transform="translate(0.344727 0.586914)"/>
</clipPath>
</defs>
</svg>
