<svg width="43" height="43" viewBox="0 0 43 43" fill="none" xmlns="http://www.w3.org/2000/svg">
<g clip-path="url(#clip0_299_3018)">
<path d="M2.04538 28.7359C4.99622 36.6887 12.6513 42.3563 21.6309 42.3563C30.6106 42.3563 38.2656 36.6887 41.2165 28.7359L21.6309 26.9199L2.04538 28.7359Z" fill="#FFDA44"/>
<path d="M21.631 0.587891C12.6513 0.587891 4.99625 6.25544 2.04541 14.2083L21.631 16.0243L41.2165 14.2082C38.2657 6.25544 30.6106 0.587891 21.631 0.587891Z" fill="black"/>
<path d="M2.04537 14.208C1.20591 16.4705 0.746368 18.9176 0.746368 21.4722C0.746368 24.0268 1.20591 26.4739 2.04537 28.7363H41.2166C42.056 26.4739 42.5155 24.0268 42.5155 21.4722C42.5155 18.9176 42.056 16.4705 41.2165 14.208H2.04537Z" fill="#D80027"/>
</g>
<defs>
<clipPath id="clip0_299_3018">
<rect width="41.7691" height="41.7691" fill="white" transform="translate(0.746094 0.587891)"/>
</clipPath>
</defs>
</svg>
