<svg width="42" height="43" viewBox="0 0 42 43" fill="none" xmlns="http://www.w3.org/2000/svg">
<g clip-path="url(#clip0_299_3022)">
<path d="M0.134766 21.8724C0.134766 24.427 0.594307 26.8741 1.43377 29.1366L21.0193 30.0446L40.6049 29.1367C41.4444 26.8741 41.9039 24.427 41.9039 21.8724C41.9039 19.3178 41.4444 16.8707 40.6049 14.6083L21.0193 13.7002L1.43377 14.6082C0.594307 16.8707 0.134766 19.3178 0.134766 21.8724H0.134766Z" fill="#FFDA44"/>
<path d="M21.0191 0.988281C12.0395 0.988281 4.38443 6.65583 1.43359 14.6087H40.6048C37.6539 6.65583 29.9988 0.988281 21.0191 0.988281Z" fill="#D80027"/>
<path d="M40.6049 29.137H1.43381C4.38465 37.0897 12.0397 42.7574 21.0194 42.7574C29.999 42.7574 37.6541 37.0897 40.6049 29.137Z" fill="#496E2D"/>
<path d="M21.0189 14.6086L22.8218 20.1577H28.6571L23.9366 23.5876L25.7396 29.137L21.0189 25.7073L16.2983 29.137L18.1015 23.5876L13.381 20.1577H19.216L21.0189 14.6086Z" fill="black"/>
</g>
<defs>
<clipPath id="clip0_299_3022">
<rect width="41.7691" height="41.7691" fill="white" transform="translate(0.135254 0.988281)"/>
</clipPath>
</defs>
</svg>
