<svg width="43" height="43" viewBox="0 0 43 43" fill="none" xmlns="http://www.w3.org/2000/svg">
<g clip-path="url(#clip0_299_3027)">
<path d="M21.4217 42.7574C32.9559 42.7574 42.3062 33.4071 42.3062 21.8728C42.3062 10.3386 32.9559 0.988281 21.4217 0.988281C9.88744 0.988281 0.537109 10.3386 0.537109 21.8728C0.537109 33.4071 9.88744 42.7574 21.4217 42.7574Z" fill="#F9F9F9"/>
<path d="M21.4221 42.7571C30.4016 42.7571 38.0568 37.0896 41.0075 29.1367H1.83643C4.78735 37.0896 12.4424 42.7571 21.4221 42.7571Z" fill="#D80027"/>
<path d="M29.5942 18.2403V15.5163H30.5022V13.7002H28.6862V14.6083H26.8702V13.7002H25.0541V15.5163H25.9621V18.2403H24.146V11.8843H25.0541V10.0684H23.2381V10.9762H22.33V10.0684H20.514V10.9762H19.6059V10.0684H17.7899V11.8843H18.698V18.2403H16.8819V15.5163H17.7899V13.7002H15.9738V14.6083H14.1578V13.7002H12.3418V15.5163H13.2498V18.2403H11.4337V25.5046H31.4103V18.2403H29.5942Z" fill="#D80027"/>
<path d="M21.4216 24.5967C19.9172 24.5967 18.6975 25.8163 18.6975 27.3207C18.6975 28.5066 19.4557 29.5152 20.5136 29.8892V33.677H17.7896V37.3091H22.3297V29.8893C23.3875 29.5153 24.1457 28.5067 24.1457 27.3208C24.1456 25.8164 22.926 24.5967 21.4216 24.5967ZM21.4216 28.2288C20.9201 28.2288 20.5136 27.8222 20.5136 27.3208C20.5136 26.8193 20.9201 26.4128 21.4216 26.4128C21.9231 26.4128 22.3296 26.8193 22.3296 27.3208C22.3296 27.8222 21.9231 28.2288 21.4216 28.2288Z" fill="#FFDA44"/>
</g>
<defs>
<clipPath id="clip0_299_3027">
<rect width="41.7691" height="41.7691" fill="white" transform="translate(0.536621 0.988281)"/>
</clipPath>
</defs>
</svg>
