<svg width="43" height="43" viewBox="0 0 43 43" fill="none" xmlns="http://www.w3.org/2000/svg">
<g clip-path="url(#clip0_299_3041)">
<path d="M0.338867 21.8728C0.338867 10.3387 9.68927 0.988281 21.2234 0.988281C32.7576 0.988281 42.108 10.3387 42.108 21.8728C41.2 21.8728 21.2234 24.5969 21.2234 24.5969L0.338867 21.8728Z" fill="#F0F0F0"/>
<path d="M42.108 21.873C42.108 33.4072 32.7576 42.7576 21.2234 42.7576C9.68927 42.7576 0.338867 33.4072 0.338867 21.873" fill="#D80027"/>
<path d="M14.8677 31.8613C20.3841 31.8613 24.856 27.3894 24.856 21.873C24.856 16.3567 20.3841 11.8848 14.8677 11.8848C9.3513 11.8848 4.87939 16.3567 4.87939 21.873C4.87939 27.3894 9.3513 31.8613 14.8677 31.8613Z" fill="#F0F0F0"/>
<path d="M4.87939 21.873C4.87939 16.3568 9.3513 11.8848 14.8677 11.8848C20.3841 11.8848 24.856 16.3568 24.856 21.873" fill="#D80027"/>
</g>
<defs>
<clipPath id="clip0_299_3041">
<rect width="41.7691" height="41.7691" fill="white" transform="translate(0.338867 0.988281)"/>
</clipPath>
</defs>
</svg>
