<svg width="43" height="43" viewBox="0 0 43 43" fill="none" xmlns="http://www.w3.org/2000/svg">
<g clip-path="url(#clip0_299_3033)">
<path d="M21.8221 42.7574C33.3563 42.7574 42.7066 33.4071 42.7066 21.8728C42.7066 10.3386 33.3563 0.988281 21.8221 0.988281C10.2878 0.988281 0.9375 10.3386 0.9375 21.8728C0.9375 33.4071 10.2878 42.7574 21.8221 42.7574Z" fill="#F0F0F0"/>
<path d="M21.8228 16.4247H41.9879C41.4642 14.482 40.6683 12.6512 39.642 10.9766H21.8228V16.4247Z" fill="#338AF3"/>
<path d="M8.82228 38.2177H34.823C36.7289 36.6997 38.3635 34.8558 39.6418 32.7695H4.00342C5.28186 34.8557 6.91641 36.6997 8.82228 38.2177Z" fill="#338AF3"/>
<path d="M8.20285 6.04126C6.56068 7.45537 5.14102 9.12064 4.00327 10.9774H8.20285V6.04126Z" fill="#338AF3"/>
<path d="M21.8225 21.873C21.8225 19.7457 21.8225 17.9654 21.8225 16.4248H13.6503V21.873H8.20214V16.4248H1.65744C1.18926 18.162 0.937988 19.9879 0.937988 21.873C0.937988 23.7581 1.18926 25.584 1.65744 27.3212H41.9877C42.4558 25.584 42.7071 23.7581 42.7071 21.873H21.8225Z" fill="#338AF3"/>
<path d="M21.8223 0.988281C18.9222 0.988281 16.1603 1.57998 13.6501 2.64828V10.9766H21.8223C21.8223 9.07476 21.8223 7.45727 21.8223 5.52839H34.8227C31.2551 2.68711 26.7374 0.988281 21.8223 0.988281Z" fill="#338AF3"/>
</g>
<defs>
<clipPath id="clip0_299_3033">
<rect width="41.7691" height="41.7691" fill="white" transform="translate(0.9375 0.988281)"/>
</clipPath>
</defs>
</svg>
