<svg width="43" height="43" viewBox="0 0 43 43" fill="none" xmlns="http://www.w3.org/2000/svg">
<g clip-path="url(#clip0_299_3046)">
<path d="M21.6248 42.7574C33.159 42.7574 42.5093 33.4071 42.5093 21.8728C42.5093 10.3386 33.159 0.988281 21.6248 0.988281C10.0906 0.988281 0.740234 10.3386 0.740234 21.8728C0.740234 33.4071 10.0906 42.7574 21.6248 42.7574Z" fill="#FFDA44"/>
<path d="M9.85352 4.6204C13.2052 2.32913 17.258 0.988281 21.6245 0.988281C25.991 0.988281 30.0437 2.32913 33.3955 4.6204L21.6245 5.52839L9.85352 4.6204Z" fill="#A2001D"/>
<path d="M21.6253 21.8731L20.2922 20.54L19.9382 21.1741L21.6253 21.8731Z" fill="#0052B4"/>
<path d="M6.85642 7.10571C-1.29949 15.2616 -1.29949 28.4851 6.85642 36.641C10.2267 33.2707 13.4682 30.0293 21.6241 21.8734L6.85642 7.10571Z" fill="#496E2D"/>
<path d="M36.3918 7.10571C44.5478 15.2616 44.5478 28.4851 36.3918 36.641C33.0215 33.2707 29.7801 30.0293 21.6242 21.8734L36.3918 7.10571Z" fill="#496E2D"/>
<path d="M21.6245 29.137C25.6364 29.137 28.8887 25.8847 28.8887 21.8728C28.8887 17.8609 25.6364 14.6086 21.6245 14.6086C17.6126 14.6086 14.3604 17.8609 14.3604 21.8728C14.3604 25.8847 17.6126 29.137 21.6245 29.137Z" fill="#A2001D"/>
<path d="M21.6256 14.6084L23.2538 19.6198H28.5237L24.2605 22.7176L25.8888 27.7293L21.6256 24.632L17.3622 27.7293L18.9908 22.7176L14.7275 19.6198H19.9971L21.6256 14.6084Z" fill="#FFDA44"/>
<path d="M21.6264 0.988281C21.6238 0.988281 21.6213 0.98846 21.6187 0.98846H21.6339C21.6314 0.98846 21.6289 0.988281 21.6264 0.988281Z" fill="#FFDA44"/>
<path d="M21.6319 0.987305H21.618C15.8541 0.989181 10.6361 3.32589 6.8584 7.10322H36.3915C32.6137 3.32589 27.3957 0.989181 21.6319 0.987305Z" fill="#A2001D"/>
<path d="M6.8584 36.6409C10.6377 40.4196 15.8583 42.7567 21.6248 42.7567C27.3913 42.7567 32.612 40.4196 36.3913 36.6409H6.8584Z" fill="#A2001D"/>
<path d="M21.625 3.25806L21.9632 4.29871H23.0574L22.1722 4.94192L22.5104 5.98258L21.625 5.33945L20.7398 5.98258L21.078 4.94192L20.1926 4.29871H21.2868L21.625 3.25806Z" fill="#FFDA44"/>
<path d="M16.5612 3.25806L16.8994 4.29871H17.9936L17.1083 4.94192L17.4466 5.98258L16.5612 5.33945L15.676 5.98258L16.0142 4.94192L15.1288 4.29871H16.223L16.5612 3.25806Z" fill="#FFDA44"/>
<path d="M26.6894 3.25806L27.0276 4.29871H28.1218L27.2365 4.94192L27.5748 5.98258L26.6894 5.33945L25.8042 5.98258L26.1424 4.94192L25.257 4.29871H26.3512L26.6894 3.25806Z" fill="#FFDA44"/>
<path d="M21.6251 37.7637L21.9633 38.8043H23.0575L22.1723 39.4475L22.5105 40.4882L21.6251 39.845L20.7399 40.4882L21.0781 39.4475L20.1927 38.8043H21.2869L21.6251 37.7637Z" fill="#FFDA44"/>
<path d="M16.5611 37.7637L16.8994 38.8043H17.9935L17.1083 39.4475L17.4465 40.4882L16.5611 39.845L15.676 40.4882L16.0141 39.4475L15.1287 38.8043H16.2229L16.5611 37.7637Z" fill="#FFDA44"/>
<path d="M26.6896 37.7637L27.0278 38.8043H28.1219L27.2367 39.4475L27.5749 40.4882L26.6896 39.845L25.8043 40.4882L26.1425 39.4475L25.2572 38.8043H26.3514L26.6896 37.7637Z" fill="#FFDA44"/>
<path d="M7.10432 21.5286C7.64081 22.3763 7.38868 23.4983 6.54099 24.0349C5.69339 24.5714 4.5713 24.3193 4.03474 23.4716C3.06336 21.937 3.6266 19.4307 3.6266 19.4307C3.6266 19.4307 6.13286 19.9939 7.10432 21.5286Z" fill="#FFDA44"/>
<path d="M6.05526 24.1747C6.55682 24.1747 6.96341 23.7681 6.96341 23.2665C6.96341 22.765 6.55682 22.3584 6.05526 22.3584C5.55371 22.3584 5.14712 22.765 5.14712 23.2665C5.14712 23.7681 5.55371 24.1747 6.05526 24.1747Z" fill="#A2001D"/>
</g>
<defs>
<clipPath id="clip0_299_3046">
<rect width="41.7691" height="41.7691" fill="white" transform="translate(0.740234 0.988281)"/>
</clipPath>
</defs>
</svg>
