<svg width="42" height="43" viewBox="0 0 42 43" fill="none" xmlns="http://www.w3.org/2000/svg">
<g clip-path="url(#clip0_299_3069)">
<path d="M9.25439 39.1247C12.606 41.4158 16.6589 42.7568 21.0254 42.7568C25.3918 42.7568 29.4446 41.4158 32.7963 39.1247L21.0254 37.3086L9.25439 39.1247Z" fill="#D80027"/>
<path d="M32.7963 4.61942C29.4446 2.32824 25.3918 0.987305 21.0254 0.987305C16.6589 0.987305 12.606 2.32824 9.25439 4.61942L21.0254 6.43548L32.7963 4.61942Z" fill="#D80027"/>
<path d="M41.9107 21.8735C41.9107 14.9629 37.7733 8.02283 32.7971 4.62109H9.25518C3.75316 8.38227 0.141602 14.7059 0.141602 21.8735C0.141602 29.0414 3.75316 35.3648 9.25518 39.126H32.7971C38.2992 35.3648 41.9107 29.0414 41.9107 21.8735Z" fill="#0052B4"/>
<path d="M19.844 35.0561C19.5586 34.8113 12.8536 28.9826 12.8536 21.873C12.8536 14.7633 19.5585 8.93448 19.844 8.68982L21.0258 7.67676L22.2077 8.68974C22.4931 8.93448 29.1981 14.7632 29.1981 21.873C29.1981 28.9827 22.4931 34.8115 22.2077 35.0561L21.0258 36.0691L19.844 35.0561Z" fill="#D80027"/>
<path d="M27.3823 21.8729C27.3823 15.5168 21.0261 10.0686 21.0261 10.0686C21.0261 10.0686 14.6699 15.5169 14.6699 21.8729C14.6699 23.8174 15.2652 25.6765 16.091 27.3211H25.9612C26.787 25.6765 27.3823 23.8174 27.3823 21.8729Z" fill="#338AF3"/>
<path d="M27.3823 21.873C27.3823 23.8175 26.787 25.6766 25.9612 27.3212L21.0261 28.2292L16.091 27.3212C15.2652 25.6767 14.6699 23.8175 14.6699 21.873H27.3823Z" fill="#0052B4"/>
<path d="M21.0259 33.6772C21.0259 33.6772 24.0875 31.0522 25.961 27.321H16.0908C17.9644 31.0522 21.0259 33.6772 21.0259 33.6772Z" fill="#FFDA44"/>
<path d="M16.9399 18.2402H25.1122L21.0261 22.3263L16.9399 18.2402Z" fill="#6DA544"/>
<path d="M19.6641 20.9648H22.3882V29.1371H19.6641V20.9648Z" fill="#A2001D"/>
</g>
<defs>
<clipPath id="clip0_299_3069">
<rect width="41.7691" height="41.7691" fill="white" transform="translate(0.141602 0.988281)"/>
</clipPath>
</defs>
</svg>
