<svg width="43" height="43" viewBox="0 0 43 43" fill="none" xmlns="http://www.w3.org/2000/svg">
<g clip-path="url(#clip0_299_3080)">
<path d="M21.4265 42.7574C32.9608 42.7574 42.3111 33.4071 42.3111 21.8728C42.3111 10.3386 32.9608 0.988281 21.4265 0.988281C9.89232 0.988281 0.541992 10.3386 0.541992 21.8728C0.541992 33.4071 9.89232 42.7574 21.4265 42.7574Z" fill="#F0F0F0"/>
<path d="M42.3109 21.8728C42.3109 13.5929 37.4924 6.43862 30.5066 3.06055V40.685C37.4924 37.307 42.3109 30.1526 42.3109 21.8728Z" fill="#338AF3"/>
<path d="M0.541916 21.8728C0.541916 30.1526 5.36046 37.307 12.3463 40.6851V3.06055C5.36046 6.43862 0.541916 13.5929 0.541916 21.8728Z" fill="#338AF3"/>
<path d="M26.8844 25.4041L23.3532 21.8728L26.7145 18.5113L26.5622 16.7359L25.5999 15.7734L21.4269 19.9464L17.2539 15.7734L16.2916 16.7359L16.1393 18.5113L19.5006 21.8728L15.9692 25.4041L17.8955 27.3302L21.4269 23.799L24.9582 27.3302L26.8844 25.4041Z" fill="#ACABB1"/>
<path d="M26.5634 16.7366L24.6372 18.6628C25.4588 19.4844 25.967 20.6194 25.967 21.8731C25.967 24.3806 23.9343 26.4132 21.4269 26.4132C18.9196 26.4132 16.8867 24.3806 16.8867 21.8731C16.8867 20.6194 17.395 19.4844 18.2166 18.6628L16.2904 16.7366C14.9757 18.051 14.1627 19.8671 14.1627 21.8731C14.1627 25.8851 17.415 29.1373 21.4268 29.1373C25.4387 29.1373 28.691 25.885 28.691 21.8731C28.691 19.8671 27.878 18.0511 26.5634 16.7366Z" fill="#6DA544"/>
</g>
<defs>
<clipPath id="clip0_299_3080">
<rect width="41.7691" height="41.7691" fill="white" transform="translate(0.54248 0.988281)"/>
</clipPath>
</defs>
</svg>
