<svg width="43" height="43" viewBox="0 0 43 43" fill="none" xmlns="http://www.w3.org/2000/svg">
<g clip-path="url(#clip0_299_3087)">
<path d="M21.8279 42.7567C33.3621 42.7567 42.7125 33.4063 42.7125 21.8721C42.7125 10.3379 33.3621 0.987549 21.8279 0.987549C10.2937 0.987549 0.943359 10.3379 0.943359 21.8721C0.943359 33.4063 10.2937 42.7567 21.8279 42.7567Z" fill="#F0F0F0"/>
<path d="M42.5357 19.1481H24.5521H24.552V1.16433C23.6603 1.04824 22.7512 0.987549 21.8279 0.987549C20.9047 0.987549 19.9955 1.04824 19.1039 1.16433V19.1481H1.12014C1.00406 20.0397 0.943359 20.9489 0.943359 21.8721C0.943359 22.7953 1.00406 23.7045 1.12014 24.5961H19.1037H19.1038V42.5799C19.9955 42.696 20.9047 42.7567 21.8279 42.7567C22.7512 42.7567 23.6603 42.696 24.552 42.5799V24.5964V24.5962H42.5357C42.6518 23.7045 42.7125 22.7953 42.7125 21.8721C42.7125 20.9489 42.6518 20.0397 42.5357 19.1481Z" fill="#D80027"/>
<path d="M27.7303 22.7808L29.0923 23.6889V20.0567L27.7303 20.9648H22.7361V15.9706L23.6442 14.6086H20.0121L20.9201 15.9706V20.9648H15.9259L14.564 20.0567V23.6889L15.9259 22.7808H20.9201V27.775L20.0121 29.137H23.6442L22.7361 27.775V22.7808H27.7303Z" fill="#FFDA44"/>
</g>
<defs>
<clipPath id="clip0_299_3087">
<rect width="41.7691" height="41.7691" fill="white" transform="translate(0.943848 0.987549)"/>
</clipPath>
</defs>
</svg>
