<svg width="43" height="43" viewBox="0 0 43 43" fill="none" xmlns="http://www.w3.org/2000/svg">
<g clip-path="url(#clip0_299_3098)">
<path d="M28.895 2.28737C26.6324 1.44782 24.1852 0.988281 21.6306 0.988281C19.076 0.988281 16.629 1.44782 14.3666 2.2872L13.4585 21.8728L14.3665 41.4585C16.6289 42.2979 19.076 42.7574 21.6306 42.7574C24.1853 42.7574 26.6324 42.2979 28.895 41.4583L29.8029 21.8728L28.895 2.28737Z" fill="#FFDA44"/>
<path d="M0.746582 21.8727C0.746582 30.8523 6.41413 38.5075 14.367 41.4582V2.28711C6.41413 5.23803 0.746582 12.893 0.746582 21.8727Z" fill="#D80027"/>
<path d="M42.5154 21.8727C42.5154 12.893 36.8479 5.23803 28.895 2.28711V41.4583C36.8479 38.5075 42.5154 30.8523 42.5154 21.8727Z" fill="#6DA544"/>
</g>
<defs>
<clipPath id="clip0_299_3098">
<rect width="41.7691" height="41.7691" fill="white" transform="translate(0.746094 0.988281)"/>
</clipPath>
</defs>
</svg>
