<svg width="43" height="43" viewBox="0 0 43 43" fill="none" xmlns="http://www.w3.org/2000/svg">
<g clip-path="url(#clip0_299_3091)">
<path d="M21.2295 0.988281C19.3445 0.988281 17.5184 1.23955 15.7813 1.70774L13.9653 21.8728L15.7814 42.0379C17.5184 42.5061 19.3445 42.7574 21.2295 42.7574C32.7636 42.7574 42.114 33.407 42.114 21.8728C42.114 10.3387 32.7636 0.988281 21.2295 0.988281Z" fill="#FFDA44"/>
<path d="M13.9653 21.873L15.7814 42.0381C17.5184 42.5063 19.3445 42.7576 21.2295 42.7576C32.7636 42.7576 42.114 33.4072 42.114 21.873H13.9653Z" fill="#6DA544"/>
<path d="M0.344727 21.8723C0.344727 29.7884 4.74925 36.6755 11.241 40.2175V3.5271C4.74925 7.06915 0.344727 13.9562 0.344727 21.8723Z" fill="#D80027"/>
<path d="M0.344727 21.8721C0.344727 31.5214 6.88918 39.6407 15.7811 42.0372V1.70703C6.88918 4.10353 0.344727 12.2229 0.344727 21.8721Z" fill="#D80027"/>
<path d="M8.23682 16.4248L9.58901 20.5867H13.9655L10.425 23.1591L11.7772 27.3212L8.23682 24.7488L4.69631 27.3212L6.04875 23.1591L2.50833 20.5867H6.88454L8.23682 16.4248Z" fill="black"/>
</g>
<defs>
<clipPath id="clip0_299_3091">
<rect width="41.7691" height="41.7691" fill="white" transform="translate(0.344727 0.988281)"/>
</clipPath>
</defs>
</svg>
