<svg width="42" height="43" viewBox="0 0 42 43" fill="none" xmlns="http://www.w3.org/2000/svg">
<g clip-path="url(#clip0_299_3102)">
<path d="M21.0194 42.1588C32.5536 42.1588 41.904 32.8084 41.904 21.2742C41.904 9.73998 32.5536 0.389648 21.0194 0.389648C9.48519 0.389648 0.134857 9.73998 0.134857 21.2742C0.134857 32.8084 9.48519 42.1588 21.0194 42.1588Z" fill="#F0F0F0"/>
<path d="M21.0194 0.389648C17.327 0.389648 13.8591 1.3492 10.8495 3.03057V39.5178C13.8592 41.1992 17.327 42.1588 21.0194 42.1588C32.5535 42.1588 41.9039 32.8083 41.9039 21.2742C41.9039 9.74005 32.5535 0.389648 21.0194 0.389648Z" fill="#6DA544"/>
<path d="M10.9111 2.99609C9.59729 3.7242 8.37049 4.5896 7.24965 5.57346C7.36297 5.4741 7.47743 5.37587 7.59278 5.27895L23.5878 21.2741L7.5927 37.2692C7.47726 37.1723 7.36289 37.0741 7.24957 36.9747C8.3704 37.9586 9.59729 38.8239 10.9111 39.5521L41.9041 21.2741L10.9111 2.99609Z" fill="#F0F0F0"/>
<path d="M9.14739 4.09204C8.51049 4.53306 7.8988 5.00762 7.31591 5.5148L21.0198 21.2743L7.31583 37.0338C7.89872 37.541 8.51041 38.0157 9.1473 38.4566L38.3293 21.2743L9.14739 4.09204Z" fill="#FFDA44"/>
<path d="M7.59279 5.2793C7.12851 5.66941 6.68047 6.07838 6.25201 6.50675L19.2036 21.2744L6.25201 36.0421C6.68047 36.4705 7.12843 36.8796 7.59279 37.2695L23.5879 21.2744L7.59279 5.2793Z" fill="black"/>
<path d="M6.25179 6.50659C-1.90412 14.6625 -1.90412 27.8859 6.25179 36.0419C9.62212 32.6716 12.8635 29.4302 21.0195 21.2743L6.25179 6.50659Z" fill="#D80027"/>
</g>
<defs>
<clipPath id="clip0_299_3102">
<rect width="41.7691" height="41.7691" fill="white" transform="translate(0.135315 0.389648)"/>
</clipPath>
</defs>
</svg>
