<svg width="43" height="43" viewBox="0 0 43 43" fill="none" xmlns="http://www.w3.org/2000/svg">
<g clip-path="url(#clip0_299_3109)">
<path d="M42.3058 21.2742C42.3058 32.8083 32.9554 42.1588 21.4213 42.1588C9.88715 42.1588 0.536743 32.8083 0.536743 21.2742C0.536743 9.74005 21.4213 0.389648 21.4213 0.389648C21.4213 0.389648 42.3058 9.74005 42.3058 21.2742Z" fill="#A2001D"/>
<path d="M0.536743 21.2742C0.536743 9.74005 9.88715 0.389648 21.4213 0.389648C32.9554 0.389648 42.3058 9.74005 42.3058 21.2742" fill="#0052B4"/>
<path d="M28.6856 26.7223L21.4214 25.8142L14.1572 26.7223V15.8259H28.6856V26.7223Z" fill="#F0F0F0"/>
<path d="M21.4215 25.814C23.4274 25.814 25.0536 24.1879 25.0536 22.1819C25.0536 20.176 23.4274 18.5498 21.4215 18.5498C19.4155 18.5498 17.7894 20.176 17.7894 22.1819C17.7894 24.1879 19.4155 25.814 21.4215 25.814Z" fill="#0052B4"/>
<path d="M21.4215 23.9987C22.4246 23.9987 23.2379 23.1855 23.2379 22.1823C23.2379 21.1792 22.4246 20.366 21.4215 20.366C20.4183 20.366 19.6051 21.1792 19.6051 22.1823C19.6051 23.1855 20.4183 23.9987 21.4215 23.9987Z" fill="#A2001D"/>
<path d="M18.6971 17.6426H24.1461L21.4216 20.3672L18.6971 17.6426Z" fill="#6DA544"/>
<path d="M20.5135 19.458H22.3299V24.9071H20.5135V19.458Z" fill="#FFDA44"/>
<path d="M24.327 24.3613H18.5156L14.1572 26.7223H28.6856L24.327 24.3613Z" fill="#6DA544"/>
</g>
<defs>
<clipPath id="clip0_299_3109">
<rect width="41.7691" height="41.7691" fill="white" transform="translate(0.536438 0.389648)"/>
</clipPath>
</defs>
</svg>
