<svg width="43" height="43" viewBox="0 0 43 43" fill="none" xmlns="http://www.w3.org/2000/svg">
<g clip-path="url(#clip0_299_3118)">
<path d="M21.8222 42.1588C33.3564 42.1588 42.7068 32.8084 42.7068 21.2742C42.7068 9.73998 33.3564 0.389648 21.8222 0.389648C10.288 0.389648 0.937653 9.73998 0.937653 21.2742C0.937653 32.8084 10.288 42.1588 21.8222 42.1588Z" fill="#F0F0F0"/>
<path d="M21.8224 42.1586C27.1184 42.1586 31.953 40.1864 35.6344 36.9375H8.01038C11.6918 40.1864 16.5265 42.1586 21.8224 42.1586Z" fill="#D80027"/>
<path d="M1.59586 26.4953C2.07269 28.3476 2.79762 30.1003 3.73253 31.7164H39.9123C40.8472 30.1003 41.5722 28.3476 42.049 26.4953L21.8225 24.9062L1.59586 26.4953Z" fill="#0052B4"/>
<path d="M42.0491 16.0531C41.5722 14.2007 40.8473 12.448 39.9124 10.8319L21.8224 10.3779C21.8224 6.73023 21.8224 3.28289 21.8224 0.389648C20.271 0.389648 18.759 0.558928 17.304 0.879783C17.2761 0.885983 3.66194 11.6247 3.66194 21.2742C4.01004 21.3347 21.8224 23.0903 21.8224 23.0903C21.8224 23.0903 21.8224 19.1123 21.8224 16.0531H42.0491Z" fill="#0052B4"/>
<path d="M21.8222 13.4193V2.97698H15.2081L17.3045 0.880615C8.69848 2.77866 2.08599 9.98416 1.07391 18.8901C0.984984 19.6725 0.937668 20.4675 0.937668 21.2736H11.5162V17.1112L15.7199 21.2736H23.1914L15.208 13.4193H21.8222Z" fill="#F0F0F0"/>
<path d="M21.8317 21.2743L13.9773 13.4199H11.5161V13.42L19.3704 21.2743H8.88276V10.8321H39.9121C38.775 8.86654 37.3263 7.10408 35.6342 5.61092H8.88276V4.88281C6.77571 6.54844 4.99791 8.61144 3.66162 10.9588V21.2743H0.937576C0.937576 23.0772 1.166 24.8267 1.59552 26.4955H42.0487C42.4783 24.8267 42.7067 23.0772 42.7067 21.2743H21.8317Z" fill="#D80027"/>
</g>
<defs>
<clipPath id="clip0_299_3118">
<rect width="41.7691" height="41.7691" fill="white" transform="translate(0.937576 0.389648)"/>
</clipPath>
</defs>
</svg>
