<svg width="43" height="43" viewBox="0 0 43 43" fill="none" xmlns="http://www.w3.org/2000/svg">
<g clip-path="url(#clip0_299_3126)">
<path d="M21.2231 42.1588C32.7573 42.1588 42.1077 32.8084 42.1077 21.2742C42.1077 9.73998 32.7573 0.389648 21.2231 0.389648C9.6889 0.389648 0.338566 9.73998 0.338566 21.2742C0.338566 32.8084 9.6889 42.1588 21.2231 42.1588Z" fill="#F0F0F0"/>
<path d="M21.2235 42.1588C29.5033 42.1588 36.6576 37.3403 40.0357 30.3545H2.41122C5.78929 37.3403 12.9436 42.1588 21.2235 42.1588Z" fill="#338AF3"/>
<path d="M21.2233 0.389648C12.9434 0.389648 5.78917 5.20819 2.4111 12.194H40.0355C36.6575 5.20819 29.5032 0.389648 21.2233 0.389648Z" fill="#338AF3"/>
<path d="M13.1919 14.0098L13.8682 16.0912H16.0566L14.2862 17.3774L14.9625 19.4588L13.1919 18.1725L11.4213 19.4588L12.0976 17.3774L10.3271 16.0912H12.5156L13.1919 14.0098Z" fill="#338AF3"/>
<path d="M13.1919 23.0898L13.8682 25.1713H16.0566L14.2862 26.4576L14.9625 28.5389L13.1919 27.2526L11.4213 28.5389L12.0976 26.4576L10.3271 25.1713H12.5156L13.1919 23.0898Z" fill="#338AF3"/>
<path d="M29.2559 14.0098L29.9322 16.0912H32.1206L30.3501 17.3774L31.0265 19.4588L29.2559 18.1725L27.4853 19.4588L28.1616 17.3774L26.3911 16.0912H28.5796L29.2559 14.0098Z" fill="#338AF3"/>
<path d="M29.2559 23.0898L29.9322 25.1713H32.1206L30.3501 26.4576L31.0265 28.5389L29.2559 27.2526L27.4853 28.5389L28.1616 26.4576L26.3911 25.1713H28.5796L29.2559 23.0898Z" fill="#338AF3"/>
<path d="M21.2241 18.5498L21.9005 20.6313H24.0889L22.3184 21.9175L22.9947 23.9988L21.2241 22.7125L19.4535 23.9988L20.1299 21.9175L18.3593 20.6313H20.5478L21.2241 18.5498Z" fill="#338AF3"/>
</g>
<defs>
<clipPath id="clip0_299_3126">
<rect width="41.7691" height="41.7691" fill="white" transform="translate(0.338715 0.389648)"/>
</clipPath>
</defs>
</svg>
