<svg width="43" height="43" viewBox="0 0 43 43" fill="none" xmlns="http://www.w3.org/2000/svg">
<g clip-path="url(#clip0_299_3136)">
<path d="M21.6251 42.1588C33.1594 42.1588 42.5097 32.8084 42.5097 21.2742C42.5097 9.73998 33.1594 0.389648 21.6251 0.389648C10.0909 0.389648 0.740587 9.73998 0.740587 21.2742C0.740587 32.8084 10.0909 42.1588 21.6251 42.1588Z" fill="#D80027"/>
<path d="M23.7804 16.189C23.3057 18.1632 22.4624 17.7867 22.0486 19.5083C19.6107 18.9222 18.1093 16.4707 18.6955 14.0327C19.2814 11.5948 21.7331 10.0934 24.1711 10.6796C23.3433 14.1228 24.205 14.4234 23.7804 16.189Z" fill="#F0F0F0"/>
<path d="M17.4547 17.6518C19.1856 18.7132 18.5669 19.399 20.0763 20.3247C18.7654 22.4622 15.9701 23.1324 13.8325 21.8216C11.695 20.5109 11.0247 17.7154 12.3355 15.5779C15.3545 17.4291 15.9064 16.7025 17.4547 17.6518Z" fill="#F0F0F0"/>
<path d="M16.8909 24.1205C18.4353 22.8023 18.8961 23.6026 20.2429 22.4531C21.8708 24.3602 21.6444 27.226 19.7374 28.8539C17.8302 30.4818 14.9644 30.2551 13.3367 28.3482C16.03 26.049 15.5095 25.2994 16.8909 24.1205Z" fill="#F0F0F0"/>
<path d="M22.8691 26.6559C22.0924 24.7798 22.996 24.5886 22.319 22.9527C24.6358 21.9939 27.2914 23.0947 28.2503 25.4115C29.2091 27.7283 28.1081 30.3838 25.7913 31.3427C24.4373 28.0706 23.5636 28.334 22.8691 26.6559Z" fill="#F0F0F0"/>
<path d="M27.1272 21.753C25.103 21.9118 25.2001 20.9932 23.4351 21.1318C23.2391 18.6322 25.1068 16.4466 27.6065 16.2504C30.1061 16.0547 32.2917 17.9222 32.4876 20.422C28.9571 20.6988 28.9376 21.6111 27.1272 21.753Z" fill="#F0F0F0"/>
</g>
<defs>
<clipPath id="clip0_299_3136">
<rect width="41.7691" height="41.7691" fill="white" transform="translate(0.740417 0.389648)"/>
</clipPath>
</defs>
</svg>
