<svg width="42" height="43" viewBox="0 0 42 43" fill="none" xmlns="http://www.w3.org/2000/svg">
<g clip-path="url(#clip0_299_3144)">
<path d="M1.44054 14.0104C0.601082 16.2729 0.141541 18.7199 0.141541 21.2745C0.141541 23.8292 0.601082 26.2763 1.44054 28.5387L21.0261 30.3548L40.6116 28.5387C41.4511 26.2763 41.9106 23.8292 41.9106 21.2745C41.9106 18.7199 41.4511 16.2729 40.6116 14.0104L21.0261 12.1943L1.44054 14.0104Z" fill="#F0F0F0"/>
<path d="M21.026 0.389648C12.0464 0.389648 4.39125 6.05719 1.44049 14.01H40.6117C37.6607 6.05719 30.0057 0.389648 21.026 0.389648Z" fill="#D80027"/>
<path d="M21.026 42.1585C30.0057 42.1585 37.6607 36.4909 40.6116 28.5381H1.44049C4.39125 36.4909 12.0464 42.1585 21.026 42.1585Z" fill="#6DA544"/>
</g>
<defs>
<clipPath id="clip0_299_3144">
<rect width="41.7691" height="41.7691" fill="white" transform="translate(0.141541 0.389648)"/>
</clipPath>
</defs>
</svg>
