<svg width="43" height="43" viewBox="0 0 43 43" fill="none" xmlns="http://www.w3.org/2000/svg">
<g clip-path="url(#clip0_299_3148)">
<path d="M21.4269 42.1588C32.9611 42.1588 42.3115 32.8084 42.3115 21.2742C42.3115 9.73998 32.9611 0.389648 21.4269 0.389648C9.89271 0.389648 0.542374 9.73998 0.542374 21.2742C0.542374 32.8084 9.89271 42.1588 21.4269 42.1588Z" fill="#F0F0F0"/>
<path d="M1.26172 26.7229C2.47009 31.2065 5.13327 35.0925 8.71449 37.8441V26.7229H1.26172Z" fill="#0052B4"/>
<path d="M19.6108 42.0798C20.2095 42.1314 20.8149 42.1593 21.4269 42.1593C31.0761 42.1593 39.1955 35.6148 41.592 26.7229H19.6108V42.0798Z" fill="#0052B4"/>
<path d="M41.5921 15.8263C39.1956 6.93434 31.0763 0.389893 21.427 0.389893C20.815 0.389893 20.2096 0.417793 19.611 0.469352V15.8263H41.5921Z" fill="#0052B4"/>
<path d="M8.71449 4.70532C5.13327 7.45703 2.47009 11.3429 1.26172 15.8265H8.71449V4.70532Z" fill="#0052B4"/>
<path d="M42.1347 18.5498H16.8869H16.8868V0.885742C14.9568 1.31371 13.127 2.00739 11.4386 2.92868V18.5498H0.719158C0.602906 19.4415 0.542374 20.3506 0.542374 21.2739C0.542374 22.1971 0.602906 23.1063 0.719158 23.9979H11.4386H11.4386V39.619C13.127 40.5402 14.9568 41.234 16.8868 41.6619V23.9982V23.998H42.1347C42.2508 23.1063 42.3115 22.1971 42.3115 21.2739C42.3115 20.3506 42.2508 19.4415 42.1347 18.5498Z" fill="#D80027"/>
</g>
<defs>
<clipPath id="clip0_299_3148">
<rect width="41.7691" height="41.7691" fill="white" transform="translate(0.542664 0.389648)"/>
</clipPath>
</defs>
</svg>
