<svg width="43" height="43" viewBox="0 0 43 43" fill="none" xmlns="http://www.w3.org/2000/svg">
<g clip-path="url(#clip0_299_3156)">
<path d="M21.8279 42.1578C33.3621 42.1578 42.7124 32.8074 42.7124 21.2732C42.7124 9.739 33.3621 0.388672 21.8279 0.388672C10.2937 0.388672 0.943344 9.739 0.943344 21.2732C0.943344 32.8074 10.2937 42.1578 21.8279 42.1578Z" fill="#F0F0F0"/>
<path d="M21.8281 0.388672C13.5482 0.388672 6.39395 5.20721 3.01587 12.193H40.6403C37.2623 5.20721 30.1079 0.388672 21.8281 0.388672Z" fill="#FF9811"/>
<path d="M21.8281 42.1576C30.108 42.1576 37.2623 37.3391 40.6404 30.3533H3.01587C6.39395 37.3391 13.5482 42.1576 21.8281 42.1576Z" fill="#6DA544"/>
<path d="M21.8281 28.5371C25.84 28.5371 29.0923 25.2848 29.0923 21.2729C29.0923 17.2611 25.84 14.0088 21.8281 14.0088C17.8162 14.0088 14.564 17.2611 14.564 21.2729C14.564 25.2848 17.8162 28.5371 21.8281 28.5371Z" fill="#0052B4"/>
<path d="M21.8276 25.8136C24.335 25.8136 26.3677 23.7809 26.3677 21.2735C26.3677 18.7661 24.335 16.7334 21.8276 16.7334C19.3202 16.7334 17.2875 18.7661 17.2875 21.2735C17.2875 23.7809 19.3202 25.8136 21.8276 25.8136Z" fill="#F0F0F0"/>
<path d="M21.8276 15.6709L23.2283 18.8475L26.6794 18.4721L24.6288 21.2733L26.6794 24.0746L23.2283 23.6992L21.8276 26.8758L20.427 23.6992L16.9758 24.0745L19.0264 21.2733L16.9758 18.4721L20.427 18.8475L21.8276 15.6709Z" fill="#0052B4"/>
</g>
<defs>
<clipPath id="clip0_299_3156">
<rect width="41.7691" height="41.7691" fill="white" transform="translate(0.943848 0.388672)"/>
</clipPath>
</defs>
</svg>
