<svg width="43" height="43" viewBox="0 0 43 43" fill="none" xmlns="http://www.w3.org/2000/svg">
<g clip-path="url(#clip0_299_3166)">
<path d="M21.6309 42.1588C33.1651 42.1588 42.5155 32.8084 42.5155 21.2742C42.5155 9.73998 33.1651 0.389648 21.6309 0.389648C10.0967 0.389648 0.746368 9.73998 0.746368 21.2742C0.746368 32.8084 10.0967 42.1588 21.6309 42.1588Z" fill="#F0F0F0"/>
<path d="M28.414 15.826H25.6816C25.7042 16.1263 25.717 16.4293 25.717 16.734C25.717 18.7543 25.212 20.7124 24.3317 22.1063C24.0601 22.5362 23.6037 23.1434 22.9929 23.5529V15.8259H20.2688V23.5529C19.658 23.1434 19.2016 22.5363 18.93 22.1063C18.0496 20.7124 17.5447 18.7543 17.5447 16.734C17.5447 16.4293 17.5576 16.1262 17.5801 15.826H14.8476C14.8301 16.1248 14.8206 16.4275 14.8206 16.734C14.8206 22.335 17.8119 26.7223 21.6307 26.7223C25.4495 26.7223 28.4409 22.335 28.4409 16.734C28.441 16.4275 28.4315 16.1248 28.414 15.826Z" fill="#D80027"/>
<path d="M9.37255 10.3779H12.0966V12.194H14.8206V10.3779H17.5447V12.194H20.2687V10.3779H22.9928V12.194H25.7168V10.3779H28.4409V12.194H31.1649V10.3779H33.889V12.194H40.4429C37.0651 5.20819 29.9107 0.389648 21.6309 0.389648C13.3511 0.389648 6.19671 5.20819 2.81863 12.194H9.37255V10.3779Z" fill="#6DA544"/>
<path d="M33.8892 30.3545V32.1706H31.1652V30.3545H28.4411V32.1706H25.7171V30.3545H22.993V32.1706H20.269V30.3545H17.5449V32.1706H14.8209V30.3545H12.0966V32.1706H9.37255V30.3545H2.81863C6.19671 37.3403 13.351 42.1588 21.6309 42.1588C29.9108 42.1588 37.0651 37.3403 40.4431 30.3545H33.8892Z" fill="#D80027"/>
</g>
<defs>
<clipPath id="clip0_299_3166">
<rect width="41.7691" height="41.7691" fill="white" transform="translate(0.746094 0.389648)"/>
</clipPath>
</defs>
</svg>
