<svg width="42" height="43" viewBox="0 0 42 43" fill="none" xmlns="http://www.w3.org/2000/svg">
<g clip-path="url(#clip0_299_3171)">
<path d="M21.0194 42.5596C32.5536 42.5596 41.904 33.2093 41.904 21.6751C41.904 10.1409 32.5536 0.790527 21.0194 0.790527C9.48519 0.790527 0.134857 10.1409 0.134857 21.6751C0.134857 33.2093 9.48519 42.5596 21.0194 42.5596Z" fill="#F0F0F0"/>
<path d="M21.0194 0.790527C12.0398 0.790527 4.38471 6.45807 1.43387 14.4109H40.6051C37.6541 6.45807 29.999 0.790527 21.0194 0.790527Z" fill="#A2001D"/>
<path d="M21.0192 42.5596C29.9988 42.5596 37.6539 36.8921 40.6048 28.9392H1.43365C4.3845 36.8921 12.0396 42.5596 21.0192 42.5596Z" fill="black"/>
<path d="M16.0254 20.3127C16.014 20.3127 16.0028 20.3134 15.9914 20.3136V20.3127H11.9991C12.2015 19.5306 12.9111 18.9506 13.7554 18.9506V16.2266C11.2519 16.2266 9.21528 18.2633 9.21528 20.7667V22.9914V23.0368H15.9914H16.0254C16.2758 23.0368 16.4794 23.2405 16.4794 23.4908V24.3988H7.39914V27.1228H19.2035V23.4907C19.2035 21.7384 17.7778 20.3127 16.0254 20.3127Z" fill="#496E2D"/>
<path d="M22.8353 24.3988V16.2266H20.1112V27.1229H24.6513V24.3988H22.8353Z" fill="#496E2D"/>
<path d="M31.9158 24.3989V16.2266H29.1917V24.3989H28.2837V21.6748H25.5596V27.123H33.7319V24.3989H31.9158Z" fill="#496E2D"/>
</g>
<defs>
<clipPath id="clip0_299_3171">
<rect width="41.7691" height="41.7691" fill="white" transform="translate(0.135315 0.790771)"/>
</clipPath>
</defs>
</svg>
