<svg width="43" height="43" viewBox="0 0 43 43" fill="none" xmlns="http://www.w3.org/2000/svg">
<g clip-path="url(#clip0_299_3179)">
<path d="M21.4213 42.5596C32.9555 42.5596 42.3058 33.2093 42.3058 21.6751C42.3058 10.1409 32.9555 0.790527 21.4213 0.790527C9.88708 0.790527 0.536743 10.1409 0.536743 21.6751C0.536743 33.2093 9.88708 42.5596 21.4213 42.5596Z" fill="#F0F0F0"/>
<path d="M42.306 21.6751C42.306 12.6955 36.6385 5.04036 28.6856 2.0896V41.2608C36.6385 38.3098 42.306 30.6548 42.306 21.6751Z" fill="#FF9811"/>
<path d="M0.536743 21.6751C0.536743 30.6548 6.20429 38.3098 14.1571 41.2607V2.0896C6.20429 5.04036 0.536743 12.6955 0.536743 21.6751Z" fill="#6DA544"/>
</g>
<defs>
<clipPath id="clip0_299_3179">
<rect width="41.7691" height="41.7691" fill="white" transform="translate(0.536438 0.790771)"/>
</clipPath>
</defs>
</svg>
