<svg width="43" height="43" viewBox="0 0 43 43" fill="none" xmlns="http://www.w3.org/2000/svg">
<g clip-path="url(#clip0_299_3183)">
<path d="M21.8222 42.5596C33.3564 42.5596 42.7068 33.2093 42.7068 21.6751C42.7068 10.1409 33.3564 0.790527 21.8222 0.790527C10.288 0.790527 0.937653 10.1409 0.937653 21.6751C0.937653 33.2093 10.288 42.5596 21.8222 42.5596Z" fill="#D80027"/>
<path d="M29.5553 14.7908L28.0791 20.0585L23.6502 19.2407L20.7992 13.364L13.0975 16.097L12.4901 14.3855L10.4751 14.1372L11.9934 18.416L17.2936 17.0606L18.7998 21.3051L15.1359 26.7124L21.3537 32.0156L20.1752 33.3974L20.9676 35.2667L23.9141 31.8123L20.0902 27.8999L23.0129 24.4733L29.5278 24.9427L31.0116 16.9062L32.7975 17.2361L34.0203 15.6151L29.5553 14.7908Z" fill="#F0F0F0"/>
</g>
<defs>
<clipPath id="clip0_299_3183">
<rect width="41.7691" height="41.7691" fill="white" transform="translate(0.937576 0.790771)"/>
</clipPath>
</defs>
</svg>
