<svg width="43" height="43" viewBox="0 0 43 43" fill="none" xmlns="http://www.w3.org/2000/svg">
<g clip-path="url(#clip0_299_3186)">
<path d="M21.2231 42.5596C32.7573 42.5596 42.1077 33.2093 42.1077 21.6751C42.1077 10.1409 32.7573 0.790527 21.2231 0.790527C9.6889 0.790527 0.338566 10.1409 0.338566 21.6751C0.338566 33.2093 9.6889 42.5596 21.2231 42.5596Z" fill="#F0F0F0"/>
<path d="M29.0872 17.1356H23.8447L21.2235 12.5955L18.6024 17.1356H13.3597L15.9812 21.6757L13.3597 26.2158H18.6024L21.2235 30.7559L23.8447 26.2158H29.0872L26.4657 21.6757L29.0872 17.1356ZM24.4439 21.6757L22.8338 24.4647H19.6134L18.0031 21.6757L19.6133 18.8866H22.8337L24.4439 21.6757ZM21.2235 16.0975L21.8228 17.1355H20.6244L21.2235 16.0975ZM16.3928 18.8866H17.5914L16.9921 19.9246L16.3928 18.8866ZM16.3928 24.4647L16.9922 23.4267L17.5914 24.4647H16.3928ZM21.2235 27.2538L20.6243 26.2158H21.8228L21.2235 27.2538ZM26.0542 24.4647H24.8556L25.455 23.4267L26.0542 24.4647ZM24.8556 18.8866H26.0542L25.4549 19.9246L24.8556 18.8866Z" fill="#0052B4"/>
<path d="M34.2243 5.33081H8.2235C6.31754 6.84886 4.683 8.69273 3.40463 10.779H39.0431C37.7647 8.69282 36.1302 6.84886 34.2243 5.33081Z" fill="#0052B4"/>
<path d="M8.2235 38.02H34.2242C36.1302 36.5019 37.7647 34.658 39.0431 32.5718H3.40463C4.68308 34.6579 6.31762 36.5019 8.2235 38.02Z" fill="#0052B4"/>
</g>
<defs>
<clipPath id="clip0_299_3186">
<rect width="41.7691" height="41.7691" fill="white" transform="translate(0.338715 0.790771)"/>
</clipPath>
</defs>
</svg>
