<svg width="43" height="43" viewBox="0 0 43 43" fill="none" xmlns="http://www.w3.org/2000/svg">
<g clip-path="url(#clip0_299_3192)">
<path d="M21.6251 42.5596C33.1594 42.5596 42.5097 33.2093 42.5097 21.6751C42.5097 10.1409 33.1594 0.790527 21.6251 0.790527C10.0909 0.790527 0.740587 10.1409 0.740587 21.6751C0.740587 33.2093 10.0909 42.5596 21.6251 42.5596Z" fill="#F0F0F0"/>
<path d="M42.5093 21.6751C42.5093 12.6955 36.8418 5.04044 28.8889 2.0896V41.2608C36.8418 38.3099 42.5093 30.6548 42.5093 21.6751Z" fill="#D80027"/>
<path d="M0.740587 21.6752C0.740587 30.6548 6.40813 38.3099 14.361 41.2607V2.0896C6.40813 5.04044 0.740587 12.6955 0.740587 21.6752Z" fill="#6DA544"/>
</g>
<defs>
<clipPath id="clip0_299_3192">
<rect width="41.7691" height="41.7691" fill="white" transform="translate(0.740417 0.790771)"/>
</clipPath>
</defs>
</svg>
