<svg width="42" height="43" viewBox="0 0 42 43" fill="none" xmlns="http://www.w3.org/2000/svg">
<g clip-path="url(#clip0_299_3196)">
<path d="M21.0258 42.5596C23.5804 42.5596 26.0275 42.1002 28.2899 41.2606L29.198 21.6751L28.29 2.08953C26.0275 1.25007 23.5804 0.790527 21.0258 0.790527C18.4712 0.790527 16.024 1.25007 13.7616 2.08953L12.8536 21.6751L13.7615 41.2606C16.024 42.1002 18.4712 42.5596 21.0258 42.5596Z" fill="#F0F0F0"/>
<path d="M0.141487 21.6752C0.141487 30.6548 5.80903 38.3099 13.7619 41.2607V2.0896C5.80903 5.04044 0.141487 12.6955 0.141487 21.6752Z" fill="#FF9811"/>
<path d="M28.2898 2.0896V41.2608C36.2427 38.3099 41.9102 30.6548 41.9102 21.6751C41.9102 12.6955 36.2427 5.04044 28.2898 2.0896Z" fill="#6DA544"/>
</g>
<defs>
<clipPath id="clip0_299_3196">
<rect width="41.7691" height="41.7691" fill="white" transform="translate(0.141541 0.790771)"/>
</clipPath>
</defs>
</svg>
