<svg width="43" height="43" viewBox="0 0 43 43" fill="none" xmlns="http://www.w3.org/2000/svg">
<g clip-path="url(#clip0_299_3200)">
<path d="M21.4269 42.5596C32.9611 42.5596 42.3115 33.2093 42.3115 21.6751C42.3115 10.1409 32.9611 0.790527 21.4269 0.790527C9.89271 0.790527 0.542374 10.1409 0.542374 21.6751C0.542374 33.2093 9.89271 42.5596 21.4269 42.5596Z" fill="#FFDA44"/>
<path d="M34.1419 5.10776C30.6203 2.40084 26.2121 0.790527 21.4271 0.790527C16.6421 0.790527 12.2339 2.40092 8.71228 5.10776L21.4271 17.8225L34.1419 5.10776Z" fill="#6DA544"/>
<path d="M4.85932 8.95972C2.15257 12.4813 0.542175 16.8895 0.542175 21.6745C0.542175 26.4595 2.15257 30.8678 4.8594 34.3894L17.5743 21.6745L4.85932 8.95972Z" fill="black"/>
<path d="M8.7121 38.2429C12.2338 40.9498 16.6419 42.5601 21.427 42.5601C26.212 42.5601 30.6202 40.9497 34.1418 38.2429L21.427 25.5281L8.7121 38.2429Z" fill="#6DA544"/>
<path d="M37.9943 34.3893C40.7012 30.8677 42.3115 26.4595 42.3115 21.6745C42.3115 16.8895 40.7012 12.4813 37.9943 8.95972L25.2795 21.6745L37.9943 34.3893Z" fill="black"/>
</g>
<defs>
<clipPath id="clip0_299_3200">
<rect width="41.7691" height="41.7691" fill="white" transform="translate(0.542664 0.790771)"/>
</clipPath>
</defs>
</svg>
