<svg width="43" height="43" viewBox="0 0 43 43" fill="none" xmlns="http://www.w3.org/2000/svg">
<g clip-path="url(#clip0_299_3209)">
<path d="M21.2298 42.5599C32.764 42.5599 42.1143 33.2095 42.1143 21.6753C42.1143 10.1411 32.764 0.790771 21.2298 0.790771C9.69558 0.790771 0.345245 10.1411 0.345245 21.6753C0.345245 33.2095 9.69558 42.5599 21.2298 42.5599Z" fill="#F0F0F0"/>
<path d="M37.7982 34.3916L25.0819 21.6753H25.0818L37.7982 8.95883C37.2498 8.24614 36.6498 7.56046 35.9971 6.90758C35.3442 6.25477 34.6586 5.65475 33.9458 5.10645L21.2295 17.8228L21.2294 17.8229L8.51311 5.10645C7.80051 5.65483 7.11474 6.25469 6.46186 6.90758C5.80897 7.56046 5.20903 8.24614 4.66073 8.95883L17.3771 21.6751L17.3771 21.6752L4.66064 34.3916C5.20911 35.1043 5.80905 35.79 6.46177 36.4429C7.11466 37.0957 7.80026 37.6957 8.51303 38.244L21.2294 25.5277L21.2295 25.5276L33.9458 38.2439C34.6585 37.6956 35.3442 37.0956 35.9971 36.4428C36.65 35.7899 37.2498 35.1043 37.7982 34.3916Z" fill="#D80027"/>
<path d="M17.5976 7.1468L21.2297 8.05478L24.8618 7.1468V4.05955L23.4089 4.78594L21.2297 2.60669L19.0504 4.78594L17.5976 4.05955V7.1468Z" fill="#FFDA44"/>
<path d="M17.5977 7.14746V9.41768C17.5977 12.1979 21.2298 13.0498 21.2298 13.0498C21.2298 13.0498 24.8619 12.1979 24.8619 9.41768V7.14746H17.5977Z" fill="#D80027"/>
</g>
<defs>
<clipPath id="clip0_299_3209">
<rect width="41.7691" height="41.7691" fill="white" transform="translate(0.344727 0.791016)"/>
</clipPath>
</defs>
</svg>
