<svg width="43" height="43" viewBox="0 0 43 43" fill="none" xmlns="http://www.w3.org/2000/svg">
<g clip-path="url(#clip0_299_3214)">
<path d="M21.6306 42.5596C33.1649 42.5596 42.5152 33.2093 42.5152 21.6751C42.5152 10.1409 33.1649 0.790527 21.6306 0.790527C10.0964 0.790527 0.746094 10.1409 0.746094 21.6751C0.746094 33.2093 10.0964 42.5596 21.6306 42.5596Z" fill="#F0F0F0"/>
<path d="M13.4586 14.4109H41.2163C38.2655 6.45807 30.6104 0.790527 21.6308 0.790527C15.8636 0.790527 10.643 3.12854 6.86389 6.90815L13.4586 14.4109Z" fill="black"/>
<path d="M13.4585 28.9392H41.2162C38.2654 36.8921 30.6102 42.5596 21.6307 42.5596C15.8635 42.5596 10.6429 40.2216 6.86377 36.442L13.4585 28.9392Z" fill="#6DA544"/>
<path d="M6.86351 6.90796C-1.2924 15.0639 -1.2924 28.2873 6.86351 36.4433C10.2338 33.073 13.4753 29.8315 21.6312 21.6756L6.86351 6.90796Z" fill="#D80027"/>
<path d="M9.03533 17.1353L10.1814 19.532L12.7699 18.9338L11.6107 21.3242L13.6922 22.9749L11.1006 23.5589L11.1078 26.2155L9.03533 24.5534L6.96278 26.2155L6.97004 23.5589L4.37848 22.9749L6.45992 21.3242L5.30083 18.9338L7.88912 19.532L9.03533 17.1353Z" fill="#F0F0F0"/>
</g>
<defs>
<clipPath id="clip0_299_3214">
<rect width="41.7691" height="41.7691" fill="white" transform="translate(0.746094 0.790771)"/>
</clipPath>
</defs>
</svg>
