<svg width="42" height="42" viewBox="0 0 42 42" fill="none" xmlns="http://www.w3.org/2000/svg">
<g clip-path="url(#clip0_299_3220)">
<path d="M21.0193 41.9615C32.5535 41.9615 41.9039 32.6112 41.9039 21.0769C41.9039 9.54272 32.5535 0.192383 21.0193 0.192383C9.4851 0.192383 0.134766 9.54272 0.134766 21.0769C0.134766 32.6112 9.4851 41.9615 21.0193 41.9615Z" fill="#338AF3"/>
<path d="M32.824 21.3035H9.21533C9.21533 22.9334 10.6349 24.2546 12.2646 24.2546H12.1664C12.1664 25.8844 13.4876 27.2056 15.1175 27.2056C15.1175 28.8355 16.4387 30.1567 18.0686 30.1567H23.9708C25.6007 30.1567 26.9218 28.8355 26.9218 27.2056C28.5517 27.2056 29.8729 25.8844 29.8729 24.2546H29.7747C31.4043 24.2546 32.824 22.9334 32.824 21.3035Z" fill="#FFDA44"/>
<path d="M29.1911 17.4443C29.1911 21.9577 25.5323 25.6166 21.0189 25.6166C16.5055 25.6166 12.8467 21.9577 12.8467 17.4443" fill="#338AF3"/>
<path d="M27.2617 17.4446L24.7111 18.6444L26.0693 21.1146L23.2996 20.5848L22.9487 23.3826L21.0196 21.3248L19.0903 23.3826L18.7395 20.5848L15.9698 21.1145L17.328 18.6443L14.7774 17.4446L17.328 16.2449L15.9698 13.7747L18.7394 14.3045L19.0904 11.5066L21.0196 13.5645L22.9488 11.5066L23.2996 14.3045L26.0694 13.7747L24.7111 16.2449L27.2617 17.4446Z" fill="#FFDA44"/>
</g>
<defs>
<clipPath id="clip0_299_3220">
<rect width="41.7691" height="41.7691" fill="white" transform="translate(0.135254 0.192383)"/>
</clipPath>
</defs>
</svg>
