<svg width="43" height="42" viewBox="0 0 43 42" fill="none" xmlns="http://www.w3.org/2000/svg">
<g clip-path="url(#clip0_299_3225)">
<path d="M21.4217 41.9615C32.9559 41.9615 42.3062 32.6112 42.3062 21.0769C42.3062 9.54272 32.9559 0.192383 21.4217 0.192383C9.88744 0.192383 0.537109 9.54272 0.537109 21.0769C0.537109 32.6112 9.88744 41.9615 21.4217 41.9615Z" fill="#F0F0F0"/>
<path d="M21.4216 0.192383C13.1417 0.192383 5.98745 5.01092 2.60938 11.9967H40.2338C36.8558 5.01092 29.7015 0.192383 21.4216 0.192383Z" fill="black"/>
<path d="M21.4216 41.9606C13.1417 41.9606 5.98745 37.1421 2.60938 30.1562H40.2338C36.8558 37.1421 29.7015 41.9606 21.4216 41.9606Z" fill="#496E2D"/>
<path d="M41.32 14.7207H1.52333C0.883581 16.725 0.537109 18.8604 0.537109 21.0769C0.537109 23.2933 0.883581 25.4287 1.52333 27.433H41.3199C41.9597 25.4287 42.3062 23.2933 42.3062 21.0769C42.3062 18.8604 41.9597 16.725 41.32 14.7207Z" fill="#A2001D"/>
<path d="M27.9248 9.84297L25.4515 8.70142L21.4216 17.8263L17.3917 8.70142L14.9184 9.84297L19.9216 21.0765L14.9184 32.31L17.3917 33.4516L21.4216 24.3267L25.4515 33.4516L27.9248 32.31L22.9216 21.0765L27.9248 9.84297Z" fill="#F0F0F0"/>
<path d="M23.1015 10.9194C22.144 9.87379 21.4216 9.27271 21.4216 9.27271C21.4216 9.27271 20.6992 9.87371 19.7418 10.9194V31.2345C20.6992 32.2803 21.4216 32.8814 21.4216 32.8814C21.4216 32.8814 22.144 32.2804 23.1015 31.2346V10.9194Z" fill="#F0F0F0"/>
<path d="M16.8808 14.8142V27.3377C17.8926 29.1305 19.1309 30.5999 20.059 31.5741V10.5779C19.1309 11.552 17.8925 13.0215 16.8808 14.8142Z" fill="#A2001D"/>
<path d="M25.961 14.8142C24.9492 13.0215 23.711 11.552 22.7829 10.5779V31.5741C23.7109 30.5999 24.9492 29.1305 25.961 27.3377V14.8142Z" fill="#A2001D"/>
<path d="M25.9616 14.8145V27.338C26.9858 25.5229 27.7777 23.3766 27.7777 21.0763C27.7777 18.776 26.9858 16.6296 25.9616 14.8145Z" fill="black"/>
<path d="M16.8814 14.8145V27.338C15.8571 25.5229 15.0653 23.3766 15.0653 21.0763C15.0653 18.776 15.8571 16.6296 16.8814 14.8145Z" fill="black"/>
</g>
<defs>
<clipPath id="clip0_299_3225">
<rect width="41.7691" height="41.7691" fill="white" transform="translate(0.536621 0.192383)"/>
</clipPath>
</defs>
</svg>
