<svg width="43" height="42" viewBox="0 0 43 42" fill="none" xmlns="http://www.w3.org/2000/svg">
<g clip-path="url(#clip0_299_3238)">
<path d="M0.9375 21.0769C0.9375 9.54279 10.2879 0.192383 21.8221 0.192383C33.3562 0.192383 42.7066 9.54279 42.7066 21.0769" fill="#D80027"/>
<path d="M29.0869 19.6144L26.1186 21.0104L27.6993 23.8853L24.4761 23.2686L24.0678 26.5246L21.8227 24.1298L19.5777 26.5246L19.1693 23.2686L15.9462 23.8851L17.5268 21.0104L14.5586 19.6144L17.5268 18.218L15.9462 15.3436L19.1693 15.96L19.5777 12.7041L21.8227 15.0987L24.0678 12.7041L24.4761 15.96L27.6994 15.3436L26.1188 18.2183L29.0869 19.6144Z" fill="#FFDA44"/>
<path d="M27.2707 7.00171H23.1846C23.1846 6.24962 22.5747 5.63965 21.8225 5.63965C21.0704 5.63965 20.4605 6.24954 20.4605 7.00171H16.3744C16.3744 7.75388 17.0296 8.36378 17.7818 8.36378H17.7364C17.7364 9.11595 18.3461 9.72584 19.0984 9.72584C19.0984 10.478 19.7081 11.0879 20.4605 11.0879H23.1845C23.9366 11.0879 24.5466 10.4781 24.5466 9.72584C25.2987 9.72584 25.9087 9.11603 25.9087 8.36378H25.8632C26.6155 8.36378 27.2707 7.75396 27.2707 7.00171Z" fill="#FFDA44"/>
<path d="M42.7066 21.0771C42.7066 32.6113 33.3562 41.9617 21.8221 41.9617C10.2879 41.9617 0.9375 32.6113 0.9375 21.0771H42.7066Z" fill="#F0F0F0"/>
<path d="M21.8223 41.9614C28.3505 41.9614 34.1781 38.9654 38.008 34.2743C37.3191 33.8046 36.9472 33.0454 35.745 33.0454C34.0047 33.0454 34.0047 34.6367 32.2644 34.6367C30.5241 34.6367 30.524 33.0454 28.7838 33.0454C27.0434 33.0454 27.0434 34.6367 25.303 34.6367C23.5625 34.6367 23.5625 33.0454 21.8219 33.0454C20.0816 33.0454 20.0816 34.6367 18.3413 34.6367C16.6012 34.6367 16.6012 33.0454 14.8609 33.0454C13.1203 33.0454 13.1203 34.6367 11.3798 34.6367C9.63932 34.6367 9.63932 33.0454 7.8988 33.0454C6.6968 33.0454 6.32487 33.8044 5.63634 34.2741C9.46604 38.9654 15.294 41.9614 21.8223 41.9614Z" fill="#0052B4"/>
<path d="M39.2256 23.7405C37.4853 23.7405 37.4853 22.1492 35.7448 22.1492C34.0045 22.1492 34.0045 23.7405 32.2642 23.7405C30.5239 23.7405 30.5239 22.1492 28.7836 22.1492C27.0432 22.1492 27.0432 23.7405 25.3028 23.7405C23.5624 23.7405 23.5623 22.1492 21.8218 22.1492C20.0814 22.1492 20.0814 23.7405 18.3411 23.7405C16.601 23.7405 16.601 22.1492 14.8607 22.1492C13.1202 22.1492 13.1202 23.7405 11.3797 23.7405C9.63914 23.7405 9.63914 22.1492 7.89862 22.1492C6.15852 22.1492 6.15852 23.7405 4.41816 23.7405C2.68719 23.7405 2.67716 22.1667 0.964706 22.1499C1.01292 23.1052 1.12697 24.0431 1.29943 24.9602C2.68662 25.1641 2.80809 26.5251 4.41824 26.5251C6.1586 26.5251 6.1586 24.9339 7.89871 24.9339C9.63922 24.9339 9.63922 26.5251 11.3797 26.5251C13.1203 26.5251 13.1203 24.9339 14.8608 24.9339C16.6011 24.9339 16.6011 26.5251 18.3412 26.5251C20.0816 26.5251 20.0816 24.9339 21.8218 24.9339C23.5624 24.9339 23.5624 26.5251 25.3029 26.5251C27.0434 26.5251 27.0434 24.9339 28.7837 24.9339C30.524 24.9339 30.524 26.5251 32.2643 26.5251C34.0046 26.5251 34.0046 24.9339 35.7449 24.9339C37.4854 24.9339 37.4854 26.5251 39.2257 26.5251C40.836 26.5251 40.9575 25.1641 42.3448 24.9603C42.5173 24.0431 42.6312 23.1053 42.6796 22.15C40.9669 22.1669 40.9567 23.7405 39.2256 23.7405Z" fill="#0052B4"/>
<path d="M35.7448 27.5977C34.0044 27.5977 34.0044 29.189 32.2641 29.189C30.5239 29.189 30.5238 27.5977 28.7835 27.5977C27.0432 27.5977 27.0432 29.189 25.3027 29.189C23.5622 29.189 23.5622 27.5977 21.8217 27.5977C20.0814 27.5977 20.0814 29.189 18.3411 29.189C16.601 29.189 16.601 27.5977 14.8606 27.5977C13.1201 27.5977 13.1201 29.189 11.3796 29.189C9.63908 29.189 9.63908 27.5977 7.89857 27.5977C6.15846 27.5977 6.15846 29.189 4.41811 29.189C3.17458 29.189 2.81938 28.3767 2.08311 27.9127C2.57325 29.3289 3.21088 30.676 3.9788 31.9353C4.11234 31.9599 4.25772 31.9735 4.41811 31.9735C6.15846 31.9735 6.15846 30.3824 7.89857 30.3824C9.63908 30.3824 9.63908 31.9735 11.3796 31.9735C13.1201 31.9735 13.1201 30.3824 14.8606 30.3824C16.601 30.3824 16.601 31.9735 18.3411 31.9735C20.0814 31.9735 20.0814 30.3824 21.8217 30.3824C23.5622 30.3824 23.5622 31.9735 25.3027 31.9735C27.0433 31.9735 27.0433 30.3824 28.7835 30.3824C30.5239 30.3824 30.5239 31.9735 32.2641 31.9735C34.0044 31.9735 34.0045 30.3824 35.7448 30.3824C37.4853 30.3824 37.4853 31.9735 39.2256 31.9735C39.3861 31.9735 39.5315 31.9599 39.665 31.9352C40.4329 30.676 41.0705 29.3289 41.5609 27.9128C40.8245 28.3766 40.4692 29.189 39.2256 29.189C37.4853 29.189 37.4853 27.5977 35.7448 27.5977Z" fill="#0052B4"/>
<path d="M42.6419 19.4264C40.9671 19.4659 40.944 21.0159 39.2256 21.0159C37.4853 21.0159 37.4853 19.4246 35.7449 19.4246C34.0045 19.4246 34.0045 21.0159 32.2642 21.0159C30.524 21.0159 30.5239 19.4246 28.7836 19.4246C27.0433 19.4246 27.0433 21.0159 25.3028 21.0159C23.5624 21.0159 23.5623 19.4246 21.8218 19.4246C20.0814 19.4246 20.0814 21.0159 18.3412 21.0159C16.6011 21.0159 16.6011 19.4246 14.8607 19.4246C13.1202 19.4246 13.1202 21.0159 11.3797 21.0159C9.63917 21.0159 9.63917 19.4246 7.89866 19.4246C6.15855 19.4246 6.15855 21.0159 4.4182 21.0159C2.7002 21.0159 2.67695 19.4661 1.00227 19.4264C0.959766 19.9708 0.937576 20.521 0.937576 21.0763C0.937576 21.4567 0.948345 21.8347 0.968658 22.21C2.67719 22.2292 2.68853 23.8004 4.41828 23.8004C6.15863 23.8004 6.15863 22.2092 7.89874 22.2092C9.63926 22.2092 9.63926 23.8004 11.3798 23.8004C13.1203 23.8004 13.1203 22.2092 14.8608 22.2092C16.6012 22.2092 16.6012 23.8004 18.3413 23.8004C20.0816 23.8004 20.0816 22.2092 21.8219 22.2092C23.5624 22.2092 23.5624 23.8004 25.3029 23.8004C27.0434 23.8004 27.0434 22.2092 28.7837 22.2092C30.5241 22.2092 30.5241 23.8004 32.2643 23.8004C34.0046 23.8004 34.0047 22.2092 35.7449 22.2092C37.4855 22.2092 37.4855 23.8004 39.2257 23.8004C40.9556 23.8004 40.967 22.2292 42.6758 22.21C42.6959 21.8346 42.7067 21.4567 42.7067 21.0763C42.7067 20.521 42.6845 19.9708 42.6419 19.4264Z" fill="#F0F0F0"/>
</g>
<defs>
<clipPath id="clip0_299_3238">
<rect width="41.7691" height="41.7691" fill="white" transform="translate(0.9375 0.192383)"/>
</clipPath>
</defs>
</svg>
