<svg width="43" height="42" viewBox="0 0 43 42" fill="none" xmlns="http://www.w3.org/2000/svg">
<g clip-path="url(#clip0_299_3249)">
<path d="M21.2234 41.9615C32.7576 41.9615 42.108 32.6112 42.108 21.0769C42.108 9.54272 32.7576 0.192383 21.2234 0.192383C9.6892 0.192383 0.338867 9.54272 0.338867 21.0769C0.338867 32.6112 9.6892 41.9615 21.2234 41.9615Z" fill="#0052B4"/>
<path d="M9.51332 12.9033L9.96421 14.2911H11.4231L10.2429 15.1486L10.6937 16.5361L9.51332 15.6786L8.33289 16.5361L8.78386 15.1486L7.60352 14.2911H9.06234L9.51332 12.9033Z" fill="#F0F0F0"/>
<path d="M14.0538 11.5417L14.5047 12.9294H15.9636L14.7833 13.7869L15.2341 15.1744L14.0538 14.3169L12.8734 15.1744L13.3243 13.7869L12.144 12.9294H13.603L14.0538 11.5417Z" fill="#F0F0F0"/>
<path d="M18.5937 10.1797L19.0446 11.5674H20.5035L19.3233 12.4249L19.7741 13.8124L18.5937 12.9549L17.4134 13.8124L17.8643 12.4249L16.684 11.5674H18.1429L18.5937 10.1797Z" fill="#F0F0F0"/>
<path d="M32.9351 12.9033L32.4842 14.2911H31.0253L32.2056 15.1486L31.7547 16.5361L32.9351 15.6786L34.1155 16.5361L33.6645 15.1486L34.8449 14.2911H33.386L32.9351 12.9033Z" fill="#F0F0F0"/>
<path d="M28.3951 11.5417L27.9442 12.9294H26.4853L27.6657 13.7869L27.2148 15.1744L28.3951 14.3169L29.5755 15.1744L29.1246 13.7869L30.3048 12.9294H28.8459L28.3951 11.5417Z" fill="#F0F0F0"/>
<path d="M23.8551 10.1797L23.4042 11.5674H21.9453L23.1256 12.4249L22.6748 13.8124L23.8551 12.9549L25.0355 13.8124L24.5846 12.4249L25.7648 11.5674H24.3059L23.8551 10.1797Z" fill="#F0F0F0"/>
<path d="M24.8555 21.9844L21.2234 17.4443L19.4073 18.3523V20.1684L16.6832 21.9844H14.8672V24.3306C17.529 25.4084 19.4073 28.0165 19.4073 31.0647H21.2234V29.2487L23.0394 27.4326L24.8555 29.2487L26.6715 27.4326V25.6166L28.4876 22.8925L24.8555 21.9844Z" fill="#FFDA44"/>
</g>
<defs>
<clipPath id="clip0_299_3249">
<rect width="41.7691" height="41.7691" fill="white" transform="translate(0.338867 0.192383)"/>
</clipPath>
</defs>
</svg>
