<svg width="43" height="42" viewBox="0 0 43 42" fill="none" xmlns="http://www.w3.org/2000/svg">
<g clip-path="url(#clip0_299_3259)">
<path d="M41.2103 28.3414C42.0498 26.079 42.5093 23.6319 42.5093 21.0773C42.5093 18.5227 42.0498 16.0756 41.2103 13.8131L21.6248 11.9971L2.03924 13.8131C1.19978 16.0756 0.740234 18.5227 0.740234 21.0773C0.740234 23.6319 1.19978 26.079 2.03924 28.3414L21.6248 30.1575L41.2103 28.3414Z" fill="#F0F0F0"/>
<path d="M21.6245 41.9612C30.604 41.9612 38.2592 36.2937 41.21 28.3408H2.03886C4.98979 36.2937 12.6448 41.9612 21.6245 41.9612Z" fill="#D80027"/>
<path d="M21.6247 0.192383C12.645 0.192383 4.98998 5.85993 2.03906 13.8128H41.2102C38.2594 5.85993 30.6042 0.192383 21.6247 0.192383Z" fill="#6DA544"/>
<path d="M6.85717 6.30859C-1.29874 14.4645 -1.29874 27.6879 6.85717 35.8439C8.986 33.7151 11.0639 31.6372 14.3606 28.3405V13.8121L6.85717 6.30859Z" fill="black"/>
</g>
<defs>
<clipPath id="clip0_299_3259">
<rect width="41.7691" height="41.7691" fill="white" transform="translate(0.740234 0.192383)"/>
</clipPath>
</defs>
</svg>
