<svg width="42" height="42" viewBox="0 0 42 42" fill="none" xmlns="http://www.w3.org/2000/svg">
<g clip-path="url(#clip0_299_3264)">
<path d="M21.0262 41.9615C32.5604 41.9615 41.9107 32.6112 41.9107 21.0769C41.9107 9.54272 32.5604 0.192383 21.0262 0.192383C9.49193 0.192383 0.141602 9.54272 0.141602 21.0769C0.141602 32.6112 9.49193 41.9615 21.0262 41.9615Z" fill="#D80027"/>
<path d="M31.2392 21.0762L27.066 23.0392L29.2883 27.0813L24.7563 26.2142L24.1823 30.7921L21.0255 27.4253L17.869 30.7921L17.2948 26.2142L12.7632 27.0811L14.9854 23.0391L10.812 21.0762L14.9854 19.1133L12.7632 15.0712L17.2946 15.9384L17.8692 11.3604L21.0255 14.7273L24.1825 11.3604L24.7563 15.9384L29.2885 15.0712L27.0661 19.1136L31.2392 21.0762Z" fill="#FFDA44"/>
<path d="M21.0261 27.433C24.5365 27.433 27.3823 24.5873 27.3823 21.0769C27.3823 17.5665 24.5365 14.7207 21.0261 14.7207C17.5157 14.7207 14.6699 17.5665 14.6699 21.0769C14.6699 24.5873 17.5157 27.433 21.0261 27.433Z" fill="#D80027"/>
<path d="M17.8486 21.0752C17.6955 21.0752 17.5443 21.083 17.395 21.0979C17.4005 21.9784 17.719 22.7843 18.2452 23.4103C18.5258 22.655 18.9449 21.9663 19.4734 21.3768C18.9687 21.1827 18.4211 21.0752 17.8486 21.0752Z" fill="#FFDA44"/>
<path d="M19.8048 24.4965C20.1867 24.633 20.5978 24.7078 21.0267 24.7078C21.4555 24.7078 21.8667 24.633 22.2486 24.4965C22.0404 23.6796 21.6107 22.9503 21.0267 22.3772C20.4427 22.9502 20.013 23.6796 19.8048 24.4965Z" fill="#FFDA44"/>
<path d="M24.172 19.26C23.544 18.1745 22.3711 17.4434 21.0267 17.4434C19.6822 17.4434 18.5093 18.1744 17.8813 19.26C19.0262 19.2658 20.0998 19.5771 21.0267 20.1146C21.9535 19.5771 23.0269 19.2658 24.172 19.26Z" fill="#FFDA44"/>
<path d="M22.5801 21.3768C23.1086 21.9662 23.5276 22.6549 23.8083 23.4103C24.3344 22.7843 24.653 21.9784 24.6585 21.0979C24.5091 21.0829 24.3579 21.0752 24.2049 21.0752C23.6326 21.0751 23.085 21.1827 22.5801 21.3768Z" fill="#FFDA44"/>
</g>
<defs>
<clipPath id="clip0_299_3264">
<rect width="41.7691" height="41.7691" fill="white" transform="translate(0.141602 0.192383)"/>
</clipPath>
</defs>
</svg>
