<svg width="43" height="42" viewBox="0 0 43 42" fill="none" xmlns="http://www.w3.org/2000/svg">
<g clip-path="url(#clip0_299_3273)">
<path d="M40.2391 11.996C36.861 5.01019 29.7068 0.19165 21.4268 0.19165C13.1469 0.19165 5.99267 5.01019 2.61459 11.996L21.4268 13.8121L40.2391 11.996Z" fill="#D80027"/>
<path d="M2.61459 30.1561C5.99267 37.1419 13.1469 41.9605 21.4268 41.9605C29.7068 41.9605 36.861 37.1419 40.2391 30.1561L21.4268 28.3401L2.61459 30.1561Z" fill="#D80027"/>
<path d="M40.2388 11.9971H2.61429C1.28666 14.7427 0.541992 17.823 0.541992 21.0773C0.541992 24.3316 1.28666 27.4119 2.61429 30.1575H40.2387C41.5665 27.4119 42.3111 24.3316 42.3111 21.0773C42.3111 17.823 41.5665 14.7427 40.2388 11.9971Z" fill="#0052B4"/>
<path d="M21.4268 28.3408C25.4387 28.3408 28.691 25.0885 28.691 21.0767C28.691 17.0648 25.4387 13.8125 21.4268 13.8125C17.415 13.8125 14.1627 17.0648 14.1627 21.0767C14.1627 25.0885 17.415 28.3408 21.4268 28.3408Z" fill="#F0F0F0"/>
</g>
<defs>
<clipPath id="clip0_299_3273">
<rect width="41.7691" height="41.7691" fill="white" transform="translate(0.54248 0.192383)"/>
</clipPath>
</defs>
</svg>
