<svg width="43" height="42" viewBox="0 0 43 42" fill="none" xmlns="http://www.w3.org/2000/svg">
<g clip-path="url(#clip0_299_3279)">
<path d="M21.828 41.9605C33.3622 41.9605 42.7126 32.6102 42.7126 21.076C42.7126 9.54174 33.3622 0.191406 21.828 0.191406C10.2938 0.191406 0.943451 9.54174 0.943451 21.076C0.943451 32.6102 10.2938 41.9605 21.828 41.9605Z" fill="#F0F0F0"/>
<path d="M21.8285 0.191406C12.1793 0.191406 4.05992 6.73586 1.66342 15.6278H41.9937C39.5971 6.73586 31.4778 0.191406 21.8285 0.191406Z" fill="#A2001D"/>
<path d="M21.8285 41.9608C31.4778 41.9608 39.5971 35.4163 41.9936 26.5244H1.66342C4.05992 35.4163 12.1793 41.9608 21.8285 41.9608Z" fill="#A2001D"/>
</g>
<defs>
<clipPath id="clip0_299_3279">
<rect width="41.7691" height="41.7691" fill="white" transform="translate(0.943848 0.191406)"/>
</clipPath>
</defs>
</svg>
