<svg width="43" height="42" viewBox="0 0 43 42" fill="none" xmlns="http://www.w3.org/2000/svg">
<g clip-path="url(#clip0_299_3284)">
<path d="M21.2293 41.9615C32.7635 41.9615 42.1138 32.6112 42.1138 21.0769C42.1138 9.54272 32.7635 0.192383 21.2293 0.192383C9.69506 0.192383 0.344727 9.54272 0.344727 21.0769C0.344727 32.6112 9.69506 41.9615 21.2293 41.9615Z" fill="#F0F0F0"/>
<path d="M21.2293 0.19165C12.9494 0.19165 5.7951 5.01019 2.41702 11.996H40.0414C36.6634 5.01019 29.5091 0.19165 21.2293 0.19165Z" fill="#D80027"/>
<path d="M21.2293 41.9606C29.5091 41.9606 36.6635 37.1421 40.0415 30.1562H2.41702C5.7951 37.1421 12.9494 41.9606 21.2293 41.9606Z" fill="#D80027"/>
<path d="M26.6781 24.709L21.2299 14.7207L15.7817 24.709H19.8679V27.433H22.592V24.709H26.6781Z" fill="#6DA544"/>
</g>
<defs>
<clipPath id="clip0_299_3284">
<rect width="41.7691" height="41.7691" fill="white" transform="translate(0.344727 0.192383)"/>
</clipPath>
</defs>
</svg>
