<svg width="43" height="42" viewBox="0 0 43 42" fill="none" xmlns="http://www.w3.org/2000/svg">
<g clip-path="url(#clip0_299_3290)">
<path d="M0.746582 21.0762C0.746582 24.3304 1.49117 27.4107 2.81888 30.1564L21.6311 31.0645L40.4434 30.1565C41.7711 27.4107 42.5157 24.3304 42.5157 21.0762C42.5157 17.8219 41.7711 14.7416 40.4434 11.996L21.6311 11.0879L2.81888 11.9959C1.49117 14.7416 0.746582 17.8219 0.746582 21.0762H0.746582Z" fill="#F0F0F0"/>
<path d="M21.6309 41.9616C29.9107 41.9616 37.0651 37.143 40.4431 30.1572H2.81863C6.19671 37.143 13.351 41.9616 21.6309 41.9616Z" fill="#6DA544"/>
<path d="M21.6311 0.192383C13.3512 0.192383 6.19692 5.01092 2.81885 11.9967H40.4433C37.0653 5.01092 29.9109 0.192383 21.6311 0.192383Z" fill="#0052B4"/>
<path d="M22.9929 20.623V15.6289H20.2689V20.623L16.9788 23.9132C17.9356 25.4796 19.6611 26.5252 21.631 26.5252C23.6008 26.5252 25.3262 25.4796 26.2832 23.9132L22.9929 20.623Z" fill="black"/>
</g>
<defs>
<clipPath id="clip0_299_3290">
<rect width="41.7691" height="41.7691" fill="white" transform="translate(0.746094 0.192383)"/>
</clipPath>
</defs>
</svg>
