<svg width="42" height="43" viewBox="0 0 42 43" fill="none" xmlns="http://www.w3.org/2000/svg">
<g clip-path="url(#clip0_299_3295)">
<path d="M21.032 42.147C32.5662 42.147 41.9166 32.7967 41.9166 21.2625C41.9166 9.72826 32.5662 0.37793 21.032 0.37793C9.49779 0.37793 0.147461 9.72826 0.147461 21.2625C0.147461 32.7967 9.49779 42.147 21.032 42.147Z" fill="#F0F0F0"/>
<path d="M4.9209 7.97294H37.1425C35.9524 6.53182 34.5721 5.25386 33.0409 4.17578H9.02251C7.49133 5.2537 6.11107 6.53174 4.9209 7.97294Z" fill="#F0F0F0"/>
<path d="M0.147461 21.2618C0.147461 21.902 0.17789 22.5349 0.234262 23.1604H41.8298C41.8861 22.5349 41.9166 21.902 41.9166 21.2618C41.9166 20.6217 41.8861 19.9888 41.8298 19.3633H0.234262C0.17789 19.9888 0.147461 20.6217 0.147461 21.2618H0.147461Z" fill="#F0F0F0"/>
<path d="M2.42456 30.7561H39.6389C40.2538 29.5531 40.7554 28.2828 41.1298 26.959H0.933594C1.30797 28.2828 1.80968 29.5532 2.42456 30.7561Z" fill="#F0F0F0"/>
<path d="M9.02269 38.3501H33.041C34.5722 37.272 35.9525 35.9941 37.1426 34.553H4.92108C6.11126 35.9939 7.49151 37.272 9.02269 38.3501Z" fill="#F0F0F0"/>
<path d="M0.933594 15.5667H41.13C40.7555 14.2428 40.2539 12.9724 39.639 11.7695H2.42464C1.80977 12.9724 1.30805 14.2428 0.933594 15.5667Z" fill="#F0F0F0"/>
<path d="M10.136 4.17411H33.0415C29.6445 1.78234 25.5026 0.376953 21.0323 0.376953C18.3082 0.376953 13.533 1.78234 10.136 4.17411Z" fill="#D80027"/>
<path d="M20.124 11.7688H39.6392C38.9447 10.4103 38.1059 9.13771 37.1428 7.97168H20.124V11.7688Z" fill="#D80027"/>
<path d="M20.124 19.3626H41.8298C41.7123 18.0588 41.4762 16.7891 41.1302 15.5654H20.124V19.3626Z" fill="#D80027"/>
<path d="M0.934008 26.9573H41.1302C41.4763 25.7338 41.7124 24.464 41.8299 23.1602H0.234375C0.351851 24.464 0.587944 25.7337 0.934008 26.9573Z" fill="#D80027"/>
<path d="M4.92116 34.552H37.1428C38.1058 33.3858 38.9446 32.1134 39.6391 30.7549H2.4248C3.1193 32.1134 3.95811 33.386 4.92116 34.552Z" fill="#D80027"/>
<path d="M21.0322 42.146C25.5026 42.146 29.6444 40.7406 33.0414 38.3489H9.02304C12.42 40.7406 16.5619 42.146 21.0322 42.146Z" fill="#D80027"/>
<path d="M0.934048 15.5657C0.587984 16.7894 0.351973 18.0591 0.234497 19.3629H21.0322V0.376953C11.4727 0.376953 3.41344 6.79993 0.934048 15.5657Z" fill="#0052B4"/>
<path d="M12.5794 5.8252L13.9316 9.98701H18.308L14.7676 12.5594L16.1197 16.7215L12.5794 14.1492L9.03887 16.7215L10.3913 12.5594L6.85089 9.98701H11.2271L12.5794 5.8252Z" fill="#F0F0F0"/>
</g>
<defs>
<clipPath id="clip0_299_3295">
<rect width="41.7691" height="41.7691" fill="white" transform="translate(0.147461 0.376953)"/>
</clipPath>
</defs>
</svg>
