<svg width="43" height="43" viewBox="0 0 43 43" fill="none" xmlns="http://www.w3.org/2000/svg">
<g clip-path="url(#clip0_299_3312)">
<path d="M2.62113 12.1813C1.29349 14.927 0.548828 18.0072 0.548828 21.2615C0.548828 24.5158 1.29349 27.5961 2.62113 30.3417L21.4334 32.1578L40.2456 30.3417C41.5733 27.5961 42.3179 24.5158 42.3179 21.2615C42.3179 18.0072 41.5733 14.927 40.2456 12.1813L21.4334 10.3652L2.62113 12.1813Z" fill="black"/>
<path d="M2.62177 30.3418C5.99968 37.3276 13.1534 42.1461 21.4333 42.1461C29.7131 42.1461 36.8669 37.3276 40.2448 30.3418H2.62177Z" fill="#496E2D"/>
<path d="M2.62158 12.1813H40.2446C36.8667 5.19549 29.7129 0.376953 21.4331 0.376953C13.1532 0.376953 5.9995 5.19549 2.62158 12.1813Z" fill="#D80027"/>
<path d="M26.2938 17.4426L28.0073 19.804L30.7824 18.9041L29.0661 21.2634L30.7795 23.6247L28.0054 22.7214L26.2891 25.0807L26.2909 22.1634L23.5167 21.2601L26.2919 20.3603L26.2938 17.4426Z" fill="#F0F0F0"/>
<path d="M21.6172 27.1635C18.3576 27.1635 15.715 24.5209 15.715 21.2613C15.715 18.0017 18.3576 15.3591 21.6172 15.3591C22.6335 15.3591 23.5899 15.6161 24.4248 16.0686C23.1149 14.7877 21.3238 13.9971 19.3472 13.9971C15.3352 13.9971 12.083 17.2494 12.083 21.2612C12.083 25.2731 15.3353 28.5254 19.3472 28.5254C21.3239 28.5254 23.115 27.7348 24.4248 26.4539C23.5898 26.9065 22.6336 27.1635 21.6172 27.1635Z" fill="#F0F0F0"/>
</g>
<defs>
<clipPath id="clip0_299_3312">
<rect width="41.7691" height="41.7691" fill="white" transform="translate(0.548828 0.376953)"/>
</clipPath>
</defs>
</svg>
