<svg width="43" height="43" viewBox="0 0 43 43" fill="none" xmlns="http://www.w3.org/2000/svg">
<g clip-path="url(#clip0_299_3319)">
<path d="M42.7193 21.2621C42.7193 32.7963 33.3689 42.1467 21.8347 42.1467C10.3006 42.1467 0.950195 32.7963 0.950195 21.2621C1.85818 21.2621 21.8347 18.5381 21.8347 18.5381L42.7193 21.2621Z" fill="#D80027"/>
<path d="M0.950195 21.2615C0.950195 9.72736 10.3006 0.376953 21.8347 0.376953C33.3689 0.376953 42.7193 9.72736 42.7193 21.2615" fill="#0052B4"/>
<path d="M16.3865 14.905C16.3865 13.4006 15.1669 12.1809 13.6625 12.1809C12.9645 12.1809 12.3285 12.4436 11.8464 12.8751V11.2729H12.7544V9.45682H11.8464V8.54883H10.0303V9.45682H9.12235V11.2729H10.0303V12.8751C9.54828 12.4436 8.9122 12.1809 8.21428 12.1809C6.70986 12.1809 5.49023 13.4006 5.49023 14.905C5.49023 15.7116 5.84111 16.436 6.39822 16.9349V18.5371H15.4784V16.9349C16.0357 16.436 16.3865 15.7116 16.3865 14.905Z" fill="#FFDA44"/>
</g>
<defs>
<clipPath id="clip0_299_3319">
<rect width="41.7691" height="41.7691" fill="white" transform="translate(0.950195 0.376953)"/>
</clipPath>
</defs>
</svg>
