<svg width="43" height="43" viewBox="0 0 43 43" fill="none" xmlns="http://www.w3.org/2000/svg">
<g clip-path="url(#clip0_299_3323)">
<path d="M40.8208 28.5258C41.6604 26.2634 42.1198 23.8162 42.1198 21.2616C42.1198 18.707 41.6604 16.2598 40.8208 13.9975L21.2353 12.1814L1.64971 13.9975C0.810168 16.2598 0.350708 18.707 0.350708 21.2616C0.350708 23.8162 0.810168 26.2634 1.64971 28.5258L21.2353 30.3418L40.8208 28.5258Z" fill="#6DA544"/>
<path d="M40.821 13.9974C37.8702 6.0445 30.2151 0.376953 21.2355 0.376953C12.2558 0.376953 4.60074 6.0445 1.6499 13.9974H40.821Z" fill="#FFDA44"/>
<path d="M21.2355 42.1468C30.2151 42.1468 37.8702 36.4792 40.821 28.5264H1.6499C4.60074 36.4792 12.2558 42.1468 21.2355 42.1468Z" fill="#D80027"/>
</g>
<defs>
<clipPath id="clip0_299_3323">
<rect width="41.7691" height="41.7691" fill="white" transform="translate(0.351074 0.376953)"/>
</clipPath>
</defs>
</svg>
