<svg width="43" height="43" viewBox="0 0 43 43" fill="none" xmlns="http://www.w3.org/2000/svg">
<g clip-path="url(#clip0_299_3327)">
<path d="M21.6375 42.1461C33.1717 42.1461 42.522 32.7957 42.522 21.2615C42.522 9.72729 33.1717 0.376953 21.6375 0.376953C10.1033 0.376953 0.75293 9.72729 0.75293 21.2615C0.75293 32.7957 10.1033 42.1461 21.6375 42.1461Z" fill="#F0F0F0"/>
<path d="M21.6373 0.376953C12.6577 0.376953 5.0026 6.0445 2.05176 13.9974H41.2229C38.272 6.0445 30.6169 0.376953 21.6373 0.376953Z" fill="#D80027"/>
<path d="M21.6373 42.1468C30.6169 42.1468 38.272 36.4792 41.2229 28.5264H2.05176C5.0026 36.4792 12.6577 42.1468 21.6373 42.1468Z" fill="#338AF3"/>
</g>
<defs>
<clipPath id="clip0_299_3327">
<rect width="41.7691" height="41.7691" fill="white" transform="translate(0.752441 0.376953)"/>
</clipPath>
</defs>
</svg>
