<svg width="42" height="43" viewBox="0 0 42 43" fill="none" xmlns="http://www.w3.org/2000/svg">
<g clip-path="url(#clip0_299_3331)">
<path d="M21.0384 42.1461C32.5726 42.1461 41.9229 32.7957 41.9229 21.2615C41.9229 9.72729 32.5726 0.376953 21.0384 0.376953C9.50414 0.376953 0.153809 9.72729 0.153809 21.2615C0.153809 32.7957 9.50414 42.1461 21.0384 42.1461Z" fill="#496E2D"/>
<path d="M24.6703 20.3908C24.1576 20.3908 23.6709 20.4931 23.219 20.6557C23.4665 20.1039 23.6326 19.49 23.6326 18.8343C23.6326 16.24 21.0382 14.2942 21.0382 14.2942C21.0382 14.2942 18.4439 16.24 18.4439 18.8343C18.4439 19.4899 18.6099 20.1039 18.8575 20.6557C18.4055 20.4932 17.9188 20.3908 17.4062 20.3908C14.8119 20.3908 12.8661 22.9852 12.8661 22.9852C12.8661 22.9852 14.8119 25.5796 17.4062 25.5796C18.9273 25.5796 20.2245 24.6881 21.0383 23.9501C21.8521 24.688 23.1494 25.5796 24.6704 25.5796C27.2648 25.5796 29.2105 22.9852 29.2105 22.9852C29.2105 22.9852 27.2646 20.3908 24.6703 20.3908Z" fill="#F0F0F0"/>
<path d="M21.0389 8.5498L21.5749 10.1993H23.3093L21.9063 11.2189L22.4419 12.8684L21.0389 11.8488L19.6359 12.8684L20.1715 11.2189L18.7684 10.1993H20.5029L21.0389 8.5498Z" fill="#FFDA44"/>
<path d="M14.4442 11.4346L15.4754 12.363L16.677 11.6692L16.1127 12.9368L17.1438 13.8654L15.7639 13.7203L15.1996 14.9878L14.9109 13.6307L13.5311 13.4856L14.7326 12.7917L14.4442 11.4346Z" fill="#FFDA44"/>
<path d="M9.61658 16.2621L10.9738 16.5505L11.6676 15.3489L11.8127 16.7287L13.1698 17.0174L11.9023 17.5818L12.0474 18.9616L11.1187 17.9306L9.85124 18.4949L10.545 17.2932L9.61658 16.2621Z" fill="#FFDA44"/>
<path d="M27.6333 11.4346L26.6022 12.363L25.4006 11.6692L25.9648 12.9368L24.9338 13.8654L26.3137 13.7203L26.878 14.9878L27.1667 13.6307L28.5465 13.4856L27.345 12.7917L27.6333 11.4346Z" fill="#FFDA44"/>
<path d="M32.4608 16.2618L31.1035 16.5503L30.4098 15.3486L30.2647 16.7285L28.9076 17.0172L30.1751 17.5815L30.03 18.9613L30.9586 17.9304L32.2261 18.4947L31.5323 17.2929L32.4608 16.2618Z" fill="#FFDA44"/>
<path d="M21.0382 32.8447C23.099 32.8447 24.9985 32.1571 26.5223 31.0002H15.5542C17.078 32.1571 18.9774 32.8447 21.0382 32.8447Z" fill="#F0F0F0"/>
<path d="M12.7144 27.3958C13.0026 28.0554 13.3681 28.6732 13.7973 29.2402H28.2793C28.7086 28.6733 29.0741 28.0554 29.3623 27.3958H12.7144Z" fill="#F0F0F0"/>
</g>
<defs>
<clipPath id="clip0_299_3331">
<rect width="41.7691" height="41.7691" fill="white" transform="translate(0.15332 0.376953)"/>
</clipPath>
</defs>
</svg>
