<svg width="43" height="43" viewBox="0 0 43 43" fill="none" xmlns="http://www.w3.org/2000/svg">
<g clip-path="url(#clip0_299_3343)">
<path d="M21.4392 42.1461C32.9735 42.1461 42.3238 32.7957 42.3238 21.2615C42.3238 9.72729 32.9735 0.376953 21.4392 0.376953C9.90502 0.376953 0.554688 9.72729 0.554688 21.2615C0.554688 32.7957 9.90502 42.1461 21.4392 42.1461Z" fill="#F0F0F0"/>
<path d="M14.1754 21.2618V40.8473C16.4378 41.6869 18.885 42.1463 21.4396 42.1463C32.9737 42.1463 42.3241 32.7959 42.3241 21.2618C42.3241 9.72764 14.1754 21.2618 14.1754 21.2618Z" fill="#6DA544"/>
<path d="M21.4394 0.376953C18.8848 0.376953 16.4377 0.836495 14.1753 1.67596V21.2615H42.324C42.324 9.72736 32.9736 0.376953 21.4394 0.376953Z" fill="#D80027"/>
</g>
<defs>
<clipPath id="clip0_299_3343">
<rect width="41.7691" height="41.7691" fill="white" transform="translate(0.554688 0.376953)"/>
</clipPath>
</defs>
</svg>
