<svg width="43" height="43" viewBox="0 0 43 43" fill="none" xmlns="http://www.w3.org/2000/svg">
<g clip-path="url(#clip0_299_3347)">
<path d="M30.9208 2.44926C28.1752 1.12162 25.0949 0.376953 21.8406 0.376953C18.5863 0.376953 15.5061 1.12162 12.7604 2.44926L10.9443 21.2615L12.7604 40.0738C15.5061 41.4014 18.5863 42.1461 21.8406 42.1461C25.0949 42.1461 28.1752 41.4014 30.9208 40.0738L32.7369 21.2615L30.9208 2.44926Z" fill="#FFDA44"/>
<path d="M12.7604 2.4502C5.77459 5.82819 0.956055 12.9819 0.956055 21.2617C0.956055 29.5415 5.77459 36.6952 12.7604 40.0732V2.4502Z" fill="#0052B4"/>
<path d="M30.921 2.4502V40.0732C37.9067 36.6952 42.7254 29.5415 42.7254 21.2617C42.7254 12.9819 37.9067 5.82819 30.921 2.4502Z" fill="#0052B4"/>
<path d="M27.743 23.0783L29.105 24.8943V17.6301L27.743 19.4461H23.6569V15.36L25.4729 13.998H18.2087L20.0248 15.36V19.4461H15.9386L14.5767 17.6301V24.8943L15.9386 23.0783H20.0248V27.1644L18.2087 28.5264H25.4729L23.6569 27.1644V23.0783H27.743Z" fill="#D80027"/>
<path d="M27.2884 20.3546H22.7483V15.8145H20.9323V20.3546H16.3921V22.1706H20.9323V26.7108H22.7483V22.1706H27.2884V20.3546Z" fill="#F0F0F0"/>
</g>
<defs>
<clipPath id="clip0_299_3347">
<rect width="41.7691" height="41.7691" fill="white" transform="translate(0.956055 0.376953)"/>
</clipPath>
</defs>
</svg>
