<svg width="43" height="43" viewBox="0 0 43 43" fill="none" xmlns="http://www.w3.org/2000/svg">
<g clip-path="url(#clip0_299_3354)">
<path d="M0.357422 21.2611C0.357422 23.8157 0.816964 26.2628 1.65642 28.5252L21.242 29.4333L40.8275 28.5253C41.6671 26.2628 42.1265 23.8157 42.1265 21.2611C42.1265 18.7065 41.6671 16.2594 40.8275 13.9969L21.242 13.0889L1.65642 13.9969C0.816964 16.2594 0.357422 18.7065 0.357422 21.2611H0.357422Z" fill="#D80027"/>
<path d="M21.242 0.376953C12.2624 0.376953 4.60733 6.0445 1.65649 13.9974H40.8277C37.8768 6.0445 30.2217 0.376953 21.242 0.376953Z" fill="black"/>
<path d="M40.8274 28.5264H1.65625C4.60709 36.4791 12.2622 42.1468 21.2418 42.1468C30.2214 42.1468 37.8765 36.4791 40.8274 28.5264Z" fill="#496E2D"/>
<path d="M27.484 10.3658L24.9335 9.16608L26.2917 6.69591L23.522 7.22578L23.1711 4.42773L21.2419 6.4856L19.3127 4.42773L18.9617 7.22578L16.1921 6.69591L17.5504 9.16608L14.9998 10.3658H27.484Z" fill="#D80027"/>
</g>
<defs>
<clipPath id="clip0_299_3354">
<rect width="41.7691" height="41.7691" fill="white" transform="translate(0.357422 0.376953)"/>
</clipPath>
</defs>
</svg>
