<svg width="43" height="43" viewBox="0 0 43 43" fill="none" xmlns="http://www.w3.org/2000/svg">
<g clip-path="url(#clip0_299_3359)">
<path d="M21.6432 42.1461C33.1774 42.1461 42.5278 32.7957 42.5278 21.2615C42.5278 9.72729 33.1774 0.376953 21.6432 0.376953C10.109 0.376953 0.758667 9.72729 0.758667 21.2615C0.758667 32.7957 10.109 42.1461 21.6432 42.1461Z" fill="#F0F0F0"/>
<path d="M20.7351 21.2624H42.5277C42.5277 19.3773 42.2764 17.5514 41.8082 15.8142H20.7351V21.2624Z" fill="#D80027"/>
<path d="M20.7351 10.3657H39.4624C38.1839 8.27949 36.5494 6.43553 34.6435 4.91748H20.7351V10.3657Z" fill="#D80027"/>
<path d="M21.643 42.1466C26.5581 42.1466 31.0758 40.4477 34.6434 37.6064H8.64258C12.2102 40.4477 16.7278 42.1466 21.643 42.1466Z" fill="#D80027"/>
<path d="M3.82362 32.1579H39.4621C40.4885 30.4832 41.2844 28.6525 41.808 26.7097H1.47778C2.00128 28.6525 2.79726 30.4832 3.82362 32.1579Z" fill="#D80027"/>
<path d="M21.6432 21.2615C21.6432 9.72736 21.6432 8.36758 21.6432 0.376953C10.1091 0.376953 0.758667 9.72736 0.758667 21.2615H21.6432Z" fill="#0052B4"/>
<path d="M14.6463 18.2541C11.7941 18.2541 9.48196 15.9419 9.48196 13.0897C9.48196 10.2376 11.7942 7.92537 14.6463 7.92537C15.5356 7.92537 16.3724 8.15028 17.1029 8.54611C15.9569 7.42544 14.3896 6.73364 12.66 6.73364C9.14968 6.73364 6.30383 9.57941 6.30383 13.0898C6.30383 16.6002 9.14968 19.446 12.66 19.446C14.3896 19.446 15.9569 18.7542 17.1029 17.6335C16.3724 18.0292 15.5357 18.2541 14.6463 18.2541Z" fill="#FFDA44"/>
<path d="M16.1017 9.45825L17.0186 11.3756L19.0892 10.8972L18.1619 12.8093L19.8272 14.1299L17.7539 14.5972L17.7597 16.7225L16.1017 15.3929L14.4437 16.7225L14.4494 14.5972L12.3761 14.1299L14.0413 12.8093L13.114 10.8972L15.1847 11.3756L16.1017 9.45825Z" fill="#FFDA44"/>
</g>
<defs>
<clipPath id="clip0_299_3359">
<rect width="41.7691" height="41.7691" fill="white" transform="translate(0.758789 0.376953)"/>
</clipPath>
</defs>
</svg>
