<svg width="42" height="43" viewBox="0 0 42 43" fill="none" xmlns="http://www.w3.org/2000/svg">
<g clip-path="url(#clip0_299_3370)">
<path d="M21.0325 42.5484C32.5667 42.5484 41.9171 33.1981 41.9171 21.6638C41.9171 10.1296 32.5667 0.779297 21.0325 0.779297C9.49828 0.779297 0.147949 10.1296 0.147949 21.6638C0.147949 33.1981 9.49828 42.5484 21.0325 42.5484Z" fill="#D80027"/>
<path d="M7.41162 11.6748H34.6523V31.6514H7.41162V11.6748Z" fill="#6DA544"/>
<path d="M24.3953 27.5658C21.1357 27.5658 18.4932 24.9233 18.4932 21.6637C18.4932 18.404 21.1357 15.7615 24.3953 15.7615C25.4117 15.7615 26.368 16.0185 27.2029 16.4709C25.8932 15.19 24.1021 14.3994 22.1253 14.3994C18.1135 14.3994 14.8611 17.6517 14.8611 21.6636C14.8611 25.6754 18.1135 28.9277 22.1253 28.9277C24.1021 28.9277 25.8932 28.1371 27.2029 26.8562C26.368 27.3088 25.4117 27.5658 24.3953 27.5658Z" fill="#F0F0F0"/>
</g>
<defs>
<clipPath id="clip0_299_3370">
<rect width="41.7691" height="41.7691" fill="white" transform="translate(0.147461 0.779297)"/>
</clipPath>
</defs>
</svg>
