<svg width="43" height="43" viewBox="0 0 43 43" fill="none" xmlns="http://www.w3.org/2000/svg">
<g clip-path="url(#clip0_299_3374)">
<path d="M28.6974 2.0783C26.4349 1.23884 23.9878 0.779297 21.4332 0.779297C18.8786 0.779297 16.4316 1.23884 14.1691 2.0783L12.353 21.6638L14.1691 41.2494C16.4316 42.0889 18.8786 42.5484 21.4332 42.5484C23.9878 42.5484 26.4349 42.0889 28.6974 41.2494L30.5135 21.6638L28.6974 2.0783Z" fill="#FFDA44"/>
<path d="M42.3177 21.6634C42.3177 12.6838 36.6501 5.02864 28.6973 2.07788V41.2491C36.6501 38.2981 42.3177 30.6431 42.3177 21.6634Z" fill="#D80027"/>
<path d="M0.548645 21.6634C0.548645 30.6431 6.21619 38.2981 14.169 41.249V2.07788C6.21619 5.02864 0.548645 12.6838 0.548645 21.6634Z" fill="#6DA544"/>
</g>
<defs>
<clipPath id="clip0_299_3374">
<rect width="41.7691" height="41.7691" fill="white" transform="translate(0.548828 0.779297)"/>
</clipPath>
</defs>
</svg>
