<svg width="43" height="43" viewBox="0 0 43 43" fill="none" xmlns="http://www.w3.org/2000/svg">
<g clip-path="url(#clip0_299_3378)">
<path d="M21.8348 42.5482C33.369 42.5482 42.7194 33.1978 42.7194 21.6636C42.7194 10.1294 33.369 0.779053 21.8348 0.779053C10.3006 0.779053 0.950256 10.1294 0.950256 21.6636C0.950256 33.1978 10.3006 42.5482 21.8348 42.5482Z" fill="#F0F0F0"/>
<path d="M21.8345 0.779297C33.3686 0.779297 42.719 10.1297 42.719 21.6638C42.719 33.198 33.3686 42.5484 21.8345 42.5484" fill="#D80027"/>
<path d="M15.4782 8.95134V6.22729H12.7542V8.95134H10.03V11.6754H12.7542V14.3995H15.4782V11.6754H18.2023V8.95134H15.4782Z" fill="#ACABB1"/>
</g>
<defs>
<clipPath id="clip0_299_3378">
<rect width="41.7691" height="41.7691" fill="white" transform="translate(0.950195 0.779297)"/>
</clipPath>
</defs>
</svg>
