<svg width="43" height="43" viewBox="0 0 43 43" fill="none" xmlns="http://www.w3.org/2000/svg">
<g clip-path="url(#clip0_299_3382)">
<path d="M21.2351 42.5484C32.7693 42.5484 42.1197 33.198 42.1197 21.6638C42.1197 18.1589 41.2549 14.8563 39.7292 11.9558L21.2106 21.6883L30.9432 3.16976C28.0427 1.64405 24.7401 0.779297 21.2351 0.779297C9.70099 0.779297 0.350586 10.1297 0.350586 21.6638C0.350586 27.431 2.68819 32.6521 6.46748 36.4315C10.2468 40.2109 15.468 42.5484 21.2351 42.5484Z" fill="#0052B4"/>
<path d="M39.7074 11.978C38.7514 10.1584 37.5085 8.45007 35.9786 6.92011C34.4485 5.39016 32.7404 4.14728 30.9207 3.19141L6.44324 36.4554L39.7074 11.978Z" fill="#F0F0F0"/>
<path d="M6.44336 36.4552L39.7075 11.9778C38.7515 10.1583 37.5086 8.44988 35.9787 6.91992L6.44336 36.4552Z" fill="#FF9811"/>
<path d="M18.4868 13.026L15.9363 14.2257L17.2945 16.6959L14.5248 16.1661L14.1739 18.9639L12.2447 16.9061L10.3155 18.9639L9.96467 16.1661L7.19502 16.6958L8.55309 14.2256L6.00256 13.026L8.55317 11.8262L7.19502 9.35607L9.96451 9.88577L10.3156 7.08789L12.2447 9.14575L14.1739 7.08789L14.5248 9.88577L17.2946 9.35607L15.9364 11.8262L18.4868 13.026Z" fill="#F0F0F0"/>
</g>
<defs>
<clipPath id="clip0_299_3382">
<rect width="41.7691" height="41.7691" fill="white" transform="translate(0.351074 0.779297)"/>
</clipPath>
</defs>
</svg>
