<svg width="43" height="43" viewBox="0 0 43 43" fill="none" xmlns="http://www.w3.org/2000/svg">
<g clip-path="url(#clip0_299_3387)">
<path d="M21.6375 42.5484C33.1717 42.5484 42.522 33.1981 42.522 21.6638C42.522 10.1296 33.1717 0.779297 21.6375 0.779297C10.1033 0.779297 0.75293 10.1296 0.75293 21.6638C0.75293 33.1981 10.1033 42.5484 21.6375 42.5484Z" fill="#F0F0F0"/>
<path d="M42.3428 18.9395C41.7667 14.5353 39.7884 10.2796 36.4049 6.89607C33.0213 3.51253 28.7655 1.53413 24.3613 0.958008L24.3614 18.9395H42.3428Z" fill="#0052B4"/>
<path d="M18.9132 0.958008C14.509 1.53413 10.2532 3.51245 6.86962 6.89599C3.48616 10.2796 1.50776 14.5354 0.931641 18.9397L18.9132 18.9396L18.9132 0.958008Z" fill="#0052B4"/>
<path d="M0.931641 24.3877C1.50776 28.7919 3.48616 33.0478 6.86962 36.4312C10.2532 39.8147 14.5089 41.793 18.9132 42.3694L18.9132 24.3879L0.931641 24.3877Z" fill="#0052B4"/>
<path d="M24.3613 42.3691C28.7655 41.793 33.0212 39.8147 36.4048 36.4311C39.7883 33.0476 41.7666 28.7919 42.3428 24.3877H24.3613V42.3691Z" fill="#0052B4"/>
<path d="M28.7662 14.0304C28.7662 13.7527 28.992 13.527 29.2698 13.527H30.3486C32.0539 13.527 33.4414 12.1396 33.4414 10.4344C33.4414 8.72909 32.054 7.34165 30.3486 7.34165H29.3241C28.9897 7.09047 28.5411 6.93555 28.0462 6.93555C27.014 6.93555 26.1772 7.60491 26.1772 8.43067C26.1772 9.24843 26.998 9.91184 28.0164 9.92473L28.0159 9.93069H30.3486C30.6263 9.93069 30.8521 10.1565 30.8521 10.4342C30.8521 10.7119 30.6263 10.9376 30.3486 10.9376H29.2698C27.5644 10.9376 26.1771 12.325 26.1771 14.0303C26.1771 15.7355 27.5643 17.123 29.2698 17.123H33.4413V14.5338H29.2698C28.992 14.5339 28.7662 14.3081 28.7662 14.0304Z" fill="#F0F0F0"/>
<path d="M12.422 14.0304C12.422 13.7527 12.6477 13.527 12.9255 13.527H14.0043C15.7097 13.527 17.0971 12.1396 17.0971 10.4344C17.0971 8.72909 15.7097 7.34165 14.0043 7.34165H12.9798C12.6454 7.09047 12.1968 6.93555 11.702 6.93555C10.6697 6.93555 9.83295 7.60491 9.83295 8.43067C9.83295 9.24843 10.6537 9.91184 11.6722 9.92473L11.6717 9.93069H14.0044C14.2822 9.93069 14.5079 10.1565 14.5079 10.4342C14.5079 10.7119 14.2822 10.9376 14.0044 10.9376H12.9256C11.2202 10.9376 9.83295 12.325 9.83295 14.0303C9.83295 15.7355 11.2201 17.123 12.9256 17.123H17.097V14.5338H12.9255C12.6477 14.5339 12.422 14.3081 12.422 14.0304Z" fill="#F0F0F0"/>
<path d="M28.7661 33.298C28.7661 33.0203 28.9919 32.7946 29.2696 32.7946H30.3485C32.0538 32.7946 33.4413 31.4072 33.4413 29.7019C33.4413 27.9967 32.0539 26.6092 30.3485 26.6092H29.324C28.9896 26.358 28.541 26.2031 28.0461 26.2031C27.0138 26.2031 26.177 26.8726 26.177 27.6982C26.177 28.516 26.9978 29.1794 28.0162 29.1923L28.0158 29.1983H30.3484C30.6262 29.1983 30.8519 29.4241 30.8519 29.7018C30.8519 29.9795 30.6262 30.2052 30.3484 30.2052H29.2696C27.5642 30.2052 26.1769 31.5926 26.1769 33.2978C26.1769 35.0031 27.5641 36.3905 29.2696 36.3905H33.4412V33.8014H29.2696C28.9919 33.8015 28.7661 33.5756 28.7661 33.298Z" fill="#F0F0F0"/>
<path d="M12.4218 33.298C12.4218 33.0203 12.6475 32.7946 12.9253 32.7946H14.0041C15.7095 32.7946 17.0969 31.4072 17.0969 29.7019C17.0969 27.9967 15.7096 26.6092 14.0041 26.6092H12.9797C12.6453 26.358 12.1967 26.2031 11.7018 26.2031C10.6695 26.2031 9.8327 26.8726 9.8327 27.6982C9.8327 28.516 10.6535 29.1794 11.6719 29.1923L11.6714 29.1983H14.0041C14.2819 29.1983 14.5077 29.4241 14.5077 29.7018C14.5077 29.9795 14.2819 30.2052 14.0041 30.2052H12.9253C11.22 30.2052 9.8327 31.5926 9.8327 33.2978C9.8327 35.0031 11.2199 36.3905 12.9253 36.3905H17.0969V33.8014H12.9253C12.6475 33.8015 12.4218 33.5756 12.4218 33.298Z" fill="#F0F0F0"/>
</g>
<defs>
<clipPath id="clip0_299_3387">
<rect width="41.7691" height="41.7691" fill="white" transform="translate(0.752441 0.779297)"/>
</clipPath>
</defs>
</svg>
