<svg width="43" height="43" viewBox="0 0 43 43" fill="none" xmlns="http://www.w3.org/2000/svg">
<g clip-path="url(#clip0_299_3404)">
<path d="M3.09424 11.6756L21.4394 13.4916L39.7846 11.6756C36.2425 5.18374 29.3556 0.779297 21.4394 0.779297C13.5233 0.779297 6.63637 5.18374 3.09424 11.6756Z" fill="#D80027"/>
<path d="M3.09404 31.652L21.4392 33.4681L39.7844 31.652C41.4033 28.6848 42.3238 25.2818 42.3238 21.6637L21.4392 19.8477L0.554688 21.6637C0.554688 25.2818 1.47516 28.6848 3.09404 31.652Z" fill="#FFDA44"/>
<path d="M3.09404 11.6748C1.47516 14.642 0.554688 18.045 0.554688 21.6631H42.3238C42.3238 18.045 41.4033 14.642 39.7844 11.6748H21.4392H3.09404Z" fill="#0052B4"/>
<path d="M21.4394 42.5476C29.3555 42.5476 36.2425 38.1432 39.7846 31.6514H3.09418C6.63631 38.1432 13.5232 42.5476 21.4394 42.5476Z" fill="#6DA544"/>
</g>
<defs>
<clipPath id="clip0_299_3404">
<rect width="41.7691" height="41.7691" fill="white" transform="translate(0.554688 0.779297)"/>
</clipPath>
</defs>
</svg>
