<svg width="42" height="43" viewBox="0 0 42 43" fill="none" xmlns="http://www.w3.org/2000/svg">
<g clip-path="url(#clip0_299_3399)">
<path d="M21.0381 42.5482C32.5723 42.5482 41.9227 33.1978 41.9227 21.6636C41.9227 10.1294 32.5723 0.779053 21.0381 0.779053C9.5039 0.779053 0.153564 10.1294 0.153564 21.6636C0.153564 33.1978 9.5039 42.5482 21.0381 42.5482Z" fill="#496E2D"/>
<path d="M21.0381 24.9059C17.5606 24.9059 14.6556 22.4619 13.9428 19.1983C13.8333 19.7 13.7739 20.2203 13.7739 20.755C13.7739 24.767 17.0261 28.0191 21.0381 28.0191C25.05 28.0191 28.3022 24.7669 28.3022 20.755C28.3022 20.2203 28.2428 19.7 28.1334 19.1982C27.4206 22.462 24.5155 24.9059 21.0381 24.9059Z" fill="#FFDA44"/>
<path d="M21.0385 15.3066L21.7148 17.388H23.9034L22.1329 18.6744L22.8091 20.7558L21.0385 19.4693L19.268 20.7558L19.9443 18.6744L18.1738 17.388H20.3623L21.0385 15.3066Z" fill="#FFDA44"/>
</g>
<defs>
<clipPath id="clip0_299_3399">
<rect width="41.7691" height="41.7691" fill="white" transform="translate(0.15332 0.779297)"/>
</clipPath>
</defs>
</svg>
