<svg width="43" height="43" viewBox="0 0 43 43" fill="none" xmlns="http://www.w3.org/2000/svg">
<g clip-path="url(#clip0_299_3409)">
<path d="M21.8406 42.5484C33.3748 42.5484 42.7252 33.1981 42.7252 21.6638C42.7252 10.1296 33.3748 0.779297 21.8406 0.779297C10.3064 0.779297 0.956055 10.1296 0.956055 21.6638C0.956055 33.1981 10.3064 42.5484 21.8406 42.5484Z" fill="#338AF3"/>
<path d="M10.9445 23.4795H32.737V26.2035H10.9445V23.4795Z" fill="#818085"/>
<path d="M14.5765 15.3074L21.8407 16.2156L29.1048 15.3074V10.9489L26.1992 12.4018L21.8407 8.04321L17.4822 12.4018L14.5765 10.9489V15.3074Z" fill="#FFDA44"/>
<path d="M12.7608 28.9286H10.0366V23.9344L10.9447 22.5723L10.0366 21.2103V18.0322H12.7608V28.9286Z" fill="#F0F0F0"/>
<path d="M33.6455 28.9286H30.9213V18.0322H33.6455V21.2102L32.7374 22.5951L33.6455 23.9346V28.9286Z" fill="#F0F0F0"/>
<path d="M10.0361 21.209H33.6447V23.933H10.0361V21.209Z" fill="#ACABB1"/>
<path d="M21.8408 32.56C17.8353 32.56 14.5767 29.3012 14.5767 25.2958V15.3076H29.105V25.2958C29.105 29.3012 25.8463 32.56 21.8408 32.56Z" fill="#F0F0F0"/>
<path d="M21.8404 29.8354C19.3369 29.8354 17.3003 27.7987 17.3003 25.2953V18.0312H26.3805V25.2953C26.3805 27.7987 24.3439 29.8354 21.8404 29.8354Z" fill="#0052B4"/>
<path d="M14.5767 15.3066H17.3012V18.0312H14.5767V15.3066Z" fill="#D80027"/>
<path d="M26.3809 15.3066H29.1054V18.0312H26.3809V15.3066Z" fill="#D80027"/>
<path d="M26.3809 21.209H29.1054V23.9335H26.3809V21.209Z" fill="#D80027"/>
<path d="M14.5767 21.209H17.3012V23.9335H14.5767V21.209Z" fill="#D80027"/>
<path d="M20.4788 15.3066H23.2033V18.0312H20.4788V15.3066Z" fill="#D80027"/>
<path d="M21.8411 29.8353C21.3665 29.8353 20.909 29.7618 20.4788 29.6262V32.4299C20.9203 32.5141 21.3753 32.5599 21.8411 32.5599C22.3068 32.5599 22.7618 32.5141 23.2034 32.4299V29.6262C22.7731 29.7617 22.3156 29.8353 21.8411 29.8353Z" fill="#D80027"/>
<path d="M17.3616 26.0322L15.1873 28.2066C15.5642 29.0648 16.1021 29.8367 16.7632 30.4837L18.6888 28.5581C18.0016 27.8941 17.5229 27.0162 17.3616 26.0322Z" fill="#D80027"/>
<path d="M28.4946 28.2066L26.3203 26.0322C26.1589 27.0161 25.6803 27.894 24.9932 28.5581L26.9188 30.4838C27.5797 29.8366 28.1177 29.0648 28.4946 28.2066Z" fill="#D80027"/>
</g>
<defs>
<clipPath id="clip0_299_3409">
<rect width="41.7691" height="41.7691" fill="white" transform="translate(0.956055 0.779297)"/>
</clipPath>
</defs>
</svg>
