<svg width="43" height="43" viewBox="0 0 43 43" fill="none" xmlns="http://www.w3.org/2000/svg">
<g clip-path="url(#clip0_299_3428)">
<path d="M21.242 42.5484C32.7762 42.5484 42.1265 33.1981 42.1265 21.6638C42.1265 10.1296 32.7762 0.779297 21.242 0.779297C9.70775 0.779297 0.357422 10.1296 0.357422 21.6638C0.357422 33.1981 9.70775 42.5484 21.242 42.5484Z" fill="#F0F0F0"/>
<path d="M42.1266 21.6628C42.1266 13.3829 37.3081 6.22866 30.3223 2.85059V40.475C37.3081 37.097 42.1266 29.9427 42.1266 21.6628Z" fill="#D80027"/>
<path d="M0.357422 21.6636C0.357422 29.9435 5.17596 37.0977 12.1618 40.4758V2.85132C5.17596 6.2294 0.357422 13.3837 0.357422 21.6636Z" fill="#6DA544"/>
<path d="M15.7939 21.6635C15.7939 24.6724 18.2332 27.1116 21.2421 27.1116C24.251 27.1116 26.6903 24.6724 26.6903 21.6635V19.8474H15.7939V21.6635Z" fill="#6DA544"/>
<path d="M28.506 18.0309H23.0578C23.0578 17.028 22.2447 16.2148 21.2418 16.2148C20.2388 16.2148 19.4257 17.028 19.4257 18.0309H13.9775C13.9775 19.0339 14.8512 19.847 15.854 19.847H15.7936C15.7936 20.85 16.6066 21.663 17.6097 21.663C17.6097 22.6661 18.4227 23.4791 19.4257 23.4791H23.0578C24.0609 23.4791 24.8739 22.6661 24.8739 21.663C25.8769 21.663 26.69 20.85 26.69 19.847H26.6294C27.6324 19.847 28.506 19.0339 28.506 18.0309Z" fill="#FF9811"/>
</g>
<defs>
<clipPath id="clip0_299_3428">
<rect width="41.7691" height="41.7691" fill="white" transform="translate(0.357422 0.779297)"/>
</clipPath>
</defs>
</svg>
