<svg width="43" height="43" viewBox="0 0 43 43" fill="none" xmlns="http://www.w3.org/2000/svg">
<g clip-path="url(#clip0_299_3435)">
<path d="M21.6433 42.5484C33.1776 42.5484 42.5279 33.1981 42.5279 21.6638C42.5279 10.1296 33.1776 0.779297 21.6433 0.779297C10.1091 0.779297 0.758789 10.1296 0.758789 21.6638C0.758789 33.1981 10.1091 42.5484 21.6433 42.5484Z" fill="#338AF3"/>
<path d="M21.6431 9.85938L22.5446 12.6341H25.4622L23.1019 14.349L24.0034 17.1236L21.6431 15.4088L19.2828 17.1236L20.1845 14.349L17.8241 12.6341H20.7417L21.6431 9.85938Z" fill="#F0F0F0"/>
<path d="M9.83887 21.664L12.6136 20.7624V17.8447L14.3285 20.2052L17.1031 19.3036L15.3883 21.664L17.1031 24.0241L14.3285 23.1225L12.6136 25.4828V22.5654L9.83887 21.664Z" fill="#F0F0F0"/>
<path d="M21.6434 33.4674L20.7419 30.6926H17.8242L20.1847 28.9778L19.2831 26.2031L21.6434 27.9179L24.0036 26.2031L23.102 28.9778L25.4623 30.6926H22.5449L21.6434 33.4674Z" fill="#F0F0F0"/>
<path d="M33.4473 21.6637L30.6726 22.5653V25.4828L28.9577 23.1225L26.1831 24.024L27.8979 21.6637L26.1831 19.3035L28.9577 20.2052L30.6726 17.8447V20.7623L33.4473 21.6637Z" fill="#F0F0F0"/>
</g>
<defs>
<clipPath id="clip0_299_3435">
<rect width="41.7691" height="41.7691" fill="white" transform="translate(0.758789 0.779297)"/>
</clipPath>
</defs>
</svg>
