<svg width="42" height="42" viewBox="0 0 42 42" fill="none" xmlns="http://www.w3.org/2000/svg">
<g clip-path="url(#clip0_299_3442)">
<path d="M30.1122 2.25199C27.3666 0.924352 24.2863 0.179688 21.032 0.179688C17.7778 0.179688 14.6975 0.924352 11.9518 2.25199L10.1357 21.0642L11.9518 39.8765C14.6975 41.2041 17.7778 41.9488 21.032 41.9488C24.2863 41.9488 27.3666 41.2041 30.1122 39.8765L31.9283 21.0642L30.1122 2.25199Z" fill="#FFDA44"/>
<path d="M11.9518 2.25317C4.96611 5.63117 0.147491 12.7849 0.147491 21.0647C0.147491 29.3445 4.96611 36.4982 11.9518 39.8762V2.25317Z" fill="#0052B4"/>
<path d="M30.1122 2.25317V39.8762C37.0979 36.4982 41.9165 29.3445 41.9165 21.0647C41.9165 12.7849 37.0979 5.63117 30.1122 2.25317Z" fill="#D80027"/>
<path d="M28.2959 16.6109H23.3018C23.3018 15.3571 22.2855 14.3408 21.0317 14.3408C19.778 14.3408 18.7617 15.3571 18.7617 16.6109H13.7676C13.7676 17.8453 14.8429 18.8458 16.0771 18.8458H16.0027C16.0027 20.0803 17.0034 21.0811 18.2379 21.0811C18.2379 22.174 19.0228 23.0821 20.0595 23.2763L18.2982 27.2527C19.1422 27.5957 20.0645 27.7864 21.0317 27.7864C21.9989 27.7864 22.9213 27.5957 23.7652 27.2527L22.0039 23.2763C23.0406 23.0821 23.8256 22.174 23.8256 21.0811C25.0601 21.0811 26.0607 20.0803 26.0607 18.8458H25.9863C27.2207 18.8458 28.2959 17.8452 28.2959 16.6109Z" fill="#FF9811"/>
<path d="M21.032 19.7021L18.0809 21.0642V23.7883L21.032 25.6043L23.9831 23.7883V21.0642L21.032 19.7021Z" fill="#0052B4"/>
<path d="M18.0811 18.3408H23.9832V21.0649H18.0811V18.3408Z" fill="#D80027"/>
</g>
<defs>
<clipPath id="clip0_299_3442">
<rect width="41.7691" height="41.7691" fill="white" transform="translate(0.147461 0.179688)"/>
</clipPath>
</defs>
</svg>
