<svg width="43" height="42" viewBox="0 0 43 42" fill="none" xmlns="http://www.w3.org/2000/svg">
<g clip-path="url(#clip0_299_3452)">
<path d="M21.8348 41.9488C24.3894 41.9488 26.8366 41.4893 29.099 40.6498L30.007 21.0642L29.0991 1.47869C26.8366 0.639229 24.3894 0.179688 21.8348 0.179688C19.2802 0.179688 16.8331 0.639229 14.5707 1.47869L13.6626 21.0642L14.5706 40.6498C16.8331 41.4893 19.2802 41.9488 21.8348 41.9488Z" fill="#0052B4"/>
<path d="M0.950256 21.0641C0.950256 30.0437 6.6178 37.6988 14.5707 40.6496V1.47852C6.6178 4.42936 0.950256 12.0844 0.950256 21.0641Z" fill="#A2001D"/>
<path d="M29.0988 1.47852V40.6497C37.0516 37.6988 42.7192 30.0437 42.7192 21.0641C42.7192 12.0844 37.0516 4.42936 29.0988 1.47852Z" fill="#A2001D"/>
<path d="M10.9382 21.0647H12.7542V28.3289H10.9382V21.0647Z" fill="#FFDA44"/>
<path d="M3.67401 21.0647H5.49007V28.3289H3.67401V21.0647Z" fill="#FFDA44"/>
<path d="M8.21451 25.6057C9.21766 25.6057 10.0309 24.7924 10.0309 23.7893C10.0309 22.7861 9.21766 21.9729 8.21451 21.9729C7.21135 21.9729 6.39813 22.7861 6.39813 23.7893C6.39813 24.7924 7.21135 25.6057 8.21451 25.6057Z" fill="#FFDA44"/>
<path d="M8.21442 18.3407C8.71598 18.3407 9.12257 17.9341 9.12257 17.4326C9.12257 16.931 8.71598 16.5244 8.21442 16.5244C7.71287 16.5244 7.30627 16.931 7.30627 17.4326C7.30627 17.9341 7.71287 18.3407 8.21442 18.3407Z" fill="#FFDA44"/>
<path d="M6.39838 26.5129H10.0311V28.3293H6.39838V26.5129Z" fill="#FFDA44"/>
<path d="M6.39862 19.2483H10.0314V21.0647H6.39862V19.2483Z" fill="#FFDA44"/>
<path d="M8.21476 11.0764L8.85805 13.0559H10.9394L9.25566 14.2793L9.89846 16.2588L8.21476 15.0354L6.53113 16.2588L7.17394 14.2793L5.49023 13.0559H7.57155L8.21476 11.0764Z" fill="#FFDA44"/>
</g>
<defs>
<clipPath id="clip0_299_3452">
<rect width="41.7691" height="41.7691" fill="white" transform="translate(0.950195 0.179688)"/>
</clipPath>
</defs>
</svg>
