<svg width="43" height="42" viewBox="0 0 43 42" fill="none" xmlns="http://www.w3.org/2000/svg">
<g clip-path="url(#clip0_299_3473)">
<path d="M42.522 21.0642C42.522 32.5984 33.1716 41.9488 21.6375 41.9488C10.1033 41.9488 0.75293 32.5984 0.75293 21.0642C0.75293 21.0692 21.6375 0.181972 21.6375 0.179688C33.1716 0.179688 42.522 9.53009 42.522 21.0642Z" fill="#0052B4"/>
<path d="M21.5815 21.0647H21.6374C21.6374 21.0459 21.6374 21.0276 21.6374 21.0088C21.6188 21.0275 21.6002 21.0461 21.5815 21.0647Z" fill="#F0F0F0"/>
<path d="M21.6375 11.076C21.6375 7.40117 21.6375 4.99333 21.6375 0.179688H21.634C10.1013 0.181645 0.75293 9.53115 0.75293 21.0642H11.6492V14.9285L17.7849 21.0642H21.5817C21.6003 21.0456 21.6189 21.027 21.6376 21.0084C21.6376 19.6013 21.6376 18.3459 21.6376 17.2119L15.5017 11.076H21.6375Z" fill="#F0F0F0"/>
<path d="M11.3189 2.90405C8.05248 4.764 5.33692 7.47948 3.47705 10.7459V21.0646H8.92523V8.35239V8.35223H21.6376C21.6376 6.6339 21.6376 4.99691 21.6376 2.90405H11.3189Z" fill="#D80027"/>
<path d="M21.6374 18.4966L14.2173 11.0767H11.6491V11.0768L21.6372 21.0649H21.6374C21.6374 21.0649 21.6374 19.294 21.6374 18.4966Z" fill="#D80027"/>
<path d="M24.3615 11.0764V21.0646C24.3615 25.9301 30.7176 27.4209 30.7176 27.4209C30.7176 27.4209 37.0738 25.9301 37.0738 21.0646V11.0764H24.3615Z" fill="#338AF3"/>
<path d="M24.3613 21.0645C24.3613 25.9299 30.7175 27.4207 30.7175 27.4207C30.7175 27.4207 37.0737 25.9299 37.0737 21.0645H24.3613Z" fill="#A2001D"/>
<path d="M33.4418 15.6162H31.6256V13.8H29.8096V15.6162H27.9936V17.4322H29.8096V22.8803H31.6256V17.4322H33.4418V15.6162Z" fill="black"/>
</g>
<defs>
<clipPath id="clip0_299_3473">
<rect width="41.7691" height="41.7691" fill="white" transform="translate(0.752441 0.179688)"/>
</clipPath>
</defs>
</svg>
