<svg width="43" height="42" viewBox="0 0 43 42" fill="none" xmlns="http://www.w3.org/2000/svg">
<g clip-path="url(#clip0_299_3465)">
<path d="M21.2351 41.949C32.7694 41.949 42.1197 32.5987 42.1197 21.0645C42.1197 9.53026 32.7694 0.179932 21.2351 0.179932C9.70092 0.179932 0.350586 9.53026 0.350586 21.0645C0.350586 32.5987 9.70092 41.949 21.2351 41.949Z" fill="#FFDA44"/>
<path d="M42.1197 21.0649C42.1197 13.8972 38.5082 7.5736 33.0061 3.8125H9.46416C3.96214 7.5736 0.350586 13.8972 0.350586 21.0649C0.350586 28.2328 3.96214 34.5563 9.46416 38.3174H33.0061C38.5082 34.5563 42.1197 28.2328 42.1197 21.0649Z" fill="#A2001D"/>
<path d="M16.695 15.6161H25.7752V11.984L23.9592 12.892L21.2351 10.168L18.5111 12.892L16.695 11.984V15.6161Z" fill="#FFDA44"/>
<path d="M29.4074 21.0636H24.869C25.047 20.7557 25.1505 20.3995 25.1505 20.0183C25.1505 18.8609 24.2122 17.9229 23.055 17.9229C22.2554 17.9229 21.561 18.3709 21.2077 19.0292C20.8544 18.3708 20.16 17.9229 19.3604 17.9229C18.2032 17.9229 17.2649 18.8609 17.2649 20.0183C17.2649 20.3995 17.3685 20.7558 17.5464 21.0636H13.0628C13.0628 22.4524 14.2724 23.5781 15.6611 23.5781H15.5774C15.5774 24.7172 16.335 25.679 17.3738 25.988L15.3329 28.029L17.2591 29.9552L19.9914 27.2228C20.0985 27.2621 20.2092 27.2934 20.3236 27.3149L18.6726 31.0428C19.4638 31.3645 20.3284 31.5431 21.2352 31.5431C22.1419 31.5431 23.0065 31.3645 23.7978 31.0428L22.1468 27.3149C22.2611 27.2935 22.3719 27.2621 22.4788 27.2228L25.2112 29.9552L27.1373 28.029L25.0963 25.988C26.135 25.6789 26.8927 24.7173 26.8927 23.5782H26.8089C28.1977 23.5781 29.4074 22.4524 29.4074 21.0636Z" fill="#FFDA44"/>
<path d="M21.2353 22.4268L18.2842 23.7887V26.5129L21.2353 28.3288L24.1864 26.5129V23.7887L21.2353 22.4268Z" fill="#6DA544"/>
<path d="M18.2842 21.0645H24.1864V24.6966H18.2842V21.0645Z" fill="#0052B4"/>
</g>
<defs>
<clipPath id="clip0_299_3465">
<rect width="41.7691" height="41.7691" fill="white" transform="translate(0.351074 0.179688)"/>
</clipPath>
</defs>
</svg>
