<svg width="42" height="42" viewBox="0 0 42 42" fill="none" xmlns="http://www.w3.org/2000/svg">
<g clip-path="url(#clip0_299_3485)">
<path d="M21.0384 41.949C32.5726 41.949 41.923 32.5987 41.923 21.0645C41.923 9.53026 32.5726 0.179932 21.0384 0.179932C9.5042 0.179932 0.15387 9.53026 0.15387 21.0645C0.15387 32.5987 9.5042 41.949 21.0384 41.949Z" fill="#D80027"/>
<path d="M33.3803 17.3185H23.9517L21.0382 8.35156L18.1246 17.3185H8.69604L16.3239 22.8605L13.4102 31.8277L21.0382 26.2857L28.6661 31.8278L25.7524 22.8605L33.3803 17.3185ZM18.4588 22.1668L19.444 19.1345H22.6322L23.6176 22.1668V22.1669L21.0382 24.0408L18.4588 22.1669L18.4588 22.1668ZM22.0423 17.3185H20.0342L21.0382 14.2283L22.0423 17.3185ZM25.1623 21.0445L24.5417 19.1346H27.791L25.1623 21.0445ZM17.5345 19.1346L16.914 21.0445L14.2852 19.1346H17.5345ZM16.8646 27.0732L17.8687 23.983L19.4934 25.1633L16.8646 27.0732ZM22.583 25.1634L24.2076 23.9831L25.2117 27.0733L22.583 25.1634Z" fill="#FFDA44"/>
</g>
<defs>
<clipPath id="clip0_299_3485">
<rect width="41.7691" height="41.7691" fill="white" transform="translate(0.15332 0.179688)"/>
</clipPath>
</defs>
</svg>
