<svg width="43" height="42" viewBox="0 0 43 42" fill="none" xmlns="http://www.w3.org/2000/svg">
<g clip-path="url(#clip0_299_3488)">
<path d="M21.4397 41.949C32.9739 41.949 42.3242 32.5987 42.3242 21.0645C42.3242 9.53026 32.9739 0.179932 21.4397 0.179932C9.90545 0.179932 0.555115 9.53026 0.555115 21.0645C0.555115 32.5987 9.90545 41.949 21.4397 41.949Z" fill="#F0F0F0"/>
<path d="M11.8431 29.2373L6.67236 35.832C10.4515 39.6116 15.6721 41.9496 21.4393 41.9496C30.0729 41.9496 37.4816 36.7098 40.6621 29.2373H11.8431Z" fill="#FFDA44"/>
<path d="M40.6946 12.9676C37.5318 5.45483 30.1021 0.179688 21.4393 0.179688C15.6721 0.179688 10.4515 2.5177 6.67236 6.29731L11.9025 12.9676H40.6946Z" fill="#496E2D"/>
<path d="M5.09473 15.541V26.5129H41.6044C42.0728 24.776 42.3237 22.9499 42.3237 21.0648C42.3237 19.1524 42.0661 17.3005 41.5845 15.541H5.09473Z" fill="black"/>
<path d="M6.67186 6.29712C-1.48405 14.453 -1.48405 27.6765 6.67186 35.8324C10.0422 32.4621 13.2836 29.2207 21.4395 21.0648L6.67186 6.29712Z" fill="#A2001D"/>
<path d="M9.00736 15.6162L10.3595 19.7781H14.736L11.1956 22.3505L12.5477 26.5126L9.00736 23.9403L5.46685 26.5126L6.81929 22.3505L3.27887 19.7781H7.655L9.00736 15.6162Z" fill="#FFDA44"/>
<path d="M5.05078 21.0645H12.966V24.6966H5.05078V21.0645Z" fill="#F0F0F0"/>
<path d="M14.4642 16.9004L13.18 15.6162L9.00736 19.7889L4.83469 15.6162L3.55054 16.9004L7.72688 21.0694L3.55054 25.2458L4.83469 26.5126L9.00736 22.3474L13.18 26.5126L14.4642 25.2458L10.2878 21.0694L14.4642 16.9004Z" fill="black"/>
</g>
<defs>
<clipPath id="clip0_299_3488">
<rect width="41.7691" height="41.7691" fill="white" transform="translate(0.554688 0.179688)"/>
</clipPath>
</defs>
</svg>
