<svg width="43" height="42" viewBox="0 0 43 42" fill="none" xmlns="http://www.w3.org/2000/svg">
<g clip-path="url(#clip0_299_3497)">
<path d="M41.4262 28.3285C42.2657 26.0661 42.7252 23.6189 42.7252 21.0643C42.7252 18.5097 42.2657 16.0626 41.4262 13.8002L21.8406 11.9841L2.25506 13.8002C1.4156 16.0626 0.956055 18.5097 0.956055 21.0643C0.956055 23.6189 1.4156 26.0661 2.25506 28.3285L21.8406 30.1446L41.4262 28.3285Z" fill="#6DA544"/>
<path d="M41.426 13.8001C38.4751 5.84723 30.8201 0.179688 21.8404 0.179688C12.8608 0.179688 5.20572 5.84723 2.25488 13.8001H41.426Z" fill="#FFDA44"/>
<path d="M21.8404 41.9485C30.8201 41.9485 38.4751 36.281 41.426 28.3281H2.25488C5.20572 36.281 12.8608 41.9485 21.8404 41.9485Z" fill="#D80027"/>
<path d="M36.1622 17.8484H25.2217L21.8409 7.44336L18.46 17.8484H7.51953L16.3706 24.279L12.9897 34.6842L21.8409 28.3279L30.692 34.6841L27.3112 24.2789L36.1622 17.8484Z" fill="#F0F0F0"/>
</g>
<defs>
<clipPath id="clip0_299_3497">
<rect width="41.7691" height="41.7691" fill="white" transform="translate(0.956055 0.179688)"/>
</clipPath>
</defs>
</svg>
