<svg width="43" height="42" viewBox="0 0 43 42" fill="none" xmlns="http://www.w3.org/2000/svg">
<g clip-path="url(#clip0_299_3502)">
<path d="M21.2417 41.949C32.776 41.949 42.1263 32.5987 42.1263 21.0645C42.1263 9.53026 32.776 0.179932 21.2417 0.179932C9.70751 0.179932 0.357178 9.53026 0.357178 21.0645C0.357178 32.5987 9.70751 41.949 21.2417 41.949Z" fill="#F0F0F0"/>
<path d="M6.47434 35.8323C7.35043 36.7083 8.28518 37.4896 9.26569 38.1775L38.3547 9.08844C37.6669 8.10793 36.8856 7.17318 36.0094 6.29709C35.1333 5.421 34.1986 4.63979 33.2181 3.9519L4.12915 33.041C4.81695 34.0213 5.59825 34.9562 6.47434 35.8323Z" fill="#A2001D"/>
<path d="M6.47409 6.29665C-0.114658 12.8854 -1.37948 22.7804 2.67694 30.64L30.8174 2.49966C22.9578 -1.55676 13.0627 -0.291777 6.47409 6.29665Z" fill="#0052B4"/>
<path d="M36.0093 35.8317C42.5979 29.2431 43.8627 19.348 39.8065 11.4883L11.666 39.6287C19.5255 43.6852 29.4207 42.4203 36.0093 35.8317Z" fill="#496E2D"/>
<path d="M17.6098 11.9846L15.2695 13.0853L16.5158 15.3518L13.9746 14.8657L13.6525 17.4326L11.8826 15.5446L10.1125 17.4326L9.79061 14.8657L7.24939 15.3517L8.49553 13.0852L6.1554 11.9846L8.49561 10.8837L7.24939 8.61741L9.79053 9.10346L10.1126 6.53638L11.8826 8.42447L13.6526 6.53638L13.9746 9.10346L16.5158 8.61741L15.2697 10.8838L17.6098 11.9846Z" fill="#FFDA44"/>
</g>
<defs>
<clipPath id="clip0_299_3502">
<rect width="41.7691" height="41.7691" fill="white" transform="translate(0.357422 0.179688)"/>
</clipPath>
</defs>
</svg>
