<svg width="43" height="42" viewBox="0 0 43 42" fill="none" xmlns="http://www.w3.org/2000/svg">
<g clip-path="url(#clip0_299_3508)">
<path d="M21.6432 41.949C33.1774 41.949 42.5278 32.5987 42.5278 21.0645C42.5278 9.53026 33.1774 0.179932 21.6432 0.179932C10.109 0.179932 0.758667 9.53026 0.758667 21.0645C0.758667 32.5987 10.109 41.949 21.6432 41.949Z" fill="#0052B4"/>
<path d="M30.6058 22.5209C30.6827 22.0464 30.7232 21.5597 30.7232 21.0639C30.7232 21.5597 30.6827 22.0464 30.6058 22.5209L34.3553 21.0639L30.6058 19.607L28.5463 18.8067L25.2003 17.5066L23.9002 14.1606C26.0925 14.8792 27.8275 16.6142 28.5462 18.8066L30.6057 19.6069C29.9834 15.7648 26.942 12.7233 23.0999 12.101L21.643 8.35156L20.186 12.1011C16.3439 12.7235 13.3026 15.7648 12.6802 19.607L8.93066 21.0639L12.6803 22.5209C13.3026 26.363 16.3439 29.4043 20.1861 30.0267L21.643 33.7762L23.1 30.0267C26.942 29.4043 29.9834 26.3629 30.6058 22.5209ZM23.7974 18.9096L21.643 21.0639H29.3413L23.7973 23.2183L21.643 21.0639V28.7623L19.4886 23.2182L21.643 21.0639H13.9447L19.4886 18.9096L21.643 21.0639V13.3656L23.7974 18.9096ZM19.3857 14.1607L18.0855 17.5067L14.7397 18.8068C15.4583 16.6142 17.1933 14.8794 19.3857 14.1607ZM14.7398 23.3211L18.0855 24.6213L19.3857 27.9671C17.1933 27.2484 15.4585 25.5136 14.7398 23.3211ZM23.9002 27.9671L25.2004 24.6213L28.5462 23.3211C27.8275 25.5136 26.0927 27.2484 23.9002 27.9671Z" fill="#F0F0F0"/>
<path d="M29.3414 21.0625H21.6431L23.7974 23.2169L29.3414 21.0625Z" fill="#0052B4"/>
<path d="M13.9448 21.0637H21.6431L19.4888 18.9094L13.9448 21.0637Z" fill="#0052B4"/>
<path d="M21.6431 28.7609V21.0625L19.4888 23.2169L21.6431 28.7609Z" fill="#0052B4"/>
<path d="M21.6431 21.0636L23.7974 18.9093L21.6431 13.3652V21.0636Z" fill="#0052B4"/>
<path d="M20.7352 2.90405H22.5516V6.5368H20.7352V2.90405Z" fill="#F0F0F0"/>
<path d="M3.48267 20.157H7.11542V21.9734H3.48267V20.157Z" fill="#F0F0F0"/>
<path d="M20.7351 35.5925H22.5515V39.2253H20.7351V35.5925Z" fill="#F0F0F0"/>
<path d="M36.1716 20.157H39.8044V21.9734H36.1716V20.157Z" fill="#F0F0F0"/>
</g>
<defs>
<clipPath id="clip0_299_3508">
<rect width="41.7691" height="41.7691" fill="white" transform="translate(0.758789 0.179688)"/>
</clipPath>
</defs>
</svg>
