<svg width="42" height="43" viewBox="0 0 42 43" fill="none" xmlns="http://www.w3.org/2000/svg">
<g clip-path="url(#clip0_299_3521)">
<path d="M21.031 42.3502C32.5653 42.3502 41.9156 32.9998 41.9156 21.4656C41.9156 9.93139 32.5653 0.581055 21.031 0.581055C9.49682 0.581055 0.146484 9.93139 0.146484 21.4656C0.146484 32.9998 9.49682 42.3502 21.031 42.3502Z" fill="#0052B4"/>
<path d="M21.031 42.3502C32.5653 42.3502 41.9156 32.9998 41.9156 21.4656C41.9156 9.93139 32.5653 0.581055 21.031 0.581055C9.49682 0.581055 0.146484 9.93139 0.146484 21.4656C0.146484 32.9998 9.49682 42.3502 21.031 42.3502Z" fill="#FFDA44"/>
<path d="M21.0304 0.581299C10.1081 0.581299 1.14584 8.9662 0.225372 19.6498H41.8355C40.9149 8.9662 31.9527 0.581299 21.0304 0.581299Z" fill="#0052B4"/>
<path d="M21.0304 42.35C31.9527 42.35 40.9149 33.9651 41.8355 23.2815H0.225372C1.14584 33.9651 10.1081 42.35 21.0304 42.35Z" fill="#0052B4"/>
<path d="M17.3993 28.7293L15.0591 29.8302L16.3052 32.0966L13.7641 31.6104L13.4421 34.1775L11.672 32.2895L9.90204 34.1775L9.58004 31.6104L7.03882 32.0965L8.28504 29.8301L5.94482 28.7293L8.28512 27.6286L7.03882 25.3623L9.57996 25.8483L9.90212 23.2812L11.672 25.1693L13.4421 23.2812L13.7641 25.8483L16.3053 25.3623L15.0591 27.6287L17.3993 28.7293Z" fill="#F0F0F0"/>
</g>
<defs>
<clipPath id="clip0_299_3521">
<rect width="41.7691" height="41.7691" fill="white" transform="translate(0.146484 0.581055)"/>
</clipPath>
</defs>
</svg>
