<svg width="43" height="43" viewBox="0 0 43 43" fill="none" xmlns="http://www.w3.org/2000/svg">
<g clip-path="url(#clip0_299_3528)">
<path d="M21.4324 42.3502C32.9666 42.3502 42.317 32.9998 42.317 21.4656C42.317 9.93139 32.9666 0.581055 21.4324 0.581055C9.89818 0.581055 0.547852 9.93139 0.547852 21.4656C0.547852 32.9998 9.89818 42.3502 21.4324 42.3502Z" fill="#F0F0F0"/>
<path d="M42.195 23.7356L42.194 23.7344L42.1938 23.7356H42.195Z" fill="#0052B4"/>
<path d="M42.1938 23.7355C42.1938 23.7353 42.1939 23.7352 42.1939 23.7348L19.2906 0.689453C18.2574 0.794773 17.2464 0.975392 16.2632 1.22576C7.22911 3.52592 0.547852 21.4654 0.547852 21.4654C0.547852 21.4654 29.7861 41.0312 33.1216 38.7738C33.789 38.3222 34.429 37.833 35.0382 37.3092L21.4646 23.7355H42.1938Z" fill="#0052B4"/>
<path d="M36.8688 21.4654L16.5576 1.1543C7.37514 3.35019 0.547852 11.6099 0.547852 21.4654C0.547852 32.9996 9.89826 42.35 21.4324 42.35C25.8075 42.35 29.8676 41.0037 33.2231 38.7042L15.9842 21.4654H36.8688Z" fill="#D80027"/>
<path d="M20.4106 31.4176L17.86 30.2178L19.2182 27.7477L16.4486 28.2775L16.0976 25.4795L14.1685 27.5374L12.2393 25.4795L11.8883 28.2775L9.11873 27.7476L10.477 30.2178L7.92627 31.4176L10.477 32.6172L9.11873 35.0874L11.8885 34.5577L12.2393 37.3555L14.1685 35.2977L16.0976 37.3555L16.4486 34.5577L19.2181 35.0875L17.8599 32.6174L20.4106 31.4176Z" fill="#F0F0F0"/>
<path d="M18.7087 12.1636L16.8535 11.2911L17.8414 9.49444L15.8269 9.87983L15.5716 7.84473L14.1685 9.34148L12.7654 7.84473L12.5101 9.87983L10.4956 9.49444L11.4836 11.2911L9.62836 12.1636L14.1685 13.0717L18.7087 12.1636Z" fill="#F0F0F0"/>
<path d="M19.6166 12.1633C19.6166 15.1723 17.1773 17.6115 14.1684 17.6115C11.1595 17.6115 8.72021 15.1723 8.72021 12.1633" fill="#F0F0F0"/>
</g>
<defs>
<clipPath id="clip0_299_3528">
<rect width="41.7691" height="41.7691" fill="white" transform="translate(0.547852 0.581055)"/>
</clipPath>
</defs>
</svg>
