<svg width="43" height="43" viewBox="0 0 43 43" fill="none" xmlns="http://www.w3.org/2000/svg">
<g clip-path="url(#clip0_299_3538)">
<path d="M21.8338 42.3502C33.368 42.3502 42.7183 32.9998 42.7183 21.4656C42.7183 9.93139 33.368 0.581055 21.8338 0.581055C10.2996 0.581055 0.949219 9.93139 0.949219 21.4656C0.949219 32.9998 10.2996 42.3502 21.8338 42.3502Z" fill="#F0F0F0"/>
<path d="M21.8336 0.581055C12.854 0.581055 5.19889 6.2486 2.24805 14.2015H41.4192C38.4683 6.2486 30.8132 0.581055 21.8336 0.581055Z" fill="#A2001D"/>
<path d="M21.8335 42.3499C30.8132 42.3499 38.4683 36.6823 41.4191 28.7295H2.24799C5.19883 36.6823 12.8539 42.3499 21.8335 42.3499Z" fill="#0052B4"/>
</g>
<defs>
<clipPath id="clip0_299_3538">
<rect width="41.7691" height="41.7691" fill="white" transform="translate(0.949219 0.581055)"/>
</clipPath>
</defs>
</svg>
