<svg width="43" height="43" viewBox="0 0 43 43" fill="none" xmlns="http://www.w3.org/2000/svg">
<g clip-path="url(#clip0_299_3542)">
<path d="M42.1192 21.4656C42.1192 32.9998 32.7688 42.3502 21.2346 42.3502C9.7005 42.3502 0.350098 32.9998 0.350098 21.4656C0.350098 21.4706 21.2346 0.583339 21.2346 0.581055C32.7688 0.581055 42.1192 9.93146 42.1192 21.4656Z" fill="#0052B4"/>
<path d="M21.1777 21.466H21.2336C21.2336 21.4473 21.2336 21.429 21.2336 21.4102C21.215 21.4288 21.1964 21.4474 21.1777 21.466Z" fill="#F0F0F0"/>
<path d="M21.2337 11.4773C21.2337 7.80254 21.2337 5.3947 21.2337 0.581055H21.2302C9.69757 0.583013 0.349121 9.93252 0.349121 21.4656H11.2454V15.3299L17.3812 21.4656H21.1779C21.1965 21.447 21.2152 21.4284 21.2338 21.4097C21.2338 20.0027 21.2338 18.7473 21.2338 17.6132L15.0979 11.4773H21.2337Z" fill="#F0F0F0"/>
<path d="M10.9157 3.30493C7.64928 5.16488 4.9338 7.88036 3.07385 11.1468V21.4654H8.52203V8.75327V8.75311H21.2344C21.2344 7.03478 21.2344 5.39779 21.2344 3.30493H10.9157Z" fill="#D80027"/>
<path d="M21.2345 18.8978L13.8146 11.4778C13.8146 11.4778 11.2463 11.4779 11.2463 11.4778V11.4779L21.2345 21.466H21.2345C21.2345 21.466 21.2345 19.6951 21.2345 18.8978Z" fill="#D80027"/>
<path d="M36.517 16.0784L36.9678 17.466H38.4268L37.2465 18.3235L37.6974 19.711L36.517 18.8536L35.3366 19.711L35.7875 18.3235L34.6071 17.466H36.066L36.517 16.0784Z" fill="#D80027"/>
<path d="M31.3028 26.0664L31.9791 28.1479H34.1676L32.397 29.4341L33.0734 31.5155L31.3028 30.2292L29.5322 31.5155L30.2086 29.4341L28.438 28.1479H30.6264L31.3028 26.0664Z" fill="#D80027"/>
<path d="M31.4998 9.72168L32.0634 11.4563H33.8871L32.4116 12.528L32.9752 14.2626L31.4998 13.1905L30.0244 14.2626L30.5879 12.528L29.1125 11.4563H30.9362L31.4998 9.72168Z" fill="#D80027"/>
<path d="M26.4826 16.0168L27.1588 18.0983H29.3474L27.5768 19.3846L28.2532 21.466L26.4826 20.1796L24.712 21.466L25.3884 19.3846L23.6178 18.0983H25.8062L26.4826 16.0168Z" fill="#D80027"/>
</g>
<defs>
<clipPath id="clip0_299_3542">
<rect width="41.7691" height="41.7691" fill="white" transform="translate(0.350098 0.581055)"/>
</clipPath>
</defs>
</svg>
