<svg width="43" height="43" viewBox="0 0 43 43" fill="none" xmlns="http://www.w3.org/2000/svg">
<g clip-path="url(#clip0_299_3555)">
<path d="M21.6355 42.3502C33.1698 42.3502 42.5201 32.9998 42.5201 21.4656C42.5201 9.93139 33.1698 0.581055 21.6355 0.581055C10.1013 0.581055 0.750977 9.93139 0.750977 21.4656C0.750977 32.9998 10.1013 42.3502 21.6355 42.3502Z" fill="#F0F0F0"/>
<path d="M21.635 0.581055C13.3551 0.581055 6.20083 5.39959 2.82275 12.3854H40.4472C37.0692 5.39959 29.9148 0.581055 21.635 0.581055Z" fill="#338AF3"/>
<path d="M21.635 42.35C29.9148 42.35 37.0692 37.5315 40.4473 30.5457H2.82275C6.20083 37.5315 13.3551 42.35 21.635 42.35Z" fill="#338AF3"/>
<path d="M21.6355 15.1094C18.1251 15.1094 15.2793 17.9551 15.2793 21.4655C15.2793 24.9759 18.1251 27.8217 21.6355 27.8217C25.1459 27.8217 27.9916 24.9759 27.9916 21.4655C27.9916 17.9551 25.1459 15.1094 21.6355 15.1094ZM21.6355 25.0977C19.6296 25.0977 18.0033 23.4716 18.0033 21.4655C18.0033 19.4595 19.6295 17.8334 21.6355 17.8334C23.6414 17.8334 25.2676 19.4595 25.2676 21.4655C25.2676 23.4716 23.6414 25.0977 21.6355 25.0977Z" fill="#FFDA44"/>
<path d="M24.781 22.3738L21.6354 21.4658L18.4899 22.3738L17.4414 24.1899H25.8294L24.781 22.3738Z" fill="#0052B4"/>
<path d="M21.636 16.9258L19.5386 20.5585L21.636 21.4667L23.7333 20.5585L21.636 16.9258Z" fill="#338AF3"/>
<path d="M18.49 22.3734H24.7811L23.7326 20.5574H19.5385L18.49 22.3734Z" fill="#6DA544"/>
</g>
<defs>
<clipPath id="clip0_299_3555">
<rect width="41.7691" height="41.7691" fill="white" transform="translate(0.751465 0.581055)"/>
</clipPath>
</defs>
</svg>
