<svg width="43" height="43" viewBox="0 0 43 43" fill="none" xmlns="http://www.w3.org/2000/svg">
<g clip-path="url(#clip0_299_3570)">
<path d="M21.4383 42.3502C32.9725 42.3502 42.3228 32.9998 42.3228 21.4656C42.3228 9.93139 32.9725 0.581055 21.4383 0.581055C9.90404 0.581055 0.553711 9.93139 0.553711 21.4656C0.553711 32.9998 9.90404 42.3502 21.4383 42.3502Z" fill="#F0F0F0"/>
<path d="M0.553711 21.4663C0.553711 30.446 6.22126 38.101 14.1741 41.052V1.88086C6.22126 4.83162 0.553711 12.4868 0.553711 21.4663Z" fill="#6DA544"/>
<path d="M42.323 21.4663C42.323 12.4868 36.6554 4.83162 28.7026 1.88086V41.052C36.6554 38.101 42.323 30.446 42.323 21.4663Z" fill="#6DA544"/>
</g>
<defs>
<clipPath id="clip0_299_3570">
<rect width="41.7691" height="41.7691" fill="white" transform="translate(0.554199 0.581055)"/>
</clipPath>
</defs>
</svg>
