<svg width="42" height="43" viewBox="0 0 42 43" fill="none" xmlns="http://www.w3.org/2000/svg">
<g clip-path="url(#clip0_299_3564)">
<path d="M2.22513 12.3854C0.897497 15.1311 0.152832 18.2113 0.152832 21.4656C0.152832 24.7199 0.897497 27.8002 2.22513 30.5458L21.0374 32.3619L39.8496 30.5458C41.1773 27.8002 41.9219 24.7199 41.9219 21.4656C41.9219 18.2113 41.1773 15.1311 39.8496 12.3854L21.0374 10.5693L2.22513 12.3854Z" fill="#F0F0F0"/>
<path d="M2.22577 30.5459C5.60368 37.5317 12.7574 42.3502 21.0373 42.3502C29.3172 42.3502 36.4709 37.5317 39.8488 30.5459H2.22577Z" fill="#6DA544"/>
<path d="M2.22577 12.3856H39.8488C36.4709 5.39984 29.3171 0.581299 21.0373 0.581299C12.7575 0.581299 5.60368 5.39984 2.22577 12.3856Z" fill="#FF9811"/>
<path d="M21.0373 28.7307C25.0492 28.7307 28.3014 25.4784 28.3014 21.4665C28.3014 17.4547 25.0492 14.2024 21.0373 14.2024C17.0254 14.2024 13.7731 17.4547 13.7731 21.4665C13.7731 25.4784 17.0254 28.7307 21.0373 28.7307Z" fill="#FF9811"/>
</g>
<defs>
<clipPath id="clip0_299_3564">
<rect width="41.7691" height="41.7691" fill="white" transform="translate(0.152832 0.581055)"/>
</clipPath>
</defs>
</svg>
