<svg width="43" height="43" viewBox="0 0 43 43" fill="none" xmlns="http://www.w3.org/2000/svg">
<g clip-path="url(#clip0_299_3575)">
<path d="M42.7242 21.4656C42.7242 32.9998 33.3738 42.3502 21.8396 42.3502C10.3055 42.3502 0.955078 32.9998 0.955078 21.4656C0.955078 21.4706 21.8396 0.583339 21.8396 0.581055C33.3738 0.581055 42.7242 9.93146 42.7242 21.4656Z" fill="#FFDA44"/>
<path d="M21.8396 10.5684V17.6122L14.5754 10.5684H21.8396Z" fill="#0052B4"/>
<path d="M11.8513 21.4652H17.9871L11.8513 13.293L10.9434 19.6491L11.8513 21.4652Z" fill="#0052B4"/>
<path d="M21.7836 21.466H21.8395C21.8395 21.4473 21.8395 21.429 21.8395 21.4102C21.8209 21.4288 21.8023 21.4474 21.7836 21.466Z" fill="#F0F0F0"/>
<path d="M21.8396 11.4773C21.8396 7.80254 21.8396 5.3947 21.8396 0.581055H21.8361C10.3034 0.583013 0.955017 9.93252 0.955017 21.4656H11.8513V15.3299L17.987 21.4656H21.7838C21.8024 21.447 21.821 21.4284 21.8397 21.4097C21.8397 20.0027 21.8397 18.7473 21.8397 17.6132L15.7038 11.4773H21.8396Z" fill="#F0F0F0"/>
<path d="M21.8395 18.8978L14.4194 11.4778H11.8513V11.4779L21.8394 21.466H21.8395C21.8395 21.466 21.8395 19.6951 21.8395 18.8978Z" fill="#D80027"/>
<path d="M11.521 3.30493C10.7159 3.76341 9.94457 4.27435 9.211 4.83211H10.0679L7.80308 6.47792L8.668 9.14045L6.40317 7.49498L6.16218 7.67013C5.2218 8.73802 4.38805 9.902 3.6792 11.1468V21.4654H9.12738V8.75327V8.75311H21.8397C21.8397 7.03478 21.8397 5.39779 21.8397 3.30493H11.521Z" fill="#D80027"/>
<path d="M9.87772 4.3457C9.65244 4.50343 9.43034 4.66555 9.21158 4.83192L7.80367 6.47801L6.40351 7.49517L6.16044 7.67174C5.64754 8.25432 5.16654 8.86563 4.72021 9.50313C5.22896 9.75003 5.80004 9.88882 6.40351 9.88882C8.53525 9.88882 10.2633 8.16082 10.2633 6.02908C10.2634 5.42544 10.1247 4.85453 9.87772 4.3457Z" fill="#0052B4"/>
<path d="M6.16034 7.67258L6.40341 7.49601L8.66864 9.14185L7.80349 6.47885L10.0686 4.83276H9.21132C8.10213 5.67637 7.07999 6.62809 6.16034 7.67258Z" fill="#FFDA44"/>
<path d="M15.3906 4.21362L15.8414 5.60114H17.3004L16.1201 6.45878L16.5707 7.84629L15.3906 6.98873L14.2103 7.84629L14.6609 6.45878L13.4806 5.60114H14.9396L15.3906 4.21362Z" fill="#FFDA44"/>
<path d="M6.40378 13.2937L6.85467 14.6812H8.31358L7.1334 15.5389L7.58404 16.9265L6.40378 16.0688L5.22343 16.9265L5.67408 15.5389L4.4939 14.6812H5.95281L6.40378 13.2937Z" fill="#FFDA44"/>
</g>
<defs>
<clipPath id="clip0_299_3575">
<rect width="41.7691" height="41.7691" fill="white" transform="translate(0.955078 0.581055)"/>
</clipPath>
</defs>
</svg>
