<svg width="43" height="43" viewBox="0 0 43 43" fill="none" xmlns="http://www.w3.org/2000/svg">
<g clip-path="url(#clip0_299_3592)">
<path d="M30.3212 2.65336C27.5755 1.32572 24.4953 0.581055 21.241 0.581055C17.9867 0.581055 14.9065 1.32572 12.1608 2.65336L10.3447 21.4656L12.1608 40.2779C14.9065 41.6055 17.9867 42.3502 21.241 42.3502C24.4953 42.3502 27.5755 41.6055 30.3212 40.2779L32.1373 21.4656L30.3212 2.65336Z" fill="#F0F0F0"/>
<path d="M12.1607 2.65405C5.17486 6.03197 0.356323 13.1857 0.356323 21.4656C0.356323 29.7455 5.17486 36.8992 12.1607 40.2771V2.65405Z" fill="#6DA544"/>
<path d="M30.3213 2.65405V40.2771C37.3071 36.8992 42.1256 29.7454 42.1256 21.4656C42.1256 13.1857 37.3071 6.03197 30.3213 2.65405Z" fill="#6DA544"/>
<path d="M26.6887 27.8215L21.2405 10.5691L15.7924 27.8215H19.8785V32.3616H22.6026V27.8215H26.6887Z" fill="#6DA544"/>
</g>
<defs>
<clipPath id="clip0_299_3592">
<rect width="41.7691" height="41.7691" fill="white" transform="translate(0.356445 0.581055)"/>
</clipPath>
</defs>
</svg>
