<svg width="43" height="43" viewBox="0 0 43 43" fill="none" xmlns="http://www.w3.org/2000/svg">
<g clip-path="url(#clip0_299_3613)">
<path d="M21.433 42.7515C32.9672 42.7515 42.3176 33.4012 42.3176 21.867C42.3176 10.3328 32.9672 0.982422 21.433 0.982422C9.89879 0.982422 0.548462 10.3328 0.548462 21.867C0.548462 33.4012 9.89879 42.7515 21.433 42.7515Z" fill="#338AF3"/>
<path d="M20.7748 35.0173C20.2119 34.99 19.746 34.6241 19.5635 34.1274C19.2412 34.5478 18.6873 34.7594 18.1416 34.6187C17.5949 34.4779 17.2127 34.0257 17.1337 33.5009C16.7323 33.8476 16.1475 33.942 15.6418 33.6943C15.1351 33.4455 14.8519 32.9251 14.8809 32.3957C14.4188 32.6554 13.8267 32.63 13.3809 32.2849C12.936 31.9398 12.7625 31.3741 12.8969 30.8611C12.392 31.0227 11.8181 30.8793 11.4504 30.4515C11.0826 30.0248 11.0262 29.4355 11.2606 28.9606C10.7339 29.0168 10.2001 28.7608 9.9258 28.2687C9.65063 27.7765 9.71426 27.1873 10.0402 26.7685C9.5126 26.7177 9.04041 26.359 8.87154 25.8215C8.70177 25.2839 8.88337 24.7191 9.28744 24.375C8.78074 24.2186 8.39209 23.7719 8.3349 23.2118C8.27772 22.6516 8.5683 22.1367 9.03225 21.8806C8.56822 21.6264 8.27584 21.1116 8.33123 20.5522H8.33213C8.38752 19.991 8.77617 19.5434 9.28189 19.3853C8.87782 19.0421 8.69443 18.4782 8.8624 17.9406C9.03038 17.4022 9.50158 17.0426 10.0292 16.9899C9.70325 16.5722 9.6379 15.9828 9.9112 15.4899C10.1845 14.9977 10.7184 14.7407 11.246 14.7961C11.0099 14.3212 11.0653 13.7319 11.4322 13.3034C11.7981 12.8757 12.372 12.7313 12.8778 12.8911C12.7415 12.379 12.9141 11.8124 13.359 11.4665C13.8031 11.1204 14.3951 11.0941 14.8572 11.352C14.8273 10.8227 15.1097 10.3023 15.6155 10.0526C16.1204 9.80373 16.706 9.89641 17.1082 10.2432C17.1854 9.71848 17.5677 9.26449 18.1134 9.1227C18.6582 8.98108 19.2121 9.19082 19.5353 9.61031C19.7178 9.11365 20.1827 8.74678 20.7457 8.71864C21.3078 8.68967 21.8072 9.00555 22.0397 9.4806C22.3175 9.03019 22.846 8.76326 23.4026 8.8477C23.9601 8.93123 24.3879 9.34158 24.5204 9.85472C24.8836 9.46779 25.4557 9.31442 25.9841 9.50866C26.5135 9.70388 26.8495 10.1924 26.8749 10.7227C27.308 10.4176 27.9001 10.3821 28.3786 10.68C28.8572 10.9769 29.0869 11.5226 29.0051 12.0465C29.491 11.835 30.0775 11.9194 30.4862 12.3062C30.8948 12.694 31.011 13.2742 30.8258 13.7708C31.3442 13.6609 31.9018 13.8607 32.225 14.3229C32.5483 14.7841 32.5456 15.3762 32.265 15.8257C32.7944 15.822 33.3002 16.1308 33.5245 16.6474C33.7478 17.165 33.6252 17.7452 33.2593 18.1293C33.7796 18.2329 34.2127 18.6369 34.3271 19.189C34.4406 19.741 34.2036 20.2831 33.7687 20.5855C34.2554 20.7918 34.5986 21.2738 34.5995 21.8368V21.855V21.8668C34.5995 22.4298 34.2581 22.9129 33.7714 23.1208C34.2073 23.4214 34.4461 23.9635 34.3326 24.5155C34.22 25.0676 33.7878 25.4726 33.2675 25.5779C33.6343 25.9611 33.7587 26.5404 33.5363 27.0589C33.3138 27.5765 32.808 27.8862 32.2777 27.8834C32.5592 28.3329 32.5638 28.9249 32.2414 29.3871C31.9191 29.8494 31.3625 30.0509 30.844 29.9419C31.0301 30.4377 30.9148 31.0189 30.5071 31.4075C30.0985 31.7953 29.5128 31.8806 29.027 31.6708C29.1097 32.1939 28.8808 32.7405 28.4032 33.0393C27.9255 33.338 27.3335 33.3034 26.8995 32.9993C26.8749 33.5296 26.5408 34.019 26.0124 34.2152C25.484 34.4113 26.0124 34.2152 26.0115 34.2152C25.483 34.4104 24.911 34.2579 24.5469 33.872C24.4161 34.386 23.9893 34.7972 23.4318 34.8827C22.8752 34.9671 22.3458 34.702 22.0671 34.2516C21.8455 34.7083 21.377 35.0188 20.843 35.0188C20.8203 35.0191 20.7976 35.0182 20.7748 35.0173Z" fill="#F3F3F3"/>
<path d="M21.4331 30.9466C26.4479 30.9466 30.5133 26.8812 30.5133 21.8663C30.5133 16.8515 26.4479 12.7861 21.4331 12.7861C16.4182 12.7861 12.3528 16.8515 12.3528 21.8663C12.3528 26.8812 16.4182 30.9466 21.4331 30.9466Z" fill="#338AF3"/>
<path d="M23.4207 18.7845C23.8667 18.4536 24.1572 17.9247 24.1572 17.3266V16.4186C24.1572 15.4156 23.3441 14.6025 22.3411 14.6025H20.5251C19.5221 14.6025 18.7091 15.4156 18.7091 16.4186V17.3266C18.7091 17.9247 18.9995 18.4536 19.4456 18.7845L17.8011 35.487C17.8011 35.487 18.7091 36.3952 21.4332 36.3952C24.1573 36.3952 25.0653 35.487 25.0653 35.487L23.4207 18.7845Z" fill="#BDBCC1"/>
<path d="M21.433 14.6025L23.0106 19.458H28.1163L23.9859 22.4592L25.5634 27.3149L21.433 24.3139L17.3025 27.3149L18.8803 22.4592L14.7498 19.458H19.8554L21.433 14.6025Z" fill="#F0F0F0"/>
</g>
<defs>
<clipPath id="clip0_299_3613">
<rect width="41.7691" height="41.7691" fill="white" transform="translate(0.548645 0.982422)"/>
</clipPath>
</defs>
</svg>
