<svg width="42" height="43" viewBox="0 0 42 43" fill="none" xmlns="http://www.w3.org/2000/svg">
<g clip-path="url(#clip0_299_3606)">
<path d="M21.0326 42.7515C32.5668 42.7515 41.9171 33.4012 41.9171 21.867C41.9171 10.3328 32.5668 0.982422 21.0326 0.982422C9.49834 0.982422 0.14801 10.3328 0.14801 21.867C0.14801 33.4012 9.49834 42.7515 21.0326 42.7515Z" fill="#F0F0F0"/>
<path d="M5.20065 8.24609C4.46781 9.09722 3.80252 10.0079 3.21286 10.9701H38.8514C38.2617 10.0079 37.5965 9.09714 36.8636 8.24609H5.20065Z" fill="#D80027"/>
<path d="M5.20047 35.4867H36.8635C37.5963 34.6356 38.2616 33.7249 38.8513 32.7627H3.21277C3.80235 33.7249 4.46764 34.6356 5.20047 35.4867Z" fill="#D80027"/>
<path d="M18.3595 18.0469L20.073 20.4082L22.8481 19.5084L21.1319 21.8677L22.8453 24.2289L20.0711 23.3257L18.3549 25.685L18.3566 22.7676L15.5825 21.8643L18.3577 20.9645L18.3595 18.0469Z" fill="#D80027"/>
<path d="M13.6831 27.7689C10.4235 27.7689 7.78093 25.1264 7.78093 21.8668C7.78093 18.6072 10.4235 15.9646 13.6831 15.9646C14.6994 15.9646 15.6558 16.2216 16.4907 16.674C15.1809 15.3931 13.3897 14.6025 11.413 14.6025C7.40109 14.6025 4.1489 17.8548 4.1489 21.8667C4.1489 25.8786 7.40117 29.1308 11.413 29.1308C13.3897 29.1308 15.1809 28.3403 16.4907 27.0594C15.6558 27.512 14.6995 27.7689 13.6831 27.7689Z" fill="#D80027"/>
</g>
<defs>
<clipPath id="clip0_299_3606">
<rect width="41.7691" height="41.7691" fill="white" transform="translate(0.147522 0.982422)"/>
</clipPath>
</defs>
</svg>
