<svg width="43" height="43" viewBox="0 0 43 43" fill="none" xmlns="http://www.w3.org/2000/svg">
<g clip-path="url(#clip0_299_3598)">
<path d="M21.6419 42.3502C33.1761 42.3502 42.5264 32.9998 42.5264 21.4656C42.5264 9.93139 33.1761 0.581055 21.6419 0.581055C10.1077 0.581055 0.757324 9.93139 0.757324 21.4656C0.757324 32.9998 10.1077 42.3502 21.6419 42.3502Z" fill="#F0F0F0"/>
<path d="M21.642 0.581299C15.3121 0.581299 9.64037 3.39778 5.81042 7.84545H37.4734C33.6436 3.39778 27.9719 0.581299 21.642 0.581299Z" fill="#0052B4"/>
<path d="M37.4735 35.0862H5.81042C9.64037 39.5339 15.3121 42.3503 21.642 42.3503C27.9719 42.3503 33.6436 39.5339 37.4735 35.0862Z" fill="#0052B4"/>
<path d="M39.4611 10.5693H3.82262C1.87865 13.7416 0.757324 17.4725 0.757324 21.4656C0.757324 25.4587 1.87865 29.1897 3.82262 32.3619H39.4611C41.4051 29.1897 42.5264 25.4587 42.5264 21.4656C42.5264 17.4725 41.4051 13.7416 39.4611 10.5693Z" fill="#D80027"/>
<path d="M13.6061 29.5017C18.0442 29.5017 21.642 25.9038 21.642 21.4657C21.642 17.0275 18.0442 13.4297 13.6061 13.4297C9.1679 13.4297 5.57007 17.0275 5.57007 21.4657C5.57007 25.9038 9.1679 29.5017 13.6061 29.5017Z" fill="#F0F0F0"/>
<path d="M13.606 13.4297L15.409 18.9789H21.2533L16.5235 22.4087L18.3406 27.9744L13.606 24.5283L8.87861 27.9679L10.6886 22.4087L5.96301 18.9789H11.8029L13.606 13.4297Z" fill="#D80027"/>
</g>
<defs>
<clipPath id="clip0_299_3598">
<rect width="41.7691" height="41.7691" fill="white" transform="translate(0.757812 0.581055)"/>
</clipPath>
</defs>
</svg>
