<svg width="43" height="43" viewBox="0 0 43 43" fill="none" xmlns="http://www.w3.org/2000/svg">
<g clip-path="url(#clip0_299_3619)">
<path d="M21.8347 42.7515C33.3689 42.7515 42.7192 33.4012 42.7192 21.867C42.7192 10.3328 33.3689 0.982422 21.8347 0.982422C10.3005 0.982422 0.950134 10.3328 0.950134 21.867C0.950134 33.4012 10.3005 42.7515 21.8347 42.7515Z" fill="#F0F0F0"/>
<path d="M1.66882 27.3154C2.87719 31.799 5.54038 35.685 9.12159 38.4366V27.3154H1.66882Z" fill="#D80027"/>
<path d="M20.0179 42.6723C20.6166 42.7239 21.222 42.7518 21.834 42.7518C31.4832 42.7518 39.6026 36.2074 41.9991 27.3154H20.0179V42.6723Z" fill="#D80027"/>
<path d="M41.999 16.4188C39.6025 7.52687 31.4831 0.982422 21.8339 0.982422C21.2219 0.982422 20.6165 1.01032 20.0178 1.06188V16.4188H41.999Z" fill="#D80027"/>
<path d="M9.12159 5.29785C5.54038 8.04955 2.87719 11.9355 1.66882 16.419H9.12159V5.29785Z" fill="#D80027"/>
<path d="M42.5425 19.1426H17.2947H17.2946V1.47852C15.3646 1.90649 13.5348 2.60016 11.8464 3.52145V19.1424V19.1425H1.12692C1.01067 20.0343 0.950134 20.9434 0.950134 21.8667C0.950134 22.7899 1.01067 23.699 1.12692 24.5907H11.8463H11.8464V40.2118C13.5348 41.133 15.3646 41.8268 17.2946 42.2547V24.5909V24.5908H42.5425C42.6585 23.699 42.7192 22.7899 42.7192 21.8667C42.7192 20.9434 42.6585 20.0343 42.5425 19.1426Z" fill="#0052B4"/>
</g>
<defs>
<clipPath id="clip0_299_3619">
<rect width="41.7691" height="41.7691" fill="white" transform="translate(0.950073 0.982422)"/>
</clipPath>
</defs>
</svg>
