<svg width="43" height="43" viewBox="0 0 43 43" fill="none" xmlns="http://www.w3.org/2000/svg">
<g clip-path="url(#clip0_299_3627)">
<path d="M21.2353 42.7515C32.7695 42.7515 42.1198 33.4012 42.1198 21.867C42.1198 10.3328 32.7695 0.982422 21.2353 0.982422C9.70104 0.982422 0.350708 10.3328 0.350708 21.867C0.350708 33.4012 9.70104 42.7515 21.2353 42.7515Z" fill="#F0F0F0"/>
<path d="M0.350525 21.8669C0.350525 29.7831 4.75504 36.6701 11.2468 40.2121V3.52173C4.75504 7.06378 0.350525 13.9508 0.350525 21.8669Z" fill="#D80027"/>
<path d="M40.8207 29.1313C41.6602 26.8689 42.1196 24.4218 42.1196 21.8672C42.1196 19.3126 41.6602 16.8654 40.8207 14.603H1.64961C0.810067 16.8654 0.350525 19.3126 0.350525 21.8672C0.350525 24.4218 0.810067 26.8689 1.64961 29.1313L21.2351 30.9474L40.8207 29.1313Z" fill="#D80027"/>
<path d="M21.2353 42.751C30.215 42.751 37.87 37.0835 40.8209 29.1306H1.64984C4.6006 37.0835 12.2558 42.751 21.2353 42.751Z" fill="#6DA544"/>
<path d="M0.35083 21.8665C0.35083 31.5157 6.89528 39.6351 15.7872 42.0316V1.70142C6.89528 4.09792 0.35083 12.2173 0.35083 21.8665Z" fill="#D80027"/>
<path d="M13.1274 10.1723L11.2012 8.24609L9.91709 9.53033L8.63302 8.24609L6.70683 10.1723L7.99098 11.4564L6.70667 12.7407L8.63286 14.6669L9.91701 13.3826L11.2012 14.6669L13.1274 12.7407L11.8432 11.4564L13.1274 10.1723Z" fill="#F0F0F0"/>
</g>
<defs>
<clipPath id="clip0_299_3627">
<rect width="41.7691" height="41.7691" fill="white" transform="translate(0.351196 0.982422)"/>
</clipPath>
</defs>
</svg>
