<svg width="43" height="43" viewBox="0 0 43 43" fill="none" xmlns="http://www.w3.org/2000/svg">
<g clip-path="url(#clip0_299_3635)">
<path d="M41.8024 27.315C42.2706 25.5779 42.5219 23.7519 42.5219 21.8669C42.5219 19.9818 42.2706 18.1559 41.8024 16.4187L19.8212 1.06177C15.7405 1.41338 11.9957 2.93811 8.92497 5.2975L1.4722 16.4187C1.00401 18.1559 0.752747 19.9818 0.752747 21.8669C0.752747 23.7409 1.001 25.5568 1.46396 27.2849L8.92489 38.4362C11.9957 40.7956 15.7404 42.3204 19.8212 42.672L41.8024 27.315Z" fill="#FFDA44"/>
<path d="M1.47253 27.3154C2.6809 31.799 5.34417 35.685 8.9253 38.4366V27.3154H1.47253Z" fill="#D80027"/>
<path d="M19.8221 42.6723C20.4208 42.7239 21.0262 42.7518 21.6382 42.7518C31.2874 42.7518 39.4068 36.2074 41.8033 27.3154H19.8221V42.6723Z" fill="#D80027"/>
<path d="M41.8032 16.4188C39.4067 7.52687 31.2873 0.982422 21.6381 0.982422C21.0261 0.982422 20.4207 1.01032 19.822 1.06188V16.4188H41.8032Z" fill="#D80027"/>
<path d="M8.9253 5.29785C5.34417 8.04955 2.6809 11.9355 1.47253 16.419H8.9253V5.29785Z" fill="#D80027"/>
<path d="M42.3451 19.1426H17.0973H17.0972V1.47852C15.1672 1.90649 13.3374 2.60016 11.649 3.52145V19.1425H0.929531C0.813442 20.0343 0.752747 20.9434 0.752747 21.8667C0.752747 22.7899 0.813442 23.699 0.929531 24.5907H11.6489H11.649V40.2118C13.3374 41.133 15.1672 41.8268 17.0972 42.2547V24.5909V24.5908H42.3451C42.4612 23.699 42.5219 22.7899 42.5219 21.8667C42.5219 20.9434 42.4612 20.0343 42.3451 19.1426Z" fill="#0052B4"/>
</g>
<defs>
<clipPath id="clip0_299_3635">
<rect width="41.7691" height="41.7691" fill="white" transform="translate(0.752319 0.982422)"/>
</clipPath>
</defs>
</svg>
