<svg width="42" height="43" viewBox="0 0 42 43" fill="none" xmlns="http://www.w3.org/2000/svg">
<g clip-path="url(#clip0_299_3643)">
<path d="M40.624 29.1305C41.4636 26.868 41.923 24.421 41.923 21.8663C41.923 19.3117 41.4636 16.8647 40.624 14.6022L21.0385 12.7861L1.45293 14.6022C0.613472 16.8647 0.153931 19.3117 0.153931 21.8663C0.153931 24.421 0.613472 26.868 1.45293 29.1305L21.0385 30.9466L40.624 29.1305Z" fill="#D80027"/>
<path d="M21.0383 42.751C30.0178 42.751 37.673 37.0835 40.6237 29.1306H1.45264C4.40356 37.0835 12.0586 42.751 21.0383 42.751Z" fill="#FFDA44"/>
<path d="M21.0385 0.982422C12.0587 0.982422 4.40374 6.64997 1.45282 14.6028H40.624C37.6732 6.64997 30.018 0.982422 21.0385 0.982422Z" fill="#F0F0F0"/>
</g>
<defs>
<clipPath id="clip0_299_3643">
<rect width="41.7691" height="41.7691" fill="white" transform="translate(0.153442 0.982422)"/>
</clipPath>
</defs>
</svg>
