<svg width="43" height="43" viewBox="0 0 43 43" fill="none" xmlns="http://www.w3.org/2000/svg">
<g clip-path="url(#clip0_299_3647)">
<path d="M21.4398 42.7515C32.9741 42.7515 42.3244 33.4012 42.3244 21.867C42.3244 10.3328 32.9741 0.982422 21.4398 0.982422C9.90563 0.982422 0.555298 10.3328 0.555298 21.867C0.555298 33.4012 9.90563 42.7515 21.4398 42.7515Z" fill="#F0F0F0"/>
<path d="M0.555176 21.8667C0.555176 29.7828 4.95961 36.6698 11.4514 40.2119V3.52148C4.95961 7.06362 0.555176 13.9505 0.555176 21.8667Z" fill="#F0F0F0"/>
<path d="M21.4395 0.982422C17.8214 0.982422 14.4183 1.90289 11.4512 3.52177V40.2121C14.4183 41.8311 17.8214 42.7515 21.4395 42.7515C32.9736 42.7515 42.324 33.4011 42.324 21.867C42.324 10.3328 32.9736 0.982422 21.4395 0.982422Z" fill="#496E2D"/>
<path d="M30.3685 25.3213C27.7264 27.2303 24.0368 26.6361 22.1278 23.9941C20.2187 21.3518 20.813 17.6624 23.4551 15.7534C24.2789 15.1582 25.2046 14.8063 26.1462 14.684C24.3346 14.4131 22.4195 14.8213 20.8175 15.9789C17.5657 18.3285 16.8342 22.8694 19.1838 26.1213C21.5334 29.373 26.0743 30.1047 29.3262 27.7548C30.9284 26.5973 31.9172 24.9075 32.2287 23.1022C31.817 23.9577 31.1924 24.726 30.3685 25.3213Z" fill="#F0F0F0"/>
<path d="M30.2558 14.6035L31.7444 16.2077L33.73 15.288L32.6642 17.1993L34.1527 18.8037L32.0055 18.3806L30.9397 20.292L30.6785 18.1192L28.5312 17.6961L30.517 16.7764L30.2558 14.6035Z" fill="#F0F0F0"/>
</g>
<defs>
<clipPath id="clip0_299_3647">
<rect width="41.7691" height="41.7691" fill="white" transform="translate(0.554688 0.982422)"/>
</clipPath>
</defs>
</svg>
