<svg width="43" height="43" viewBox="0 0 43 43" fill="none" xmlns="http://www.w3.org/2000/svg">
<g clip-path="url(#clip0_299_3658)">
<path d="M21.242 42.7515C32.7762 42.7515 42.1265 33.4012 42.1265 21.867C42.1265 10.3328 32.7762 0.982422 21.242 0.982422C9.70775 0.982422 0.357422 10.3328 0.357422 21.867C0.357422 33.4012 9.70775 42.7515 21.242 42.7515Z" fill="#F0F0F0"/>
<path d="M13.0697 14.6028H40.8274C37.8766 6.64997 30.2214 0.982422 21.2419 0.982422C15.4747 0.982422 10.2541 3.32043 6.47498 7.10005L13.0697 14.6028Z" fill="black"/>
<path d="M13.0697 29.1306H40.8274C37.8766 37.0835 30.2214 42.751 21.2419 42.751C15.4747 42.751 10.2541 40.413 6.47498 36.6334L13.0697 29.1306Z" fill="#6DA544"/>
<path d="M6.47411 7.09863C-1.6818 15.2545 -1.6818 28.478 6.47411 36.634C9.84444 33.2636 13.0859 30.0222 21.2418 21.8663L6.47411 7.09863Z" fill="#D80027"/>
</g>
<defs>
<clipPath id="clip0_299_3658">
<rect width="41.7691" height="41.7691" fill="white" transform="translate(0.357422 0.982422)"/>
</clipPath>
</defs>
</svg>
