<svg width="43" height="43" viewBox="0 0 43 43" fill="none" xmlns="http://www.w3.org/2000/svg">
<g clip-path="url(#clip0_299_3663)">
<path d="M21.6432 42.7515C33.1774 42.7515 42.5278 33.4012 42.5278 21.867C42.5278 10.3328 33.1774 0.982422 21.6432 0.982422C10.109 0.982422 0.758667 10.3328 0.758667 21.867C0.758667 33.4012 10.109 42.7515 21.6432 42.7515Z" fill="#F0F0F0"/>
<path d="M0.758667 21.8662C0.758667 33.4004 10.1091 42.7508 21.6432 42.7508C21.6432 34.8085 21.6432 21.8662 21.6432 21.8662C21.6432 21.8662 8.02282 21.8662 0.758667 21.8662Z" fill="#0052B4"/>
<path d="M21.6429 0.982422C33.1771 0.982422 42.5275 10.3328 42.5275 21.867C34.5852 21.867 21.6429 21.867 21.6429 21.867C21.6429 21.867 21.6429 8.24657 21.6429 0.982422Z" fill="#D80027"/>
<path d="M13.1904 8.24609L14.5427 12.4082H18.9189L15.3785 14.9804L16.7308 19.1424L13.1904 16.5701L9.64994 19.1424L11.0022 14.9804L7.46179 12.4082H11.838L13.1904 8.24609Z" fill="#0052B4"/>
<path d="M30.0954 24.5906L31.4477 28.7526H35.824L32.2835 31.3249L33.6358 35.4869L30.0954 32.9146L26.555 35.4869L27.9072 31.3249L24.3668 28.7526H28.743L30.0954 24.5906Z" fill="#D80027"/>
</g>
<defs>
<clipPath id="clip0_299_3663">
<rect width="41.7691" height="41.7691" fill="white" transform="translate(0.758667 0.982422)"/>
</clipPath>
</defs>
</svg>
