<svg width="43" height="43" viewBox="0 0 43 43" fill="none" xmlns="http://www.w3.org/2000/svg">
<g clip-path="url(#clip0_299_3669)">
<path d="M36.0053 36.0362C27.8494 44.1921 14.626 44.1921 6.46995 36.0362C-1.68596 27.8803 -1.68596 14.6569 6.47003 6.50088C14.6259 -1.65503 26.5651 -0.37087 34.721 7.78512C42.8769 15.941 44.1611 27.8803 36.0053 36.0362Z" fill="black"/>
<path d="M6.46973 6.50065C14.6256 -1.65526 27.8489 -1.6551 36.005 6.50073C44.1609 14.6566 44.1609 27.88 36.005 36.036" fill="#A2001D"/>
<path d="M16.3135 28.5325L16.6517 29.5732H17.7459L16.8606 30.2163L17.1988 31.2571L16.3135 30.6139L15.4282 31.2571L15.7664 30.2163L14.8811 29.5732H15.9753L16.3135 28.5325Z" fill="#F0F0F0"/>
<path d="M13.5196 18.5439L14.0834 20.2785H15.907L14.4315 21.3504L14.9951 23.0849L13.5196 22.0129L12.0443 23.0849L12.6079 21.3504L11.1324 20.2785H12.9562L13.5196 18.5439Z" fill="#F0F0F0"/>
<path d="M13.5197 31.2568L14.0833 32.9914H15.907L14.4314 34.0632L14.9952 35.7977L13.5197 34.7257L12.0443 35.7977L12.6078 34.0632L11.1324 32.9914H12.9559L13.5197 31.2568Z" fill="#F0F0F0"/>
<path d="M18.851 23.084L19.4148 24.8185H21.2384L19.7629 25.8903L20.3265 27.6249L18.851 26.5528L17.3756 27.6249L17.9393 25.8903L16.4638 24.8185H18.2875L18.851 23.084Z" fill="#F0F0F0"/>
<path d="M8.1882 23.084L8.75193 24.8185H10.5755L9.1001 25.8903L9.66359 27.6249L8.1882 26.5528L6.71272 27.6249L7.27646 25.8903L5.8009 24.8185H7.62462L8.1882 23.084Z" fill="#F0F0F0"/>
<path d="M35.3142 15.8483C34.3808 14.915 33.168 14.3636 31.8648 14.2689L35.766 11.2347C34.2123 9.68096 32.1298 8.97929 30.0978 9.12768C29.8546 8.25347 29.3908 7.42771 28.7033 6.74023L27.1623 9.82217C27.0613 9.63797 26.9333 9.46461 26.7771 9.30855C25.8905 8.42201 24.4532 8.42201 23.5668 9.30855C22.6803 10.1951 22.6801 11.6324 23.5668 12.5189C23.7228 12.675 23.8963 12.803 24.0805 12.9041L20.9985 14.4451C21.6862 15.1328 22.5125 15.5969 23.3872 15.84C23.2383 17.872 23.9393 19.9541 25.493 21.5079L28.9015 17.1256C29.1579 16.8731 29.4965 16.7337 29.8568 16.7337C30.2206 16.7337 30.5626 16.8753 30.8198 17.1327C31.0771 17.3899 31.2188 17.732 31.2188 18.0957C31.2188 18.4596 31.0771 18.8016 30.8198 19.0589L32.1041 20.3431C32.7042 19.7428 33.0349 18.9447 33.0349 18.0958C33.0349 17.4012 32.8133 16.7409 32.4043 16.195C33.0003 16.3541 33.5636 16.6659 34.0303 17.1327C35.4465 18.5488 35.4465 20.8531 34.0303 22.2692L35.3145 23.5534C36.3435 22.5244 36.9102 21.1563 36.9102 19.701C36.91 18.2455 36.3431 16.8774 35.3142 15.8483Z" fill="#FFDA44"/>
</g>
<defs>
<clipPath id="clip0_299_3669">
<rect width="41.7691" height="41.7691" fill="white" transform="translate(0.352539 0.383789)"/>
</clipPath>
</defs>
</svg>
