<svg width="43" height="43" viewBox="0 0 43 43" fill="none" xmlns="http://www.w3.org/2000/svg">
<g clip-path="url(#clip0_299_3679)">
<path d="M21.699 42.1529C33.2332 42.1529 42.5836 32.8026 42.5836 21.2683C42.5836 9.73412 33.2332 0.383789 21.699 0.383789C10.1648 0.383789 0.814453 9.73412 0.814453 21.2683C0.814453 32.8026 10.1648 42.1529 21.699 42.1529Z" fill="#F0F0F0"/>
<path d="M21.699 0.383789C13.4191 0.383789 6.2648 5.20233 2.88672 12.1881H40.5111C37.1331 5.20233 29.9788 0.383789 21.699 0.383789Z" fill="#D80027"/>
<path d="M21.699 42.152C29.9788 42.152 37.1331 37.3335 40.5112 30.3477H2.88672C6.2648 37.3335 13.4191 42.152 21.699 42.152Z" fill="#0052B4"/>
<path d="M26.8357 15.2236L24.9095 17.1498C25.7311 17.9714 26.2393 19.1064 26.2393 20.3602C26.2393 22.8676 24.2066 24.9003 21.6992 24.9003C19.1918 24.9003 17.1591 22.8675 17.1591 20.3602C17.1591 19.1064 17.6674 17.9714 18.4889 17.1498L16.5628 15.2236C15.2481 16.5381 14.4351 18.3541 14.4351 20.3602C14.4351 24.3721 17.6873 27.6243 21.6992 27.6243C25.7111 27.6243 28.9634 24.372 28.9634 20.3602C28.9633 18.3541 28.1503 16.5381 26.8357 15.2236Z" fill="#6DA544"/>
<path d="M21.6993 17.6357L22.3756 19.7172H24.564L22.7935 21.0035L23.4699 23.0849L21.6993 21.7985L19.9287 23.0849L20.605 21.0035L18.8345 19.7172H21.0229L21.6993 17.6357Z" fill="#FFDA44"/>
</g>
<defs>
<clipPath id="clip0_299_3679">
<rect width="41.7691" height="41.7691" fill="white" transform="translate(0.814453 0.383789)"/>
</clipPath>
</defs>
</svg>
