<svg width="42" height="43" viewBox="0 0 42 43" fill="none" xmlns="http://www.w3.org/2000/svg">
<g clip-path="url(#clip0_299_3685)">
<path d="M20.8953 42.1529C32.4295 42.1529 41.7798 32.8026 41.7798 21.2683C41.7798 9.73412 32.4295 0.383789 20.8953 0.383789C9.36107 0.383789 0.0107422 9.73412 0.0107422 21.2683C0.0107422 32.8026 9.36107 42.1529 20.8953 42.1529Z" fill="#F0F0F0"/>
<path d="M41.7794 21.2676C41.7794 12.2881 36.1119 4.63289 28.159 1.68213V40.8533C36.1119 37.9023 41.7794 30.2473 41.7794 21.2676Z" fill="#D80027"/>
<path d="M0.0105591 21.2678C0.0105591 30.2476 5.6781 37.9026 13.631 40.8535V1.68237C5.6781 4.63313 0.0105591 12.2883 0.0105591 21.2678Z" fill="#D80027"/>
</g>
<defs>
<clipPath id="clip0_299_3685">
<rect width="41.7691" height="41.7691" fill="white" transform="translate(0.0107422 0.383789)"/>
</clipPath>
</defs>
</svg>
