<svg width="43" height="43" viewBox="0 0 43 43" fill="none" xmlns="http://www.w3.org/2000/svg">
<g clip-path="url(#clip0_299_3690)">
<path d="M21.1331 42.1529C32.6673 42.1529 42.0176 32.8026 42.0176 21.2683C42.0176 9.73412 32.6673 0.383789 21.1331 0.383789C9.59887 0.383789 0.248535 9.73412 0.248535 21.2683C0.248535 32.8026 9.59887 42.1529 21.1331 42.1529Z" fill="#F0F0F0"/>
<path d="M21.1329 0.383789V21.2683L6.36523 36.036C10.1446 39.8153 15.3657 42.1529 21.1329 42.1529C32.667 42.1529 42.0175 32.8025 42.0175 21.2683C42.0175 9.73419 21.1329 0.383789 21.1329 0.383789Z" fill="#D80027"/>
<path d="M21.1329 0.383789C15.3657 0.383789 10.1446 2.72139 6.36523 6.50068C11.4893 11.6247 13.3083 13.4438 21.1329 21.2683H42.0175C42.0175 9.73419 32.667 0.383789 21.1329 0.383789Z" fill="#0052B4"/>
<path d="M14.5489 21.2681L11.9984 20.0683L13.3566 17.5982L10.587 18.128L10.236 15.3301L8.30681 17.3879L6.37768 15.3301L6.02664 18.128L3.25707 17.5981L4.61531 20.0683L2.0647 21.2681L4.61531 22.4678L3.25707 24.938L6.02689 24.4082L6.3776 27.206L8.30681 25.1483L10.236 27.206L10.587 24.4082L13.3565 24.938L11.9983 22.4679L14.5489 21.2681Z" fill="#FFDA44"/>
<path d="M5.81872 8.55566L6.66763 9.74229L8.05841 9.30176L7.19204 10.4757L8.04095 11.6624L6.65662 11.2013L5.79033 12.3752L5.80118 10.9163L4.41693 10.4551L5.80795 10.0146L5.81872 8.55566Z" fill="#FFDA44"/>
<path d="M5.81842 30.1611L6.66733 31.3478L8.05811 30.9071L7.19174 32.0812L8.04065 33.2678L6.65631 32.8068L5.79002 33.9807L5.80088 32.5217L4.41663 32.0606L5.80765 31.62L5.81842 30.1611Z" fill="#FFDA44"/>
<path d="M17.9249 19.3584L17.076 20.545L15.6852 20.1043L16.5516 21.2784L15.7026 22.4651L17.087 22.0039L17.9533 23.1778L17.9424 21.719L19.3267 21.2578L17.9357 20.8173L17.9249 19.3584Z" fill="#FFDA44"/>
</g>
<defs>
<clipPath id="clip0_299_3690">
<rect width="41.7691" height="41.7691" fill="white" transform="translate(0.249023 0.383789)"/>
</clipPath>
</defs>
</svg>
