<svg width="42" height="43" viewBox="0 0 42 43" fill="none" xmlns="http://www.w3.org/2000/svg">
<g clip-path="url(#clip0_299_3699)">
<path d="M41.9713 21.2683C41.9713 32.8025 32.6208 42.1529 21.0867 42.1529C9.55255 42.1529 0.202148 32.8025 0.202148 21.2683C0.202148 21.2733 21.0867 0.386073 21.0867 0.383789C32.6208 0.383789 41.9713 9.73419 41.9713 21.2683Z" fill="#0052B4"/>
<path d="M21.0312 21.2678H21.0871C21.0871 21.249 21.0871 21.2308 21.0871 21.2119C21.0685 21.2306 21.0499 21.2492 21.0312 21.2678Z" fill="#F0F0F0"/>
<path d="M21.0872 11.2791C21.0872 7.6043 21.0872 5.19646 21.0872 0.382812H21.0837C9.551 0.38477 0.202637 9.73428 0.202637 21.2674H11.0989V15.1316L17.2346 21.2674H21.0314C21.05 21.2488 21.0686 21.2302 21.0873 21.2115C21.0873 19.8045 21.0873 18.549 21.0873 17.415L14.9514 11.2791H21.0872Z" fill="#F0F0F0"/>
<path d="M10.7681 3.10645C7.5017 4.96639 4.78614 7.68188 2.92627 10.9483V21.267H8.37445V8.55479V8.55462H21.0868C21.0868 6.8363 21.0868 5.19931 21.0868 3.10645H10.7681Z" fill="#D80027"/>
<path d="M21.0866 18.699L13.6665 11.2791H11.0983V11.2792L21.0864 21.2673H21.0866C21.0866 21.2673 21.0866 19.4964 21.0866 18.699Z" fill="#D80027"/>
<path d="M32.8913 13.0958L30.1672 14.0038L27.4431 13.0958L26.5352 10.8257L27.4431 8.55566H32.8913L31.9833 10.8257L32.8913 13.0958Z" fill="#ACABB1"/>
<path d="M23.8109 13.0955V23.0837C23.8109 27.9491 30.1671 29.4399 30.1671 29.4399C30.1671 29.4399 36.5232 27.9491 36.5232 23.0837V13.0955H23.8109Z" fill="#338AF3"/>
<path d="M24.3838 25.4497C25.9462 28.4493 30.167 29.4397 30.167 29.4397C30.167 29.4397 34.3878 28.4493 35.9502 25.4497L30.167 15.8193L24.3838 25.4497Z" fill="#6DA544"/>
<path d="M36.5232 22.9827L30.1671 13.0955L23.8109 22.9828V23.0837C23.8109 23.9841 24.0291 24.7688 24.3839 25.45L30.1671 16.4537L35.9503 25.4499C36.3051 24.7686 36.5232 23.9841 36.5232 23.0836V22.9827Z" fill="#FFDA44"/>
</g>
<defs>
<clipPath id="clip0_299_3699">
<rect width="41.7691" height="41.7691" fill="white" transform="translate(0.202148 0.383789)"/>
</clipPath>
</defs>
</svg>
