<svg width="43" height="43" viewBox="0 0 43 43" fill="none" xmlns="http://www.w3.org/2000/svg">
<g clip-path="url(#clip0_299_3715)">
<path d="M0.820557 21.2679C0.820557 30.2475 6.4881 37.9025 14.4408 40.8534L16.2569 21.2678L14.4408 1.68237C6.4881 4.6333 0.820557 12.2883 0.820557 21.2679Z" fill="#6DA544"/>
<path d="M42.5898 21.2683C42.5898 9.73419 33.2394 0.383789 21.7052 0.383789C19.1506 0.383789 16.7035 0.843331 14.4409 1.68279V40.8539C16.7035 41.6934 19.1506 42.1529 21.7052 42.1529C33.2394 42.1529 42.5898 32.8025 42.5898 21.2683Z" fill="#D80027"/>
<path d="M14.441 28.5322C18.4529 28.5322 21.7052 25.2799 21.7052 21.2681C21.7052 17.2562 18.4529 14.0039 14.441 14.0039C10.4292 14.0039 7.17688 17.2562 7.17688 21.2681C7.17688 25.2799 10.4292 28.5322 14.441 28.5322Z" fill="#FFDA44"/>
<path d="M10.355 17.6357V22.1758C10.355 24.4325 12.1843 26.262 14.4411 26.262C16.6978 26.262 18.5272 24.4326 18.5272 22.1758V17.6357H10.355Z" fill="#D80027"/>
<path d="M14.4412 23.5389C13.6901 23.5389 13.0789 22.9278 13.0789 22.1766V20.3604H15.8034V22.1767C15.8034 22.9278 15.1923 23.5389 14.4412 23.5389Z" fill="#F0F0F0"/>
</g>
<defs>
<clipPath id="clip0_299_3715">
<rect width="41.7691" height="41.7691" fill="white" transform="translate(0.820801 0.383789)"/>
</clipPath>
</defs>
</svg>
