<svg width="42" height="43" viewBox="0 0 42 43" fill="none" xmlns="http://www.w3.org/2000/svg">
<g clip-path="url(#clip0_299_3721)">
<path d="M20.9431 42.1529C32.4774 42.1529 41.8277 32.8026 41.8277 21.2683C41.8277 9.73412 32.4774 0.383789 20.9431 0.383789C9.40893 0.383789 0.0585938 9.73412 0.0585938 21.2683C0.0585938 32.8026 9.40893 42.1529 20.9431 42.1529Z" fill="#F0F0F0"/>
<path d="M20.9437 0.382812C14.1112 0.382812 8.04529 3.66422 4.23517 8.73663H37.6522C33.8421 3.66422 27.7762 0.382812 20.9437 0.382812Z" fill="#D80027"/>
<path d="M20.9437 42.1517C27.7762 42.1517 33.8421 38.8703 37.6522 33.7979H4.23517C8.04529 38.8703 14.1112 42.1517 20.9437 42.1517Z" fill="#D80027"/>
<path d="M0.059082 21.2677C0.059082 22.6982 0.203316 24.0951 0.477344 25.4446H41.4101C41.6841 24.0951 41.8282 22.6982 41.8282 21.2677C41.8282 19.8372 41.684 18.4404 41.41 17.0908H0.477344C0.203316 18.4404 0.059082 19.8372 0.059082 21.2677H0.059082Z" fill="#D80027"/>
<path d="M6.17553 6.5C-1.98038 14.6559 -1.98038 27.8793 6.17553 36.0353C9.54585 32.665 12.7873 29.4236 20.9432 21.2677L6.17553 6.5Z" fill="#0052B4"/>
<path d="M8.5112 15.8193L9.86339 19.9812H14.2399L10.6994 22.5536L12.0515 26.7157L8.5112 24.1434L4.9707 26.7157L6.32314 22.5536L2.78271 19.9812H7.15884L8.5112 15.8193Z" fill="#F0F0F0"/>
</g>
<defs>
<clipPath id="clip0_299_3721">
<rect width="41.7691" height="41.7691" fill="white" transform="translate(0.0585938 0.383789)"/>
</clipPath>
</defs>
</svg>
