<svg width="42" height="43" viewBox="0 0 42 43" fill="none" xmlns="http://www.w3.org/2000/svg">
<g clip-path="url(#clip0_299_3729)">
<path d="M20.9763 42.1529C32.5106 42.1529 41.8609 32.8026 41.8609 21.2683C41.8609 9.73412 32.5106 0.383789 20.9763 0.383789C9.44213 0.383789 0.0917969 9.73412 0.0917969 21.2683C0.0917969 32.8026 9.44213 42.1529 20.9763 42.1529Z" fill="#F0F0F0"/>
<path d="M41.8606 21.2683C41.8606 9.73419 32.5101 0.383789 20.976 0.383789C16.8905 0.383789 13.0795 1.55814 9.86052 3.5859L14.4382 5.53085L8.26367 8.15431L14.4382 10.7777L8.26367 13.401L14.4382 16.0242L8.26367 18.6471L14.4382 21.2698L8.26367 23.8931L14.4382 26.5162L8.26367 29.1391L14.4382 31.7623L8.26367 34.3856L14.4382 37.0084L9.86256 38.9523C13.0812 40.9791 16.8913 42.1529 20.976 42.1529C32.5101 42.1529 41.8606 32.8025 41.8606 21.2683Z" fill="#751A46"/>
</g>
<defs>
<clipPath id="clip0_299_3729">
<rect width="41.7691" height="41.7691" fill="white" transform="translate(0.0917969 0.383789)"/>
</clipPath>
</defs>
</svg>
