<svg width="43" height="43" viewBox="0 0 43 43" fill="none" xmlns="http://www.w3.org/2000/svg">
<g clip-path="url(#clip0_299_3732)">
<path d="M21.8484 42.1529C33.3826 42.1529 42.733 32.8026 42.733 21.2683C42.733 9.73412 33.3826 0.383789 21.8484 0.383789C10.3142 0.383789 0.963867 9.73412 0.963867 21.2683C0.963867 32.8026 10.3142 42.1529 21.8484 42.1529Z" fill="#FCFCFC"/>
<path d="M28.2042 17.6357V19.4518H30.6967C29.6565 20.8974 28.2711 22.0775 26.6613 22.8722C26.2484 22.4432 25.6686 22.1758 25.0261 22.1758C23.9431 22.1758 23.0379 22.9345 22.8112 23.9492C22.4939 23.9771 22.1727 23.9919 21.8481 23.9919C21.5235 23.9919 21.2023 23.977 20.8849 23.9492C20.6582 22.9345 19.753 22.1758 18.67 22.1758C18.0276 22.1758 17.448 22.4432 17.0348 22.8722C15.4251 22.0776 14.0397 20.8973 12.9995 19.4518H15.4919V17.6357H9.13574C9.13574 24.6565 14.8274 30.3481 21.8481 30.3481C28.869 30.3481 34.5604 24.6565 34.5604 17.6357H28.2042Z" fill="#D80027"/>
</g>
<defs>
<clipPath id="clip0_299_3732">
<rect width="41.7691" height="41.7691" fill="white" transform="translate(0.963867 0.383789)"/>
</clipPath>
</defs>
</svg>
