<svg width="43" height="43" viewBox="0 0 43 43" fill="none" xmlns="http://www.w3.org/2000/svg">
<g clip-path="url(#clip0_299_3748)">
<path d="M11.87 40.2407L27.2124 27.4483L40.0048 12.1059C38.0159 8.25139 34.8622 5.09595 31.0092 3.10449L15.6546 15.8907L2.86865 31.245C4.85995 35.0982 8.01539 38.2518 11.87 40.2407Z" fill="#FFDA44"/>
<path d="M36.2013 36.4372C42.7902 29.8482 44.0551 19.9527 39.9985 12.0928L11.8569 40.2344C19.7169 44.2909 29.6124 43.026 36.2013 36.4372Z" fill="#D80027"/>
<path d="M6.66516 6.90051C0.0762504 13.4894 -1.18857 23.3849 2.86785 31.2449L31.0095 3.10327C23.1496 -0.953306 13.2541 0.311678 6.66516 6.90051Z" fill="#6DA544"/>
</g>
<defs>
<clipPath id="clip0_299_3748">
<rect width="41.7692" height="41.7692" fill="white" transform="translate(0.548828 0.78418)"/>
</clipPath>
</defs>
</svg>
