<svg width="42" height="43" viewBox="0 0 42 43" fill="none" xmlns="http://www.w3.org/2000/svg">
<g clip-path="url(#clip0_299_3735)">
<path d="M21.032 42.5533C32.5662 42.5533 41.9166 33.203 41.9166 21.6687C41.9166 10.1345 32.5662 0.78418 21.032 0.78418C9.49779 0.78418 0.147461 10.1345 0.147461 21.6687C0.147461 33.203 9.49779 42.5533 21.032 42.5533Z" fill="#FFDA44"/>
<path d="M24.2078 42.3137C27.6044 41.7955 30.7311 40.4579 33.382 38.5105L21.0317 21.6692L24.2078 42.3137Z" fill="#D80027"/>
<path d="M17.8554 1.02466C14.4588 1.54286 11.3321 2.88045 8.68109 4.82769L21.0315 21.6691L17.8554 1.02466Z" fill="#D80027"/>
<path d="M8.68109 38.5105C11.332 40.4578 14.4586 41.7954 17.8552 42.3137L21.0315 21.6692L8.68109 38.5105Z" fill="#D80027"/>
<path d="M4.19017 9.3186C2.24285 11.9696 0.905426 15.0962 0.387146 18.4929L21.0316 21.669L4.19017 9.3186Z" fill="#D80027"/>
<path d="M0.387146 24.8453C0.905344 28.242 2.24293 31.3686 4.19026 34.0195L21.0316 21.6692L0.387146 24.8453Z" fill="#D80027"/>
<path d="M41.6761 18.4928C41.1579 15.0962 39.8204 11.9696 37.873 9.3186L21.0317 21.669L41.6761 18.4928Z" fill="#D80027"/>
<path d="M33.382 4.8276C30.731 2.88036 27.6044 1.54286 24.2078 1.02466L21.0317 21.6691L33.382 4.8276Z" fill="#D80027"/>
<path d="M37.8732 34.0195C39.8204 31.3686 41.1579 28.2419 41.6763 24.8454L21.0317 21.6692L37.8732 34.0195Z" fill="#D80027"/>
<path d="M21.0316 28.9331C25.0435 28.9331 28.2958 25.6808 28.2958 21.6689C28.2958 17.6571 25.0435 14.4048 21.0316 14.4048C17.0198 14.4048 13.7675 17.6571 13.7675 21.6689C13.7675 25.6808 17.0198 28.9331 21.0316 28.9331Z" fill="#D80027"/>
<path d="M21.032 27.1173C24.0409 27.1173 26.4802 24.6781 26.4802 21.6691C26.4802 18.6602 24.0409 16.2209 21.032 16.2209C18.023 16.2209 15.5838 18.6602 15.5838 21.6691C15.5838 24.6781 18.023 27.1173 21.032 27.1173Z" fill="#FFDA44"/>
</g>
<defs>
<clipPath id="clip0_299_3735">
<rect width="41.7691" height="41.7691" fill="white" transform="translate(0.147461 0.78418)"/>
</clipPath>
</defs>
</svg>
