<svg width="43" height="43" viewBox="0 0 43 43" fill="none" xmlns="http://www.w3.org/2000/svg">
<g clip-path="url(#clip0_299_3752)">
<path d="M29.0988 2.0831C26.8362 1.24372 24.3892 0.78418 21.8346 0.78418C19.28 0.784098 16.8329 1.24372 14.5705 2.0831L12.7544 21.6686L14.5705 41.2542C16.8328 42.0938 19.2799 42.5533 21.8346 42.5533C24.3891 42.5533 26.8363 42.0938 29.0988 41.2542L30.9147 21.6687L29.0988 2.0831Z" fill="#FFDA44"/>
<path d="M42.719 21.6695C42.719 12.69 37.0515 5.03474 29.0986 2.08398V41.2553C37.0515 38.3042 42.719 30.6492 42.719 21.6695Z" fill="#D80027"/>
<path d="M0.950195 21.6694C0.950195 30.6492 6.61774 38.3041 14.5704 41.2551L14.5705 2.08398C6.61774 5.03474 0.950195 12.6897 0.950195 21.6694H0.950195Z" fill="#0052B4"/>
</g>
<defs>
<clipPath id="clip0_299_3752">
<rect width="41.7691" height="41.7691" fill="white" transform="translate(0.950195 0.78418)"/>
</clipPath>
</defs>
</svg>
