<svg width="43" height="43" viewBox="0 0 43 43" fill="none" xmlns="http://www.w3.org/2000/svg">
<g clip-path="url(#clip0_299_3756)">
<path d="M21.2351 42.5533C32.7694 42.5533 42.1197 33.203 42.1197 21.6687C42.1197 10.1345 32.7694 0.78418 21.2351 0.78418C9.70092 0.78418 0.350586 10.1345 0.350586 21.6687C0.350586 33.203 9.70092 42.5533 21.2351 42.5533Z" fill="#F0F0F0"/>
<path d="M40.8208 28.9333C41.6604 26.6709 42.1198 24.2238 42.1198 21.6692C42.1198 19.1146 41.6604 16.6675 40.8208 14.405H1.64971C0.81025 16.6675 0.350708 19.1146 0.350708 21.6692C0.350708 24.2238 0.81025 26.6709 1.64971 28.9333L21.2353 30.7494L40.8208 28.9333Z" fill="#0052B4"/>
<path d="M21.2353 42.554C30.2149 42.554 37.87 36.8864 40.8208 28.9336H1.64972C4.60056 36.8864 12.2556 42.554 21.2353 42.554Z" fill="#D80027"/>
</g>
<defs>
<clipPath id="clip0_299_3756">
<rect width="41.7691" height="41.7691" fill="white" transform="translate(0.351074 0.78418)"/>
</clipPath>
</defs>
</svg>
