<svg width="43" height="43" viewBox="0 0 43 43" fill="none" xmlns="http://www.w3.org/2000/svg">
<g clip-path="url(#clip0_299_3760)">
<path d="M0.75293 21.6686C0.75293 25.2867 1.6734 28.6897 3.29228 31.6569L21.6375 33.4729L39.9827 31.6569C41.6016 28.6897 42.522 25.2867 42.522 21.6686L21.6375 19.8525L0.75293 21.6686Z" fill="#FFDA44"/>
<path d="M39.9827 11.6805C36.4405 5.18862 29.5536 0.78418 21.6375 0.78418C13.7213 0.78418 6.83441 5.18862 3.29228 11.6805C1.6734 14.6476 0.75293 18.0506 0.75293 21.6687H42.522C42.522 18.0506 41.6016 14.6476 39.9827 11.6805Z" fill="#338AF3"/>
<path d="M21.6376 42.5535C29.5537 42.5535 36.4406 38.1491 39.9828 31.6572H3.29236C6.83449 38.1491 13.7214 42.5535 21.6376 42.5535Z" fill="#496E2D"/>
<path d="M24.3615 13.007L26.9121 14.2068L25.5539 16.677L28.3236 16.1473L28.6745 18.9451L30.6036 16.8873L32.5328 18.9451L32.8837 16.1473L35.6533 16.6769L34.2952 14.2067L36.8457 13.007L34.2951 11.8074L35.6533 9.33711L32.8837 9.86689L32.5327 7.06909L30.6036 9.12687L28.6744 7.06909L28.3236 9.86689L25.5538 9.33711L26.9121 11.8074L24.3615 13.007Z" fill="#FFDA44"/>
</g>
<defs>
<clipPath id="clip0_299_3760">
<rect width="41.7691" height="41.7691" fill="white" transform="translate(0.752441 0.78418)"/>
</clipPath>
</defs>
</svg>
