<svg width="42" height="43" viewBox="0 0 42 43" fill="none" xmlns="http://www.w3.org/2000/svg">
<g clip-path="url(#clip0_299_3765)">
<path d="M21.0379 42.5533C32.5721 42.5533 41.9224 33.203 41.9224 21.6687C41.9224 10.1345 32.5721 0.78418 21.0379 0.78418C9.50365 0.78418 0.15332 10.1345 0.15332 21.6687C0.15332 33.203 9.50365 42.5533 21.0379 42.5533Z" fill="#F0F0F0"/>
<path d="M21.0383 0.785164C21.0188 0.77048 0.148201 21.6643 0.153749 21.6697C0.153749 10.1356 9.50415 0.785164 21.0383 0.785164Z" fill="#D80027"/>
<path d="M21.0381 0.785164C21.0576 0.77048 41.9282 21.6642 41.9227 21.6697C41.9227 10.1356 32.5723 0.785164 21.0381 0.785164Z" fill="#D80027"/>
<path d="M21.0384 42.5545C21.0189 42.5692 0.148262 21.6755 0.15381 21.6699C0.15381 33.2041 9.50421 42.5545 21.0384 42.5545Z" fill="#0052B4"/>
<path d="M21.0382 42.5545C21.0577 42.5692 41.9283 21.6755 41.9228 21.6699C41.9228 33.2041 32.5724 42.5545 21.0382 42.5545Z" fill="#0052B4"/>
<path d="M21.0382 11.6809L23.2921 18.6176H30.5858L24.685 22.9046L26.9389 29.8414L21.0382 25.5543L15.1375 29.8414L17.3914 22.9046L11.4907 18.6176H18.7843L21.0382 11.6809Z" fill="#FFDA44"/>
</g>
<defs>
<clipPath id="clip0_299_3765">
<rect width="41.7691" height="41.7691" fill="white" transform="translate(0.15332 0.78418)"/>
</clipPath>
</defs>
</svg>
