<svg width="43" height="43" viewBox="0 0 43 43" fill="none" xmlns="http://www.w3.org/2000/svg">
<g clip-path="url(#clip0_299_3774)">
<path d="M2.62748 12.5895C1.29984 15.3352 0.555176 18.4154 0.555176 21.6697C0.555176 24.924 1.29984 28.0043 2.62748 30.7499L21.4397 32.566L40.252 30.7499C41.5796 28.0043 42.3243 24.924 42.3243 21.6697C42.3243 18.4154 41.5796 15.3352 40.252 12.5895L21.4397 10.7734L2.62748 12.5895Z" fill="#F0F0F0"/>
<path d="M2.62793 30.749C6.00584 37.7348 13.1596 42.5534 21.4394 42.5534C29.7193 42.5534 36.8731 37.7348 40.251 30.749H2.62793Z" fill="#496E2D"/>
<path d="M2.62793 12.5885H40.251C36.8731 5.60272 29.7194 0.78418 21.4394 0.78418C13.1595 0.78418 6.00584 5.60272 2.62793 12.5885Z" fill="black"/>
<path d="M6.67174 6.90161C-1.48417 15.0575 -1.48417 28.281 6.67174 36.4369C10.0421 33.0666 13.2835 29.8252 21.4394 21.6693L6.67174 6.90161Z" fill="#D80027"/>
<path d="M26.8873 21.6689C26.8873 18.6261 29.0258 16.0842 31.8814 15.4606C31.4425 15.3647 30.9872 15.3127 30.5194 15.3127C27.0089 15.3127 24.1632 18.1584 24.1632 21.6689C24.1632 25.1794 27.0089 28.0251 30.5194 28.0251C30.9871 28.0251 31.4425 27.9731 31.8814 27.8773C29.0258 27.2537 26.8873 24.7117 26.8873 21.6689Z" fill="#D80027"/>
<path d="M32.1486 17.583L33.0504 20.3579H35.9677L33.6075 22.0725L34.5091 24.8472L32.1486 23.1324L29.7885 24.8472L30.6902 22.0725L28.3297 20.3579H31.2471L32.1486 17.583Z" fill="#D80027"/>
</g>
<defs>
<clipPath id="clip0_299_3774">
<rect width="41.7691" height="41.7691" fill="white" transform="translate(0.554688 0.78418)"/>
</clipPath>
</defs>
</svg>
