<svg width="43" height="43" viewBox="0 0 43 43" fill="none" xmlns="http://www.w3.org/2000/svg">
<g clip-path="url(#clip0_299_3782)">
<path d="M42.1265 21.6687C42.1265 33.2029 32.7761 42.5533 21.242 42.5533C9.70783 42.5533 0.357422 33.2029 0.357422 21.6687C7.53078 14.4954 13.6145 8.41161 21.242 0.78418C32.7761 0.78418 42.1265 10.1346 42.1265 21.6687Z" fill="#D80027"/>
<path d="M21.242 21.6687C21.242 10.1346 21.242 8.77481 21.242 0.78418C9.70783 0.78418 0.357422 10.1346 0.357422 21.6687H21.242Z" fill="#0052B4"/>
<path d="M17.0862 14.4048L17.4244 15.4455H18.5186L17.6333 16.0886L17.9715 17.1293L17.0862 16.4861L16.2009 17.1293L16.5391 16.0886L15.6538 15.4455H16.748L17.0862 14.4048Z" fill="#F0F0F0"/>
<path d="M11.5915 6.23267L12.1551 7.96728H13.9789L12.5033 9.03903L13.0671 10.7736L11.5915 9.70149L10.116 10.7736L10.6797 9.03903L9.20422 7.96728H11.0279L11.5915 6.23267Z" fill="#F0F0F0"/>
<path d="M17.0395 8.0481L17.6031 9.78279H19.4268L17.9513 10.8545L18.5149 12.5891L17.0395 11.517L15.564 12.5891L16.1277 10.8545L14.6522 9.78279H16.4759L17.0395 8.0481Z" fill="#F0F0F0"/>
<path d="M12.733 15.3127L13.2966 17.0474H15.1203L13.6448 18.1191L14.2085 19.8536L12.733 18.7817L11.2575 19.8536L11.8212 18.1191L10.3457 17.0474H12.1694L12.733 15.3127Z" fill="#F0F0F0"/>
<path d="M7.95935 10.7727L8.52301 12.5073H10.3467L8.87117 13.5791L9.43483 15.3136L7.95935 14.2416L6.48396 15.3136L7.04754 13.5791L5.57214 12.5073H7.39578L7.95935 10.7727Z" fill="#F0F0F0"/>
</g>
<defs>
<clipPath id="clip0_299_3782">
<rect width="41.7691" height="41.7691" fill="white" transform="translate(0.357422 0.78418)"/>
</clipPath>
</defs>
</svg>
