<svg width="43" height="43" viewBox="0 0 43 43" fill="none" xmlns="http://www.w3.org/2000/svg">
<g clip-path="url(#clip0_299_3791)">
<path d="M42.5278 21.6691C42.5278 33.2033 33.1774 42.5537 21.6432 42.5537C10.1091 42.5537 0.758667 33.2033 0.758667 21.6691C1.66666 21.6691 21.6432 18.9451 21.6432 18.9451L42.5278 21.6691Z" fill="#338AF3"/>
<path d="M0.758789 21.6687C0.758789 10.1346 10.1092 0.78418 21.6433 0.78418C33.1775 0.78418 42.5279 10.1346 42.5279 21.6687" fill="#F0F0F0"/>
<path d="M29.933 15.1956L21.6431 23.4855L13.3532 15.1956C12.2812 16.7869 11.6549 18.7024 11.6549 20.7614V23.4854C11.6549 27.8594 14.4813 31.5854 18.4034 32.934C17.8799 33.96 17.9682 35.2404 18.7353 36.1978C19.754 35.3812 20.8088 34.536 21.7036 33.819C22.5983 34.536 23.6532 35.3813 24.6719 36.1978C25.4479 35.2292 25.5298 33.9297 24.9857 32.8977C28.8542 31.5198 31.6313 27.8211 31.6313 23.4854V20.7615C31.6314 18.7024 31.005 16.787 29.933 15.1956Z" fill="#6DA544"/>
<path d="M21.6429 30.7497C17.6374 30.7497 14.3788 27.4909 14.3788 23.4855V20.7615C14.3788 16.756 17.6375 13.4973 21.6429 13.4973C25.6484 13.4973 28.9071 16.756 28.9071 20.7615V23.4855C28.9071 27.4909 25.6484 30.7497 21.6429 30.7497Z" fill="#FFDA44"/>
<path d="M26.1832 23.4851V20.7611C26.1832 18.2576 24.1465 16.2209 21.6431 16.2209C19.1398 16.2209 17.103 18.2577 17.103 20.7611V23.4851L21.6431 24.3931L26.1832 23.4851Z" fill="#338AF3"/>
<path d="M17.103 23.4854C17.103 25.9888 19.1398 28.0255 21.6431 28.0255C24.1465 28.0255 26.1832 25.9887 26.1832 23.4854H17.103Z" fill="#6DA544"/>
<path d="M27.0916 13.4968C27.0916 11.9924 25.872 10.7727 24.3675 10.7727C23.6696 10.7727 23.0335 11.0354 22.5515 11.4669V9.86467H23.4595V8.04861H22.5515V7.14062H20.7354V8.04861H19.8274V9.86467H20.7354V11.4669C20.2534 11.0354 19.6172 10.7727 18.9194 10.7727C17.4149 10.7727 16.1953 11.9924 16.1953 13.4968C16.1953 14.3034 16.5462 15.0278 17.1033 15.5267V17.1289H26.1835V15.5267C26.7407 15.0278 27.0916 14.3034 27.0916 13.4968Z" fill="#FFDA44"/>
</g>
<defs>
<clipPath id="clip0_299_3791">
<rect width="41.7691" height="41.7691" fill="white" transform="translate(0.758789 0.78418)"/>
</clipPath>
</defs>
</svg>
