<svg width="42" height="42" viewBox="0 0 42 42" fill="none" xmlns="http://www.w3.org/2000/svg">
<g clip-path="url(#clip0_299_3799)">
<path d="M21.032 41.9547C32.5663 41.9547 41.9166 32.6043 41.9166 21.0701C41.9166 9.53588 32.5663 0.185547 21.032 0.185547C9.49782 0.185547 0.147491 9.53588 0.147491 21.0701C0.147491 32.6043 9.49782 41.9547 21.032 41.9547Z" fill="#FFDA44"/>
<path d="M12.8603 13.8069H40.618C37.6673 5.85407 30.0121 0.186523 21.0326 0.186523C15.2653 0.186523 10.0448 2.52453 6.26562 6.30415L12.8603 13.8069Z" fill="#6DA544"/>
<path d="M12.8603 28.335H40.618C37.6673 36.2878 30.0121 41.9554 21.0326 41.9554C15.2653 41.9554 10.0448 39.6174 6.26562 35.8377L12.8603 28.335Z" fill="#6DA544"/>
<path d="M6.26418 6.30273C-1.89173 14.4586 -1.89173 27.6821 6.26418 35.8381C9.63451 32.4677 12.8759 29.2263 21.0318 21.0704L6.26418 6.30273Z" fill="#D80027"/>
<path d="M26.667 17.4382L27.5686 20.2129H30.486L28.1257 21.9278L29.0273 24.7025L26.667 22.9876L24.3067 24.7025L25.2082 21.9278L22.848 20.2129H25.7655L26.667 17.4382Z" fill="black"/>
<path d="M35.7473 17.4382L36.6488 20.2129H39.5663L37.2061 21.9278L38.1075 24.7025L35.7473 22.9876L33.387 24.7025L34.2885 21.9278L31.9282 20.2129H34.8457L35.7473 17.4382Z" fill="black"/>
</g>
<defs>
<clipPath id="clip0_299_3799">
<rect width="41.7691" height="41.7691" fill="white" transform="translate(0.147461 0.186523)"/>
</clipPath>
</defs>
</svg>
