<svg width="43" height="42" viewBox="0 0 43 42" fill="none" xmlns="http://www.w3.org/2000/svg">
<g clip-path="url(#clip0_299_3807)">
<path d="M21.4332 41.9549C32.9674 41.9549 42.3177 32.6046 42.3177 21.0703C42.3177 9.53612 32.9674 0.185791 21.4332 0.185791C9.89898 0.185791 0.548645 9.53612 0.548645 21.0703C0.548645 32.6046 9.89898 41.9549 21.4332 41.9549Z" fill="#F0F0F0"/>
<path d="M42.141 18.3463H24.1574H24.1573V0.362575C23.2656 0.246487 22.3564 0.185791 21.4332 0.185791C20.51 0.185791 19.6008 0.246487 18.7091 0.362575V18.3461V18.3462H0.725429C0.609341 19.238 0.548645 20.1471 0.548645 21.0703C0.548645 21.9936 0.609341 22.9027 0.725429 23.7944H18.709H18.7091V41.7781C19.6008 41.8942 20.51 41.9549 21.4332 41.9549C22.3564 41.9549 23.2656 41.8943 24.1572 41.7781V23.7946V23.7945H42.141C42.2571 22.9027 42.3177 21.9936 42.3177 21.0703C42.3177 20.1471 42.2571 19.238 42.141 18.3463Z" fill="#D80027"/>
<path d="M31.4215 7.4502C29.729 7.4502 28.307 8.60774 27.9038 10.1742L31.4215 11.0822L34.9391 10.1742C34.536 8.60782 33.1139 7.4502 31.4215 7.4502Z" fill="black"/>
<path d="M27.7895 15.6221L32.3296 16.5301V14.5997C33.6059 14.2711 34.6105 13.2663 34.939 11.99L31.4216 11.082H26.8815L27.7895 13.8061V15.6221Z" fill="black"/>
<path d="M34.9391 10.1738H26.8813V11.9899V13.8059H27.7893V11.9899H34.9389C35.0136 11.6997 35.0536 11.3954 35.0536 11.0819C35.0536 10.7683 35.0138 10.464 34.9391 10.1738Z" fill="#ACABB1"/>
<path d="M12.3531 7.4502C10.6606 7.4502 9.23862 8.60774 8.83545 10.1742L12.3531 11.0822L15.8708 10.1742C15.4676 8.60782 14.0456 7.4502 12.3531 7.4502Z" fill="black"/>
<path d="M8.72094 15.6221L13.261 16.5301V14.5997C14.5374 14.2711 15.5419 13.2663 15.8705 11.99L12.3531 11.082H7.81287L8.72085 13.8061V15.6221H8.72094Z" fill="black"/>
<path d="M15.8708 10.1738H7.81299V11.9899V13.8059H8.72098V11.9899H15.8705C15.9452 11.6997 15.9852 11.3954 15.9852 11.0819C15.9852 10.7683 15.9456 10.464 15.8708 10.1738Z" fill="#ACABB1"/>
<path d="M31.4215 25.6104C29.7291 25.6104 28.307 26.7679 27.9039 28.3344L31.4215 29.2424L34.9392 28.3344C34.536 26.7679 33.114 25.6104 31.4215 25.6104Z" fill="black"/>
<path d="M27.7893 33.7823L32.3294 34.6903V32.7598C33.6058 32.4312 34.6103 31.4264 34.9389 30.1502L31.4215 29.2422H26.8813L27.7893 31.9662V33.7823Z" fill="black"/>
<path d="M34.9391 28.335H26.8813V30.151V31.9671H27.7893V30.151H34.9389C35.0136 29.8608 35.0536 29.5565 35.0536 29.243C35.0536 28.9295 35.0138 28.6252 34.9391 28.335Z" fill="#ACABB1"/>
<path d="M12.3532 25.6104C10.6607 25.6104 9.23868 26.7679 8.83551 28.3344L12.3532 29.2424L15.8708 28.3344C15.4677 26.7679 14.0456 25.6104 12.3532 25.6104Z" fill="black"/>
<path d="M8.72106 33.7823L13.2612 34.6903V32.7598C14.5375 32.4312 15.5421 31.4264 15.8706 30.1502L12.3532 29.2422H7.81299L8.72098 31.9662V33.7823H8.72106Z" fill="black"/>
<path d="M15.8708 28.335H7.81299V30.151V31.9671H8.72098V30.151H15.8705C15.9452 29.8608 15.9852 29.5565 15.9852 29.243C15.9852 28.9295 15.9456 28.6252 15.8708 28.335Z" fill="#ACABB1"/>
</g>
<defs>
<clipPath id="clip0_299_3807">
<rect width="41.7691" height="41.7691" fill="white" transform="translate(0.548828 0.186523)"/>
</clipPath>
</defs>
</svg>
