<svg width="43" height="42" viewBox="0 0 43 42" fill="none" xmlns="http://www.w3.org/2000/svg">
<g clip-path="url(#clip0_299_3822)">
<path d="M21.8348 41.9547C33.369 41.9547 42.7194 32.6043 42.7194 21.0701C42.7194 9.53588 33.369 0.185547 21.8348 0.185547C10.3006 0.185547 0.950256 9.53588 0.950256 21.0701C0.950256 32.6043 10.3006 41.9547 21.8348 41.9547Z" fill="#6DA544"/>
<path d="M12.7549 25.1553C12.7549 26.6597 13.9745 27.8793 15.4789 27.8793H23.6512C23.6512 29.133 24.6675 30.1494 25.9212 30.1494H28.6453C29.899 30.1494 30.9153 29.133 30.9153 27.8793V25.1553H12.7549Z" fill="#F0F0F0"/>
<path d="M31.1424 11.9893V18.3454C31.1424 19.3468 30.3277 20.1615 29.3263 20.1615V22.8855C31.8297 22.8855 33.8664 20.8488 33.8664 18.3454V11.9893H31.1424Z" fill="#F0F0F0"/>
<path d="M11.6198 18.3454C11.6198 19.3468 10.8051 20.1615 9.80371 20.1615V22.8855C12.3072 22.8855 14.3438 20.8488 14.3438 18.3454V11.9893H11.6198V18.3454Z" fill="#F0F0F0"/>
<path d="M27.0563 11.9893H29.7804V18.3454H27.0563V11.9893Z" fill="#F0F0F0"/>
<path d="M22.9702 15.6214C22.9702 15.8717 22.7665 16.0754 22.5162 16.0754C22.2659 16.0754 22.0622 15.8717 22.0622 15.6214V11.9893H19.3382V15.6214C19.3382 15.8717 19.1345 16.0754 18.8842 16.0754C18.6339 16.0754 18.4302 15.8717 18.4302 15.6214V11.9893H15.7061V15.6214C15.7061 17.3738 17.1318 18.7995 18.8842 18.7995C19.5591 18.7995 20.185 18.5874 20.7002 18.2271C21.2154 18.5873 21.8414 18.7995 22.5163 18.7995C22.6522 18.7995 22.7858 18.79 22.9173 18.7732C22.7242 19.5686 22.008 20.1615 21.1542 20.1615V22.8855C23.6577 22.8855 25.6943 20.8488 25.6943 18.3454V15.6214V11.9893H22.9703V15.6214H22.9702Z" fill="#F0F0F0"/>
<path d="M15.7061 20.1619H19.7929V22.8864H15.7061V20.1619Z" fill="#F0F0F0"/>
</g>
<defs>
<clipPath id="clip0_299_3822">
<rect width="41.7691" height="41.7691" fill="white" transform="translate(0.950195 0.186523)"/>
</clipPath>
</defs>
</svg>
