<svg width="43" height="42" viewBox="0 0 43 42" fill="none" xmlns="http://www.w3.org/2000/svg">
<g clip-path="url(#clip0_299_3831)">
<path d="M21.2351 41.9547C32.7694 41.9547 42.1197 32.6043 42.1197 21.0701C42.1197 9.53588 32.7694 0.185547 21.2351 0.185547C9.70092 0.185547 0.350586 9.53588 0.350586 21.0701C0.350586 32.6043 9.70092 41.9547 21.2351 41.9547Z" fill="#F0F0F0"/>
<path d="M33.9498 4.50375C30.4283 1.79684 26.0201 0.186523 21.2351 0.186523C16.4501 0.186523 12.0418 1.79692 8.5202 4.50375L21.2351 17.2185L33.9498 4.50375Z" fill="#0052B4"/>
<path d="M4.66773 8.35645C1.96098 11.878 0.350586 16.2862 0.350586 21.0712C0.350586 25.8562 1.96098 30.2645 4.66781 33.7862L17.3827 21.0712L4.66773 8.35645Z" fill="#0052B4"/>
<path d="M8.5202 37.6384C12.0419 40.3453 16.4501 41.9556 21.2351 41.9556C26.0201 41.9556 30.4283 40.3452 33.9499 37.6384L21.2351 24.9236L8.5202 37.6384Z" fill="#0052B4"/>
<path d="M37.8025 33.786C40.5094 30.2644 42.1197 25.8562 42.1197 21.0712C42.1197 16.2862 40.5094 11.878 37.8025 8.35645L25.0877 21.0712L37.8025 33.786Z" fill="#0052B4"/>
</g>
<defs>
<clipPath id="clip0_299_3831">
<rect width="41.7691" height="41.7691" fill="white" transform="translate(0.351074 0.186523)"/>
</clipPath>
</defs>
</svg>
