<svg width="43" height="42" viewBox="0 0 43 42" fill="none" xmlns="http://www.w3.org/2000/svg">
<g clip-path="url(#clip0_299_3838)">
<path d="M30.7178 2.25809C27.9721 0.930456 24.8918 0.185791 21.6375 0.185791C18.3833 0.185791 15.303 0.930456 12.5573 2.25809L10.7413 21.0703L12.5573 39.8826C15.303 41.2102 18.3833 41.9549 21.6375 41.9549C24.8918 41.9549 27.9721 41.2102 30.7178 39.8826L32.5338 21.0703L30.7178 2.25809Z" fill="#FFDA44"/>
<path d="M21.6373 13.8069L23.4402 19.356H29.2755L24.5549 22.7859L26.3579 28.3352L21.6373 24.9056L16.9166 28.3352L18.72 22.7859L13.9994 19.356H19.8343L21.6373 13.8069Z" fill="#496E2D"/>
<path d="M12.5571 2.25903C5.57143 5.63703 0.752808 12.7907 0.752808 21.0706C0.752808 29.3504 5.57143 36.5041 12.5571 39.8821V2.25903Z" fill="#496E2D"/>
<path d="M30.7178 2.25879V39.8818C37.7035 36.5038 42.5221 29.3501 42.5221 21.0703C42.5221 12.7905 37.7035 5.63678 30.7178 2.25879Z" fill="#D80027"/>
</g>
<defs>
<clipPath id="clip0_299_3838">
<rect width="41.7691" height="41.7691" fill="white" transform="translate(0.752441 0.186523)"/>
</clipPath>
</defs>
</svg>
