<svg width="42" height="42" viewBox="0 0 42 42" fill="none" xmlns="http://www.w3.org/2000/svg">
<g clip-path="url(#clip0_299_3844)">
<path d="M21.0384 41.9547C32.5726 41.9547 41.923 32.6043 41.923 21.0701C41.923 9.53588 32.5726 0.185547 21.0384 0.185547C9.5042 0.185547 0.15387 9.53588 0.15387 21.0701C0.15387 32.6043 9.5042 41.9547 21.0384 41.9547Z" fill="#F0F0F0"/>
<path d="M21.0384 0.185547C9.50428 0.185547 0.15387 9.53595 0.15387 21.0701C0.15387 23.6247 0.613411 26.0719 1.45287 28.3343H40.6241C41.4635 26.0719 41.923 23.6247 41.923 21.0701C41.923 9.53595 32.5726 0.185547 21.0384 0.185547Z" fill="#0052B4"/>
<path d="M21.0383 0.186279C12.0587 0.186279 4.4036 5.85383 1.45276 13.8067H40.6239C37.673 5.85383 30.0179 0.186279 21.0383 0.186279Z" fill="#D80027"/>
<path d="M5.55444 11.9907V22.409C5.55444 28.3353 13.2965 30.1512 13.2965 30.1512C13.2965 30.1512 21.0385 28.3353 21.0385 22.409V11.9907H5.55444Z" fill="#D80027"/>
<path d="M8.75616 13.8063H17.8365V10.1742L16.0204 11.0822L13.2964 8.35815L10.5722 11.0822L8.75616 10.1742V13.8063Z" fill="#FFDA44"/>
<path d="M19.2223 23.859L13.3201 17.9568L7.41797 23.859L9.34416 25.7852L13.3201 21.8092L17.2961 25.7852L19.2223 23.859Z" fill="#FFDA44"/>
<path d="M19.2218 18.3469H16.468C16.6228 18.0797 16.7129 17.7702 16.7129 17.4391C16.7129 16.436 15.8998 15.623 14.8968 15.623C14.2038 15.623 13.602 16.0112 13.2958 16.5819C12.9897 16.0113 12.3878 15.623 11.6948 15.623C10.6919 15.623 9.87876 16.436 9.87876 17.4391C9.87876 17.7702 9.96882 18.0798 10.1237 18.3469H7.41748C7.41748 19.35 8.29112 20.163 9.29399 20.163H9.23354C9.23354 21.166 10.0466 21.979 11.0496 21.979C11.0496 22.8671 11.6874 23.6049 12.5297 23.7629L11.0988 26.9936C11.7846 27.2724 12.534 27.4272 13.3197 27.4272C14.1055 27.4272 14.8549 27.2724 15.5407 26.9936L14.1098 23.7629C14.9521 23.6051 15.5899 22.8672 15.5899 21.979C16.5929 21.979 17.4059 21.166 17.4059 20.163H17.3455C18.3483 20.163 19.2218 19.3499 19.2218 18.3469Z" fill="#F0F0F0"/>
</g>
<defs>
<clipPath id="clip0_299_3844">
<rect width="41.7691" height="41.7691" fill="white" transform="translate(0.15332 0.186523)"/>
</clipPath>
</defs>
</svg>
