<svg width="43" height="42" viewBox="0 0 43 42" fill="none" xmlns="http://www.w3.org/2000/svg">
<g clip-path="url(#clip0_299_3854)">
<path d="M21.4397 41.9547C32.9739 41.9547 42.3242 32.6043 42.3242 21.0701C42.3242 9.53588 32.9739 0.185547 21.4397 0.185547C9.90545 0.185547 0.555115 9.53588 0.555115 21.0701C0.555115 32.6043 9.90545 41.9547 21.4397 41.9547Z" fill="#F0F0F0"/>
<path d="M35.5373 5.66285C31.8221 2.2616 26.8734 0.185791 21.4395 0.185791C20.5499 0.185791 19.6734 0.241837 18.813 0.349767L8.72716 11.9901L1.21582 26.3022C1.70106 28.1835 2.44295 29.9615 3.40013 31.5981L21.4395 21.0703L35.5373 5.66285Z" fill="#FFDA44"/>
<path d="M38.8266 32.6418L9.60712 38.2807C12.9706 40.5976 17.0462 41.9552 21.4393 41.9552C28.6935 41.9552 35.0828 38.2561 38.8266 32.6418Z" fill="#6DA544"/>
<path d="M35.5403 5.66602L3.41211 31.6187C4.25247 33.0519 5.2586 34.3761 6.40456 35.5646L42.3241 21.0707C42.3241 14.9719 39.7094 9.48414 35.5403 5.66602Z" fill="#D80027"/>
<path d="M0.555176 21.0702C0.555176 22.8769 0.784743 24.63 1.21606 26.302L18.8132 0.349609C8.51888 1.64135 0.555176 10.4256 0.555176 21.0702Z" fill="#0052B4"/>
</g>
<defs>
<clipPath id="clip0_299_3854">
<rect width="41.7691" height="41.7691" fill="white" transform="translate(0.554688 0.186523)"/>
</clipPath>
</defs>
</svg>
