<svg width="43" height="42" viewBox="0 0 43 42" fill="none" xmlns="http://www.w3.org/2000/svg">
<g clip-path="url(#clip0_299_3860)">
<path d="M41.4262 28.3351C42.2657 26.0726 42.7252 23.6255 42.7252 21.0709C42.7252 18.5163 42.2657 16.0692 41.4262 13.8068L21.8406 11.9907L2.25506 13.8068C1.41551 16.0692 0.956055 18.5163 0.956055 21.0709C0.956055 23.6255 1.41551 26.0726 2.25506 28.3351L21.8406 30.1511L41.4262 28.3351Z" fill="#F0F0F0"/>
<path d="M21.8405 41.9556C30.8201 41.9556 38.4752 36.2881 41.426 28.3352H2.25488C5.20581 36.2881 12.8608 41.9556 21.8405 41.9556Z" fill="#338AF3"/>
<path d="M21.8407 0.186035C12.861 0.186035 5.20599 5.85358 2.25507 13.8064H41.4263C38.4754 5.85358 30.8202 0.186035 21.8407 0.186035Z" fill="#6DA544"/>
</g>
<defs>
<clipPath id="clip0_299_3860">
<rect width="41.7691" height="41.7691" fill="white" transform="translate(0.956055 0.185791)"/>
</clipPath>
</defs>
</svg>
