<svg width="43" height="42" viewBox="0 0 43 42" fill="none" xmlns="http://www.w3.org/2000/svg">
<g clip-path="url(#clip0_299_3864)">
<path d="M21.2417 41.9547C32.776 41.9547 42.1263 32.6043 42.1263 21.0701C42.1263 9.53588 32.776 0.185547 21.2417 0.185547C9.70751 0.185547 0.357178 9.53588 0.357178 21.0701C0.357178 32.6043 9.70751 41.9547 21.2417 41.9547Z" fill="#F0F0F0"/>
<path d="M0.357178 21.0702C0.357178 9.53595 9.70758 0.185547 21.2417 0.185547C32.7759 0.185547 42.1263 9.53595 42.1263 21.0702" fill="#D80027"/>
<path d="M13.0695 11.0819C13.0695 8.03913 15.2079 5.49725 18.0636 4.87357C17.6247 4.7778 17.1694 4.72583 16.7015 4.72583C13.191 4.72583 10.3453 7.57151 10.3453 11.082C10.3453 14.5925 13.191 17.4382 16.7015 17.4382C17.1692 17.4382 17.6246 17.3862 18.0636 17.2903C15.2079 16.6667 13.0695 14.1248 13.0695 11.0819Z" fill="#F0F0F0"/>
<path d="M21.242 5.17993L21.6928 6.56745H23.1518L21.9714 7.42509L22.4223 8.8126L21.242 7.95512L20.0616 8.8126L20.5125 7.42509L19.3322 6.56745H20.7911L21.242 5.17993Z" fill="#F0F0F0"/>
<path d="M17.7035 7.90356L18.1544 9.29116H19.6133L18.433 10.1487L18.8839 11.5362L17.7035 10.6788L16.523 11.5362L16.974 10.1487L15.7936 9.29116H17.2526L17.7035 7.90356Z" fill="#F0F0F0"/>
<path d="M24.7805 7.90356L25.2315 9.29116H26.6904L25.51 10.1487L25.961 11.5362L24.7805 10.6788L23.6002 11.5362L24.0511 10.1487L22.8707 9.29116H24.3296L24.7805 7.90356Z" fill="#F0F0F0"/>
<path d="M23.4187 11.9905L23.8696 13.3781H25.3285L24.1482 14.2356L24.5991 15.6231L23.4187 14.7657L22.2384 15.6231L22.6893 14.2356L21.5089 13.3781H22.9677L23.4187 11.9905Z" fill="#F0F0F0"/>
<path d="M19.0658 11.9905L19.5166 13.3781H20.9756L19.7952 14.2356L20.2462 15.6231L19.0658 14.7657L17.8853 15.6231L18.3362 14.2356L17.1559 13.3781H18.6149L19.0658 11.9905Z" fill="#F0F0F0"/>
</g>
<defs>
<clipPath id="clip0_299_3864">
<rect width="41.7691" height="41.7691" fill="white" transform="translate(0.357422 0.186523)"/>
</clipPath>
</defs>
</svg>
