<svg width="43" height="42" viewBox="0 0 43 42" fill="none" xmlns="http://www.w3.org/2000/svg">
<g clip-path="url(#clip0_299_3874)">
<path d="M9.87207 38.3229C13.2239 40.6141 17.2765 41.955 21.643 41.955C26.0095 41.955 30.0623 40.6141 33.414 38.3229L21.643 36.5068L9.87207 38.3229Z" fill="#D80027"/>
<path d="M33.414 3.81791C30.0623 1.52673 26.0095 0.185791 21.643 0.185791C17.2765 0.185791 13.2237 1.52673 9.87207 3.81791L21.643 5.63397L33.414 3.81791Z" fill="#D80027"/>
<path d="M9.87256 38.3239C13.2244 40.6151 17.277 41.956 21.6435 41.956C26.01 41.956 30.0628 40.6151 33.4145 38.3239L21.6435 36.5078L9.87256 38.3239Z" fill="#D80027"/>
<path d="M33.4143 3.8184C30.0625 1.52721 26.0098 0.186279 21.6433 0.186279C17.2768 0.186279 13.224 1.52721 9.87231 3.8184L21.6433 5.63446L33.4143 3.8184Z" fill="#D80027"/>
<path d="M42.4745 19.7091C41.9797 13.2634 38.0633 6.99673 33.4141 3.8186H9.87218C4.72153 7.33969 1.22769 13.1064 0.80249 19.7091L21.6432 21.0711L42.4745 19.7091Z" fill="#0052B4"/>
<path d="M0.80249 22.4336C1.22769 29.0363 4.72144 34.803 9.8721 38.3241H33.414C38.5649 34.803 42.0585 29.0363 42.4837 22.4336L21.6432 21.0715L0.80249 22.4336Z" fill="#0052B4"/>
<path d="M42.4746 19.7085H23.0053V2.91016H20.2812V19.7085H0.802639C0.773678 20.1588 0.758667 20.613 0.758667 21.0707C0.758667 21.5282 0.773596 21.9823 0.802557 22.4326H20.2812V39.2312H23.0053V22.4326H42.484C42.5128 21.9823 42.5278 21.5282 42.5278 21.0707C42.5278 20.6163 42.5094 20.162 42.4746 19.7085Z" fill="#D80027"/>
<path d="M8.93066 21.0712L21.6429 13.0811L34.3553 21.0712L21.6429 29.0614L8.93066 21.0712Z" fill="#F0F0F0"/>
<path d="M14.3788 24.7028H30.7231L27.0911 19.2546L25.2751 21.0707L23.459 20.1627L21.6429 22.8868H18.0108L16.1948 21.0707L14.3788 24.7028Z" fill="#6DA544"/>
<path d="M21.6436 15.623L22.0945 17.0106H23.5533L22.3731 17.8682L22.824 19.2558L21.6436 18.3982L20.4633 19.2558L20.9142 17.8682L19.7339 17.0106H21.1927L21.6436 15.623Z" fill="#FFDA44"/>
<path d="M21.6432 10.7979L5.29883 21.0709L21.6432 31.344L37.9877 21.0709L21.6432 10.7979ZM10.4178 21.0709L21.6432 14.0153L32.8687 21.0709L21.6432 28.1266L10.4178 21.0709Z" fill="#D80027"/>
</g>
<defs>
<clipPath id="clip0_299_3874">
<rect width="41.7691" height="41.7691" fill="white" transform="translate(0.758789 0.186523)"/>
</clipPath>
</defs>
</svg>
