<svg width="42" height="43" viewBox="0 0 42 43" fill="none" xmlns="http://www.w3.org/2000/svg">
<g clip-path="url(#clip0_299_3889)">
<path d="M19.2161 23.2875C19.2161 23.2875 6.27676 6.70095 6.26453 6.70389C10.0438 2.92452 15.265 0.586914 21.0322 0.586914C32.5663 0.586914 41.9167 9.93732 41.9167 21.4715L19.2161 23.2875Z" fill="#D80027"/>
<path d="M19.2161 21.4717C19.2161 21.4717 6.27676 36.2422 6.26453 36.2393C10.0438 40.0186 15.265 42.3562 21.0322 42.3562C32.5663 42.3562 41.9167 33.0058 41.9167 21.4717H19.2161Z" fill="#0052B4"/>
<path d="M6.26445 6.7041C-1.89146 14.86 -1.89146 28.0834 6.26445 36.2394C9.63478 32.8691 12.8762 29.6277 21.0321 21.4718L6.26445 6.7041Z" fill="#F0F0F0"/>
<path d="M2.43629 21.4717C2.42486 21.6216 2.41711 21.7727 2.41711 21.9256C2.41711 25.1852 5.05966 27.8278 8.31929 27.8278C11.5789 27.8278 14.2215 25.1852 14.2215 21.9256C14.2215 21.7727 14.2137 21.6215 14.2023 21.4717H2.43629Z" fill="#FFDA44"/>
<path d="M8.31952 18.7482C9.32267 18.7482 10.1359 17.935 10.1359 16.9319C10.1359 15.9287 9.32267 15.1155 8.31952 15.1155C7.31636 15.1155 6.50314 15.9287 6.50314 16.9319C6.50314 17.935 7.31636 18.7482 8.31952 18.7482Z" fill="#FFDA44"/>
<path d="M4.23361 16.4773V22.3795C4.23361 25.5073 8.31972 26.4656 8.31972 26.4656C8.31972 26.4656 12.4058 25.5073 12.4058 22.3795V16.4773H4.23361Z" fill="#D80027"/>
<path d="M8.32177 24.5654C7.56373 24.2925 6.04968 23.5954 6.04968 22.3798V18.2937H10.5899V22.3798C10.5899 23.5994 9.07598 24.2948 8.32177 24.5654Z" fill="#338AF3"/>
<path d="M9.22803 20.5635V19.6552L8.31988 19.2012L7.41165 19.6552V20.5635L6.95758 21.0175V22.8339H9.68218V21.0175L9.22803 20.5635Z" fill="#F3F3F3"/>
</g>
<defs>
<clipPath id="clip0_299_3889">
<rect width="41.7691" height="41.7691" fill="white" transform="translate(0.147522 0.586914)"/>
</clipPath>
</defs>
</svg>
