<svg width="43" height="43" viewBox="0 0 43 43" fill="none" xmlns="http://www.w3.org/2000/svg">
<g clip-path="url(#clip0_299_3907)">
<path d="M21.8345 42.356C33.3687 42.356 42.7191 33.0057 42.7191 21.4715C42.7191 9.93725 33.3687 0.586914 21.8345 0.586914C10.3003 0.586914 0.949951 9.93725 0.949951 21.4715C0.949951 33.0057 10.3003 42.356 21.8345 42.356Z" fill="#F0F0F0"/>
<path d="M41.4202 14.2079H19.1106V8.75977H8.21429V14.2079H2.24914C1.40968 16.4703 0.950134 18.9175 0.950134 21.4721C0.950134 24.0267 1.40968 26.4738 2.24914 28.7362L21.8347 30.5523L41.4202 28.7362C42.2597 26.4738 42.7192 24.0267 42.7192 21.4721C42.7192 18.9175 42.2597 16.4703 41.4202 14.2079Z" fill="#0052B4"/>
<path d="M21.8345 42.3558C30.8141 42.3558 38.4692 36.6882 41.42 28.7354H2.2489C5.19974 36.6882 12.8548 42.3558 21.8345 42.3558Z" fill="#D80027"/>
<path d="M8.21423 14.2078V16.0238C8.21423 20.1942 13.6624 21.472 13.6624 21.472C13.6624 21.472 19.1106 20.1942 19.1106 16.0238V14.2078L17.2945 16.0239L13.6624 13.2998L10.0303 16.0239L8.21423 14.2078Z" fill="#F0F0F0"/>
</g>
<defs>
<clipPath id="clip0_299_3907">
<rect width="41.7691" height="41.7691" fill="white" transform="translate(0.950073 0.586914)"/>
</clipPath>
</defs>
</svg>
