<svg width="43" height="43" viewBox="0 0 43 43" fill="none" xmlns="http://www.w3.org/2000/svg">
<g clip-path="url(#clip0_299_3899)">
<path d="M21.4334 42.357C32.9676 42.357 42.3179 33.0067 42.3179 21.4724C42.3179 9.93822 32.9676 0.587891 21.4334 0.587891C9.89916 0.587891 0.548828 9.93822 0.548828 21.4724C0.548828 33.0067 9.89916 42.357 21.4334 42.357Z" fill="#F0F0F0"/>
<path d="M21.4332 42.3567C32.9673 42.3567 42.3177 33.0063 42.3177 21.4722C42.3177 18.9176 41.8583 16.4704 41.0187 14.208H1.84765C1.00819 16.4704 0.548645 18.9176 0.548645 21.4722C0.548645 33.0063 9.89905 42.3567 21.4332 42.3567Z" fill="#0052B4"/>
<path d="M21.4332 42.3558C30.4128 42.3558 38.0679 36.6882 41.0188 28.7354H1.84766C4.7985 36.6882 12.4536 42.3558 21.4332 42.3558Z" fill="#D80027"/>
<path d="M5.94922 12.3916V22.8099C5.94922 28.7362 13.6913 30.5521 13.6913 30.5521C13.6913 30.5521 21.4332 28.7362 21.4332 22.8099V12.3916H5.94922Z" fill="#F0F0F0"/>
<path d="M7.76526 12.3916V22.8099C7.76526 23.5056 7.91977 24.1627 8.22586 24.7787H19.1566C19.4626 24.1627 19.6172 23.5056 19.6172 22.8099V12.3916H7.76526Z" fill="#D80027"/>
<path d="M17.3234 19.6561H14.5994V17.84H16.4155V16.024H14.5994V14.208H12.7833V16.024H10.9674V17.84H12.7833V19.6561H10.0592V21.4722H12.7833V23.2882H14.5994V21.4722H17.3234V19.6561Z" fill="#F0F0F0"/>
<path d="M10.703 27.314C11.8733 28.0495 13.0756 28.4765 13.6912 28.6664C14.3067 28.4765 15.509 28.0495 16.6793 27.314C17.8594 26.5723 18.6867 25.724 19.1565 24.7789C18.6383 24.4124 18.0062 24.1962 17.3233 24.1962C17.0746 24.1962 16.8331 24.2256 16.6008 24.2797C16.1086 23.1614 14.9914 22.3801 13.6912 22.3801C12.3911 22.3801 11.2738 23.1614 10.7817 24.2797C10.5494 24.2256 10.3078 24.1962 10.0592 24.1962C9.3763 24.1962 8.74413 24.4124 8.22601 24.7789C8.69551 25.7239 9.52281 26.5722 10.703 27.314Z" fill="#0052B4"/>
</g>
<defs>
<clipPath id="clip0_299_3899">
<rect width="41.7691" height="41.7691" fill="white" transform="translate(0.548828 0.587891)"/>
</clipPath>
</defs>
</svg>
