<svg width="43" height="43" viewBox="0 0 43 43" fill="none" xmlns="http://www.w3.org/2000/svg">
<g clip-path="url(#clip0_299_3912)">
<path d="M36.0038 36.2405C43.8364 28.4079 44.1457 15.9029 36.9349 7.69922L21.2356 21.4722L7.46252 37.1716C15.6662 44.3824 28.1711 44.0731 36.0038 36.2405Z" fill="#496E2D"/>
<path d="M6.46719 6.70332C14.2998 -1.12929 26.8048 -1.43856 35.0085 5.77224L21.2353 21.4717L5.5362 35.2446C-1.67468 27.041 -1.36533 14.5359 6.46719 6.70332Z" fill="#0052B4"/>
<path d="M35.0083 5.77246L5.53601 35.2448C5.83394 35.5838 6.14329 35.9163 6.46709 36.2399C6.7908 36.5636 7.1234 36.873 7.46245 37.1711L36.9346 7.69873C36.6366 7.35969 36.3272 7.02717 36.0034 6.70337C35.6798 6.37983 35.3472 6.07039 35.0083 5.77246Z" fill="#FFDA44"/>
<path d="M9.1506 7.85059L9.60158 9.23826H11.0606L9.88022 10.0957L10.331 11.4834L9.1506 10.6258L7.97018 11.4834L8.42115 10.0957L7.24072 9.23826H8.6998L9.1506 7.85059Z" fill="#F0F0F0"/>
<path d="M16.6019 7.85059L17.0529 9.23826H18.5118L17.3314 10.0957L17.7823 11.4834L16.6019 10.6258L15.4215 11.4834L15.8724 10.0957L14.692 9.23826H16.151L16.6019 7.85059Z" fill="#F0F0F0"/>
<path d="M9.1506 15.1152L9.60158 16.5029H11.0606L9.88022 17.3605L10.331 18.7481L9.1506 17.8905L7.97018 18.7481L8.42115 17.3605L7.24072 16.5029H8.6998L9.1506 15.1152Z" fill="#F0F0F0"/>
<path d="M16.6018 15.1152L17.0528 16.5029H18.5117L17.3313 17.3605L17.7822 18.7481L16.6018 17.8905L15.4213 18.7481L15.8723 17.3605L14.6919 16.5029H16.1509L16.6018 15.1152Z" fill="#F0F0F0"/>
<path d="M12.8763 11.4824L13.3272 12.8701H14.7862L13.6058 13.7277L14.0567 15.1153L12.8763 14.2577L11.6958 15.1153L12.1467 13.7277L10.9663 12.8701H12.4254L12.8763 11.4824Z" fill="#F0F0F0"/>
</g>
<defs>
<clipPath id="clip0_299_3912">
<rect width="41.7692" height="41.7692" fill="white" transform="translate(0.351196 0.586914)"/>
</clipPath>
</defs>
</svg>
