<svg width="42" height="43" viewBox="0 0 42 43" fill="none" xmlns="http://www.w3.org/2000/svg">
<g clip-path="url(#clip0_299_3925)">
<path d="M40.624 28.736C41.4634 26.4735 41.923 24.0264 41.923 21.4718C41.923 18.9172 41.4634 16.4701 40.624 14.2077L21.0384 12.3916L1.45287 14.2077C0.613411 16.4701 0.15387 18.9172 0.15387 21.4718C0.15387 24.0264 0.613411 26.4735 1.45287 28.736L21.0384 30.552L40.624 28.736Z" fill="#F0F0F0"/>
<path d="M21.0384 42.3558C30.0179 42.3558 37.6731 36.6882 40.6239 28.7354H1.45276C4.40368 36.6882 12.0587 42.3558 21.0384 42.3558Z" fill="#D80027"/>
<path d="M21.0383 0.586914C12.0586 0.586914 4.40356 6.25446 1.45264 14.2073H40.6238C37.673 6.25446 30.0178 0.586914 21.0383 0.586914Z" fill="#496E2D"/>
<path d="M21.0385 16.9316L22.1653 20.3999H25.8122L22.8619 22.5435L23.9889 26.0119L21.0385 23.8685L18.088 26.0119L19.2151 22.5435L16.2647 20.3999H19.9116L21.0385 16.9316Z" fill="black"/>
<path d="M27.2429 4.67383V8.91119C27.2429 9.57892 26.6999 10.1219 26.0323 10.1219V11.938C27.7013 11.938 29.059 10.5802 29.059 8.91119V4.67383H27.2429Z" fill="#F0F0F0"/>
<path d="M14.2279 8.91119C14.2279 9.57892 13.6849 10.1219 13.0172 10.1219V11.938C14.6863 11.938 16.044 10.5802 16.044 8.91119V4.67383H14.2279V8.91119Z" fill="#F0F0F0"/>
<path d="M24.5187 4.67383H26.3351V8.91193H24.5187V4.67383Z" fill="#F0F0F0"/>
<path d="M21.7946 7.09513C21.7946 7.26204 21.6588 7.39788 21.492 7.39788C21.3251 7.39788 21.1892 7.26204 21.1892 7.09513V4.67383H19.3732V7.09513C19.3732 7.26204 19.2374 7.39788 19.0705 7.39788C18.9036 7.39788 18.7678 7.26204 18.7678 7.09513V4.67383H16.9518V7.09513C16.9518 8.26352 17.9022 9.21393 19.0705 9.21393C19.5204 9.21393 19.9378 9.07256 20.2812 8.83247C20.6247 9.07256 21.042 9.21393 21.4919 9.21393C21.5825 9.21393 21.6716 9.20757 21.7592 9.19639C21.6305 9.72659 21.153 10.1219 20.5839 10.1219V11.938C22.2529 11.938 23.6106 10.5802 23.6106 8.91119V7.09513V4.67383H21.7945L21.7946 7.09513Z" fill="#F0F0F0"/>
<path d="M16.952 10.1223H19.6765V11.9387H16.952V10.1223Z" fill="#F0F0F0"/>
</g>
<defs>
<clipPath id="clip0_299_3925">
<rect width="41.7691" height="41.7691" fill="white" transform="translate(0.153442 0.586914)"/>
</clipPath>
</defs>
</svg>
