<svg width="43" height="43" viewBox="0 0 43 43" fill="none" xmlns="http://www.w3.org/2000/svg">
<g clip-path="url(#clip0_299_3965)">
<path d="M21.2417 42.356C32.776 42.356 42.1263 33.0057 42.1263 21.4715C42.1263 9.93725 32.776 0.586914 21.2417 0.586914C9.70751 0.586914 0.357178 9.93725 0.357178 21.4715C0.357178 33.0057 9.70751 42.356 21.2417 42.356Z" fill="#F0F0F0"/>
<path d="M40.4972 13.3749C37.3344 5.86206 29.9048 0.586914 21.2419 0.586914C15.4747 0.586914 10.2541 2.92492 6.47498 6.70454L11.7051 13.3749H40.4972Z" fill="black"/>
<path d="M11.7645 29.4922L6.4751 36.2381C10.2542 40.0178 15.4748 42.3558 21.242 42.3558C29.9341 42.3558 37.385 37.0454 40.5296 29.4922H11.7645Z" fill="#496E2D"/>
<path d="M4.89746 15.9473V26.9192H41.4071C41.8755 25.1822 42.1265 23.3561 42.1265 21.4711C42.1265 19.5587 41.8688 17.7068 41.3873 15.9473H4.89746Z" fill="#A2001D"/>
<path d="M6.47387 6.7041C-1.68204 14.86 -1.68204 28.0834 6.47387 36.2394C9.84419 32.8691 13.0856 29.6277 21.2415 21.4718L6.47387 6.7041Z" fill="#0052B4"/>
<path d="M7.15988 16.2793L9.70885 19.8363L13.8799 18.511L11.2847 22.0347L13.8337 25.5918L9.68062 24.2126L7.08539 27.7362L7.11395 23.36L2.96069 21.9805L7.1314 20.6553L7.15988 16.2793Z" fill="#FFDA44"/>
</g>
<defs>
<clipPath id="clip0_299_3965">
<rect width="41.7691" height="41.7691" fill="white" transform="translate(0.357422 0.586914)"/>
</clipPath>
</defs>
</svg>
