<svg width="43" height="43" viewBox="0 0 43 43" fill="none" xmlns="http://www.w3.org/2000/svg">
<g clip-path="url(#clip0_299_3943)">
<path d="M21.8406 42.356C33.3748 42.356 42.7252 33.0057 42.7252 21.4715C42.7252 9.93725 33.3748 0.586914 21.8406 0.586914C10.3064 0.586914 0.956055 9.93725 0.956055 21.4715C0.956055 33.0057 10.3064 42.356 21.8406 42.356Z" fill="#F0F0F0"/>
<path d="M29.105 21.4712C29.105 23.2872 25.8527 27.8273 21.8408 27.8273C17.8289 27.8273 14.5767 23.2872 14.5767 21.4712C14.5767 17.4592 17.8289 14.207 21.8408 14.207C25.8527 14.207 29.105 17.4592 29.105 21.4712Z" fill="#D80027"/>
<path d="M29.1048 21.4717C29.1048 25.4836 25.8526 28.7358 21.8407 28.7358C17.8288 28.7358 14.5765 25.4836 14.5765 21.4717" fill="#0052B4"/>
<path d="M29.5399 27.8926L31.4661 25.9663L32.7503 27.2505L30.824 29.1768L29.5399 27.8926Z" fill="black"/>
<path d="M26.329 31.1025L28.2553 29.1763L29.5395 30.4605L27.6132 32.3867L26.329 31.1025Z" fill="black"/>
<path d="M33.3921 31.7441L35.3183 29.8179L36.6025 31.1021L34.6763 33.0283L33.3921 31.7441Z" fill="black"/>
<path d="M30.1812 34.9551L32.1074 33.0288L33.3916 34.313L31.4654 36.2393L30.1812 34.9551Z" fill="black"/>
<path d="M31.4658 29.8184L33.3921 27.8921L34.6762 29.1763L32.75 31.1025L31.4658 29.8184Z" fill="black"/>
<path d="M28.2559 33.0283L30.1821 31.1021L31.4663 32.3863L29.54 34.3125L28.2559 33.0283Z" fill="black"/>
<path d="M33.4004 15.0547L28.2646 9.91893L29.5486 8.63498L34.6843 13.7707L33.4004 15.0547Z" fill="black"/>
<path d="M28.2637 13.7705L26.3374 11.8443L27.6216 10.5602L29.5478 12.4864L28.2637 13.7705Z" fill="black"/>
<path d="M31.4734 16.9817L29.5472 15.0555L30.8313 13.7713L32.7575 15.6976L31.4734 16.9817Z" fill="black"/>
<path d="M32.115 9.91821L30.1888 7.99198L31.4729 6.7078L33.3992 8.63404L32.115 9.91821Z" fill="black"/>
<path d="M35.3267 13.1289L33.4004 11.2027L34.6846 9.91849L36.6108 11.8447L35.3267 13.1289Z" fill="black"/>
<path d="M8.35986 29.8154L13.4956 34.9512L12.2117 36.2351L7.07591 31.0994L8.35986 29.8154Z" fill="black"/>
<path d="M13.4954 31.0977L15.4217 33.0239L14.1375 34.308L12.2113 32.3818L13.4954 31.0977Z" fill="black"/>
<path d="M10.2852 27.8889L12.2114 29.8152L10.9272 31.0993L9.00098 29.1731L10.2852 27.8889Z" fill="black"/>
<path d="M12.2114 25.9622L17.3471 31.0979L16.0632 32.3819L10.9274 27.2461L12.2114 25.9622Z" fill="black"/>
<path d="M13.4951 7.98828L8.35936 13.124L7.07541 11.8401L12.2112 6.70433L13.4951 7.98828Z" fill="black"/>
<path d="M15.4209 9.91406L10.2851 15.0498L9.00119 13.7659L14.1369 8.63011L15.4209 9.91406Z" fill="black"/>
<path d="M17.3491 11.8408L12.2134 16.9766L10.9295 15.6927L16.0652 10.5569L17.3491 11.8408Z" fill="black"/>
</g>
<defs>
<clipPath id="clip0_299_3943">
<rect width="41.7691" height="41.7691" fill="white" transform="translate(0.956055 0.586914)"/>
</clipPath>
</defs>
</svg>
