<svg width="43" height="43" viewBox="0 0 43 43" fill="none" xmlns="http://www.w3.org/2000/svg">
<g clip-path="url(#clip0_299_3936)">
<path d="M21.4395 42.356C32.9737 42.356 42.324 33.0057 42.324 21.4715C42.324 9.93725 32.9737 0.586914 21.4395 0.586914C9.90526 0.586914 0.554932 9.93725 0.554932 21.4715C0.554932 33.0057 9.90526 42.356 21.4395 42.356Z" fill="#F0F0F0"/>
<path d="M6.67211 36.2394C-1.4838 28.0834 -1.4838 14.8601 6.67211 6.7041C6.67154 6.705 18.7157 21.4718 18.7157 21.4718L6.67211 36.2394Z" fill="black"/>
<path d="M18.7154 21.4717L3.32476 11.0713C2.8476 11.9007 2.42681 12.7664 2.06525 13.6625L9.8569 21.4718L2.06549 29.2815C2.42673 30.1769 2.84711 31.0421 3.32395 31.8709L18.7154 21.4717Z" fill="#FFDA44"/>
<path d="M42.1475 18.7474H18.7151L6.67187 6.7041C5.37409 8.00188 4.24657 9.46959 3.32503 11.0711L13.7052 21.4714L3.32422 31.8705C4.24575 33.4724 5.37376 34.9406 6.67187 36.2387L18.7151 24.1955H42.1475C42.2635 23.3038 42.3242 22.3947 42.3242 21.4714C42.3242 20.5482 42.2635 19.6391 42.1475 18.7474Z" fill="#6DA544"/>
<path d="M8.72424 38.0388C12.246 40.7458 16.6543 42.3563 21.4395 42.3563C31.0887 42.3563 39.2081 35.8118 41.6046 26.9199H19.8432L8.72424 38.0388Z" fill="#0052B4"/>
<path d="M41.6046 16.0233C39.2081 7.13137 31.0887 0.586914 21.4395 0.586914C16.6543 0.586914 12.246 2.19739 8.72424 4.90439L19.8431 16.0233H41.6046Z" fill="#D80027"/>
</g>
<defs>
<clipPath id="clip0_299_3936">
<rect width="41.7691" height="41.7691" fill="white" transform="translate(0.554688 0.586914)"/>
</clipPath>
</defs>
</svg>
