<svg width="43" height="43" viewBox="0 0 43 43" fill="none" xmlns="http://www.w3.org/2000/svg">
<g clip-path="url(#clip0_299_3972)">
<path d="M0.758545 21.4718C0.758545 24.0264 1.21809 26.4735 2.05755 28.736L21.6431 30.552L41.2286 28.736C42.0681 26.4735 42.5276 24.0264 42.5276 21.4718C42.5276 18.9172 42.0681 16.4701 41.2286 14.2077L21.6431 12.3916L2.05755 14.2077C1.21809 16.4701 0.758545 18.9172 0.758545 21.4718H0.758545Z" fill="#FFDA44"/>
<path d="M41.2286 14.2073C38.2778 6.25454 30.6227 0.586914 21.643 0.586914C12.6634 0.586914 5.00834 6.25454 2.0575 14.2073H41.2286Z" fill="#D80027"/>
<path d="M2.0575 28.7354C5.00834 36.6881 12.6634 42.3558 21.643 42.3558C30.6227 42.3558 38.2778 36.6881 41.2286 28.7354H2.0575Z" fill="#D80027"/>
</g>
<defs>
<clipPath id="clip0_299_3972">
<rect width="41.7691" height="41.7691" fill="white" transform="translate(0.758667 0.586914)"/>
</clipPath>
</defs>
</svg>
