<svg width="42" height="43" viewBox="0 0 42 43" fill="none" xmlns="http://www.w3.org/2000/svg">
<g clip-path="url(#clip0_299_3977)">
<path d="M0.147543 4.62109H0.147461V39.1259H0.147543V21.8736V4.62109Z" fill="#FF9811"/>
<path d="M21.0324 42.7572C32.5666 42.7572 41.9169 33.4069 41.9169 21.8728C41.9169 10.3386 32.5666 0.988281 21.0324 0.988281C9.49825 0.988281 0.147949 10.3386 0.147949 21.8728C0.147949 33.4069 9.49825 42.7572 21.0324 42.7572Z" fill="#FFDA44"/>
<path d="M16.4922 4.62109H9.26132C8.94087 4.84014 8.62728 5.06815 8.31997 5.30417L6.50391 21.8734L8.31997 38.4427C8.62728 38.6788 8.94087 38.9068 9.26132 39.1258H16.4922V4.62109Z" fill="#FF9811"/>
<path d="M0.147522 21.8733C0.147522 28.6237 3.35102 34.6249 8.31975 38.4426V5.30396C3.35102 9.12175 0.147522 15.123 0.147522 21.8733Z" fill="#6DA544"/>
<path d="M33.7441 13.7207V14.2433L33.7636 14.2463L33.7441 13.7207Z" fill="#FFDA44"/>
<path d="M40.2522 27.3216H36.3173L34.6527 29.1377V32.7698H31.0206V30.9537H32.8366V27.3216H24.6644V29.5917H22.8483V25.2654C22.2911 24.7666 21.9404 24.0421 21.9404 23.2355V11.4313C21.9404 9.92683 23.16 8.70721 24.6644 8.70721V25.5056H28.2965L29.5427 24.467C29.3251 23.9486 29.2045 23.3793 29.2045 22.7816V20.0576H26.4805V14.6095H31.9286C31.9286 13.7015 33.2906 12.7934 33.2906 12.7934C33.2906 12.7934 34.6527 13.7014 34.6527 14.6095V15.9715V20.0576C35.6629 20.0696 37.2679 20.0434 39.0019 20.0576C38.5464 19.2614 38.2847 18.3166 38.2847 17.3336C38.2847 15.7313 38.9765 14.2907 40.0777 13.2938C38.4905 9.77648 35.9577 6.77742 32.8033 4.62109H19.2163V39.126H32.8033C36.6392 36.5039 39.5556 32.6361 40.9705 28.1053L40.2522 27.3216Z" fill="#A2001D"/>
</g>
<defs>
<clipPath id="clip0_299_3977">
<rect width="41.769" height="41.769" fill="white" transform="translate(0.147461 0.988281)"/>
</clipPath>
</defs>
</svg>
