<svg width="43" height="43" viewBox="0 0 43 43" fill="none" xmlns="http://www.w3.org/2000/svg">
<g clip-path="url(#clip0_299_3984)">
<path d="M21.4163 42.7231C32.941 42.7231 42.2837 33.3805 42.2837 21.8557C42.2837 10.3309 32.941 0.988281 21.4163 0.988281C9.89149 0.988281 0.548828 10.3309 0.548828 21.8557C0.548828 33.3805 9.89149 42.7231 21.4163 42.7231Z" fill="#F0F0F0"/>
<path d="M37.8079 17.7733H30.9428C30.9428 16.5206 29.9273 15.5051 28.6746 15.5051L26.86 19.1342C26.86 19.1342 28.7956 24.5779 28.7351 24.5779H31.0033C32.256 24.5779 33.2714 23.5625 33.2714 22.3097C34.5242 22.3097 35.5396 21.2943 35.5396 20.0416H35.4641C36.7167 20.0415 37.8079 19.0261 37.8079 17.7733Z" fill="#ACABB1"/>
<path d="M5.02502 17.7733H11.8901C11.8901 16.5206 12.9056 15.5051 14.1583 15.5051L15.9729 19.1342C15.9729 19.1342 14.0373 24.5779 14.0978 24.5779H11.8296C10.5769 24.5779 9.56146 23.5625 9.56146 22.3097C8.30871 22.3097 7.29328 21.2943 7.29328 20.0416H7.36883C6.11608 20.0415 5.02502 19.0261 5.02502 17.7733Z" fill="#ACABB1"/>
<path d="M28.6745 30.0215V30.9287H14.158V30.0215H10.5289V33.6506H14.158V34.5578H28.6745V33.6506H32.3036V30.0215H28.6745Z" fill="#FFDA44"/>
<path d="M14.158 15.5049V24.5776C14.158 30.1335 21.4162 31.8359 21.4162 31.8359C21.4162 31.8359 28.6744 30.1335 28.6744 24.5776V15.5049L21.4162 14.5977L14.158 15.5049Z" fill="#0052B4"/>
<path d="M14.1582 19.1348H28.6746V24.5785H14.1582V19.1348Z" fill="#D80027"/>
<path d="M25.0453 10.9686V12.3296L24.1381 12.7832L23.2308 11.8759V9.15405H19.6017V11.8759L18.6945 12.7832L17.7871 12.3296V10.9686H14.158V15.505H28.6745V10.9686H25.0453Z" fill="#FFDA44"/>
</g>
<defs>
<clipPath id="clip0_299_3984">
<rect width="41.7348" height="41.7348" fill="white" transform="translate(0.548828 0.988281)"/>
</clipPath>
</defs>
</svg>
