<svg width="43" height="43" viewBox="0 0 43 43" fill="none" xmlns="http://www.w3.org/2000/svg">
<g clip-path="url(#clip0_299_3998)">
<path d="M31.1891 3.52763C28.222 1.90875 24.8189 0.988281 21.2008 0.988281C17.5827 0.988281 14.1797 1.90875 11.2125 3.52763L9.39648 21.8728L11.2125 40.218C14.1797 41.8369 17.5827 42.7574 21.2008 42.7574C24.8189 42.7574 28.222 41.8369 31.1891 40.218L33.0052 21.8728L31.1891 3.52763Z" fill="#FFDA44"/>
<path d="M11.2127 40.2186V3.52832C4.72084 7.07054 0.316406 13.9575 0.316406 21.8736C0.316406 29.7897 4.72084 36.6767 11.2127 40.2186Z" fill="#338AF3"/>
<path d="M42.0853 21.8726C42.0853 13.9565 37.6809 7.06956 31.189 3.52734V40.2177C37.6809 36.6757 42.0853 29.7888 42.0853 21.8726Z" fill="#6DA544"/>
<path d="M16.6605 27.3212L13.0283 21.873L16.6604 16.4248L20.2927 21.873L16.6605 27.3212Z" fill="#6DA544"/>
<path d="M25.7405 27.3212L22.1083 21.873L25.7405 16.4248L29.3726 21.873L25.7405 27.3212Z" fill="#6DA544"/>
<path d="M21.2007 34.5847L17.5685 29.1366L21.2007 23.6885L24.8328 29.1366L21.2007 34.5847Z" fill="#6DA544"/>
</g>
<defs>
<clipPath id="clip0_299_3998">
<rect width="41.7691" height="41.7691" fill="white" transform="translate(0.316895 0.988281)"/>
</clipPath>
</defs>
</svg>
