<svg width="43" height="43" viewBox="0 0 43 43" fill="none" xmlns="http://www.w3.org/2000/svg">
<g clip-path="url(#clip0_299_4006)">
<path d="M2.79087 12.7924C1.46323 15.538 0.718567 18.6183 0.718567 21.8726C0.718567 25.1269 1.46323 28.2071 2.79087 30.9528L21.6031 32.7689L40.4154 30.9528C41.743 28.2071 42.4877 25.1269 42.4877 21.8726C42.4877 18.6183 41.743 15.538 40.4154 12.7924L21.6031 10.9763L2.79087 12.7924Z" fill="#F0F0F0"/>
<path d="M2.79138 30.9531C6.1693 37.9389 13.323 42.7575 21.6029 42.7575C29.8828 42.7575 37.0365 37.9389 40.4144 30.9531H2.79138Z" fill="black"/>
<path d="M2.7915 12.7926H40.4145C37.0366 5.80682 29.8829 0.988281 21.603 0.988281C13.3231 0.988281 6.16942 5.80682 2.7915 12.7926Z" fill="#D80027"/>
<path d="M6.83519 7.10547C-1.32072 15.2614 -1.32072 28.4848 6.83519 36.6408C10.2055 33.2705 13.4469 30.029 21.6029 21.8731L6.83519 7.10547Z" fill="#496E2D"/>
</g>
<defs>
<clipPath id="clip0_299_4006">
<rect width="41.7691" height="41.7691" fill="white" transform="translate(0.718262 0.988281)"/>
</clipPath>
</defs>
</svg>
