<svg width="42" height="43" viewBox="0 0 42 43" fill="none" xmlns="http://www.w3.org/2000/svg">
<g clip-path="url(#clip0_299_4011)">
<path d="M21.0037 42.7574C32.5379 42.7574 41.8882 33.4071 41.8882 21.8728C41.8882 10.3386 32.5379 0.988281 21.0037 0.988281C9.46947 0.988281 0.119141 10.3386 0.119141 21.8728C0.119141 33.4071 9.46947 42.7574 21.0037 42.7574Z" fill="#F0F0F0"/>
<path d="M40.5892 14.6086H1.41812C0.578743 16.8712 0.119202 19.3182 0.119202 21.8728C0.119202 24.4274 0.578743 26.8746 1.41812 29.137H40.5893C41.4288 26.8746 41.8883 24.4274 41.8883 21.8728C41.8883 19.3182 41.4288 16.8712 40.5892 14.6086Z" fill="#A2001D"/>
<path d="M21.0638 42.7579C28.2169 42.7579 34.5293 39.1609 38.2933 33.6777H3.83447C7.59842 39.1609 13.9106 42.7579 21.0638 42.7579Z" fill="#6DA544"/>
<path d="M21.0638 0.989258C28.2169 0.989258 34.5293 4.5863 38.2933 10.0695H3.83447C7.59842 4.5863 13.9106 0.989258 21.0638 0.989258Z" fill="#6DA544"/>
<path d="M21.0038 14.6086L22.8068 20.1577H28.6418L23.9212 23.5877L25.7244 29.137L21.0038 25.7074L16.2831 29.137L18.0864 23.5877L13.3657 20.1577H19.2008L21.0038 14.6086Z" fill="#FFDA44"/>
</g>
<defs>
<clipPath id="clip0_299_4011">
<rect width="41.7691" height="41.7691" fill="white" transform="translate(0.119141 0.988281)"/>
</clipPath>
</defs>
</svg>
