<svg width="43" height="43" viewBox="0 0 43 43" fill="none" xmlns="http://www.w3.org/2000/svg">
<g clip-path="url(#clip0_299_4018)">
<path d="M40.2173 30.9533C41.5449 28.2077 42.2896 25.1273 42.2896 21.873C42.2896 18.6188 41.5449 15.5384 40.2173 12.7928L21.4051 11.8848L2.59281 12.7928C1.26517 15.5384 0.520508 18.6188 0.520508 21.873C0.520508 25.1273 1.26517 28.2077 2.59281 30.9533L21.4051 31.8613L40.2173 30.9533Z" fill="#FFDA44"/>
<path d="M21.405 0.988281C13.1251 0.988281 5.97085 5.80682 2.59277 12.7926H40.2172C36.8392 5.80682 29.6848 0.988281 21.405 0.988281Z" fill="black"/>
<path d="M21.4051 42.7575C13.1252 42.7575 5.97097 37.9389 2.5929 30.9531H40.2173C36.8393 37.9389 29.685 42.7575 21.4051 42.7575Z" fill="#0052B4"/>
<path d="M41.3034 15.5166H1.50673C0.866979 17.5209 0.520508 19.6563 0.520508 21.8728C0.520508 24.0892 0.866979 26.2246 1.50673 28.2289H41.3033C41.9431 26.2246 42.2896 24.0892 42.2896 21.8728C42.2896 19.6563 41.9431 17.5209 41.3034 15.5166Z" fill="#A2001D"/>
<path d="M7.78467 20.9639H35.0254V22.7799H7.78467V20.9639Z" fill="#FFDA44"/>
<path d="M11.4171 17.332H31.3936V19.1481H11.4171V17.332Z" fill="#FFDA44"/>
<path d="M31.5231 21.873C31.5231 21.873 26.8532 27.3212 21.4051 27.3212C15.957 27.3212 15.9569 21.873 15.9569 21.873C15.9569 21.873 15.9569 16.4248 21.4051 16.4248C26.8533 16.4248 31.5231 21.873 31.5231 21.873Z" fill="#F0F0F0"/>
<path d="M21.4049 27.3212C15.9567 27.3212 11.2869 21.873 11.2869 21.873C11.2869 21.873 15.9567 16.4248 21.4049 16.4248" fill="black"/>
<path d="M17.7729 20.0566H19.5893V23.6894H17.7729V20.0566Z" fill="#F0F0F0"/>
<path d="M23.2212 20.0566H25.0376V23.6894H23.2212V20.0566Z" fill="black"/>
<path d="M7.78488 23.6891C8.78804 23.6891 9.60126 22.8759 9.60126 21.8728C9.60126 20.8696 8.78804 20.0564 7.78488 20.0564C6.78172 20.0564 5.96851 20.8696 5.96851 21.8728C5.96851 22.8759 6.78172 23.6891 7.78488 23.6891Z" fill="#0052B4"/>
<path d="M35.0254 23.6889C36.0285 23.6889 36.8417 22.8757 36.8417 21.8725C36.8417 20.8694 36.0285 20.0562 35.0254 20.0562C34.0222 20.0562 33.209 20.8694 33.209 21.8725C33.209 22.8757 34.0222 23.6889 35.0254 23.6889Z" fill="#0052B4"/>
</g>
<defs>
<clipPath id="clip0_299_4018">
<rect width="41.7691" height="41.7691" fill="white" transform="translate(0.520508 0.988281)"/>
</clipPath>
</defs>
</svg>
