<svg width="43" height="43" viewBox="0 0 43 43" fill="none" xmlns="http://www.w3.org/2000/svg">
<g clip-path="url(#clip0_299_4033)">
<path d="M21.8064 42.7574C33.3406 42.7574 42.691 33.4071 42.691 21.8728C42.691 10.3386 33.3406 0.988281 21.8064 0.988281C10.2722 0.988281 0.921875 10.3386 0.921875 21.8728C0.921875 33.4071 10.2722 42.7574 21.8064 42.7574Z" fill="#FFDA44"/>
<path d="M17.2664 19.1478H42.5142C41.1793 8.90075 32.4173 0.987305 21.8064 0.987305C20.2471 0.987305 18.7281 1.15968 17.2663 1.48372V19.1478H17.2664Z" fill="#0052B4"/>
<path d="M11.8181 19.1477V3.52661C6.08351 6.65554 1.97831 12.3948 1.09863 19.1478H11.8181V19.1477Z" fill="#0052B4"/>
<path d="M11.818 24.5957H1.09863C1.97831 31.3487 6.08351 37.0879 11.8181 40.2168L11.818 24.5957Z" fill="#0052B4"/>
<path d="M17.2663 24.5958V42.2598C18.7281 42.5838 20.2471 42.7562 21.8064 42.7562C32.4173 42.7562 41.1793 34.8428 42.5142 24.5957H17.2663V24.5958Z" fill="#0052B4"/>
</g>
<defs>
<clipPath id="clip0_299_4033">
<rect width="41.7691" height="41.7691" fill="white" transform="translate(0.921875 0.988281)"/>
</clipPath>
</defs>
</svg>
