<svg width="43" height="43" viewBox="0 0 43 43" fill="none" xmlns="http://www.w3.org/2000/svg">
<g clip-path="url(#clip0_299_4043)">
<path d="M21.6087 42.7574C33.1429 42.7574 42.4932 33.4071 42.4932 21.8728C42.4932 10.3386 33.1429 0.988281 21.6087 0.988281C10.0745 0.988281 0.724121 10.3386 0.724121 21.8728C0.724121 33.4071 10.0745 42.7574 21.6087 42.7574Z" fill="#F0F0F0"/>
<path d="M21.6085 0.988281C12.6289 0.988281 4.97379 6.65583 2.02295 14.6087H41.1941C38.2432 6.65583 30.5881 0.988281 21.6085 0.988281Z" fill="#D80027"/>
<path d="M21.6086 42.7574C30.5882 42.7574 38.2433 37.0898 41.1942 29.137H2.02307C4.97391 37.0898 12.629 42.7574 21.6086 42.7574Z" fill="black"/>
<path d="M13.2028 16.8782L14.3297 20.3463H17.9766L15.0262 22.4901L16.1532 25.9584L13.2028 23.8149L10.2525 25.9584L11.3794 22.4901L8.42908 20.3463H12.076L13.2028 16.8782Z" fill="#6DA544"/>
<path d="M30.0146 16.8782L31.1415 20.3463H34.7884L31.838 22.4901L32.9649 25.9584L30.0146 23.8149L27.0642 25.9584L28.1912 22.4901L25.2408 20.3463H28.8877L30.0146 16.8782Z" fill="#6DA544"/>
</g>
<defs>
<clipPath id="clip0_299_4043">
<rect width="41.7691" height="41.7691" fill="white" transform="translate(0.724121 0.988281)"/>
</clipPath>
</defs>
</svg>
