<svg width="42" height="43" viewBox="0 0 42 43" fill="none" xmlns="http://www.w3.org/2000/svg">
<g clip-path="url(#clip0_299_4050)">
<path d="M41.9167 21.2742C41.9167 32.8083 32.5663 42.1588 21.0321 42.1588C9.49799 42.1588 0.147583 32.8083 0.147583 21.2742C7.32094 14.1008 13.4047 8.01708 21.0321 0.389648C32.5663 0.389648 41.9167 9.74005 41.9167 21.2742Z" fill="#D80027"/>
<path d="M21.0321 21.2742C21.0321 9.74005 21.0321 8.38027 21.0321 0.389648C9.49799 0.389648 0.147583 9.74005 0.147583 21.2742H21.0321Z" fill="#0052B4"/>
<path d="M18.308 12.6117L15.7574 13.8116L17.1156 16.2818L14.346 15.7518L13.995 18.5498L12.0659 16.492L10.1367 18.5498L9.78582 15.7518L7.01617 16.2816L8.37432 13.8115L5.82379 12.6117L8.3744 11.4121L7.01617 8.94184L9.78574 9.47171L10.1368 6.67383L12.0659 8.73161L13.995 6.67383L14.346 9.47171L17.1156 8.94184L15.7574 11.4122L18.308 12.6117Z" fill="#F0F0F0"/>
<path d="M12.0663 16.4987C14.2134 16.4987 15.9539 14.7582 15.9539 12.6112C15.9539 10.4641 14.2134 8.72363 12.0663 8.72363C9.91929 8.72363 8.17877 10.4641 8.17877 12.6112C8.17877 14.7582 9.91929 16.4987 12.0663 16.4987Z" fill="#0052B4"/>
<path d="M12.0665 14.6847C10.9241 14.6847 9.99469 13.7553 9.99469 12.6129C9.99469 11.4705 10.9241 10.541 12.0665 10.541C13.2089 10.541 14.1383 11.4705 14.1383 12.6129C14.1382 13.7553 13.2087 14.6847 12.0665 14.6847Z" fill="#F0F0F0"/>
</g>
<defs>
<clipPath id="clip0_299_4050">
<rect width="41.7691" height="41.7691" fill="white" transform="translate(0.147522 0.389648)"/>
</clipPath>
</defs>
</svg>
