<svg width="43" height="43" viewBox="0 0 43 43" fill="none" xmlns="http://www.w3.org/2000/svg">
<g clip-path="url(#clip0_299_4056)">
<path d="M2.62076 12.1598C1.29313 14.9055 0.548462 17.9858 0.548462 21.24C0.548462 24.4943 1.29313 27.5746 2.62076 30.3202L21.433 32.1363L40.2453 30.3202C41.5729 27.5746 42.3176 24.4943 42.3176 21.24C42.3176 17.9858 41.5729 14.9055 40.2453 12.1598L21.433 10.3438L2.62076 12.1598Z" fill="#F0F0F0"/>
<path d="M2.62158 30.3201C5.99958 37.3058 13.1533 42.1244 21.4331 42.1244C29.7129 42.1244 36.8667 37.3058 40.2446 30.3201H2.62158Z" fill="#6DA544"/>
<path d="M2.62158 12.1598H40.2446C36.8667 5.17409 29.7129 0.355469 21.4331 0.355469C13.1533 0.355469 5.99958 5.17409 2.62158 12.1598Z" fill="#D80027"/>
<path d="M17.8005 26.6889H25.0647V23.6015L23.6118 24.3279L21.4326 22.1487L19.2533 24.3279L17.8005 23.6015V26.6889Z" fill="#FFDA44"/>
<path d="M13.6449 23.0566L13.9831 24.0973H15.0772L14.1919 24.7405L14.5302 25.7812L13.6449 25.138L12.7596 25.7812L13.0978 24.7405L12.2125 24.0973H13.3066L13.6449 23.0566Z" fill="#FFDA44"/>
<path d="M14.6933 19.425L15.0315 20.4657H16.1257L15.2404 21.1089L15.5785 22.1496L14.6933 21.5064L13.808 22.1496L14.1462 21.1089L13.2609 20.4657H14.3551L14.6933 19.425Z" fill="#FFDA44"/>
<path d="M17.6898 16.7004L18.028 17.7411H19.1221L18.237 18.3843L18.5751 19.425L17.6898 18.7818L16.8046 19.425L17.1427 18.3843L16.2574 17.7411H17.3517L17.6898 16.7004Z" fill="#FFDA44"/>
<path d="M29.2215 23.0566L28.8832 24.0973H27.7891L28.6744 24.7405L28.3362 25.7812L29.2215 25.138L30.1067 25.7812L29.7685 24.7405L30.6538 24.0973H29.5597L29.2215 23.0566Z" fill="#FFDA44"/>
<path d="M28.1733 19.425L27.8351 20.4657H26.7409L27.6262 21.1089L27.288 22.1496L28.1733 21.5064L29.0586 22.1496L28.7204 21.1089L29.6057 20.4657H28.5115L28.1733 19.425Z" fill="#FFDA44"/>
<path d="M25.1767 16.7004L24.8385 17.7411H23.7444L24.6295 18.3843L24.2914 19.425L25.1767 18.7818L26.0619 19.425L25.7238 18.3843L26.609 17.7411H25.5148L25.1767 16.7004Z" fill="#FFDA44"/>
<path d="M21.4332 15.3384L21.7714 16.379H22.8656L21.9803 17.0222L22.3185 18.0629L21.4332 17.4198L20.5479 18.0629L20.8861 17.0222L20.0008 16.379H21.095L21.4332 15.3384Z" fill="#FFDA44"/>
</g>
<defs>
<clipPath id="clip0_299_4056">
<rect width="41.7691" height="41.7691" fill="white" transform="translate(0.548645 0.355469)"/>
</clipPath>
</defs>
</svg>
