<svg width="43" height="43" viewBox="0 0 43 43" fill="none" xmlns="http://www.w3.org/2000/svg">
<g clip-path="url(#clip0_299_4069)">
<path d="M21.8345 42.1588C33.3687 42.1588 42.7191 32.8084 42.7191 21.2742C42.7191 9.73998 33.3687 0.389648 21.8345 0.389648C10.3003 0.389648 0.949951 9.73998 0.949951 21.2742C0.949951 32.8084 10.3003 42.1588 21.8345 42.1588Z" fill="#FFDA44"/>
<path d="M7.06666 36.0416C7.94276 36.9177 8.8775 37.699 9.85802 38.3868L38.9471 9.29767C38.2594 8.31716 37.478 7.38241 36.6019 6.50632C35.7257 5.63023 34.7911 4.84902 33.8106 4.16113L4.72156 33.2503C5.40928 34.2306 6.19066 35.1654 7.06666 36.0416Z" fill="black"/>
<path d="M7.06683 6.50685C0.47824 13.0956 -0.786663 22.9906 3.26975 30.8502L31.4102 2.70986C23.5505 -1.34656 13.6555 -0.0815717 7.06683 6.50685Z" fill="#6DA544"/>
<path d="M36.6019 36.0416C43.1904 29.4531 44.4553 19.5579 40.399 11.6982L12.2585 39.8387C20.1181 43.8951 30.0132 42.6302 36.6019 36.0416Z" fill="#338AF3"/>
</g>
<defs>
<clipPath id="clip0_299_4069">
<rect width="41.7691" height="41.7691" fill="white" transform="translate(0.950073 0.389648)"/>
</clipPath>
</defs>
</svg>
