<svg width="43" height="43" viewBox="0 0 43 43" fill="none" xmlns="http://www.w3.org/2000/svg">
<g clip-path="url(#clip0_299_4074)">
<path d="M21.2354 42.1588C32.7696 42.1588 42.1199 32.8084 42.1199 21.2742C42.1199 9.73998 32.7696 0.389648 21.2354 0.389648C9.70116 0.389648 0.35083 9.73998 0.35083 21.2742C0.35083 32.8084 9.70116 42.1588 21.2354 42.1588Z" fill="#F0F0F0"/>
<path d="M40.8208 14.0098H1.64971C0.810168 16.2722 0.350708 18.7193 0.350708 21.2739C0.350708 23.8285 0.810168 26.2756 1.64971 28.5381H40.8209C41.6604 26.2756 42.1198 23.8285 42.1198 21.2739C42.1198 18.7193 41.6604 16.2722 40.8208 14.0098Z" fill="#0052B4"/>
<path d="M21.2354 0.389648C14.9055 0.389648 9.23376 3.20613 5.40381 7.6538H37.0668C33.237 3.20613 27.5653 0.389648 21.2354 0.389648Z" fill="#D80027"/>
<path d="M37.0668 34.8943H5.40369C9.23364 39.342 14.9053 42.1584 21.2352 42.1584C27.5651 42.1584 33.2368 39.342 37.0668 34.8943Z" fill="#D80027"/>
</g>
<defs>
<clipPath id="clip0_299_4074">
<rect width="41.7691" height="41.7691" fill="white" transform="translate(0.351196 0.389648)"/>
</clipPath>
</defs>
</svg>
