<svg width="43" height="43" viewBox="0 0 43 43" fill="none" xmlns="http://www.w3.org/2000/svg">
<g clip-path="url(#clip0_299_4080)">
<path d="M21.6373 42.1588C33.1715 42.1588 42.5219 32.8084 42.5219 21.2742C42.5219 9.73998 33.1715 0.389648 21.6373 0.389648C10.1031 0.389648 0.752747 9.73998 0.752747 21.2742C0.752747 32.8084 10.1031 42.1588 21.6373 42.1588Z" fill="#F0F0F0"/>
<path d="M9.86639 4.02177C13.2181 1.7305 17.2709 0.389648 21.6374 0.389648C26.0039 0.389648 30.0566 1.7305 33.4083 4.02177L21.6374 4.92975L9.86639 4.02177Z" fill="#FFDA44"/>
<path d="M6.87084 36.0404L16.5007 26.4107L21.6374 17.6418L26.7734 26.4101L36.4039 36.0404C40.1835 32.2613 42.5219 27.0411 42.5219 21.2739C42.5219 14.1062 38.9104 7.78258 33.4083 4.02148H9.86639C4.36428 7.78258 0.752808 14.1062 0.752808 21.2739C0.752808 27.0411 3.09122 32.2613 6.87084 36.0404Z" fill="#D80027"/>
<path d="M40.9363 29.2715L25.6669 22.9443L26.7736 26.4102L36.4048 36.0414C38.3278 34.1186 39.8777 31.8228 40.9363 29.2715Z" fill="#0052B4"/>
<path d="M42.5226 21.2747C42.5226 18.4418 41.9579 15.7411 40.936 13.2781L21.638 21.2747H42.5226Z" fill="#0052B4"/>
<path d="M36.4045 6.50838C35.4866 5.5906 34.484 4.75742 33.409 4.02246H28.787L21.638 21.2749L36.4045 6.50838Z" fill="#0052B4"/>
<path d="M21.6378 4.02246H14.4888L21.6378 21.2749V4.02246Z" fill="#0052B4"/>
<path d="M6.87159 6.50879C4.94858 8.43164 3.3988 10.7274 2.34021 13.2786L21.6381 21.2753L6.87159 6.50879Z" fill="#0052B4"/>
<path d="M0.753296 21.2754C0.753296 24.1083 1.31791 26.809 2.33987 29.272L21.6378 21.2754H0.753296Z" fill="#0052B4"/>
<path d="M9.86572 38.5264C13.2174 40.8176 17.2702 42.1585 21.6367 42.1585C26.0032 42.1585 30.0559 40.8176 33.4077 38.5264H9.86572Z" fill="#FFDA44"/>
<path d="M21.6367 21.2737L26.7732 26.4102C28.0879 25.0956 28.9009 23.2797 28.9009 21.2737C28.9009 17.2617 25.6486 14.0095 21.6367 14.0095C17.6249 14.0095 14.3725 17.2617 14.3725 21.2737C14.3725 23.2796 15.1855 25.0956 16.5002 26.4102L21.6367 21.2737Z" fill="#FFDA44"/>
<path d="M24.8148 31.716C24.8148 33.4712 23.3918 33.986 21.6367 33.986C19.8816 33.986 18.4586 33.4712 18.4586 31.716C18.4586 29.9608 19.8816 28.5378 21.6367 28.5378C23.3918 28.5378 24.8148 29.9608 24.8148 31.716Z" fill="#FFDA44"/>
<path d="M24.8156 31.7168C24.8156 33.472 23.3926 34.8949 21.6375 34.8949C19.8824 34.8949 18.4594 33.472 18.4594 31.7168" fill="#0052B4"/>
</g>
<defs>
<clipPath id="clip0_299_4080">
<rect width="41.7691" height="41.7691" fill="white" transform="translate(0.752319 0.389648)"/>
</clipPath>
</defs>
</svg>
