<svg width="42" height="43" viewBox="0 0 42 43" fill="none" xmlns="http://www.w3.org/2000/svg">
<g clip-path="url(#clip0_299_4096)">
<path d="M21.0384 42.1588C32.5726 42.1588 41.923 32.8084 41.923 21.2742C41.923 9.73998 32.5726 0.389648 21.0384 0.389648C9.5042 0.389648 0.15387 9.73998 0.15387 21.2742C0.15387 32.8084 9.5042 42.1588 21.0384 42.1588Z" fill="#FFDA44"/>
<path d="M21.0384 0.389648C21.0232 0.389812 20.1304 8.74347 20.1304 8.74347H37.747C33.9368 3.67105 27.8709 0.389648 21.0384 0.389648Z" fill="#496E2D"/>
<path d="M21.0383 42.1585C27.8708 42.1585 33.9367 38.8771 37.7468 33.8047H4.32971C8.13984 38.8771 14.2057 42.1585 21.0383 42.1585Z" fill="#496E2D"/>
<path d="M41.5049 17.0977H20.1305L21.0385 25.4515H41.5049C41.779 24.1019 41.923 22.7051 41.923 21.2746C41.923 19.8441 41.7788 18.4472 41.5049 17.0977Z" fill="#496E2D"/>
<path d="M21.0384 25.4511C21.0384 21.0926 21.0384 5.29295 21.0384 0.389648C9.50428 0.389648 0.15387 9.74005 0.15387 21.2742C0.15387 22.7047 0.298104 24.1015 0.57205 25.4511H21.0384Z" fill="#D80027"/>
<path d="M11.6775 10.3782L13.0298 14.54H17.4062L13.8658 17.1125L15.2179 21.2744L11.6775 18.7022L8.13708 21.2744L9.48944 17.1125L5.9491 14.54H10.3253L11.6775 10.3782Z" fill="#F0F0F0"/>
</g>
<defs>
<clipPath id="clip0_299_4096">
<rect width="41.7691" height="41.7691" fill="white" transform="translate(0.153442 0.389648)"/>
</clipPath>
</defs>
</svg>
