<svg width="43" height="43" viewBox="0 0 43 43" fill="none" xmlns="http://www.w3.org/2000/svg">
<g clip-path="url(#clip0_299_4104)">
<path d="M21.4395 42.1588C32.9737 42.1588 42.324 32.8084 42.324 21.2742C42.324 9.73998 32.9737 0.389648 21.4395 0.389648C9.90526 0.389648 0.554932 9.73998 0.554932 21.2742C0.554932 32.8084 9.90526 42.1588 21.4395 42.1588Z" fill="#FFDA44"/>
<path d="M34.1518 10.3779C33.9645 11.2782 33.8794 12.237 33.8794 13.1928C33.8794 18.7022 37.1638 23.4707 41.8705 25.6173C42.1669 24.2161 42.324 22.7635 42.324 21.2742C42.324 9.74005 32.9736 0.389648 21.4395 0.389648C9.90534 0.389648 0.554932 9.74005 0.554932 21.2742C0.554932 32.8083 9.90534 42.1588 21.4395 42.1588C28.5926 42.1588 34.905 38.5617 38.6689 33.0785H12.3593V30.3545H40.2517C40.5372 29.7642 40.7951 29.1581 41.0251 28.5384H12.3593L34.1518 10.3779Z" fill="#0052B4"/>
<path d="M15.8982 11.2859L16.3491 12.6735H17.808L16.6278 13.5311L17.0787 14.9186L15.8982 14.0612L14.718 14.9186L15.1688 13.5311L13.9883 12.6735H15.4473L15.8982 11.2859Z" fill="#F0F0F0"/>
<path d="M9.97303 21.2744L10.5367 23.009H12.3603L10.8848 24.0808L11.4485 25.8153L9.97303 24.7433L8.49763 25.8153L9.06121 24.0808L7.58582 23.009H9.40945L9.97303 21.2744Z" fill="#F0F0F0"/>
<path d="M9.97303 6.74609L10.5367 8.48071H12.3603L10.8848 9.55245L11.4485 11.287L9.97303 10.215L8.49763 11.287L9.06121 9.55245L7.58582 8.48071H9.40945L9.97303 6.74609Z" fill="#F0F0F0"/>
<path d="M5.43274 14.9182L5.9964 16.6528H7.81995L6.34456 17.7246L6.90822 19.4591L5.43274 18.3871L3.95735 19.4591L4.52092 17.7246L3.04553 16.6528H4.86909L5.43274 14.9182Z" fill="#F0F0F0"/>
</g>
<defs>
<clipPath id="clip0_299_4104">
<rect width="41.7691" height="41.7691" fill="white" transform="translate(0.554688 0.389648)"/>
</clipPath>
</defs>
</svg>
