<svg width="43" height="43" viewBox="0 0 43 43" fill="none" xmlns="http://www.w3.org/2000/svg">
<g clip-path="url(#clip0_299_4112)">
<path d="M21.8406 42.1588C33.3748 42.1588 42.7252 32.8084 42.7252 21.2742C42.7252 9.73998 33.3748 0.389648 21.8406 0.389648C10.3064 0.389648 0.956055 9.73998 0.956055 21.2742C0.956055 32.8084 10.3064 42.1588 21.8406 42.1588Z" fill="#F0F0F0"/>
<path d="M14.5761 11.2856V8.56152H11.852V11.2856H9.12793V14.0097H11.852V16.7337H14.5761V14.0097H17.3002V11.2856H14.5761Z" fill="#D80027"/>
<path d="M21.8406 0.389648V21.2742C10.3065 21.2743 5.72238 21.2742 0.956055 21.2743C0.956055 32.8083 10.3065 42.1588 21.8406 42.1588C33.3748 42.1588 42.7252 32.8083 42.7252 21.2742C42.7252 9.74005 33.3748 0.389648 21.8406 0.389648Z" fill="#D80027"/>
</g>
<defs>
<clipPath id="clip0_299_4112">
<rect width="41.7691" height="41.7691" fill="white" transform="translate(0.956055 0.389648)"/>
</clipPath>
</defs>
</svg>
