<svg width="43" height="43" viewBox="0 0 43 43" fill="none" xmlns="http://www.w3.org/2000/svg">
<g clip-path="url(#clip0_299_4117)">
<path d="M41.4067 15.826C39.0102 6.9341 30.8909 0.389648 21.2416 0.389648C11.5924 0.389648 3.47304 6.9341 1.07654 15.826L21.2416 16.7341L41.4067 15.826Z" fill="#A2001D"/>
<path d="M1.07642 26.7225C3.47292 35.6144 11.5923 42.1589 21.2415 42.1589C30.8907 42.1589 39.0101 35.6144 41.4066 26.7225L21.2415 25.8145L1.07642 26.7225Z" fill="#A2001D"/>
<path d="M41.4068 15.8259H1.07663C0.608445 17.563 0.357178 19.389 0.357178 21.2741C0.357178 23.1592 0.608445 24.9852 1.07663 26.7223H41.4069C41.875 24.9852 42.1263 23.1592 42.1263 21.2741C42.1263 19.389 41.875 17.563 41.4068 15.8259Z" fill="#6DA544"/>
</g>
<defs>
<clipPath id="clip0_299_4117">
<rect width="41.7691" height="41.7691" fill="white" transform="translate(0.357422 0.389648)"/>
</clipPath>
</defs>
</svg>
