<svg width="43" height="43" viewBox="0 0 43 43" fill="none" xmlns="http://www.w3.org/2000/svg">
<g clip-path="url(#clip0_299_4122)">
<path d="M12.0668 2.70898C10.1971 3.674 8.44207 4.9389 6.87475 6.50622C5.30735 8.07362 4.04245 9.82866 3.07751 11.6983L16.5062 26.4112L31.2191 39.8399C33.0889 38.8749 34.8439 37.61 36.4112 36.0428C37.9786 34.4754 39.2434 32.7203 40.2085 30.8507L26.7798 16.1377L12.0668 2.70898Z" fill="#F0F0F0"/>
<path d="M36.4109 36.042C37.287 35.1659 38.0684 34.2311 38.7563 33.2505L9.66596 4.16016C8.68545 4.84796 7.75062 5.62934 6.87453 6.50543C5.99844 7.38152 5.21706 8.31635 4.52917 9.29694L33.6195 38.3872C34.5999 37.6994 35.5348 36.9181 36.4109 36.042Z" fill="black"/>
<path d="M6.87465 36.0427C13.4636 42.6317 23.3591 43.8965 31.219 39.8399L3.0775 11.6982C-0.97908 19.5582 0.285985 29.4537 6.87465 36.0427Z" fill="#D80027"/>
<path d="M36.411 6.50598C29.822 -0.0829293 19.9266 -1.34775 12.0667 2.70867L40.2082 30.8504C44.2648 22.9905 43 13.0949 36.411 6.50598Z" fill="#D80027"/>
</g>
<defs>
<clipPath id="clip0_299_4122">
<rect width="41.7691" height="41.7691" fill="white" transform="translate(0.758667 0.389648)"/>
</clipPath>
</defs>
</svg>
