<svg width="42" height="43" viewBox="0 0 42 43" fill="none" xmlns="http://www.w3.org/2000/svg">
<g clip-path="url(#clip0_299_4128)">
<path d="M21.0321 42.5596C32.5664 42.5596 41.9167 33.2093 41.9167 21.6751C41.9167 10.1409 32.5664 0.790527 21.0321 0.790527C9.49792 0.790527 0.147583 10.1409 0.147583 21.6751C0.147583 33.2093 9.49792 42.5596 21.0321 42.5596Z" fill="#D80027"/>
<path d="M21.0323 31.6638C26.5487 31.6638 31.0206 27.1919 31.0206 21.6755C31.0206 16.1592 26.5487 11.6873 21.0323 11.6873C15.5159 11.6873 11.044 16.1592 11.044 21.6755C11.044 27.1919 15.5159 31.6638 21.0323 31.6638Z" fill="#F0F0F0"/>
<path d="M22.2634 17.8552L23.9769 20.2166L26.752 19.3167L25.0358 21.676L26.7492 24.0373L23.9749 23.134L22.2587 25.4933L22.2605 22.5759L19.4864 21.6727L22.2616 20.7729L22.2634 17.8552Z" fill="#D80027"/>
<path d="M23.3028 27.5763C20.0432 27.5763 17.4007 24.9338 17.4007 21.6741C17.4007 18.4145 20.0432 15.772 23.3028 15.772C24.3191 15.772 25.2755 16.029 26.1104 16.4814C24.8006 15.2005 23.0095 14.4099 21.0328 14.4099C17.021 14.4099 13.7686 17.6622 13.7686 21.6741C13.7686 25.6859 17.021 28.9382 21.0328 28.9382C23.0095 28.9382 24.8007 28.1476 26.1104 26.8667C25.2755 27.3193 24.3191 27.5763 23.3028 27.5763Z" fill="#D80027"/>
</g>
<defs>
<clipPath id="clip0_299_4128">
<rect width="41.7691" height="41.7691" fill="white" transform="translate(0.147522 0.790771)"/>
</clipPath>
</defs>
</svg>
