<svg width="43" height="43" viewBox="0 0 43 43" fill="none" xmlns="http://www.w3.org/2000/svg">
<g clip-path="url(#clip0_299_4134)">
<path d="M21.4334 42.5259C32.9676 42.5259 42.3179 33.1756 42.3179 21.6414C42.3179 10.1072 32.9676 0.756836 21.4334 0.756836C9.89916 0.756836 0.548828 10.1072 0.548828 21.6414C0.548828 33.1756 9.89916 42.5259 21.4334 42.5259Z" fill="#D80027"/>
<path d="M20.5783 17.8223L22.2919 20.1836L25.067 19.2838L23.3507 21.6431L25.064 24.0043L22.2899 23.1011L20.5737 25.4604L20.5755 22.543L17.8013 21.6397L20.5765 20.7399L20.5783 17.8223Z" fill="#F0F0F0"/>
<path d="M15.9019 27.5434C12.6423 27.5434 9.99971 24.9008 9.99971 21.6412C9.99971 18.3816 12.6423 15.739 15.9019 15.739C16.9182 15.739 17.8745 15.9961 18.7094 16.4484C17.3996 15.1675 15.6084 14.377 13.6318 14.377C9.61987 14.377 6.36768 17.6292 6.36768 21.6411C6.36768 25.653 9.61996 28.9053 13.6318 28.9053C15.6085 28.9053 17.3997 28.1147 18.7094 26.8338C17.8745 27.2863 16.9182 27.5434 15.9019 27.5434Z" fill="#F0F0F0"/>
</g>
<defs>
<clipPath id="clip0_299_4134">
<rect width="41.7691" height="41.7691" fill="white" transform="translate(0.548828 0.756836)"/>
</clipPath>
</defs>
</svg>
