<svg width="43" height="43" viewBox="0 0 43 43" fill="none" xmlns="http://www.w3.org/2000/svg">
<g clip-path="url(#clip0_299_4167)">
<path d="M42.1199 21.6751C42.1199 33.2092 32.7695 42.5596 21.2354 42.5596C9.70124 42.5596 0.35083 33.2092 0.35083 21.6751C0.35083 21.6801 21.2354 0.792812 21.2354 0.790527C32.7695 0.790527 42.1199 10.1409 42.1199 21.6751Z" fill="#0052B4"/>
<path d="M21.1793 21.6758H21.2352C21.2352 21.657 21.2352 21.6387 21.2352 21.6199C21.2166 21.6386 21.198 21.6572 21.1793 21.6758Z" fill="#F0F0F0"/>
<path d="M21.2353 11.687C21.2353 8.01226 21.2353 5.60442 21.2353 0.790771H21.2318C9.69907 0.792729 0.350708 10.1422 0.350708 21.6753H11.247V15.5396L17.3827 21.6753H21.1795C21.1981 21.6567 21.2167 21.6381 21.2353 21.6194C21.2353 20.2124 21.2353 18.957 21.2353 17.8229L15.0994 11.687H21.2353Z" fill="#F0F0F0"/>
<path d="M10.9166 3.51416C7.6502 5.37411 4.93464 8.08959 3.07477 11.356V21.6747H8.52294V8.9625V8.96234H21.2353C21.2353 7.24401 21.2353 5.60702 21.2353 3.51416H10.9166Z" fill="#D80027"/>
<path d="M21.2351 19.106L13.815 11.686H11.2468V11.6862L21.2349 21.6742H21.2351C21.2351 21.6742 21.2351 19.9034 21.2351 19.106Z" fill="#D80027"/>
<path d="M23.9596 11.6873V21.6755C23.9596 26.5409 30.3158 28.0317 30.3158 28.0317C30.3158 28.0317 36.6719 26.5409 36.6719 21.6755V11.6873H23.9596Z" fill="#FFDA44"/>
<path d="M29.4083 15.32C29.4083 16.3232 28.5951 18.9528 27.5919 18.9528C26.5887 18.9528 25.7755 16.3232 25.7755 15.32C25.7755 14.3168 27.5919 13.5037 27.5919 13.5037C27.5919 13.5037 29.4083 14.3168 29.4083 15.32Z" fill="#FF9811"/>
<path d="M34.2268 17.2983C34.5199 16.5831 34.7479 15.5377 34.7479 15.0173C34.7479 14.1813 33.6581 13.5037 33.6581 13.5037C33.6581 13.5037 32.5682 14.1814 32.5682 15.0173C32.5682 15.5377 32.7962 16.5831 33.0893 17.2983L32.4601 18.7189C32.8299 18.8692 33.2341 18.9527 33.658 18.9527C34.0819 18.9527 34.4861 18.8692 34.8559 18.7189L34.2268 17.2983Z" fill="#A2001D"/>
<path d="M28.9537 21.6755C28.9537 21.6755 28.0455 23.4919 28.0455 25.3082H32.5864C32.5863 23.4919 31.6782 21.6755 31.6782 21.6755L30.3159 20.7673L28.9537 21.6755Z" fill="#6DA544"/>
<path d="M31.678 21.6753V21.2212C31.678 20.4689 31.0681 19.8589 30.3157 19.8589C29.5634 19.8589 28.9534 20.4688 28.9534 21.2212V21.6753H31.678Z" fill="#D80027"/>
</g>
<defs>
<clipPath id="clip0_299_4167">
<rect width="41.7691" height="41.7691" fill="white" transform="translate(0.351196 0.790771)"/>
</clipPath>
</defs>
</svg>
