<svg width="43" height="43" viewBox="0 0 43 43" fill="none" xmlns="http://www.w3.org/2000/svg">
<g clip-path="url(#clip0_299_4139)">
<path d="M21.8344 0.790283C20.275 0.790283 18.7561 0.962662 17.2943 1.2867L16.3864 21.6748L17.2943 42.0629C18.7562 42.3869 20.2751 42.5594 21.8344 42.5594C33.3686 42.5594 42.7189 33.209 42.7189 21.6748C42.7188 10.1406 33.3686 0.790283 21.8344 0.790283V0.790283Z" fill="#496E2D"/>
<path d="M6.39792 7.60791C3.01365 11.3195 0.949829 16.2559 0.949829 21.6746C0.949829 27.0934 3.01373 32.0298 6.39801 35.7415L7.30599 21.6746L6.39792 7.60791Z" fill="#496E2D"/>
<path d="M31.4953 16.5433C32.5229 13.6793 31.3685 10.5645 28.8911 9.01318C29.3367 9.07119 29.7828 9.1761 30.223 9.33396C33.5273 10.5195 35.2449 14.1589 34.0593 17.4631C32.8738 20.7675 29.2344 22.4849 25.9301 21.2994C25.4898 21.1415 25.0787 20.9388 24.698 20.7003C27.5965 21.0778 30.4678 19.4072 31.4953 16.5433Z" fill="#F0F0F0"/>
<path d="M25.7971 8.22827L24.9041 9.38218L23.5309 8.88943L24.3522 10.0952L23.4594 11.249L24.8599 10.8405L25.6814 12.0462L25.7255 10.5879L27.1261 10.1794L25.753 9.68677L25.7971 8.22827Z" fill="#F0F0F0"/>
<path d="M28.208 11.988L27.315 13.1419L25.9417 12.6491L26.7631 13.8549L25.8702 15.0087L27.2707 14.6L28.0922 15.8059L28.1365 14.3476L29.537 13.939L28.1638 13.4463L28.208 11.988Z" fill="#F0F0F0"/>
<path d="M21.5463 9.59741L20.6533 10.7512L19.2801 10.2586L20.1015 11.4643L19.2086 12.6181L20.609 12.2096L21.4305 13.4153L21.4748 11.957L22.8753 11.5485L21.5022 11.0558L21.5463 9.59741Z" fill="#F0F0F0"/>
<path d="M21.4484 13.9031L20.5555 15.0569L19.1822 14.5642L20.0037 15.77L19.1106 16.9238L20.5113 16.5153L21.3327 17.721L21.3769 16.2627L22.7775 15.8542L21.4042 15.3614L21.4484 13.9031Z" fill="#F0F0F0"/>
<path d="M25.5459 15.3738L24.6529 16.5275L23.2797 16.0349L24.1012 17.2407L23.2081 18.3943L24.6088 17.9859L25.4302 19.1917L25.4744 17.7332L26.875 17.3248L25.5017 16.8321L25.5459 15.3738Z" fill="#F0F0F0"/>
<path d="M6.39807 7.60795V35.7415C9.24359 38.8623 13.0232 41.1159 17.2943 42.0627V1.28662C13.0231 2.23344 9.24367 4.4871 6.39807 7.60795Z" fill="#D80027"/>
<path d="M10.556 11.7869L8.73181 10.4279V8.5061L10.556 7.14722H13.136L14.9602 8.5061V10.4279L13.136 11.7869H10.556Z" fill="#F0F0F0"/>
<path d="M11.8471 7.14624H10.5568L8.7323 8.50536V9.44508H11.8471V7.14624Z" fill="#FF9811"/>
<path d="M11.8463 11.7865H13.1365L14.961 10.4273V9.44678H11.8463V11.7865Z" fill="#FF9811"/>
<path d="M10.556 36.2029L8.73181 34.8439V32.9222L10.556 31.5632H13.136L14.9602 32.9222V34.8439L13.136 36.2029H10.556Z" fill="#F0F0F0"/>
<path d="M11.8465 31.564H10.5562L8.73169 32.9232V33.8629H11.8465V31.564Z" fill="#FF9811"/>
<path d="M11.8459 36.2044H13.1361L14.9607 34.8452V33.8647H11.8459V36.2044Z" fill="#FF9811"/>
<path d="M10.5565 23.9939L8.7323 22.6349V20.7132L10.5565 19.3542H13.1365L14.9607 20.7132V22.6349L13.1365 23.9939H10.5565Z" fill="#496E2D"/>
<path d="M15.0244 26.9847H14.2298V26.1902H12.8336L11.8463 25.2029L10.8591 26.1902H9.46285V26.9847H8.66833V28.5737H9.46285V29.3682H10.859L11.8464 30.3556L12.8336 29.3682H14.2298V28.5737H15.0244V26.9847Z" fill="#496E2D"/>
<path d="M15.0244 14.7758H14.2298V13.9812H12.8336L11.8463 12.9939L10.8591 13.9812H9.46285V14.7758H8.66833V16.3648H9.46285V17.1593H10.859L11.8464 18.1468L12.8336 17.1593H14.2298V16.3648H15.0244V14.7758Z" fill="#496E2D"/>
<path d="M10.9382 20.7664H12.7546V22.5827H10.9382V20.7664Z" fill="#D80027"/>
<path d="M11.8464 16.4782C12.3479 16.4782 12.7545 16.0716 12.7545 15.57C12.7545 15.0685 12.3479 14.6619 11.8464 14.6619C11.3448 14.6619 10.9382 15.0685 10.9382 15.57C10.9382 16.0716 11.3448 16.4782 11.8464 16.4782Z" fill="#D80027"/>
<path d="M11.8464 28.6871C12.3479 28.6871 12.7545 28.2806 12.7545 27.779C12.7545 27.2774 12.3479 26.8708 11.8464 26.8708C11.3448 26.8708 10.9382 27.2774 10.9382 27.779C10.9382 28.2806 11.3448 28.6871 11.8464 28.6871Z" fill="#D80027"/>
</g>
<defs>
<clipPath id="clip0_299_4139">
<rect width="41.7691" height="41.7691" fill="white" transform="translate(0.950073 0.790771)"/>
</clipPath>
</defs>
</svg>
