<svg width="43" height="43" viewBox="0 0 43 43" fill="none" xmlns="http://www.w3.org/2000/svg">
<g clip-path="url(#clip0_299_4181)">
<path d="M42.5219 21.6751C42.5219 33.2092 33.1714 42.5596 21.6374 42.5596C10.1032 42.5596 0.752747 33.2092 0.752747 21.6751C0.752747 21.6801 21.6374 0.792812 21.6374 0.790527C33.1714 0.790527 42.5219 10.1409 42.5219 21.6751Z" fill="#338AF3"/>
<path d="M10.7407 21.6748H17.7845L11.6487 14.4106L10.7407 17.1347V21.6748Z" fill="#0052B4"/>
<path d="M21.637 17.8227L14.3727 10.7788H21.6369L21.637 17.8227Z" fill="#0052B4"/>
<path d="M21.5814 21.6758H21.6373C21.6373 21.657 21.6373 21.6387 21.6373 21.6199C21.6187 21.6386 21.6001 21.6572 21.5814 21.6758Z" fill="#F0F0F0"/>
<path d="M21.6374 11.687C21.6374 8.01226 21.6374 5.60433 21.6374 0.790771H21.6339C10.1013 0.792729 0.752808 10.1422 0.752808 21.6753H11.6492V15.5396L17.7849 21.6753H21.5816C21.6002 21.6567 21.6188 21.6381 21.6375 21.6194C21.6375 20.2124 21.6375 18.957 21.6375 17.8229L15.5015 11.687H21.6374Z" fill="#F0F0F0"/>
<path d="M11.3182 3.51514C8.05181 5.37509 5.33633 8.09057 3.47638 11.357V21.6756H8.92456V8.96348V8.96331H21.6369C21.6369 7.24499 21.6369 5.608 21.6369 3.51514H11.3182Z" fill="#D80027"/>
<path d="M21.637 19.1072L14.2169 11.6873H11.6487V11.6874L21.6369 21.6755H21.637C21.637 21.6755 21.637 19.9046 21.637 19.1072Z" fill="#D80027"/>
<path d="M23.5469 35.2957L23.9978 36.6833H25.4568L24.2765 37.5408L24.7274 38.9283L23.5469 38.0708L22.3666 38.9283L22.8175 37.5408L21.6371 36.6833H23.096L23.5469 35.2957Z" fill="#FFDA44"/>
<path d="M35.1642 26.2156L35.615 27.6032H37.074L35.8937 28.4608L36.3447 29.8483L35.1642 28.9908L33.9839 29.8483L34.4348 28.4608L33.2543 27.6032H34.7133L35.1642 26.2156Z" fill="#FFDA44"/>
<path d="M38.0753 12.5955L38.5262 13.9831H39.9851L38.8049 14.8406L39.2557 16.2281L38.0753 15.3707L36.895 16.2281L37.3459 14.8406L36.1655 13.9831H37.6245L38.0753 12.5955Z" fill="#FFDA44"/>
<path d="M38.7965 22.5837L39.2473 23.9714H40.7063L39.526 24.829L39.9769 26.2165L38.7965 25.359L37.6162 26.2165L38.0671 24.829L36.8866 23.9714H38.3456L38.7965 22.5837Z" fill="#FFDA44"/>
<path d="M25.6383 32.033L26.9385 32.6954L27.9701 31.6638L27.742 33.1047L29.0418 33.7671L27.6007 33.9954L27.3725 35.4364L26.7103 34.1364L25.2692 34.3648L26.3008 33.3332L25.6383 32.033Z" fill="#FFDA44"/>
<path d="M25.6385 26.5848L26.9387 27.2472L27.9703 26.2156L27.7422 27.6565L29.0421 28.3188L27.601 28.5471L27.3728 29.9882L26.7105 28.6882L25.2694 28.9165L26.301 27.8849L25.6385 26.5848Z" fill="#FFDA44"/>
<path d="M30.1781 30.0779L31.4783 30.7403L32.5099 29.7087L32.2818 31.1496L33.5816 31.812L32.1405 32.0403L31.9123 33.4813L31.2501 32.1812L29.809 32.4097L30.8406 31.3781L30.1781 30.0779Z" fill="#FFDA44"/>
<path d="M30.1781 18.4129L31.4783 19.0753L32.5099 18.0437L32.2818 19.4847L33.5816 20.147L32.1405 20.3753L31.9123 21.8163L31.2501 20.5163L29.809 20.7446L30.8406 19.713L30.1781 18.4129Z" fill="#FFDA44"/>
<path d="M34.579 18.2723L35.8792 18.9347L36.9108 17.9031L36.6826 19.344L37.9825 20.0063L36.5414 20.2346L36.3132 21.6757L35.651 20.3757L34.2098 20.604L35.2414 19.5724L34.579 18.2723Z" fill="#FFDA44"/>
</g>
<defs>
<clipPath id="clip0_299_4181">
<rect width="41.7691" height="41.7691" fill="white" transform="translate(0.752319 0.790771)"/>
</clipPath>
</defs>
</svg>
