<svg width="42" height="43" viewBox="0 0 42 43" fill="none" xmlns="http://www.w3.org/2000/svg">
<g clip-path="url(#clip0_299_4203)">
<path d="M36.6034 35.5974C39.9109 31.9025 41.923 27.0238 41.923 21.6744C41.923 16.325 39.9109 11.4463 36.6033 7.75135L21.0385 6.23804L5.47362 7.75135C2.16611 11.4463 0.153931 16.325 0.153931 21.6744C0.153931 27.0238 2.16603 31.9025 5.47354 35.5974L21.0385 37.1108L36.6034 35.5974Z" fill="#FFDA44"/>
<path d="M5.47339 7.75202H36.6032C32.7791 3.4799 27.2231 0.790527 21.0383 0.790527C14.8534 0.790527 9.29738 3.4799 5.47339 7.75202Z" fill="black"/>
<path d="M0.15387 21.6752L21.0384 23.4913L41.923 21.6752C41.923 19.234 41.5028 16.8912 40.7329 14.7136H1.34396C0.57409 16.8912 0.15387 19.234 0.15387 21.6752H0.15387Z" fill="#D80027"/>
<path d="M1.34396 28.6363H40.733C41.5028 26.4588 41.923 24.116 41.923 21.6748H0.15387C0.15387 24.116 0.57409 26.4588 1.34396 28.6363Z" fill="black"/>
<path d="M36.6033 35.5981H5.47339C9.29738 39.8703 14.8534 42.5597 21.0383 42.5597C27.2233 42.5597 32.7793 39.8703 36.6033 35.5981Z" fill="#D80027"/>
<path d="M28.0074 21.6751C28.0074 25.5243 24.8875 28.6442 21.0383 28.6442C17.1891 28.6442 14.0692 25.5243 14.0692 21.6751C14.0692 17.8259 17.1891 14.7061 21.0383 14.7061C24.8875 14.7061 28.0074 17.8259 28.0074 21.6751Z" fill="#F0F0F0"/>
<path d="M23.5913 22.0306L21.0382 20.9243C21.0382 20.9243 21.6356 18.9416 21.6674 18.806C21.6906 18.7068 21.703 18.6035 21.703 18.4973C21.703 18.1211 21.5506 17.7806 21.304 17.5342L21.9461 16.8922C21.5353 16.4814 20.9678 16.2273 20.3409 16.2273C19.714 16.2273 19.1465 16.4813 18.7357 16.8922L19.3778 17.5342C19.1312 17.7807 18.9788 18.1212 18.9788 18.4973C18.9788 18.6348 18.9996 18.7674 19.0376 18.8926L18.0709 19.8592H19.8278C19.8278 19.8592 19.1014 20.9502 18.7049 21.8462C18.3083 22.7421 18.7103 23.8359 19.6268 24.2433L20.1568 24.4788L21.0382 25.3073V26.2153L20.1303 27.1233H21.9463V25.3073L22.7749 24.4787H24.4888C24.497 24.4616 24.5056 24.445 24.5135 24.4275C24.9206 23.5111 24.5079 22.4378 23.5913 22.0306Z" fill="black"/>
</g>
<defs>
<clipPath id="clip0_299_4203">
<rect width="41.7691" height="41.7691" fill="white" transform="translate(0.153442 0.790771)"/>
</clipPath>
</defs>
</svg>
