<svg width="43" height="43" viewBox="0 0 43 43" fill="none" xmlns="http://www.w3.org/2000/svg">
<g clip-path="url(#clip0_299_4236)">
<path d="M21.6431 42.5596C33.1773 42.5596 42.5276 33.2093 42.5276 21.6751C42.5276 10.1409 33.1773 0.790527 21.6431 0.790527C10.1089 0.790527 0.758545 10.1409 0.758545 21.6751C0.758545 33.2093 10.1089 42.5596 21.6431 42.5596Z" fill="#338AF3"/>
<path d="M21.5826 14.4114C17.5706 14.4114 14.3185 17.6637 14.3185 21.6755C14.3185 25.6874 17.5707 28.9397 21.5826 28.9397C25.5944 28.9397 28.8468 25.6874 28.8468 21.6755C28.8468 17.6637 25.5943 14.4114 21.5826 14.4114ZM19.7666 21.6755C19.7666 20.6726 20.5796 19.8595 21.5826 19.8595C22.5856 19.8595 23.3987 20.6726 23.3987 21.6755C23.3987 22.6786 22.5856 23.4916 21.5826 23.4916C20.5796 23.4916 19.7666 22.6786 19.7666 21.6755ZM23.4655 18.569C23.1836 18.3978 22.8764 18.2648 22.5511 18.175V16.315C23.3702 16.462 24.1255 16.7915 24.7737 17.2609L23.4655 18.569ZM20.7351 18.1439C20.3943 18.2254 20.0724 18.3549 19.7766 18.5248L18.4624 17.2106C19.1267 16.7454 19.8991 16.424 20.7351 16.2933V18.1439ZM19.7765 24.8262C20.0723 24.9961 20.3943 25.1256 20.735 25.2071V27.0576C19.899 26.927 19.1267 26.6055 18.4624 26.1403L19.7765 24.8262ZM22.5512 25.1761C22.8764 25.0862 23.1838 24.9533 23.4655 24.7821L24.7736 26.0902C24.1254 26.5596 23.3702 26.8892 22.5511 27.0362V25.1761H22.5512V25.1761ZM24.7333 23.4817C24.8932 23.2033 25.0183 22.9021 25.1003 22.5836H26.954C26.8176 23.3963 26.5015 24.1476 26.0476 24.7958L24.7333 23.4817ZM25.1003 20.7675C25.0183 20.449 24.8932 20.148 24.7333 19.8695L26.0475 18.5552C26.5014 19.2036 26.8176 19.9548 26.9539 20.7675H25.1002V20.7675H25.1003ZM17.1679 18.4845L18.4761 19.7927C18.2942 20.0921 18.1545 20.4197 18.0649 20.7675H16.2112C16.3526 19.9251 16.687 19.1487 17.1679 18.4845ZM16.2112 22.5835H18.0649C18.1544 22.9314 18.2941 23.259 18.4761 23.5584L17.1679 24.8665C16.687 24.2024 16.3526 23.426 16.2112 22.5835Z" fill="#F0F0F0"/>
<path d="M33.3868 21.675C33.3868 18.4461 32.0899 15.5205 29.9892 13.3893L28.063 15.3155C29.6708 16.9536 30.6628 19.1984 30.6628 21.675C30.6628 26.6899 26.5974 30.7552 21.5826 30.7552C16.5676 30.7552 12.5024 26.6899 12.5024 21.675C12.5024 19.1675 13.5186 16.8974 15.1619 15.2543L13.2357 13.3281C11.0995 15.4643 9.77832 18.4154 9.77832 21.675C9.77832 27.0768 13.4068 31.6312 18.3594 33.0338C17.8164 34.0653 17.8991 35.364 18.6748 36.332C19.6936 35.5155 20.7483 34.6702 21.6431 33.9533C22.5379 34.6703 23.5927 35.5155 24.6114 36.332C25.3947 35.3544 25.4718 34.0392 24.9108 33.0028C29.8093 31.5657 33.3868 27.0385 33.3868 21.675Z" fill="#F0F0F0"/>
</g>
<defs>
<clipPath id="clip0_299_4236">
<rect width="41.7691" height="41.7691" fill="white" transform="translate(0.758667 0.790771)"/>
</clipPath>
</defs>
</svg>
