<svg width="42" height="42" viewBox="0 0 42 42" fill="none" xmlns="http://www.w3.org/2000/svg">
<g clip-path="url(#clip0_299_4241)">
<path d="M21.0325 41.9615C32.5667 41.9615 41.9171 32.6112 41.9171 21.0769C41.9171 9.54272 32.5667 0.192383 21.0325 0.192383C9.49828 0.192383 0.147949 9.54272 0.147949 21.0769C0.147949 32.6112 9.49828 41.9615 21.0325 41.9615Z" fill="#F0F0F0"/>
<path d="M20.1238 21.0759H41.9164C41.9164 19.1909 41.6651 17.3648 41.1969 15.6277H20.1238V21.0759Z" fill="#D80027"/>
<path d="M20.1238 10.1796H38.8511C37.5726 8.09345 35.938 6.24949 34.0321 4.73145H20.1238V10.1796Z" fill="#D80027"/>
<path d="M21.032 41.96C25.9471 41.96 30.4648 40.2612 34.0323 37.4199H8.03171C11.5992 40.2612 16.1169 41.96 21.032 41.96Z" fill="#D80027"/>
<path d="M3.21251 31.9726H38.851C39.8774 30.2978 40.6734 28.4672 41.1969 26.5244H0.866669C1.39017 28.4672 2.18615 30.2978 3.21251 31.9726Z" fill="#D80027"/>
<path d="M9.82207 3.4538H11.7253L9.95496 4.73991L10.6312 6.82094L8.86097 5.53483L7.09076 6.82094L7.67487 5.02316C6.1162 6.32151 4.75006 7.84266 3.62425 9.53757H4.23406L3.10719 10.3562C2.93163 10.6491 2.76325 10.9466 2.60188 11.2485L3.13999 12.9047L2.13606 12.1753C1.88651 12.704 1.65824 13.2447 1.45307 13.7965L2.04591 15.6213H4.23406L2.46377 16.9074L3.13999 18.9885L1.36978 17.7024L0.309397 18.4728C0.203261 19.326 0.147949 20.195 0.147949 21.0769H21.0325C21.0325 9.54279 21.0325 8.18301 21.0325 0.192383C16.9068 0.192383 13.0609 1.38917 9.82207 3.4538ZM10.6312 18.9885L8.86097 17.7024L7.09076 18.9885L7.76698 16.9074L5.99668 15.6213H8.18483L8.86097 13.5403L9.53711 15.6213H11.7253L9.95496 16.9074L10.6312 18.9885ZM9.95496 10.8237L10.6312 12.9047L8.86097 11.6186L7.09076 12.9047L7.76698 10.8237L5.99668 9.53757H8.18483L8.86097 7.45654L9.53711 9.53757H11.7253L9.95496 10.8237ZM18.1224 18.9885L16.3522 17.7024L14.5819 18.9885L15.2582 16.9074L13.4879 15.6213H15.676L16.3522 13.5403L17.0283 15.6213H19.2164L17.4461 16.9074L18.1224 18.9885ZM17.4461 10.8237L18.1224 12.9047L16.3522 11.6186L14.5819 12.9047L15.2582 10.8237L13.4879 9.53757H15.676L16.3522 7.45654L17.0283 9.53757H19.2164L17.4461 10.8237ZM17.4461 4.73991L18.1224 6.82094L16.3522 5.53483L14.5819 6.82094L15.2582 4.73991L13.4879 3.4538H15.676L16.3522 1.37277L17.0283 3.4538H19.2164L17.4461 4.73991Z" fill="#0052B4"/>
</g>
<defs>
<clipPath id="clip0_299_4241">
<rect width="41.7691" height="41.7691" fill="white" transform="translate(0.147461 0.192383)"/>
</clipPath>
</defs>
</svg>
