<svg width="43" height="43" viewBox="0 0 43 43" fill="none" xmlns="http://www.w3.org/2000/svg">
<g clip-path="url(#clip0_299_4219)">
<path d="M21.242 42.5596C32.7762 42.5596 42.1265 33.2093 42.1265 21.6751C42.1265 10.1409 32.7762 0.790527 21.242 0.790527C9.70775 0.790527 0.357422 10.1409 0.357422 21.6751C0.357422 33.2093 9.70775 42.5596 21.242 42.5596Z" fill="#F0F0F0"/>
<path d="M4.6748 8.96021C3.0343 11.0946 1.7973 13.5546 1.07703 16.2271H11.9417L4.6748 8.96021Z" fill="#0052B4"/>
<path d="M41.4071 16.2271C40.6869 13.5546 39.4498 11.0946 37.8094 8.96021L30.5426 16.2271H41.4071Z" fill="#0052B4"/>
<path d="M1.07703 27.1235C1.79738 29.7959 3.03438 32.256 4.6748 34.3903L11.9415 27.1235H1.07703Z" fill="#0052B4"/>
<path d="M33.957 5.10786C31.8226 3.46737 29.3627 2.23036 26.6902 1.51001V12.3746L33.957 5.10786Z" fill="#0052B4"/>
<path d="M8.52747 38.2428C10.6619 39.8833 13.1219 41.1203 15.7943 41.8406V30.9761L8.52747 38.2428Z" fill="#0052B4"/>
<path d="M15.7942 1.51025C13.1218 2.23061 10.6618 3.46761 8.52747 5.10803L15.7942 12.3748V1.51025Z" fill="#0052B4"/>
<path d="M26.6904 41.8404C29.3628 41.12 31.8229 39.883 33.9572 38.2426L26.6904 30.9758V41.8404Z" fill="#0052B4"/>
<path d="M30.5426 27.1235L37.8094 34.3904C39.4498 32.2561 40.6869 29.7959 41.4071 27.1235H30.5426Z" fill="#0052B4"/>
<path d="M41.9495 18.951H23.9659H23.9659V0.967312C23.0741 0.851223 22.165 0.790527 21.2417 0.790527C20.3183 0.790527 19.4094 0.851223 18.5177 0.967312V18.9509V18.951H0.533962C0.417873 19.8427 0.357178 20.7518 0.357178 21.6751C0.357178 22.5985 0.417873 23.5075 0.533962 24.3991H18.5175H18.5176V42.3828C19.4094 42.4989 20.3183 42.5596 21.2417 42.5596C22.165 42.5596 23.0741 42.499 23.9658 42.3828V24.3993V24.3992H41.9495C42.0656 23.5075 42.1263 22.5985 42.1263 21.6751C42.1263 20.7518 42.0656 19.8427 41.9495 18.951Z" fill="#D80027"/>
<path d="M26.6897 27.1226L36.0091 36.442C36.4377 36.0136 36.8466 35.5656 37.2367 35.1013L29.258 27.1226H26.6897V27.1226Z" fill="#D80027"/>
<path d="M15.7934 27.1226H15.7932L6.47388 36.4419C6.90234 36.8705 7.35029 37.2794 7.81465 37.6695L15.7934 29.6906V27.1226Z" fill="#D80027"/>
<path d="M15.7934 16.2274V16.2272L6.47396 6.90771C6.04534 7.33617 5.63645 7.78413 5.24634 8.24849L13.2251 16.2273H15.7934V16.2274Z" fill="#D80027"/>
<path d="M26.6897 16.2263L36.0092 6.90674C35.5807 6.47812 35.1328 6.06923 34.6684 5.6792L26.6897 13.658V16.2263Z" fill="#D80027"/>
</g>
<defs>
<clipPath id="clip0_299_4219">
<rect width="41.7691" height="41.7691" fill="white" transform="translate(0.357422 0.790771)"/>
</clipPath>
</defs>
</svg>
