<svg width="43" height="43" viewBox="0 0 43 43" fill="none" xmlns="http://www.w3.org/2000/svg">
<g clip-path="url(#clip0_299_4214)">
<path d="M21.8406 42.5596C33.3748 42.5596 42.7252 33.2093 42.7252 21.6751C42.7252 10.1409 33.3748 0.790527 21.8406 0.790527C10.3064 0.790527 0.956055 10.1409 0.956055 21.6751C0.956055 33.2093 10.3064 42.5596 21.8406 42.5596Z" fill="#F0F0F0"/>
<path d="M12.7603 28.9392L14.5763 41.2608C16.8387 42.1003 19.2859 42.5596 21.8405 42.5596C30.82 42.5596 38.4752 36.8921 41.4259 28.9392H12.7603Z" fill="black"/>
<path d="M12.7603 14.4109L14.5763 2.08937C16.8387 1.24982 19.2859 0.790527 21.8405 0.790527C30.82 0.790527 38.4752 6.45807 41.4259 14.4109H12.7603Z" fill="#6DA544"/>
<path d="M0.956055 21.6752C0.956055 30.6548 6.62368 38.3099 14.5765 41.2607V2.0896C6.62368 5.04044 0.956055 12.6955 0.956055 21.6752Z" fill="#A2001D"/>
</g>
<defs>
<clipPath id="clip0_299_4214">
<rect width="41.7691" height="41.7691" fill="white" transform="translate(0.956055 0.790771)"/>
</clipPath>
</defs>
</svg>
