<svg width="43" height="42" viewBox="0 0 43 42" fill="none" xmlns="http://www.w3.org/2000/svg">
<g clip-path="url(#clip0_299_4249)">
<path d="M21.4334 41.9283C32.9676 41.9283 42.3179 32.578 42.3179 21.0437C42.3179 9.50951 32.9676 0.15918 21.4334 0.15918C9.89916 0.15918 0.548828 9.50951 0.548828 21.0437C0.548828 32.578 9.89916 41.9283 21.4334 41.9283Z" fill="#F0F0F0"/>
<path d="M21.4336 15.5956H41.5987C41.075 13.6529 40.2791 11.8221 39.2528 10.1475H21.4336V15.5956Z" fill="#338AF3"/>
<path d="M8.43251 37.3876H34.4332C36.3392 35.8696 37.9737 34.0257 39.2521 31.9395H3.61365C4.89209 34.0256 6.52663 35.8696 8.43251 37.3876Z" fill="#338AF3"/>
<path d="M21.433 0.158203V4.69831H34.4334C30.8659 1.85703 26.3482 0.158203 21.433 0.158203Z" fill="#338AF3"/>
<path d="M21.4335 15.5949H41.5986C41.075 13.6522 40.2791 11.8214 39.2528 10.1467H21.4335V15.5949Z" fill="#338AF3"/>
<path d="M0.548828 21.043C0.548828 22.928 0.800095 24.754 1.26828 26.4911H41.5986C42.0667 24.754 42.3179 22.928 42.3179 21.043H0.548828Z" fill="#338AF3"/>
<path d="M18.7092 12.381L16.1585 13.5808L17.5167 16.0511L14.7471 15.5213L14.3961 18.3191L12.4671 16.2613L10.5379 18.3191L10.187 15.5213L7.41735 16.0509L8.7755 13.5807L6.22498 12.381L8.77558 11.1814L7.41735 8.71113L10.1869 9.24091L10.538 6.44312L12.4671 8.5009L14.3962 6.44312L14.7471 9.24091L17.5168 8.71113L16.1586 11.1815L18.7092 12.381Z" fill="#FFDA44"/>
</g>
<defs>
<clipPath id="clip0_299_4249">
<rect width="41.7691" height="41.7691" fill="white" transform="translate(0.548828 0.158203)"/>
</clipPath>
</defs>
</svg>
