<svg width="43" height="42" viewBox="0 0 43 42" fill="none" xmlns="http://www.w3.org/2000/svg">
<g clip-path="url(#clip0_299_4259)">
<path d="M1.93622 14.7206C1.29646 16.7248 0.949992 18.86 0.950073 21.0765C0.949992 23.293 1.29654 25.4284 1.9363 27.4327L21.8346 28.3408L41.733 27.4328C42.3726 25.4285 42.7193 23.293 42.7193 21.0767C42.7192 18.8601 42.3727 16.7248 41.733 14.7205L21.8346 13.8125L1.93622 14.7206Z" fill="#F0F0F0"/>
<path d="M41.7329 14.7205L21.8345 13.8125L1.93612 14.7205C1.74652 15.3147 1.58328 15.9206 1.44647 16.5365H42.2223C42.0856 15.9205 41.9225 15.3146 41.7329 14.7205Z" fill="#D80027"/>
<path d="M1.44696 25.6162C1.58361 26.2321 1.74685 26.838 1.93644 27.4322L1.9384 27.4323L21.8347 28.3403L41.733 27.4323C41.9226 26.838 42.0859 26.2321 42.2226 25.6162H1.44696Z" fill="#D80027"/>
<path d="M21.8345 41.9608C31.1523 41.9608 39.0436 35.8583 41.7329 27.4324H1.93628C4.62557 35.8582 12.517 41.9608 21.8345 41.9608Z" fill="#6DA544"/>
<path d="M21.8344 0.192383C12.5168 0.192464 4.62549 6.29491 1.93604 14.7208L41.7326 14.7209C39.0435 6.29483 31.1521 0.192301 21.8344 0.192383Z" fill="#338AF3"/>
<path d="M10.4939 8.81845C10.4939 6.8624 11.8686 5.22835 13.7045 4.82746C13.4223 4.76579 13.1296 4.73242 12.8288 4.73242C10.5722 4.73242 8.74274 6.56178 8.74274 8.81853C8.74274 11.0753 10.572 12.9046 12.8288 12.9046C13.1296 12.9046 13.4223 12.8712 13.7045 12.8096C11.8687 12.4086 10.4939 10.7745 10.4939 8.81845Z" fill="#F0F0F0"/>
<path d="M16.1198 10.6758L16.3964 11.5272H17.2917L16.5675 12.0535L16.8441 12.9049L16.1198 12.3787L15.3954 12.9049L15.6721 12.0535L14.9478 11.5272H15.8431L16.1198 10.6758Z" fill="#F0F0F0"/>
<path d="M18.9766 10.6758L19.2533 11.5272H20.1485L19.4242 12.0535L19.7009 12.9049L18.9766 12.3787L18.2523 12.9049L18.529 12.0535L17.8047 11.5272H18.6999L18.9766 10.6758Z" fill="#F0F0F0"/>
<path d="M21.8337 10.6758L22.1103 11.5272H23.0056L22.2813 12.0535L22.5579 12.9049L21.8337 12.3787L21.1093 12.9049L21.3861 12.0535L20.6617 11.5272H21.557L21.8337 10.6758Z" fill="#F0F0F0"/>
<path d="M24.6906 10.6758L24.9673 11.5272H25.8625L25.1383 12.0535L25.415 12.9049L24.6906 12.3787L23.9662 12.9049L24.243 12.0535L23.5186 11.5272H24.4139L24.6906 10.6758Z" fill="#F0F0F0"/>
<path d="M27.5479 10.6758L27.8246 11.5272H28.7198L27.9956 12.0535L28.2723 12.9049L27.5479 12.3787L26.8236 12.9049L27.1003 12.0535L26.376 11.5272H27.2712L27.5479 10.6758Z" fill="#F0F0F0"/>
<path d="M18.9766 7.7041L19.2533 8.55546H20.1485L19.4242 9.08182L19.7009 9.93318L18.9766 9.40698L18.2523 9.93318L18.529 9.08182L17.8047 8.55546H18.6999L18.9766 7.7041Z" fill="#F0F0F0"/>
<path d="M21.8337 7.7041L22.1103 8.55546H23.0056L22.2813 9.08182L22.5579 9.93318L21.8337 9.40698L21.1093 9.93318L21.3861 9.08182L20.6617 8.55546H21.557L21.8337 7.7041Z" fill="#F0F0F0"/>
<path d="M24.6906 7.7041L24.9673 8.55546H25.8625L25.1383 9.08182L25.415 9.93318L24.6906 9.40698L23.9662 9.93318L24.243 9.08182L23.5186 8.55546H24.4139L24.6906 7.7041Z" fill="#F0F0F0"/>
<path d="M27.5479 7.7041L27.8246 8.55546H28.7198L27.9956 9.08182L28.2723 9.93318L27.5479 9.40698L26.8236 9.93318L27.1003 9.08182L26.376 8.55546H27.2712L27.5479 7.7041Z" fill="#F0F0F0"/>
<path d="M21.8337 4.73145L22.1103 5.58297H23.0056L22.2813 6.10917L22.5579 6.96069L21.8337 6.43449L21.1093 6.96069L21.3861 6.10917L20.6617 5.58297H21.557L21.8337 4.73145Z" fill="#F0F0F0"/>
<path d="M24.6906 4.73145L24.9673 5.58297H25.8625L25.1383 6.10917L25.415 6.96069L24.6906 6.43449L23.9662 6.96069L24.243 6.10917L23.5186 5.58297H24.4139L24.6906 4.73145Z" fill="#F0F0F0"/>
<path d="M27.5477 4.73145L27.8244 5.58297H28.7197L27.9954 6.10917L28.2721 6.96069L27.5477 6.43449L26.8234 6.96069L27.1001 6.10917L26.3759 5.58297H27.271L27.5477 4.73145Z" fill="#F0F0F0"/>
</g>
<defs>
<clipPath id="clip0_299_4259">
<rect width="41.7691" height="41.7691" fill="white" transform="translate(0.950195 0.192383)"/>
</clipPath>
</defs>
</svg>
