<svg width="43" height="42" viewBox="0 0 43 42" fill="none" xmlns="http://www.w3.org/2000/svg">
<g clip-path="url(#clip0_299_4280)">
<path d="M42.1196 21.0772C42.1196 20.154 42.059 19.2449 41.9428 18.3532H18.5108C14.244 14.0867 6.46707 6.31022 6.4674 6.30957C-1.68851 14.4655 -1.68851 27.6888 6.4674 35.8449L18.511 23.8014H41.9428C42.0589 22.9096 42.1196 22.0005 42.1196 21.0772Z" fill="black"/>
<path d="M42.114 21.5518C42.1131 21.5921 42.1122 21.6325 42.111 21.6728C42.112 21.6324 42.113 21.5921 42.114 21.5518Z" fill="#F0F0F0"/>
<path d="M42.0944 22.123C42.0925 22.1629 42.0897 22.2027 42.0876 22.2425C42.0897 22.2028 42.0923 22.1629 42.0944 22.123Z" fill="#F0F0F0"/>
<path d="M42.0658 22.5781C42.0617 22.6368 42.0576 22.6955 42.0529 22.754C42.0576 22.6955 42.0616 22.6368 42.0658 22.5781Z" fill="#F0F0F0"/>
<path d="M41.9958 18.8008C42.0035 18.8706 42.0111 18.9404 42.0181 19.0104C42.0111 18.9403 42.0034 18.8706 41.9958 18.8008Z" fill="#F0F0F0"/>
<path d="M42.0869 19.9121C42.0891 19.9519 42.0918 19.9917 42.0937 20.0316C42.0917 19.9917 42.0891 19.9518 42.0869 19.9121Z" fill="#F0F0F0"/>
<path d="M42.1108 20.4812C42.112 20.5215 42.1128 20.562 42.1138 20.6023C42.1129 20.5618 42.1119 20.5215 42.1108 20.4812Z" fill="#F0F0F0"/>
<path d="M42.0526 19.4004C42.0573 19.4589 42.0614 19.5176 42.0656 19.5762C42.0613 19.5176 42.0573 19.4589 42.0526 19.4004Z" fill="#F0F0F0"/>
<path d="M41.9429 18.3528C41.9523 18.4244 41.9606 18.4963 41.9692 18.568C40.7296 8.21694 31.9201 0.192383 21.2351 0.192383C15.4679 0.192383 10.2467 2.53007 6.46729 6.3096L18.5105 18.3529H41.9429V18.3528Z" fill="#D80027"/>
<path d="M41.943 23.8011H18.5106L6.46741 35.8444C10.2468 39.6239 15.468 41.9617 21.2352 41.9617C31.9202 41.9617 40.7298 33.9371 41.9693 23.5859C41.9607 23.6576 41.9522 23.7296 41.943 23.8011Z" fill="#6DA544"/>
<path d="M42.0181 23.1438C42.0111 23.2138 42.0035 23.2836 41.9958 23.3534C42.0035 23.2836 42.0112 23.2139 42.0181 23.1438Z" fill="#F0F0F0"/>
<path d="M42.0659 19.5762C42.0738 19.6879 42.081 19.7998 42.0871 19.912C42.0809 19.7998 42.0738 19.6879 42.0659 19.5762Z" fill="black"/>
<path d="M41.9692 18.5684C41.9786 18.6458 41.9875 18.7234 41.9958 18.8011C41.9874 18.7234 41.9785 18.6459 41.9692 18.5684Z" fill="black"/>
<path d="M42.0181 19.0098C42.0308 19.1394 42.0423 19.2694 42.0527 19.3999C42.0424 19.2694 42.0309 19.1393 42.0181 19.0098Z" fill="black"/>
<path d="M42.1197 21.0771C42.1197 21.236 42.1173 21.3942 42.1138 21.5521C42.1173 21.3941 42.1197 21.2359 42.1197 21.0771Z" fill="black"/>
<path d="M42.0871 22.2422C42.0809 22.3544 42.0738 22.4663 42.0659 22.578C42.0738 22.4663 42.0808 22.3544 42.0871 22.2422Z" fill="black"/>
<path d="M42.0527 22.7537C42.0424 22.884 42.0309 23.014 42.0181 23.1436C42.0309 23.014 42.0424 22.884 42.0527 22.7537Z" fill="black"/>
<path d="M41.9958 23.3535C41.9875 23.4312 41.9786 23.5087 41.9692 23.5862C41.9785 23.5088 41.9874 23.4312 41.9958 23.3535Z" fill="black"/>
<path d="M42.1138 20.6018C42.1173 20.7598 42.1198 20.9181 42.1198 21.0768C42.1198 20.9181 42.1173 20.7598 42.1138 20.6018Z" fill="black"/>
<path d="M42.0938 20.0312C42.1011 20.1807 42.1066 20.3308 42.1109 20.4811C42.1066 20.3307 42.1012 20.1807 42.0938 20.0312Z" fill="black"/>
<path d="M42.1109 21.6729C42.1066 21.8231 42.1011 21.9732 42.0938 22.1227C42.1013 21.9731 42.1067 21.8231 42.1109 21.6729Z" fill="black"/>
<path d="M42.1002 20.1619H17.744L5.2331 7.65283C4.82871 8.07933 4.39038 8.67487 4.11929 9.09901L16.0838 21.0698L4.10925 33.0445C4.34633 33.4663 4.86281 34.0906 5.22543 34.4967L17.7443 21.9779H42.1031C42.1161 21.6767 42.1202 21.3742 42.1202 21.0699C42.1201 20.6622 42.1089 20.3616 42.1002 20.1619Z" fill="#FFDA44"/>
<path d="M5.42397 25.5291V23.7798C7.16963 23.7798 8.5897 22.3595 8.5897 20.614C8.5897 19.379 7.58487 18.3742 6.34991 18.3742C5.50857 18.3742 4.82403 19.0587 4.82403 19.9002C4.82403 20.4382 5.26171 20.876 5.79981 20.876C6.10395 20.876 6.35138 20.6284 6.35138 20.3243H8.10062C8.10062 21.5931 7.06847 22.6252 5.7999 22.6252C4.29727 22.6253 3.07495 21.4027 3.07495 19.9004C3.07495 18.0944 4.54421 16.6252 6.34999 16.6252C8.54956 16.6252 10.3391 18.4148 10.3391 20.6143C10.339 23.3241 8.13415 25.5291 5.42397 25.5291Z" fill="#FFDA44"/>
</g>
<defs>
<clipPath id="clip0_299_4280">
<rect width="41.7692" height="41.7692" fill="white" transform="translate(0.351074 0.192383)"/>
</clipPath>
</defs>
</svg>
