<svg width="43" height="42" viewBox="0 0 43 42" fill="none" xmlns="http://www.w3.org/2000/svg">
<g clip-path="url(#clip0_299_4306)">
<path d="M21.6371 0.192383C33.1713 0.192383 42.5217 9.54279 42.5217 21.0769C42.5217 32.6111 33.1713 41.9615 21.6371 41.9615C21.6371 41.0535 18.9131 21.0769 18.9131 21.0769L21.6371 0.192383Z" fill="#F0F0F0"/>
<path d="M21.6375 41.9615C10.1033 41.9615 0.75293 32.6111 0.75293 21.0769C0.75293 9.54279 10.1033 0.192383 21.6375 0.192383" fill="#FFDA44"/>
<path d="M29.6347 18.365L33.5596 23.5573C32.9412 24.4937 32.9445 25.7552 33.6597 26.7013C34.5669 27.9014 36.2753 28.139 37.4755 27.2317C38.6756 26.3246 38.9132 24.6162 38.0058 23.4161C37.2908 22.47 36.0778 22.1228 35.0083 22.4623L28.8914 14.3701L27.4426 15.4653L25.2693 17.1078L27.4596 20.0051L29.6347 18.365ZM35.2852 24.3343C35.6853 24.0318 36.2548 24.111 36.5572 24.511C36.8595 24.911 36.7805 25.4805 36.3804 25.783C35.9804 26.0853 35.4109 26.0063 35.1086 25.6062C34.806 25.2061 34.8852 24.6366 35.2852 24.3343Z" fill="#ACABB1"/>
<path d="M36.3669 20.0053L38.5572 17.108L36.3841 15.4653L34.9353 14.3701L28.8184 22.4623C27.749 22.1228 26.536 22.4701 25.8209 23.4161C24.9135 24.6163 25.1511 26.3246 26.3512 27.2317C27.5514 28.1389 29.2597 27.9014 30.1669 26.7013C30.882 25.7552 30.8853 24.4937 30.267 23.5573L34.1919 18.365L36.3669 20.0053ZM28.7182 25.6063C28.4159 26.0065 27.8464 26.0855 27.4464 25.7832C27.0463 25.4807 26.9672 24.9112 27.2696 24.5111C27.5719 24.1112 28.1414 24.0319 28.5416 24.3344C28.9416 24.6368 29.0206 25.2063 28.7182 25.6063Z" fill="#FFDA44"/>
</g>
<defs>
<clipPath id="clip0_299_4306">
<rect width="41.7691" height="41.7691" fill="white" transform="translate(0.752441 0.192383)"/>
</clipPath>
</defs>
</svg>
