<svg width="42" height="42" viewBox="0 0 42 42" fill="none" xmlns="http://www.w3.org/2000/svg">
<g clip-path="url(#clip0_299_4311)">
<path d="M39.8506 30.1571C41.1783 27.4115 41.9229 24.3313 41.9229 21.0769C41.9229 17.8226 41.1783 14.7424 39.8506 11.9967L21.0384 10.1807L2.22611 11.9967C0.898392 14.7424 0.153809 17.8226 0.153809 21.0769C0.153809 24.3313 0.898392 27.4115 2.22611 30.1571L21.0384 31.9732L39.8506 30.1571Z" fill="#0052B4"/>
<path d="M21.0383 41.9606C29.3182 41.9606 36.4725 37.1421 39.8506 30.1562H2.22607C5.60415 37.1421 12.7584 41.9606 21.0383 41.9606Z" fill="#D80027"/>
<path d="M36.3243 25.1758L35.221 26.0379L35.6998 27.3533L34.539 26.5705L33.4357 27.4325L33.8214 26.0866L32.6608 25.3036L34.06 25.2548L34.4461 23.9089L34.9251 25.2246L36.3243 25.1758Z" fill="#F0F0F0"/>
<path d="M33.4995 20.2833L32.7577 21.4708L33.6578 22.5431L32.2991 22.2048L31.5571 23.3919L31.4593 21.9953L30.1008 21.6564L31.3992 21.1318L31.3016 19.7351L32.2015 20.8078L33.4995 20.2833Z" fill="#F0F0F0"/>
<path d="M29.1719 16.6523L28.8809 18.0219L30.0934 18.722L28.701 18.8688L28.4099 20.2379L27.8403 18.959L26.4478 19.1052L27.4884 18.1683L26.919 16.8894L28.1315 17.5893L29.1719 16.6523Z" fill="#F0F0F0"/>
<path d="M23.8631 14.7197L24.0582 16.1063L25.4369 16.3492L24.1786 16.9633L24.3735 18.3498L23.4009 17.3426L22.1422 17.9563L22.7997 16.7199L21.827 15.7129L23.206 15.956L23.8631 14.7197Z" fill="#F0F0F0"/>
<path d="M18.214 14.7197L18.8714 15.956L20.25 15.7127L19.2776 16.7202L19.9347 17.9565L18.6764 17.3426L17.7036 18.3495L17.8987 16.9633L16.6403 16.3496L18.0191 16.1063L18.214 14.7197Z" fill="#F0F0F0"/>
<path d="M12.9052 16.6523L13.9458 17.5893L15.1581 16.8894L14.5888 18.1688L15.6292 19.1055L14.2368 18.959L13.6671 20.2379L13.3764 18.8685L11.9839 18.7223L13.1964 18.0221L12.9052 16.6523Z" fill="#F0F0F0"/>
<path d="M8.57762 20.2831L9.87604 20.8076L10.7757 19.7351L10.6784 21.1321L11.9764 21.6567L10.6179 21.9952L10.5201 23.3917L9.77837 22.2046L8.41974 22.5431L9.31973 21.4705L8.57762 20.2831Z" fill="#F0F0F0"/>
<path d="M5.75293 25.1756L7.15244 25.2244L7.63107 23.9089L8.01742 25.2549L9.41652 25.3038L8.25576 26.0868L8.64154 27.4326L7.53838 26.5706L6.37754 27.3534L6.85641 26.0377L5.75293 25.1756Z" fill="#F0F0F0"/>
<path d="M39.8506 11.9967C36.4725 5.01092 29.3182 0.192383 21.0383 0.192383C12.7584 0.192383 5.60415 5.01092 2.22607 11.9967H39.8506Z" fill="#FFDA44"/>
</g>
<defs>
<clipPath id="clip0_299_4311">
<rect width="41.7691" height="41.7691" fill="white" transform="translate(0.15332 0.192383)"/>
</clipPath>
</defs>
</svg>
