<svg width="43" height="42" viewBox="0 0 43 42" fill="none" xmlns="http://www.w3.org/2000/svg">
<g clip-path="url(#clip0_299_4327)">
<path d="M21.8406 41.9615C33.3748 41.9615 42.7252 32.6112 42.7252 21.0769C42.7252 9.54272 33.3748 0.192383 21.8406 0.192383C10.3064 0.192383 0.956055 9.54272 0.956055 21.0769C0.956055 32.6112 10.3064 41.9615 21.8406 41.9615Z" fill="#FCFCFC"/>
<path d="M25.3875 14.7821C25.3875 12.8231 23.7995 11.2351 21.8405 11.2351C19.8815 11.2351 18.2935 12.8231 18.2935 14.7821H10.4902C10.4902 16.7107 12.1703 18.2743 14.0989 18.2743H13.9828C13.9828 20.2031 15.5462 21.7669 17.4751 21.7669C17.4751 23.4746 18.7016 24.8936 20.3214 25.1969L20.3123 25.2173H23.3687L23.3597 25.1969C24.9795 24.8934 26.2059 23.4745 26.2059 21.7669C28.1348 21.7669 29.6983 20.2031 29.6983 18.2743H29.582C31.5106 18.2743 33.1908 16.7107 33.1908 14.7821H25.3875Z" fill="#FFDA44"/>
<path d="M20.2812 24.8555L18.0819 29.8207C19.2423 30.2924 20.5106 30.5546 21.8405 30.5546C23.1703 30.5546 24.4386 30.2925 25.599 29.8207L23.3998 24.8555H20.2812Z" fill="#FFDA44"/>
<path d="M17.3005 16.5264V22.636C17.3005 26.1112 21.8406 27.1761 21.8406 27.1761C21.8406 27.1761 26.3807 26.1112 26.3807 22.636V16.5264H17.3005Z" fill="#F0F0F0"/>
<path d="M6.02042 21.2236L8.4759 28.0914L10.9059 21.2236H12.7603L9.21763 30.3038H7.73409L4.16602 21.2236H6.02042Z" fill="#338AF3"/>
<path d="M34.5531 30.3038V21.2236H36.3179V30.3038H34.5531Z" fill="#338AF3"/>
<path d="M19.1162 18.5V25.9037C19.7404 26.3631 20.412 26.6791 20.9323 26.8814V18.5H19.1162Z" fill="#D80027"/>
<path d="M24.5643 18.5V25.9037C23.9402 26.3631 23.2686 26.6791 22.7483 26.8814V18.5H24.5643Z" fill="#D80027"/>
<path d="M17.3005 16.5264H26.3807V19.4075H17.3005V16.5264Z" fill="#0052B4"/>
</g>
<defs>
<clipPath id="clip0_299_4327">
<rect width="41.7691" height="41.7691" fill="white" transform="translate(0.956055 0.192383)"/>
</clipPath>
</defs>
</svg>
