<svg width="43" height="42" viewBox="0 0 43 42" fill="none" xmlns="http://www.w3.org/2000/svg">
<g clip-path="url(#clip0_299_4340)">
<path d="M21.242 41.9615C32.7762 41.9615 42.1265 32.6112 42.1265 21.0769C42.1265 9.54272 32.7762 0.192383 21.242 0.192383C9.70775 0.192383 0.357422 9.54272 0.357422 21.0769C0.357422 32.6112 9.70775 41.9615 21.242 41.9615Z" fill="#F0F0F0"/>
<path d="M42.1265 21.0771C42.1265 32.6113 32.7761 41.9617 21.242 41.9617C9.70783 41.9617 0.357422 32.6113 0.357422 21.0771" fill="#496E2D"/>
<path d="M36.4986 14.7245C35.7518 12.6064 33.7337 11.0879 31.3601 11.0879H26.6902C23.6812 11.0879 21.242 13.5271 21.242 16.5361C21.242 17.5191 21.5037 18.4639 21.9592 19.2601C20.225 19.2459 18.6201 19.2721 17.6099 19.2601C17.6099 17.1589 17.6099 14.4823 17.6099 13.9222L17.8244 13.7077C18.7876 12.7445 18.4664 11.1394 18.4664 11.1394C18.4664 11.1394 16.8614 10.8183 15.8982 11.7815L14.7758 12.9039H13.5238C10.7655 12.9039 8.52965 15.1399 8.52965 17.8981H12.1618V21.9842C12.1618 22.5818 12.2823 23.1512 12.5 23.6697L11.2537 24.7082H9.43764V22.8921H7.62158V26.5243H15.7938V30.1564H13.9777V31.9724H17.6099V28.3403L19.2745 26.3427H23.2094L24.874 28.3403V30.1564H23.058V31.9724H30.3221V21.9841C30.3221 20.4797 31.5417 19.26 33.0462 19.26C33.0848 19.26 33.1232 19.2614 33.1615 19.263C33.0863 18.9719 33.0462 18.6667 33.0462 18.352C33.0463 16.4064 34.5762 14.8182 36.4986 14.7245ZM26.6902 30.1563V26.3426H26.8415L28.5061 28.3402V30.1563H26.6902Z" fill="#D80027"/>
</g>
<defs>
<clipPath id="clip0_299_4340">
<rect width="41.7691" height="41.7691" fill="white" transform="translate(0.357422 0.192383)"/>
</clipPath>
</defs>
</svg>
