<svg width="43" height="42" viewBox="0 0 43 42" fill="none" xmlns="http://www.w3.org/2000/svg">
<g clip-path="url(#clip0_299_4344)">
<path d="M21.6433 41.9615C33.1776 41.9615 42.5279 32.6112 42.5279 21.0769C42.5279 9.54272 33.1776 0.192383 21.6433 0.192383C10.1091 0.192383 0.758789 9.54272 0.758789 21.0769C0.758789 32.6112 10.1091 41.9615 21.6433 41.9615Z" fill="#F0F0F0"/>
<path d="M21.6432 41.9612C30.6228 41.9612 38.2779 36.2937 41.2287 28.3408H2.05762C5.00846 36.2937 12.6635 41.9612 21.6432 41.9612Z" fill="black"/>
<path d="M21.6432 0.192383C12.6635 0.192383 5.00846 5.85993 2.05762 13.8128H41.2288C38.2779 5.85993 30.6228 0.192383 21.6432 0.192383Z" fill="#D80027"/>
</g>
<defs>
<clipPath id="clip0_299_4344">
<rect width="41.7691" height="41.7691" fill="white" transform="translate(0.758789 0.192383)"/>
</clipPath>
</defs>
</svg>
