<svg width="42" height="43" viewBox="0 0 42 43" fill="none" xmlns="http://www.w3.org/2000/svg">
<g clip-path="url(#clip0_299_4348)">
<path d="M20.9431 42.5533C32.4774 42.5533 41.8277 33.203 41.8277 21.6687C41.8277 10.1345 32.4774 0.78418 20.9431 0.78418C9.40893 0.78418 0.0585938 10.1345 0.0585938 21.6687C0.0585938 33.203 9.40893 42.5533 20.9431 42.5533Z" fill="#496E2D"/>
<path d="M29.1156 21.6689H20.9434V42.5535C23.3846 42.5535 25.7273 42.1333 27.9049 41.3636L29.1156 21.6689Z" fill="#D80027"/>
<path d="M34.8664 37.2339C39.1386 33.4099 41.828 27.8538 41.828 21.6689H33.6558L34.8664 37.2339Z" fill="#FF9811"/>
<path d="M27.9048 21.6689V41.3636C30.4988 40.4465 32.8576 39.032 34.8664 37.234V21.6689H27.9048Z" fill="black"/>
<path d="M38.6498 14.4049H33.2016C33.2016 13.402 32.3885 12.5889 31.3856 12.5889C30.3826 12.5889 29.5695 13.402 29.5695 14.4049H24.1213C24.1213 15.408 24.995 16.221 25.9978 16.221H25.9374C25.9374 17.224 26.7503 18.037 27.7535 18.037C27.7535 19.0401 28.5664 19.8531 29.5695 19.8531H33.2016C34.2046 19.8531 35.0177 19.0401 35.0177 18.037C36.0206 18.037 36.8338 17.224 36.8338 16.221H36.7733C37.7762 16.2209 38.6498 15.4079 38.6498 14.4049Z" fill="#FF9811"/>
</g>
<defs>
<clipPath id="clip0_299_4348">
<rect width="41.7691" height="41.7691" fill="white" transform="translate(0.0585938 0.78418)"/>
</clipPath>
</defs>
</svg>
