<svg width="43" height="43" viewBox="0 0 43 43" fill="none" xmlns="http://www.w3.org/2000/svg">
<g clip-path="url(#clip0_299_4354)">
<path d="M21.8221 42.1529C33.3563 42.1529 42.7066 32.8026 42.7066 21.2683C42.7066 9.73412 33.3563 0.383789 21.8221 0.383789C10.2878 0.383789 0.9375 9.73412 0.9375 21.2683C0.9375 32.8026 10.2878 42.1529 21.8221 42.1529Z" fill="#F0F0F0"/>
<path d="M40.707 12.3429C39.646 10.1016 38.1978 8.07976 36.4487 6.36291L21.8214 4.9231L7.19405 6.36299C7.14739 6.40875 7.10187 6.45558 7.05569 6.50184L12.8968 12.343L21.8214 12.6155L40.707 12.3429Z" fill="#FFDA44"/>
<path d="M7.05569 36.0337C7.13254 36.1105 7.20923 36.1874 7.28722 36.2632L21.8216 37.6122L36.3559 36.2632C38.123 34.55 39.5889 32.528 40.6648 30.2832L13.6493 29.4399C11.3249 31.7645 8.64382 34.4454 7.05569 36.0337Z" fill="#FFDA44"/>
<path d="M42.4989 18.3232L18.1899 17.6357L21.8221 21.2679C20.7463 22.3437 19.1403 23.9496 18.1899 24.9L42.4862 24.3033C42.6306 23.3122 42.7066 22.299 42.7066 21.2679C42.7066 20.2682 42.6348 19.2855 42.4989 18.3232Z" fill="black"/>
<path d="M21.8222 0.383789C16.1256 0.383789 10.9627 2.66559 7.19482 6.36379H36.4495C32.6816 2.66559 27.5188 0.383789 21.8222 0.383789Z" fill="#6DA544"/>
<path d="M18.8783 18.3237H42.4998C42.2017 16.2125 41.5886 14.2029 40.7085 12.3438H12.8983L18.8783 18.3237Z" fill="#D80027"/>
<path d="M12.8074 30.2837H40.6661C41.5565 28.426 42.1794 26.4161 42.4871 24.3037H18.7874C16.4716 26.6195 14.5089 28.5822 12.8074 30.2837Z" fill="#D80027"/>
<path d="M21.8223 42.1529C27.4722 42.1529 32.5971 39.9084 36.3566 36.2637H7.28809C11.0476 39.9084 16.1725 42.1529 21.8223 42.1529Z" fill="#6DA544"/>
<path d="M8.39531 5.27271C7.93103 5.66282 7.48308 6.07178 7.05453 6.50016L21.8222 21.2678L7.05453 36.0355C7.48299 36.4639 7.93103 36.8728 8.39531 37.2629L24.3904 21.2678L8.39531 5.27271Z" fill="black"/>
<path d="M9.33436 15.8193L10.6866 19.9812H15.0629L11.5225 22.5536L12.8748 26.7157L9.33436 24.1434L5.79386 26.7157L7.1463 22.5536L3.60596 19.9812H7.98209L9.33436 15.8193Z" fill="#D80027"/>
<path d="M13.0536 21.6082L9.52951 20.3597C9.52951 20.3597 9.26911 17.9169 9.25336 17.8341C9.13377 17.204 8.58008 16.7275 7.9152 16.7275C7.16303 16.7275 6.55314 17.3374 6.55314 18.0896C6.55314 18.2143 6.57133 18.3345 6.60274 18.4494L5.61464 19.4441H7.37155C7.37155 21.2676 6.01079 21.2676 6.01079 23.0837L6.76566 24.8998H11.3058L12.0625 23.0837H12.0622C12.138 22.9094 12.184 22.7297 12.203 22.5502C12.8553 22.2863 13.0536 21.6082 13.0536 21.6082Z" fill="#FFDA44"/>
</g>
<defs>
<clipPath id="clip0_299_4354">
<rect width="41.7691" height="41.7691" fill="white" transform="translate(0.9375 0.383789)"/>
</clipPath>
</defs>
</svg>
