<svg width="32" height="32" viewBox="0 0 32 32" fill="none" xmlns="http://www.w3.org/2000/svg">
<path fill-rule="evenodd" clip-rule="evenodd" d="M10.6667 6.6665C11.7501 6.66644 12.8078 6.99628 13.699 7.61215C14.5903 8.22802 15.2728 9.1007 15.6559 10.1141C16.0389 11.1274 16.1043 12.2334 15.8433 13.2848C15.5823 14.3363 15.0073 15.2833 14.1947 15.9998C15.0073 16.7164 15.5823 17.6634 15.8433 18.7148C16.1043 19.7663 16.0389 20.8722 15.6559 21.8856C15.2728 22.899 14.5903 23.7717 13.699 24.3875C12.8078 25.0034 11.7501 25.3332 10.6667 25.3332H5.33341C4.62617 25.3332 3.94789 25.0522 3.4478 24.5521C2.9477 24.052 2.66675 23.3737 2.66675 22.6665V9.33317C2.66675 8.62593 2.9477 7.94765 3.4478 7.44755C3.94789 6.94746 4.62617 6.6665 5.33341 6.6665H10.6667ZM23.3334 11.9998C26.8094 11.9998 29.3334 15.1572 29.3334 18.6665C29.3334 18.9931 29.2135 19.3083 28.9965 19.5523C28.7794 19.7964 28.4804 19.9523 28.1561 19.9905L28.0001 19.9998H20.1867C20.6641 21.6318 21.9907 22.6665 23.3334 22.6665C24.7734 22.6665 25.5894 21.9852 26.3201 21.1332C26.5499 20.8644 26.8771 20.698 27.2297 20.6705C27.5823 20.643 27.9313 20.7566 28.2001 20.9865C28.4688 21.2164 28.6353 21.5436 28.6628 21.8961C28.6903 22.2487 28.5766 22.5977 28.3467 22.8665L28.2041 23.0292L27.8987 23.3572C26.9361 24.3465 25.5281 25.3332 23.3334 25.3332C19.8574 25.3332 17.3334 22.1758 17.3334 18.6665C17.3334 15.1572 19.8574 11.9998 23.3334 11.9998ZM10.6667 17.3332H5.33341V22.6665H10.6667C11.3587 22.6696 12.0248 22.4036 12.5243 21.9247C13.0238 21.4457 13.3175 20.7914 13.3435 20.0999C13.3694 19.4084 13.1256 18.7339 12.6634 18.2189C12.2013 17.7039 11.557 17.3886 10.8667 17.3398L10.6667 17.3332ZM23.3334 14.6665C21.9907 14.6665 20.6641 15.7012 20.1867 17.3332H26.4801C26.0027 15.7012 24.6761 14.6665 23.3334 14.6665ZM10.6667 9.33317H5.33341V14.6665H10.6667C11.374 14.6665 12.0523 14.3856 12.5524 13.8855C13.0525 13.3854 13.3334 12.7071 13.3334 11.9998C13.3334 11.2926 13.0525 10.6143 12.5524 10.1142C12.0523 9.61412 11.374 9.33317 10.6667 9.33317ZM25.3334 7.99984C25.687 7.99984 26.0262 8.14031 26.2762 8.39036C26.5263 8.64041 26.6667 8.97955 26.6667 9.33317C26.6667 9.68679 26.5263 10.0259 26.2762 10.276C26.0262 10.526 25.687 10.6665 25.3334 10.6665H21.3334C20.9798 10.6665 20.6407 10.526 20.3906 10.276C20.1406 10.0259 20.0001 9.68679 20.0001 9.33317C20.0001 8.97955 20.1406 8.64041 20.3906 8.39036C20.6407 8.14031 20.9798 7.99984 21.3334 7.99984H25.3334Z" fill="white"/>
</svg>
