<svg width="192" height="200" viewBox="0 0 192 200" fill="none" xmlns="http://www.w3.org/2000/svg">
<mask id="mask0_26_462" style="mask-type:alpha" maskUnits="userSpaceOnUse" x="0" y="0" width="192" height="200">
<g clip-path="url(#clip0_26_462)">
<path fill-rule="evenodd" clip-rule="evenodd" d="M98.718 47.9427C97.854 45.0072 97.196 42.0052 96.7439 38.9367V30.0864C113.944 30.2758 129.571 37.0217 141.243 47.9427H98.718ZM93.1938 47.9427C94.1011 44.9564 94.7883 41.9013 95.2555 38.7775V30.0864C78.0551 30.2758 62.4284 37.0217 50.7569 47.9427H93.1938ZM49.7326 49.4311H92.7215C92.0975 51.317 91.3843 53.175 90.5821 55.0051C87.1422 63.1055 82.4477 70.1695 76.4987 76.1972L49.7326 49.4311ZM47.6276 47.9427H23.8142V49.4311H47.1321C35.6146 61.4328 28.4756 77.6686 28.2828 95.5707H0V97.059H28.2828C28.4755 114.961 35.6145 131.197 47.132 143.199H23.8142V144.687H47.6276V168.501H49.116V145.183C61.1178 156.7 77.3535 163.839 95.2555 164.032V192.315H96.7439V164.032C114.646 163.839 130.882 156.7 142.884 145.183V168.501H144.372V144.687H168.186V143.199H144.868C156.385 131.197 163.524 114.961 163.717 97.0591H192V95.5707H163.717C163.524 77.6687 156.385 61.4329 144.867 49.4311H168.186V47.9427H144.372V24.1289H142.884V47.4472C130.882 35.9297 114.646 28.7907 96.7439 28.598V0.314941H95.2555V28.598C77.3535 28.7907 61.1177 35.9297 49.116 47.4472V24.1289H47.6276V47.9427ZM96.7439 162.543C113.944 162.354 129.571 155.608 141.243 144.687H98.718C97.854 147.623 97.196 150.625 96.7439 153.693V162.543ZM95.2555 153.852C94.7883 150.729 94.101 147.673 93.1938 144.687H50.7568C62.4283 155.608 78.0551 162.354 95.2555 162.543V153.852ZM29.7713 95.5707H38.6218C41.6902 95.1186 44.6921 94.4606 47.6276 93.5966V51.072C36.7066 62.7435 29.9606 78.3702 29.7713 95.5707ZM38.4621 97.059H29.7713C29.9606 114.26 36.7066 129.886 47.6276 141.558V99.1208C44.6412 98.2135 41.586 97.5263 38.4621 97.059ZM162.228 95.5707C162.039 78.3703 155.293 62.7435 144.372 51.072V93.5966C147.308 94.4606 150.31 95.1186 153.378 95.5707H162.228ZM153.537 97.0591C150.413 97.5263 147.358 98.2136 144.372 99.1208V141.558C155.293 129.886 162.039 114.26 162.228 97.0591H153.537ZM142.884 142.582V99.5931C140.998 100.217 139.14 100.93 137.31 101.733C129.209 105.173 122.145 109.867 116.118 115.816L142.884 142.582ZM142.884 93.1391V49.5317L142.783 49.4311H99.1755C99.78 51.317 100.471 53.175 101.248 55.0051C104.86 63.2445 109.713 70.4116 115.808 76.5065C121.903 82.6014 129.07 87.4547 137.31 91.0665C139.14 91.8437 140.998 92.5346 142.884 93.1391ZM49.116 143.098V99.5931C51.0018 100.217 52.8598 100.93 54.69 101.733C62.9293 105.232 70.0965 110.028 76.1914 116.123C82.2862 122.218 87.0831 129.385 90.5821 137.625C91.3843 139.455 92.0974 141.313 92.7215 143.199H49.2165L49.116 143.098ZM49.116 93.1391V50.9194L75.4415 77.2449C69.511 82.9946 62.5938 87.6018 54.69 91.0665C52.8598 91.8437 51.0018 92.5346 49.116 93.1391ZM99.1755 143.199H141.395L115.07 116.873C109.32 122.804 104.713 129.721 101.248 137.625C100.471 139.455 99.7801 141.313 99.1755 143.199ZM80.4011 80.7163C73.8284 87.289 66.1293 92.5139 57.356 96.3976C66.1303 100.171 73.8297 105.342 80.4011 111.914C86.9725 118.485 92.1433 126.184 95.917 134.959C99.8008 126.185 105.026 118.486 111.598 111.914C118.17 105.342 125.869 100.171 134.644 96.3976C125.87 92.5139 118.171 87.289 111.598 80.7163C105.026 74.1435 99.8008 66.4445 95.917 57.6712C92.1433 66.4454 86.9725 74.1448 80.4011 80.7163Z" fill="black"/>
</g>
</mask>
<g mask="url(#mask0_26_462)">
<rect y="0.314941" width="192" height="199.09" fill="url(#paint0_linear_26_462)"/>
</g>
<defs>
<linearGradient id="paint0_linear_26_462" x1="30.4648" y1="392.839" x2="248.414" y2="358.513" gradientUnits="userSpaceOnUse">
<stop stop-color="#7E6BC7"/>
<stop offset="0.9564" stop-color="#D5CAFF"/>
</linearGradient>
<clipPath id="clip0_26_462">
<rect width="192" height="199.09" fill="white" transform="translate(0 0.314941)"/>
</clipPath>
</defs>
</svg>
