<svg width="32" height="32" viewBox="0 0 32 32" fill="none" xmlns="http://www.w3.org/2000/svg">
<path d="M29.3334 15.9998C29.3356 17.756 28.9898 19.4953 28.3159 21.117C27.6421 22.7388 26.6535 24.211 25.4074 25.4485C24.1714 26.6822 22.7044 27.6603 21.0903 28.3268C19.4761 28.9934 17.7464 29.3353 16.0001 29.3332C8.63609 29.3332 2.66676 23.3638 2.66676 15.9998C2.66196 12.581 3.97522 9.29188 6.33343 6.81652C7.57758 5.50349 9.07662 4.45819 10.7388 3.74461C12.4009 3.03103 14.1912 2.66418 16.0001 2.66652C17.7464 2.66436 19.4761 3.00633 21.0903 3.67288C22.7044 4.33942 24.1714 5.31749 25.4074 6.55118C26.6535 7.78871 27.6421 9.26088 28.3159 10.8827C28.9898 12.5044 29.3356 14.2437 29.3334 15.9998Z" stroke="white" stroke-width="2.66667" stroke-linecap="round" stroke-linejoin="round"/>
<path d="M29.3332 15.9999C27.3879 15.9999 22.0212 15.2665 17.2179 17.3752C11.9999 19.6665 8.22186 23.2212 6.5752 25.4312" stroke="white" stroke-width="2.66667" stroke-linecap="round" stroke-linejoin="round"/>
<path d="M11 3.63623C13.0867 5.56223 17.64 10.4656 19.3333 15.3336C21.0267 20.2016 21.6533 26.1869 22.04 27.8902" stroke="white" stroke-width="2.66667" stroke-linecap="round" stroke-linejoin="round"/>
<path d="M2.76929 14.333C5.28795 14.485 11.9553 14.6217 16.222 12.7997C20.4886 10.9777 24.16 7.62632 25.4193 6.56299M3.66662 21.075C4.84168 23.9188 6.96056 26.271 9.66662 27.7357" stroke="white" stroke-width="2.66667" stroke-linecap="round" stroke-linejoin="round"/>
<path d="M2.66676 15.9998C2.66196 12.581 3.97522 9.29188 6.33343 6.81652C7.57758 5.50349 9.07662 4.45819 10.7388 3.74461C12.4009 3.03103 14.1912 2.66418 16.0001 2.66652M21.3334 3.77585C22.8521 4.4397 24.2337 5.38089 25.4074 6.55118C26.6535 7.78871 27.6421 9.26088 28.3159 10.8827C28.9898 12.5044 29.3356 14.2437 29.3334 15.9998C29.3334 17.6412 29.0368 19.2138 28.4934 20.6665M16.0001 29.3332C17.7464 29.3353 19.4761 28.9934 21.0903 28.3268C22.7044 27.6603 24.1714 26.6822 25.4074 25.4485" stroke="white" stroke-width="2.66667" stroke-linecap="round" stroke-linejoin="round"/>
</svg>
