<svg width="64" height="65" viewBox="0 0 64 65" fill="none" xmlns="http://www.w3.org/2000/svg">
<path d="M13.675 40.8533L19.015 6.63325C19.2 5.46825 20.765 5.18825 21.315 6.23325L27.055 16.9733L13.675 40.8533V40.8533ZM51.645 49.1683L46.55 17.6483C46.395 16.6683 45.17 16.2683 44.465 16.9733L12.355 49.1683L30.125 59.1433C30.6749 59.4458 31.2923 59.6045 31.92 59.6045C32.5476 59.6045 33.1651 59.4458 33.715 59.1433L51.645 49.1683V49.1683ZM37.22 21.6683L33.105 13.8433C32.645 12.9533 31.385 12.9533 30.925 13.8433L12.85 46.0683L37.22 21.6683V21.6683Z" fill="#F58220"/>
</svg>
