<svg width="116" height="15" viewBox="0 0 116 15" fill="none" xmlns="http://www.w3.org/2000/svg">
<path d="M10.2 0.499999C10.7067 0.499999 11.1333 0.606666 11.48 0.82C11.8267 1.02 12.1667 1.42 12.5 2.02L19.12 14.04C19.1867 14.1733 19.2 14.2867 19.16 14.38C19.1333 14.46 19.04 14.5 18.88 14.5H16.34C16.1133 14.5 15.96 14.4133 15.88 14.24L14.46 11.66H5.06L3.68 14.24C3.58667 14.4133 3.43333 14.5 3.22 14.5H0.62C0.446667 14.5 0.34 14.46 0.3 14.38C0.273333 14.2867 0.293333 14.1733 0.36 14.04L6.92 2.02C7.25333 1.42 7.58 1.02 7.9 0.82C8.22 0.606666 8.59333 0.499999 9.02 0.499999H10.2ZM6.32 9.34H13.2L10.02 3.48C9.96667 3.38667 9.89333 3.34 9.8 3.34H9.68C9.58667 3.34 9.51333 3.38667 9.46 3.48L6.32 9.34ZM34.7122 0.499999C35.0055 0.499999 35.1522 0.646666 35.1522 0.939999V2.84C35.1522 3.13333 35.0055 3.28 34.7122 3.28H24.6922C24.3055 3.28 24.0322 3.38 23.8722 3.58C23.7122 3.78 23.6322 4.05333 23.6322 4.4V5.08C23.6322 5.82667 23.9789 6.2 24.6722 6.2H32.1722C33.3322 6.2 34.2055 6.5 34.7922 7.1C35.3789 7.68667 35.6722 8.53333 35.6722 9.64V11.24C35.6722 12.2133 35.3855 13 34.8122 13.6C34.2389 14.2 33.3455 14.5 32.1322 14.5H21.0522C20.7455 14.5 20.5922 14.3533 20.5922 14.06V12.16C20.5922 11.8667 20.7455 11.72 21.0522 11.72H31.5522C31.9389 11.72 32.2122 11.62 32.3722 11.42C32.5322 11.22 32.6122 10.9467 32.6122 10.6V9.78C32.6122 9.03333 32.2655 8.66 31.5722 8.66H24.0722C22.9122 8.66 22.0389 8.36667 21.4522 7.78C20.8655 7.18 20.5722 6.32667 20.5722 5.22V3.76C20.5722 2.78667 20.8589 2 21.4322 1.4C22.0055 0.799999 22.8989 0.499999 24.1122 0.499999H34.7122ZM53.1806 0.499999C53.4873 0.499999 53.6406 0.646666 53.6406 0.939999V2.9C53.6406 3.20667 53.4873 3.36 53.1806 3.36H46.9006V14.06C46.9006 14.3533 46.754 14.5 46.4606 14.5H44.2806C43.9873 14.5 43.8406 14.3533 43.8406 14.06V3.36H37.5606C37.254 3.36 37.1006 3.20667 37.1006 2.9V0.939999C37.1006 0.646666 37.254 0.499999 37.5606 0.499999H53.1806ZM66.7616 0.499999C68.2949 0.499999 69.3949 0.846666 70.0616 1.54C70.7282 2.23333 71.0616 3.26 71.0616 4.62V5.76C71.0616 6.90667 70.8282 7.81333 70.3616 8.48C69.8949 9.14667 69.1349 9.57333 68.0816 9.76L71.5016 14C71.5682 14.0667 71.5882 14.1667 71.5616 14.3C71.5349 14.4333 71.4282 14.5 71.2416 14.5H68.6616C68.4882 14.5 68.3682 14.48 68.3016 14.44C68.2349 14.4 68.1682 14.3333 68.1016 14.24L64.9416 10.08H58.4816V14.06C58.4816 14.3533 58.3349 14.5 58.0416 14.5H55.8816C55.5749 14.5 55.4216 14.3533 55.4216 14.06V1.1C55.4216 0.699999 55.6216 0.499999 56.0216 0.499999H66.7616ZM58.4816 7.64H66.1416C66.8216 7.64 67.3016 7.49333 67.5816 7.2C67.8616 6.90667 68.0016 6.46 68.0016 5.86V5.02C68.0016 4.42 67.8616 3.97333 67.5816 3.68C67.3016 3.38667 66.8216 3.24 66.1416 3.24H58.7416C58.5682 3.24 58.4816 3.32 58.4816 3.48V7.64ZM76.147 0.499999C76.4404 0.499999 76.587 0.646666 76.587 0.939999V14.06C76.587 14.3533 76.4404 14.5 76.147 14.5H73.987C73.6804 14.5 73.527 14.3533 73.527 14.06V0.939999C73.527 0.646666 73.6804 0.499999 73.987 0.499999H76.147ZM88.1297 0.499999C88.6364 0.499999 89.063 0.606666 89.4097 0.82C89.7564 1.02 90.0964 1.42 90.4297 2.02L97.0497 14.04C97.1164 14.1733 97.1297 14.2867 97.0897 14.38C97.063 14.46 96.9697 14.5 96.8097 14.5H94.2697C94.043 14.5 93.8897 14.4133 93.8097 14.24L92.3897 11.66H82.9897L81.6097 14.24C81.5164 14.4133 81.363 14.5 81.1497 14.5H78.5497C78.3764 14.5 78.2697 14.46 78.2297 14.38C78.203 14.2867 78.223 14.1733 78.2897 14.04L84.8497 2.02C85.183 1.42 85.5097 1.02 85.8297 0.82C86.1497 0.606666 86.523 0.499999 86.9497 0.499999H88.1297ZM84.2497 9.34H91.1297L87.9497 3.48C87.8964 3.38667 87.823 3.34 87.7297 3.34H87.6097C87.5164 3.34 87.443 3.38667 87.3897 3.48L84.2497 9.34ZM102.302 0.499999C102.622 0.499999 102.889 0.513333 103.102 0.54C103.315 0.566666 103.502 0.626666 103.662 0.72C103.822 0.8 103.975 0.92 104.122 1.08C104.269 1.22667 104.435 1.42667 104.622 1.68L112.062 11.44C112.115 11.5333 112.202 11.58 112.322 11.58H112.502C112.609 11.58 112.662 11.5133 112.662 11.38V0.939999C112.662 0.646666 112.809 0.499999 113.102 0.499999H115.202C115.495 0.499999 115.642 0.646666 115.642 0.939999V12.42C115.642 13.2333 115.495 13.7867 115.202 14.08C114.909 14.36 114.455 14.5 113.842 14.5H112.122C111.815 14.5 111.555 14.4867 111.342 14.46C111.142 14.4333 110.962 14.38 110.802 14.3C110.642 14.22 110.482 14.1067 110.322 13.96C110.175 13.8 110.002 13.5867 109.802 13.32L102.342 3.56C102.262 3.46667 102.175 3.42 102.082 3.42H101.902C101.795 3.42 101.742 3.48667 101.742 3.62V14.06C101.742 14.3533 101.595 14.5 101.302 14.5H99.2019C98.8952 14.5 98.7419 14.3533 98.7419 14.06V2.58C98.7419 1.76667 98.8885 1.22 99.1819 0.939999C99.4752 0.646666 99.9285 0.499999 100.542 0.499999H102.302Z" fill="white"/>
</svg>
