<svg width="64" height="65" viewBox="0 0 64 65" fill="none" xmlns="http://www.w3.org/2000/svg">
<path d="M56.3855 15.3506L34.337 2.5481C32.9465 1.7561 31.136 1.7561 29.7345 2.5481L7.4505 15.3506C6.0155 16.1761 5 17.7276 5 19.3871V44.9581C5 46.6176 6.042 48.1696 7.477 48.9996L13.3645 52.3436C16.1785 53.7296 17.173 53.7296 18.4535 53.7296C22.62 53.7296 25 51.2101 25 46.8156V21.5706C25 21.2141 24.8145 20.6836 24.4645 20.6836H21.653C21.297 20.6836 20.5 21.2141 20.5 21.5701V46.8151C20.5 48.7631 18.738 50.7016 15.445 49.0551L9.3615 45.5486C9.1495 45.4336 9 45.2021 9 44.9581V19.3871C9 19.1461 9.2775 18.9041 9.491 18.7806L31.703 6.0001C31.9105 5.8826 32.2155 5.8826 32.4225 6.0001L54.3635 18.7776C54.5735 18.9041 54.4995 19.1386 54.4995 19.3871V44.9581C54.4995 45.2021 54.591 45.4396 54.3835 45.5571L32.3405 58.3451C32.1515 58.4586 31.917 58.4586 31.71 58.3451L26.0565 54.9706C25.886 54.8716 25.6835 54.8361 25.52 54.9276C23.947 55.8191 23.657 55.9376 22.1815 56.4491C21.8185 56.5756 21.283 56.7951 22.3865 57.4136L29.7855 61.7906C30.4919 62.1986 31.2932 62.4135 32.109 62.4136C32.93 62.4136 33.734 62.2006 34.4425 61.7906L56.385 48.9996C57.82 48.1636 58.5 46.6176 58.5 44.9581V19.3871C58.5 17.7276 57.82 16.1801 56.3855 15.3506V15.3506ZM38.955 40.9061C33.092 40.9061 31.8005 39.2886 31.37 36.3731C31.32 36.0591 31.0535 35.6836 30.734 35.6836H27.8685C27.514 35.6836 27.229 36.1136 27.229 36.4666C27.229 40.1996 29.2585 44.7226 38.9555 44.7226C45.975 44.7226 49.9995 41.9951 49.9995 37.1681C49.9995 32.3821 46.766 31.1261 39.9585 30.2251C33.0775 29.3156 32.3785 28.8561 32.3785 27.2441C32.3785 25.9151 32.9705 24.1426 38.0655 24.1426C42.618 24.1426 44.296 25.1196 44.9865 28.1881C45.0455 28.4766 45.309 28.6836 45.6065 28.6836H48.4835C48.6605 28.6836 48.8295 28.6121 48.9535 28.4856C49.0735 28.3496 49.137 28.1791 49.121 27.9961C48.6755 22.7121 45.165 20.2496 38.065 20.2496C31.7495 20.2496 27.982 22.9166 27.982 27.3871C27.982 32.2361 31.7305 33.5761 37.793 34.1756C45.0455 34.8866 45.6095 35.9466 45.6095 37.3731C45.6095 39.8506 43.6205 40.9061 38.955 40.9061Z" fill="#83CD29"/>
</svg>
