<svg width="64" height="65" viewBox="0 0 64 65" fill="none" xmlns="http://www.w3.org/2000/svg">
<path d="M31.9998 37.8836C35.1478 37.8836 37.6998 35.3317 37.6998 32.1836C37.6998 29.0356 35.1478 26.4836 31.9998 26.4836C28.8518 26.4836 26.2998 29.0356 26.2998 32.1836C26.2998 35.3317 28.8518 37.8836 31.9998 37.8836Z" fill="#61DAFB"/>
<path d="M53.65 22.7836C52.55 22.3836 51.4 21.9836 50.2 21.6336C50.5 20.4336 50.75 19.2336 50.95 18.0836C52 11.4836 50.85 6.83364 47.65 5.03364C46.7 4.48364 45.65 4.23364 44.45 4.23364C40.95 4.23364 36.5 6.83364 32 11.1836C27.5 6.83364 23.0499 4.23364 19.5499 4.23364C18.3499 4.23364 17.3 4.48364 16.35 5.03364C13.15 6.88364 12 11.5336 13.05 18.0836C13.25 19.2336 13.5 20.4336 13.8 21.6336C12.6 21.9836 11.45 22.3336 10.35 22.7836C4.09995 25.1836 0.699951 28.4836 0.699951 32.1836C0.699951 35.8836 4.14995 39.1836 10.35 41.5836C11.45 41.9836 12.6 42.3836 13.8 42.7336C13.5 43.9336 13.25 45.1336 13.05 46.2836C12 52.8836 13.15 57.5336 16.35 59.3336C17.3 59.8836 18.3499 60.1336 19.5499 60.1336C23.0999 60.1336 27.55 57.5336 32 53.1836C36.5 57.5336 40.95 60.1336 44.45 60.1336C45.65 60.1336 46.7 59.8836 47.65 59.3336C50.85 57.4836 52 52.8336 50.95 46.2836C50.75 45.1336 50.5 43.9336 50.2 42.7336C51.4 42.3836 52.55 42.0336 53.65 41.5836C59.9 39.1836 63.2999 35.8836 63.2999 32.1836C63.2999 28.4836 59.9 25.1836 53.65 22.7836V22.7836ZM46.25 7.53364C48.3 8.73364 49 12.4336 48.15 17.6836C48 18.7336 47.75 19.8336 47.45 20.9836C44.85 20.3836 42.1 19.9836 39.2 19.7336C37.5 17.3336 35.75 15.1836 34 13.2336C37.7 9.58364 41.45 7.08364 44.5 7.08364C45.15 7.08364 45.75 7.23364 46.25 7.53364V7.53364ZM40.65 37.1836C39.75 38.7836 38.6999 40.3836 37.5999 41.9836C35.7499 42.1336 33.9 42.1836 32 42.1836C30.05 42.1836 28.1999 42.1336 26.4 41.9836C25.3 40.3836 24.3 38.7836 23.4 37.1836C22.45 35.5336 21.55 33.8336 20.75 32.1836C21.55 30.5336 22.45 28.8336 23.4 27.1836C24.3 25.5836 25.35 23.9836 26.45 22.3836C28.3 22.2336 30.1499 22.1836 32.0499 22.1836C33.9999 22.1836 35.85 22.2336 37.65 22.3836C38.75 23.9836 39.75 25.5836 40.65 27.1836C41.6 28.8336 42.4999 30.5336 43.2999 32.1836C42.4499 33.8336 41.6 35.4836 40.65 37.1836ZM44.7999 35.5336C45.5499 37.2836 46.15 38.9836 46.7 40.6836C45 41.0836 43.1999 41.3836 41.2999 41.6336C41.8999 40.6836 42.5499 39.6836 43.0999 38.6336C43.6999 37.5836 44.2499 36.5336 44.7999 35.5336ZM32 49.0836C30.8 47.7836 29.6499 46.3836 28.5499 44.9336C29.6999 44.9836 30.85 45.0336 32 45.0336C33.15 45.0336 34.3 44.9836 35.45 44.9336C34.35 46.3836 33.2 47.7836 32 49.0836ZM22.7 41.5836C20.8 41.3336 18.9999 41.0336 17.2999 40.6336C17.8499 38.9836 18.45 37.2336 19.2 35.4836C19.75 36.4836 20.3 37.5336 20.9 38.5336C21.5 39.6336 22.1 40.5836 22.7 41.5836V41.5836ZM19.2 28.8336C18.45 27.0836 17.8499 25.3836 17.2999 23.6836C18.9999 23.2836 20.8 22.9836 22.7 22.7336C22.1 23.6836 21.45 24.6836 20.9 25.7336C20.3 26.7836 19.75 27.8336 19.2 28.8336V28.8336ZM32 15.2836C33.2 16.5836 34.35 17.9836 35.45 19.4336C34.3 19.3836 33.15 19.3336 32 19.3336C30.85 19.3336 29.6999 19.3836 28.5499 19.4336C29.6499 17.9836 30.8 16.5836 32 15.2836ZM43.0999 25.7836L41.2999 22.7836C43.1999 23.0336 45 23.3336 46.7 23.7336C46.15 25.3836 45.5499 27.1336 44.7999 28.8836C44.2499 27.8336 43.6999 26.7836 43.0999 25.7836ZM15.85 17.6836C15 12.4336 15.7 8.73364 17.75 7.53364C18.25 7.23364 18.85 7.08364 19.5 7.08364C22.5 7.08364 26.25 9.53364 30 13.2336C28.25 15.1336 26.4999 17.3336 24.7999 19.7336C21.8999 19.9836 19.15 20.4336 16.55 20.9836C16.25 19.8336 16.05 18.7336 15.85 17.6836V17.6836ZM3.49995 32.1836C3.49995 29.8336 6.34995 27.3336 11.35 25.4836C12.35 25.0836 13.45 24.7336 14.55 24.4336C15.35 26.9336 16.3499 29.5836 17.5499 32.2336C16.3499 34.8836 15.3 37.4836 14.55 39.9836C7.64995 37.9836 3.49995 34.9836 3.49995 32.1836ZM17.75 56.8336C15.7 55.6336 15 51.9336 15.85 46.6836C16 45.6336 16.25 44.5336 16.55 43.3836C19.15 43.9836 21.8999 44.3836 24.7999 44.6336C26.4999 47.0336 28.25 49.1836 30 51.1336C26.3 54.7836 22.55 57.2836 19.5 57.2836C18.85 57.2836 18.25 57.1336 17.75 56.8336ZM48.15 46.6836C49 51.9336 48.3 55.6336 46.25 56.8336C45.75 57.1336 45.15 57.2836 44.5 57.2836C41.5 57.2836 37.75 54.8336 34 51.1336C35.75 49.2336 37.5 47.0336 39.2 44.6336C42.1 44.3836 44.85 43.9336 47.45 43.3836C47.75 44.5336 47.95 45.6336 48.15 46.6836V46.6836ZM52.65 38.8836C51.65 39.2836 50.55 39.6336 49.45 39.9336C48.65 37.4336 47.65 34.7836 46.45 32.1336C47.65 29.4836 48.7 26.8836 49.45 24.3836C56.35 26.3836 60.5 29.3836 60.5 32.1836C60.5 34.5336 57.6 37.0336 52.65 38.8836Z" fill="#61DAFB"/>
</svg>
