<svg width="132" height="41" viewBox="0 0 132 41" fill="none" xmlns="http://www.w3.org/2000/svg">
<path d="M0.680842 40.1836V0.910865H14.6794C17.722 0.910865 20.2469 1.43501 22.254 2.48331C24.2739 3.5316 25.7824 4.9826 26.7796 6.83629C27.7767 8.6772 28.2753 10.8058 28.2753 13.2219C28.2753 15.6254 27.7703 17.7411 26.7604 19.5692C25.7632 21.3846 24.2547 22.7972 22.2348 23.8072C20.2277 24.8171 17.7029 25.3221 14.6602 25.3221H4.05584V20.2212H14.1233C16.0409 20.2212 17.6006 19.9464 18.8023 19.3967C20.0168 18.8469 20.9053 18.0479 21.4678 16.9996C22.0303 15.9513 22.3115 14.6921 22.3115 13.2219C22.3115 11.739 22.0239 10.4542 21.4486 9.36754C20.8861 8.28089 19.9976 7.44993 18.7831 6.87465C17.5814 6.28658 16.0026 5.99254 14.0466 5.99254H6.60627V40.1836H0.680842ZM20.0679 22.4648L29.771 40.1836H23.021L13.5097 22.4648H20.0679ZM35.4855 40.1836V0.910865H60.1077V6.01172H41.411V17.9776H58.8229V23.0593H41.411V35.0827H60.3378V40.1836H35.4855ZM89.4424 11.2276C89.2378 9.41229 88.3941 8.00604 86.9111 7.00888C85.4282 5.99893 83.5617 5.49396 81.3117 5.49396C79.7009 5.49396 78.3074 5.74964 77.1313 6.26101C75.9552 6.75959 75.0411 7.44993 74.3891 8.33203C73.7499 9.20135 73.4303 10.1921 73.4303 11.3043C73.4303 12.2376 73.6476 13.043 74.0823 13.7205C74.5297 14.3981 75.1114 14.967 75.8273 15.4272C76.556 15.8746 77.3358 16.2518 78.1668 16.5586C78.9978 16.8526 79.7968 17.0955 80.5638 17.2873L84.3991 18.2844C85.6519 18.5913 86.9367 19.0067 88.2535 19.5309C89.5702 20.055 90.7911 20.7454 91.9161 21.6019C93.0411 22.4585 93.9488 23.5195 94.6391 24.7852C95.3422 26.0508 95.6938 27.5657 95.6938 29.3299C95.6938 31.5543 95.1185 33.5295 93.968 35.2553C92.8302 36.9812 91.1746 38.3427 89.0013 39.3398C86.8408 40.337 84.2265 40.8356 81.1583 40.8356C78.218 40.8356 75.6739 40.369 73.5262 39.4357C71.3785 38.5025 69.6974 37.1793 68.4829 35.4663C67.2684 33.7404 66.5972 31.695 66.4694 29.3299H72.414C72.529 30.7489 72.9893 31.9315 73.7947 32.8775C74.6128 33.8107 75.6547 34.5075 76.9204 34.9677C78.1988 35.4151 79.5986 35.6388 81.1199 35.6388C82.7947 35.6388 84.284 35.3768 85.588 34.8526C86.9047 34.3157 87.9403 33.5742 88.6945 32.6282C89.4488 31.6694 89.8259 30.5508 89.8259 29.2724C89.8259 28.109 89.4935 27.1566 88.8287 26.4151C88.1768 25.6737 87.2883 25.06 86.1633 24.5742C85.051 24.0884 83.7918 23.6602 82.3856 23.2894L77.7449 22.0238C74.6001 21.1673 72.1072 19.908 70.2662 18.2461C68.4381 16.5842 67.5241 14.3853 67.5241 11.6495C67.5241 9.38672 68.1377 7.41157 69.365 5.72407C70.5922 4.03657 72.2542 2.72621 74.3508 1.79297C76.4474 0.846945 78.8124 0.373933 81.4459 0.373933C84.105 0.373933 86.4509 0.840553 88.4836 1.77379C90.529 2.70703 92.1398 3.99183 93.316 5.62819C94.4921 7.25177 95.1057 9.11825 95.1569 11.2276H89.4424ZM100.838 6.01172V0.910865H131.232V6.01172H118.978V40.1836H113.072V6.01172H100.838Z" fill="#3F93D3"/>
</svg>
