<svg width="64" height="65" viewBox="0 0 64 65" fill="none" xmlns="http://www.w3.org/2000/svg">
<path d="M63.1651 17.2136C63.1647 15.8987 63.0324 14.5871 62.7701 13.2986C62.5077 11.9795 62.0617 10.7038 61.4451 9.50859C60.8007 8.35092 59.9998 7.28758 59.0651 6.34859C58.101 5.40529 56.9812 4.63563 55.7551 4.07359C54.5451 3.46344 53.2509 3.03709 51.9151 2.80859C50.5901 2.55359 49.1351 2.55359 47.8101 2.42859H15.1251C14.1055 2.44519 13.0882 2.53038 12.0801 2.68359C11.0797 2.80136 10.1004 3.05713 9.1701 3.44359C8.9051 3.56859 8.5101 3.69859 8.2451 3.82359C7.36498 4.29537 6.52837 4.84418 5.7451 5.46359C5.4801 5.71859 5.2151 5.84359 4.9501 6.09359C3.97563 6.99743 3.16974 8.06744 2.5701 9.25359C1.91526 10.432 1.46712 11.7139 1.2451 13.0436C1.04806 14.3412 0.916226 15.6478 0.850098 16.9586V47.1536C0.850509 48.4685 0.982838 49.7801 1.2451 51.0686C1.50749 52.3876 1.95349 53.6634 2.5701 54.8586C3.21449 56.0163 4.01536 57.0796 4.9501 58.0186C5.91418 58.9619 7.03398 59.7315 8.2601 60.2936C9.47012 60.9037 10.7643 61.3301 12.1001 61.5586C13.4251 61.8136 14.8801 61.8136 16.2051 61.9386H47.8151C49.1922 61.9376 50.5662 61.8104 51.9201 61.5586C53.2558 61.3301 54.5501 60.9037 55.7601 60.2936C56.96 59.6864 58.0733 58.9213 59.0701 58.0186C60.0446 57.1147 60.8505 56.0447 61.4501 54.8586C62.1049 53.6802 62.5531 52.3983 62.7751 51.0686C62.9721 49.771 63.104 48.4644 63.1701 47.1536V17.2136H63.1651Z" fill="#F05138"/>
<path d="M42.4999 48.4336C36.9449 51.4986 29.3099 51.8136 21.6249 48.6686C15.633 46.2374 10.5099 42.0618 6.91992 36.6836C8.58828 37.9607 10.411 39.0224 12.3449 39.8436C20.2799 43.3936 28.2099 43.1486 33.7949 39.8436C25.8449 34.0136 19.0949 26.4336 14.0649 20.2436C13.0723 19.1975 12.1863 18.0552 11.4199 16.8336C17.4999 22.1386 27.1699 28.8336 30.6099 30.7286C25.6983 25.696 21.1847 20.2898 17.1099 14.5586C23.8835 21.141 31.3369 26.9854 39.3449 31.9936C39.6999 32.1836 39.9749 32.3436 40.1949 32.4936C40.4297 31.9205 40.6317 31.3345 40.7999 30.7386C42.6549 24.2936 40.5349 16.9686 35.9049 10.9036C46.6249 17.0886 52.9999 28.7086 50.3299 38.4386C50.2599 38.7036 50.1849 38.9386 50.1049 39.2136L50.1999 39.3236C55.4949 45.6386 54.0399 52.3236 53.3749 51.0736C50.4999 45.6836 45.1849 47.3486 42.4999 48.4336Z" fill="#FEFEFE"/>
</svg>
