<svg width="580" height="361" viewBox="222 0 580 361" fill="none" xmlns="http://www.w3.org/2000/svg">
<rect x="407.5" y="76.13" width="209" height="209" rx="104.5" fill="url(#paint0_linear_451_914)" stroke="#AC8EFF"/>
<rect x="372.5" y="41.13" width="279" height="279" rx="139.5" fill="url(#paint1_linear_451_914)" stroke="#AC8EFF"/>
<rect x="332.5" y="1.13" width="359" height="359" rx="179.5" fill="url(#paint2_linear_451_914)" stroke="#AC8EFF"/>
<g clip-path="url(#clip0_451_914)">
<g clip-path="url(#clip1_451_914)">
<path d="M262 180.63C262 169.584 253.046 160.63 242 160.63C230.954 160.63 222 169.584 222 180.63C222 191.676 230.954 200.63 242 200.63C253.046 200.63 262 191.676 262 180.63Z" fill="#8B62FF" fill-opacity="0.0905882"/>
<path d="M261.861 180.63C261.861 169.661 252.969 160.769 242 160.769C231.031 160.769 222.139 169.661 222.139 180.63C222.139 191.599 231.031 200.491 242 200.491C252.969 200.491 261.861 191.599 261.861 180.63Z" stroke="url(#paint3_linear_451_914)" stroke-opacity="0.2" stroke-width="0.555556"/>
</g>
</g>
<path d="M235.912 175.154C235.912 173.346 237.378 171.88 239.187 171.88H244.805C246.613 171.88 248.079 173.346 248.079 175.154C248.079 176.299 247.491 177.307 246.601 177.892C247.491 178.477 248.079 179.485 248.079 180.63C248.079 182.438 246.613 183.904 244.805 183.904H244.734C243.886 183.904 243.113 183.582 242.532 183.053V186.07C242.532 187.903 241.028 189.38 239.204 189.38C237.4 189.38 235.912 187.919 235.912 186.106C235.912 184.961 236.5 183.953 237.39 183.368C236.5 182.783 235.912 181.775 235.912 180.63C235.912 179.485 236.5 178.477 237.39 177.892C236.5 177.307 235.912 176.299 235.912 175.154ZM239.187 177.356H241.459V172.952H239.187C237.971 172.952 236.985 173.938 236.985 175.154C236.985 176.37 237.971 177.356 239.187 177.356ZM241.459 178.428H239.187C237.971 178.428 236.985 179.414 236.985 180.63C236.985 181.846 237.971 182.832 239.187 182.832H241.459V178.428ZM241.459 183.904H239.187C237.971 183.904 236.985 184.89 236.985 186.106C236.985 187.317 237.984 188.308 239.204 188.308C240.444 188.308 241.459 187.301 241.459 186.07V183.904ZM244.734 178.428C243.518 178.428 242.532 179.414 242.532 180.63C242.532 181.846 243.518 182.832 244.734 182.832H244.805C246.021 182.832 247.006 181.846 247.006 180.63C247.006 179.414 246.021 178.428 244.805 178.428H244.734ZM244.805 177.356C246.021 177.356 247.006 176.37 247.006 175.154C247.006 173.938 246.021 172.952 244.805 172.952H242.532V177.356H244.805Z" fill="white"/>
<g clip-path="url(#clip2_451_914)">
<g clip-path="url(#clip3_451_914)">
<path d="M334 180.63C334 165.166 321.464 152.63 306 152.63C290.536 152.63 278 165.166 278 180.63C278 196.094 290.536 208.63 306 208.63C321.464 208.63 334 196.094 334 180.63Z" fill="#8B62FF" fill-opacity="0.0905882"/>
<path d="M333.806 180.63C333.806 165.273 321.357 152.824 306 152.824C290.643 152.824 278.194 165.273 278.194 180.63C278.194 195.987 290.643 208.436 306 208.436C321.357 208.436 333.806 195.987 333.806 180.63Z" stroke="url(#paint4_linear_451_914)" stroke-opacity="0.2" stroke-width="0.777778"/>
</g>
</g>
<path d="M317.842 178.075L317.807 177.986L314.473 168.951C314.41 168.776 314.291 168.626 314.135 168.523C313.979 168.421 313.795 168.371 313.609 168.382C313.423 168.393 313.245 168.463 313.102 168.582C312.959 168.702 312.858 168.864 312.814 169.045L310.562 176.196H301.445L299.192 169.045C299.159 168.911 299.093 168.787 299.002 168.683C298.911 168.579 298.797 168.498 298.668 168.447C298.54 168.396 298.401 168.376 298.264 168.388C298.126 168.401 297.993 168.446 297.876 168.52C297.72 168.624 297.6 168.775 297.533 168.951L294.191 177.981L294.159 178.073C293.679 179.379 293.62 180.803 293.99 182.144C294.352 183.473 295.131 184.65 296.212 185.504L296.224 185.513L296.254 185.535L301.334 189.485L303.847 191.459L305.379 192.66C305.556 192.799 305.776 192.876 306.002 192.876C306.228 192.876 306.447 192.799 306.625 192.66L308.154 191.459L310.667 189.485L315.777 185.513L315.791 185.5C316.87 184.647 317.647 183.471 318.008 182.144C318.378 180.805 318.32 179.383 317.842 178.079V178.075Z" fill="#9C9DA1"/>
<path d="M317.842 178.075L317.807 177.986C316.174 178.336 314.641 179.051 313.324 180.077L306 185.827C308.494 187.787 310.666 189.488 310.666 189.488L315.776 185.516L315.789 185.504C316.87 184.65 317.648 183.473 318.01 182.145C318.38 180.805 318.321 179.38 317.842 178.075Z" fill="#9C9DA1"/>
<path d="M301.335 189.489L303.848 191.463L305.379 192.663C305.556 192.803 305.776 192.879 306.002 192.879C306.228 192.879 306.447 192.803 306.625 192.663L308.154 191.463L310.667 189.489C310.667 189.489 308.494 187.781 306 185.828C303.506 187.781 301.335 189.489 301.335 189.489Z" fill="#9C9DA1"/>
<path d="M298.675 180.077C297.348 179.044 295.817 178.327 294.193 177.98L294.158 178.071C293.678 179.377 293.619 180.801 293.99 182.142C294.352 183.471 295.131 184.648 296.212 185.502L296.225 185.511L296.254 185.533L301.335 189.483L306 185.822L298.675 180.077Z" fill="#9C9DA1"/>
<g clip-path="url(#clip4_451_914)">
<g clip-path="url(#clip5_451_914)">
<path d="M422 180.63C422 160.748 405.882 144.63 386 144.63C366.118 144.63 350 160.748 350 180.63C350 200.512 366.118 216.63 386 216.63C405.882 216.63 422 200.512 422 180.63Z" fill="#8B62FF" fill-opacity="0.0905882"/>
<path d="M421.75 180.63C421.75 160.886 405.744 144.88 386 144.88C366.256 144.88 350.25 160.886 350.25 180.63C350.25 200.374 366.256 216.38 386 216.38C405.744 216.38 421.75 200.374 421.75 180.63Z" stroke="url(#paint5_linear_451_914)" stroke-opacity="0.2"/>
</g>
</g>
<path d="M384.801 175.682V193.255H370.25L384.801 175.682ZM384.803 169.38C384.803 171.307 384.037 173.156 382.674 174.519C381.311 175.882 379.463 176.648 377.535 176.648C375.608 176.648 373.76 175.882 372.397 174.519C371.034 173.156 370.268 171.307 370.268 169.38H384.803ZM387.199 193.253C387.199 192.298 387.387 191.353 387.752 190.471C388.118 189.59 388.653 188.788 389.328 188.114C390.003 187.439 390.804 186.903 391.686 186.538C392.567 186.173 393.512 185.985 394.467 185.985C395.421 185.985 396.366 186.173 397.248 186.538C398.13 186.903 398.931 187.439 399.606 188.114C400.28 188.788 400.816 189.59 401.181 190.471C401.546 191.353 401.734 192.298 401.734 193.253H387.199ZM387.199 186.953V169.38H401.75L387.199 186.953Z" fill="#9C9DA1"/>
<g clip-path="url(#clip6_451_914)">
<g clip-path="url(#clip7_451_914)">
<path d="M674 180.63C674 160.748 657.882 144.63 638 144.63C618.118 144.63 602 160.748 602 180.63C602 200.512 618.118 216.63 638 216.63C657.882 216.63 674 200.512 674 180.63Z" fill="#8B62FF" fill-opacity="0.0905882"/>
<path d="M673.75 180.63C673.75 160.886 657.744 144.88 638 144.88C618.256 144.88 602.25 160.886 602.25 180.63C602.25 200.374 618.256 216.38 638 216.38C657.744 216.38 673.75 200.374 673.75 180.63Z" stroke="url(#paint6_linear_451_914)" stroke-opacity="0.2"/>
</g>
</g>
<path d="M632.07 164.88C629.132 164.88 626.75 167.225 626.75 170.117V196.355H634.321C635.79 196.355 636.981 195.183 636.981 193.736V183.825C634.467 182.809 632.697 180.374 632.697 177.533C632.697 173.778 635.789 170.734 639.603 170.734C642.489 170.734 644.962 172.477 645.994 174.952H646.471C647.94 174.952 649.131 173.78 649.131 172.333V164.88H632.07Z" fill="white"/>
<path d="M634.625 177.818C634.625 180.613 636.892 182.88 639.688 182.88C642.483 182.88 644.75 180.613 644.75 177.818C644.75 175.022 642.483 172.755 639.688 172.755C636.892 172.755 634.625 175.022 634.625 177.818Z" fill="white"/>
<g clip-path="url(#clip8_451_914)">
<g clip-path="url(#clip9_451_914)">
<path d="M746 180.63C746 165.166 733.464 152.63 718 152.63C702.536 152.63 690 165.166 690 180.63C690 196.094 702.536 208.63 718 208.63C733.464 208.63 746 196.094 746 180.63Z" fill="#8B62FF" fill-opacity="0.0905882"/>
<path d="M745.806 180.63C745.806 165.273 733.357 152.824 718 152.824C702.643 152.824 690.194 165.273 690.194 180.63C690.194 195.987 702.643 208.436 718 208.436C733.357 208.436 745.806 195.987 745.806 180.63Z" stroke="url(#paint7_linear_451_914)" stroke-opacity="0.2" stroke-width="0.777778"/>
</g>
</g>
<path d="M724.147 170.065C722.27 168.942 720.223 168.38 717.999 168.38C715.777 168.38 713.728 168.942 711.85 170.065C709.975 171.187 708.488 172.71 707.393 174.634C706.296 176.559 705.75 178.659 705.75 180.937C705.75 183.673 706.529 186.133 708.087 188.318C709.644 190.5 711.656 192.017 714.124 192.853C714.41 192.908 714.623 192.87 714.761 192.739C714.899 192.606 714.968 192.445 714.968 192.249L714.96 191.364C714.955 190.808 714.951 190.324 714.951 189.909L714.585 189.974C714.352 190.018 714.056 190.036 713.7 190.03C713.344 190.026 712.974 189.987 712.592 189.916C712.212 189.846 711.857 189.683 711.527 189.427C711.197 189.17 710.963 188.835 710.825 188.421L710.665 188.043C710.559 187.793 710.391 187.515 710.163 187.212C709.934 186.904 709.704 186.697 709.47 186.589L709.357 186.507C709.283 186.452 709.216 186.388 709.15 186.312C709.086 186.235 709.039 186.159 709.008 186.083C708.976 186.004 709.002 185.943 709.086 185.894C709.171 185.843 709.326 185.821 709.548 185.821L709.869 185.869C710.08 185.912 710.343 186.044 710.657 186.261C710.971 186.48 711.229 186.763 711.43 187.112C711.675 187.558 711.97 187.899 712.315 188.133C712.661 188.368 713.01 188.486 713.361 188.486C713.71 188.486 714.014 188.456 714.27 188.403C714.524 188.349 714.764 188.266 714.986 188.159C715.084 187.427 715.344 186.865 715.768 186.473C715.163 186.407 714.618 186.309 714.135 186.178C713.651 186.047 713.151 185.835 712.637 185.54C712.119 185.246 711.692 184.882 711.352 184.444C711.012 184.011 710.733 183.436 710.516 182.732C710.299 182.02 710.189 181.205 710.189 180.278C710.189 178.96 710.607 177.837 711.448 176.909C711.054 175.917 711.09 174.806 711.561 173.573C711.867 173.475 712.324 173.549 712.931 173.793C713.537 174.038 713.979 174.248 714.261 174.421C714.544 174.598 714.77 174.744 714.94 174.864C715.926 174.586 716.946 174.446 717.999 174.446C719.052 174.446 720.072 174.588 721.061 174.871L721.667 174.477C722.082 174.216 722.572 173.978 723.135 173.758C723.7 173.541 724.132 173.481 724.43 173.579C724.908 174.812 724.951 175.922 724.557 176.915C725.396 177.841 725.816 178.964 725.816 180.283C725.816 181.208 725.706 182.029 725.489 182.743C725.272 183.458 724.99 184.033 724.643 184.463C724.298 184.893 723.868 185.255 723.352 185.55C722.836 185.844 722.334 186.056 721.854 186.186C721.369 186.318 720.827 186.415 720.218 186.48C720.771 186.969 721.047 187.742 721.047 188.802V192.252C721.047 192.448 721.113 192.61 721.247 192.741C721.379 192.872 721.589 192.911 721.876 192.856C724.345 192.015 726.356 190.504 727.913 188.316C729.471 186.134 730.25 183.672 730.25 180.937C730.25 178.66 729.702 176.559 728.607 174.635C727.511 172.711 726.025 171.188 724.15 170.066L724.147 170.065Z" fill="#9C9DA1"/>
<g clip-path="url(#clip10_451_914)">
<g clip-path="url(#clip11_451_914)">
<path d="M802 180.63C802 169.584 793.046 160.63 782 160.63C770.954 160.63 762 169.584 762 180.63C762 191.676 770.954 200.63 782 200.63C793.046 200.63 802 191.676 802 180.63Z" fill="#8B62FF" fill-opacity="0.0905882"/>
<path d="M801.861 180.63C801.861 169.661 792.969 160.769 782 160.769C771.031 160.769 762.139 169.661 762.139 180.63C762.139 191.599 771.031 200.491 782 200.491C792.969 200.491 801.861 191.599 801.861 180.63Z" stroke="url(#paint8_linear_451_914)" stroke-opacity="0.2" stroke-width="0.555556"/>
</g>
</g>
<path d="M788.416 181.501C788.409 181.651 788.345 181.793 788.236 181.896C788.128 182 787.983 182.058 787.833 182.058C787.683 182.058 787.539 182 787.43 181.896C787.321 181.793 787.257 181.651 787.25 181.501V176.255C787.25 176.1 787.311 175.952 787.421 175.843C787.53 175.733 787.678 175.672 787.833 175.672C787.988 175.672 788.136 175.733 788.245 175.843C788.355 175.952 788.416 176.1 788.416 176.255V181.501ZM788.214 185.153C788.122 185.23 785.962 187.044 782 187.044C778.037 187.044 775.878 185.23 775.787 185.153C775.729 185.103 775.681 185.042 775.647 184.974C775.612 184.906 775.591 184.831 775.585 184.755C775.572 184.6 775.622 184.448 775.722 184.33C775.823 184.212 775.966 184.139 776.12 184.127C776.275 184.115 776.427 184.165 776.545 184.265C776.579 184.295 778.509 185.878 782 185.878C785.535 185.878 787.435 184.283 787.454 184.266C787.571 184.166 787.724 184.116 787.879 184.128C788.033 184.14 788.176 184.213 788.277 184.331C788.377 184.448 788.427 184.601 788.415 184.756C788.403 184.91 788.33 185.053 788.213 185.154L788.214 185.153ZM775.584 176.255C775.591 176.105 775.655 175.963 775.764 175.86C775.872 175.756 776.017 175.698 776.167 175.698C776.317 175.698 776.461 175.756 776.57 175.86C776.679 175.963 776.743 176.105 776.75 176.255V181.501C776.743 181.651 776.679 181.793 776.57 181.896C776.461 182 776.317 182.058 776.167 182.058C776.017 182.058 775.872 182 775.764 181.896C775.655 181.793 775.591 181.651 775.584 181.501V176.255ZM778.5 175.089C778.507 174.939 778.571 174.797 778.68 174.694C778.789 174.59 778.933 174.532 779.083 174.532C779.233 174.532 779.378 174.59 779.486 174.694C779.595 174.797 779.659 174.939 779.666 175.089V182.88C779.659 183.03 779.595 183.172 779.486 183.275C779.378 183.379 779.233 183.437 779.083 183.437C778.933 183.437 778.789 183.379 778.68 183.275C778.571 183.172 778.507 183.03 778.5 182.88V175.089ZM781.416 174.794C781.416 174.639 781.478 174.49 781.587 174.381C781.697 174.272 781.845 174.21 782 174.21C782.155 174.21 782.303 174.272 782.413 174.381C782.522 174.49 782.584 174.639 782.584 174.794V183.251C782.584 183.406 782.522 183.555 782.413 183.664C782.303 183.774 782.155 183.835 782 183.835C781.845 183.835 781.697 183.774 781.587 183.664C781.478 183.555 781.416 183.406 781.416 183.251V174.794ZM784.334 175.089C784.341 174.939 784.405 174.797 784.514 174.694C784.622 174.59 784.767 174.532 784.917 174.532C785.067 174.532 785.211 174.59 785.32 174.694C785.429 174.797 785.493 174.939 785.5 175.089V182.88C785.493 183.03 785.429 183.172 785.32 183.275C785.211 183.379 785.067 183.437 784.917 183.437C784.767 183.437 784.622 183.379 784.514 183.275C784.405 183.172 784.341 183.03 784.334 182.88V175.089ZM788.562 171.88H775.438C774.857 171.88 774.301 172.11 773.891 172.521C773.48 172.931 773.25 173.487 773.25 174.068V187.193C773.25 188.4 774.23 189.38 775.438 189.38H788.562C789.143 189.38 789.699 189.15 790.109 188.739C790.52 188.329 790.75 187.773 790.75 187.193V174.068C790.75 173.487 790.52 172.931 790.109 172.521C789.699 172.11 789.143 171.88 788.562 171.88Z" fill="#9C9DA1"/>
<g clip-path="url(#clip12_451_914)">
<path fill-rule="evenodd" clip-rule="evenodd" d="M511.809 217.836C532.465 217.836 549.211 201.09 549.211 180.433C549.211 159.777 532.465 143.031 511.809 143.031C491.152 143.031 474.406 159.776 474.406 180.433C474.406 201.09 491.151 217.836 511.809 217.836ZM511.029 160.174C509.996 160.174 509.005 160.584 508.274 161.315C507.543 162.046 507.133 163.037 507.133 164.07V177.316H495.445C494.412 177.316 493.421 177.726 492.69 178.457C491.959 179.188 491.549 180.179 491.549 181.212C491.549 182.245 491.959 183.236 492.69 183.967C493.421 184.698 494.412 185.108 495.445 185.108H507.133V196.797C507.133 197.83 507.543 198.821 508.274 199.552C509.005 200.283 509.996 200.693 511.029 200.693C512.062 200.693 513.053 200.283 513.784 199.552C514.515 198.821 514.925 197.83 514.925 196.797V185.108H528.172C529.205 185.108 530.196 184.698 530.927 183.967C531.658 183.236 532.068 182.245 532.068 181.212C532.068 180.179 531.658 179.188 530.927 178.457C530.196 177.726 529.205 177.316 528.172 177.316H514.925V164.07C514.925 163.558 514.824 163.052 514.628 162.579C514.433 162.106 514.146 161.677 513.784 161.315C513.422 160.953 512.993 160.666 512.52 160.471C512.047 160.275 511.541 160.174 511.029 160.174Z" fill="url(#paint9_linear_451_914)" fill-opacity="0.8"/>
<path d="M548.432 180.433C548.432 200.66 532.035 217.056 511.809 217.056C491.582 217.056 475.185 200.66 475.185 180.433C475.185 160.207 491.582 143.81 511.81 143.81C532.036 143.81 548.432 160.207 548.432 180.433ZM511.029 159.394C510.415 159.394 509.807 159.515 509.24 159.75C508.672 159.985 508.157 160.329 507.723 160.764C507.289 161.198 506.944 161.713 506.71 162.281C506.475 162.848 506.354 163.456 506.354 164.07V176.537H495.445C494.205 176.537 493.016 177.03 492.139 177.906C491.263 178.783 490.77 179.972 490.77 181.212C490.77 182.452 491.263 183.641 492.139 184.518C493.016 185.395 494.205 185.887 495.445 185.887H506.355V196.797C506.355 198.037 506.848 199.226 507.724 200.103C508.601 200.98 509.79 201.472 511.03 201.472C512.27 201.472 513.459 200.98 514.336 200.103C515.212 199.226 515.705 198.037 515.705 196.797V185.887H528.172C529.412 185.887 530.601 185.395 531.478 184.518C532.354 183.641 532.847 182.452 532.847 181.212C532.847 179.972 532.354 178.783 531.478 177.906C530.601 177.03 529.412 176.537 528.172 176.537H515.705V164.07C515.705 163.456 515.584 162.848 515.349 162.28C515.114 161.713 514.77 161.198 514.336 160.763C513.901 160.329 513.386 159.985 512.819 159.75C512.251 159.515 511.643 159.394 511.029 159.394Z" stroke="url(#paint10_linear_451_914)" stroke-opacity="0.2" stroke-width="1.558"/>
<mask id="mask0_451_914" style="mask-type:alpha" maskUnits="userSpaceOnUse" x="438" y="106" width="148" height="149">
<rect x="438" y="106.63" width="148" height="148" fill="black"/>
</mask>
<g mask="url(#mask0_451_914)">
<rect x="438" y="106.63" width="148" height="148" rx="74" fill="url(#paint11_linear_451_914)"/>
</g>
<rect x="438" y="106.63" width="148" height="148" fill="url(#paint12_linear_451_914)"/>
</g>
<defs>
<linearGradient id="paint0_linear_451_914" x1="407" y1="180.63" x2="617" y2="180.63" gradientUnits="userSpaceOnUse">
<stop stop-color="#150B30"/>
<stop offset="1" stop-color="#5B39B8"/>
</linearGradient>
<linearGradient id="paint1_linear_451_914" x1="372" y1="180.63" x2="652" y2="180.63" gradientUnits="userSpaceOnUse">
<stop stop-color="#150B30"/>
<stop offset="1" stop-color="#5B39B8"/>
</linearGradient>
<linearGradient id="paint2_linear_451_914" x1="332" y1="180.63" x2="692" y2="180.63" gradientUnits="userSpaceOnUse">
<stop stop-color="#150B30"/>
<stop offset="1" stop-color="#5B39B8"/>
</linearGradient>
<linearGradient id="paint3_linear_451_914" x1="242" y1="160.63" x2="242" y2="210.63" gradientUnits="userSpaceOnUse">
<stop stop-color="white"/>
<stop offset="1" stop-color="white" stop-opacity="0"/>
</linearGradient>
<linearGradient id="paint4_linear_451_914" x1="306" y1="152.63" x2="306" y2="222.63" gradientUnits="userSpaceOnUse">
<stop stop-color="white"/>
<stop offset="1" stop-color="white" stop-opacity="0"/>
</linearGradient>
<linearGradient id="paint5_linear_451_914" x1="386" y1="144.63" x2="386" y2="234.63" gradientUnits="userSpaceOnUse">
<stop stop-color="white"/>
<stop offset="1" stop-color="white" stop-opacity="0"/>
</linearGradient>
<linearGradient id="paint6_linear_451_914" x1="638" y1="144.63" x2="638" y2="234.63" gradientUnits="userSpaceOnUse">
<stop stop-color="white"/>
<stop offset="1" stop-color="white" stop-opacity="0"/>
</linearGradient>
<linearGradient id="paint7_linear_451_914" x1="718" y1="152.63" x2="718" y2="222.63" gradientUnits="userSpaceOnUse">
<stop stop-color="white"/>
<stop offset="1" stop-color="white" stop-opacity="0"/>
</linearGradient>
<linearGradient id="paint8_linear_451_914" x1="782" y1="160.63" x2="782" y2="210.63" gradientUnits="userSpaceOnUse">
<stop stop-color="white"/>
<stop offset="1" stop-color="white" stop-opacity="0"/>
</linearGradient>
<linearGradient id="paint9_linear_451_914" x1="511.809" y1="143.031" x2="511.809" y2="217.836" gradientUnits="userSpaceOnUse">
<stop stop-color="#6C38FF"/>
<stop offset="1" stop-color="#B59AFF"/>
</linearGradient>
<linearGradient id="paint10_linear_451_914" x1="511.809" y1="143.031" x2="511.809" y2="217.836" gradientUnits="userSpaceOnUse">
<stop stop-color="white"/>
<stop offset="1" stop-color="white" stop-opacity="0"/>
</linearGradient>
<linearGradient id="paint11_linear_451_914" x1="512" y1="106.63" x2="512" y2="254.63" gradientUnits="userSpaceOnUse">
<stop stop-color="white" stop-opacity="0.3"/>
<stop offset="1" stop-color="white" stop-opacity="0"/>
</linearGradient>
<linearGradient id="paint12_linear_451_914" x1="512" y1="106.63" x2="512" y2="254.63" gradientUnits="userSpaceOnUse">
<stop stop-color="#6C38FF" stop-opacity="0.3"/>
<stop offset="1" stop-color="#8B62FF" stop-opacity="0.3"/>
</linearGradient>
<clipPath id="clip0_451_914">
<rect width="40" height="40" fill="white" transform="translate(222 160.63)"/>
</clipPath>
<clipPath id="clip1_451_914">
<rect width="40" height="40" fill="white" transform="translate(222 160.63)"/>
</clipPath>
<clipPath id="clip2_451_914">
<rect width="56" height="56" fill="white" transform="translate(278 152.63)"/>
</clipPath>
<clipPath id="clip3_451_914">
<rect width="56" height="56" fill="white" transform="translate(278 152.63)"/>
</clipPath>
<clipPath id="clip4_451_914">
<rect width="72" height="72" fill="white" transform="translate(350 144.63)"/>
</clipPath>
<clipPath id="clip5_451_914">
<rect width="72" height="72" fill="white" transform="translate(350 144.63)"/>
</clipPath>
<clipPath id="clip6_451_914">
<rect width="72" height="72" fill="white" transform="translate(602 144.63)"/>
</clipPath>
<clipPath id="clip7_451_914">
<rect width="72" height="72" fill="white" transform="translate(602 144.63)"/>
</clipPath>
<clipPath id="clip8_451_914">
<rect width="56" height="56" fill="white" transform="translate(690 152.63)"/>
</clipPath>
<clipPath id="clip9_451_914">
<rect width="56" height="56" fill="white" transform="translate(690 152.63)"/>
</clipPath>
<clipPath id="clip10_451_914">
<rect width="40" height="40" fill="white" transform="translate(762 160.63)"/>
</clipPath>
<clipPath id="clip11_451_914">
<rect width="40" height="40" fill="white" transform="translate(762 160.63)"/>
</clipPath>
<clipPath id="clip12_451_914">
<rect x="438" y="106.63" width="148" height="148" rx="74" fill="white"/>
</clipPath>
</defs>
</svg>