<svg width="742" height="839" viewBox="0 0 742 839" fill="none" xmlns="http://www.w3.org/2000/svg">
<g opacity="0.4">
<path d="M151.437 370.776C150.196 365.741 156.181 362.571 159.851 366.239L321.099 527.361C324.769 531.028 321.597 537.009 316.557 535.768C235.367 515.765 171.456 451.904 151.437 370.776Z" stroke="url(#paint0_linear_300_4582)" stroke-width="12.7709"/>
<path d="M145.341 301.928C145.296 302.673 145.409 303.42 145.675 304.118C145.941 304.816 146.353 305.449 146.883 305.976L381.408 540.319C381.935 540.849 382.569 541.26 383.267 541.526C383.966 541.791 384.713 541.905 385.459 541.859C395.419 541.225 405.326 539.933 415.115 537.991C419.193 537.182 420.609 532.185 417.669 529.247L157.963 269.743C155.023 266.806 150.023 268.221 149.213 272.295C147.27 282.077 145.977 291.976 145.341 301.928Z" stroke="url(#paint1_linear_300_4582)" stroke-width="12.7709"/>
<path d="M164.547 224.265C164.115 225.237 163.989 226.318 164.186 227.363C164.383 228.408 164.894 229.369 165.65 230.118L457.325 521.568C458.075 522.323 459.036 522.833 460.082 523.029C461.128 523.226 462.209 523.1 463.182 522.669C470.73 519.288 478.085 515.493 485.214 511.303C488.164 509.57 488.617 505.531 486.197 503.114L184.117 201.268C181.698 198.85 177.656 199.303 175.922 202.25C171.728 209.374 167.931 216.724 164.547 224.265Z" stroke="url(#paint2_linear_300_4582)" stroke-width="12.7709"/>
<path d="M202.996 172.828C201.024 170.858 200.902 167.696 202.765 165.624C244.13 119.661 304.105 90.7561 370.836 90.7561C495.63 90.7561 596.797 191.844 596.797 316.541C596.797 383.219 567.869 443.148 521.871 484.48C519.797 486.342 516.634 486.22 514.661 484.25L202.996 172.828Z" stroke="url(#paint3_linear_300_4582)" stroke-width="12.7709"/>
</g>
<g opacity="0.4">
<path d="M151.437 370.776C150.196 365.741 156.181 362.571 159.851 366.239L321.099 527.361C324.769 531.028 321.597 537.009 316.557 535.768C235.367 515.765 171.456 451.904 151.437 370.776Z" stroke="url(#paint4_linear_300_4582)" stroke-opacity="0.2" stroke-width="1.41899"/>
<path d="M145.341 301.928C145.296 302.673 145.409 303.42 145.675 304.118C145.941 304.816 146.353 305.449 146.883 305.976L381.408 540.319C381.935 540.849 382.569 541.26 383.267 541.526C383.966 541.791 384.713 541.905 385.459 541.859C395.419 541.225 405.326 539.933 415.115 537.991C419.193 537.182 420.609 532.185 417.669 529.247L157.963 269.743C155.023 266.806 150.023 268.221 149.213 272.295C147.27 282.077 145.977 291.976 145.341 301.928Z" stroke="url(#paint5_linear_300_4582)" stroke-opacity="0.2" stroke-width="1.41899"/>
<path d="M164.547 224.265C164.115 225.237 163.989 226.318 164.186 227.363C164.383 228.408 164.894 229.369 165.65 230.118L457.325 521.568C458.075 522.323 459.036 522.833 460.082 523.029C461.128 523.226 462.209 523.1 463.182 522.669C470.73 519.288 478.085 515.493 485.214 511.303C488.164 509.57 488.617 505.531 486.197 503.114L184.117 201.268C181.698 198.85 177.656 199.303 175.922 202.25C171.728 209.374 167.931 216.724 164.547 224.265Z" stroke="url(#paint6_linear_300_4582)" stroke-opacity="0.2" stroke-width="1.41899"/>
<path d="M202.996 172.828C201.024 170.858 200.902 167.696 202.765 165.624C244.13 119.661 304.105 90.7561 370.836 90.7561C495.63 90.7561 596.797 191.844 596.797 316.541C596.797 383.219 567.869 443.148 521.871 484.48C519.797 486.342 516.634 486.22 514.661 484.25L202.996 172.828Z" stroke="url(#paint7_linear_300_4582)" stroke-opacity="0.2" stroke-width="1.41899"/>
</g>
<path d="M151.437 370.776C150.196 365.741 156.181 362.571 159.851 366.238L321.099 527.361C324.769 531.028 321.597 537.009 316.557 535.768C235.367 515.765 171.457 451.904 151.437 370.776Z" stroke="url(#paint8_linear_300_4582)" stroke-opacity="0.2" stroke-width="5.67595"/>
<path d="M145.341 301.928C145.296 302.673 145.409 303.42 145.675 304.118C145.941 304.816 146.353 305.449 146.883 305.976L381.408 540.319C381.935 540.849 382.569 541.26 383.267 541.526C383.966 541.791 384.713 541.905 385.459 541.859C395.419 541.225 405.326 539.933 415.115 537.991C419.193 537.182 420.609 532.185 417.669 529.247L157.963 269.743C155.023 266.806 150.023 268.221 149.213 272.295C147.27 282.077 145.977 291.976 145.341 301.928Z" stroke="url(#paint9_linear_300_4582)" stroke-opacity="0.2" stroke-width="5.67595"/>
<path d="M164.547 224.265C164.115 225.237 163.989 226.318 164.186 227.363C164.383 228.408 164.894 229.369 165.65 230.118L457.325 521.568C458.075 522.323 459.036 522.833 460.082 523.029C461.128 523.226 462.209 523.1 463.182 522.669C470.73 519.288 478.085 515.493 485.214 511.303C488.164 509.57 488.617 505.531 486.197 503.114L184.117 201.268C181.698 198.85 177.656 199.303 175.922 202.25C171.728 209.374 167.931 216.724 164.547 224.265Z" stroke="url(#paint10_linear_300_4582)" stroke-opacity="0.2" stroke-width="5.67595"/>
<path d="M202.996 172.828C201.025 170.858 200.902 167.696 202.766 165.624C244.13 119.661 304.106 90.7561 370.836 90.7561C495.631 90.7561 596.797 191.844 596.797 316.541C596.797 383.219 567.87 443.148 521.871 484.48C519.797 486.342 516.635 486.22 514.662 484.25L202.996 172.828Z" stroke="url(#paint11_linear_300_4582)" stroke-opacity="0.2" stroke-width="5.67595"/>
<path d="M151.437 370.776C150.196 365.741 156.181 362.571 159.851 366.238L321.099 527.361C324.769 531.028 321.597 537.009 316.557 535.768C235.367 515.765 171.457 451.904 151.437 370.776Z" stroke="url(#paint12_radial_300_4582)" stroke-width="0.709494"/>
<path d="M145.341 301.928C145.296 302.673 145.409 303.42 145.675 304.118C145.941 304.816 146.353 305.449 146.883 305.976L381.408 540.319C381.935 540.849 382.569 541.26 383.267 541.526C383.966 541.791 384.713 541.905 385.459 541.859C395.419 541.225 405.326 539.933 415.115 537.991C419.193 537.182 420.609 532.185 417.669 529.247L157.963 269.743C155.023 266.806 150.023 268.221 149.213 272.295C147.27 282.077 145.977 291.976 145.341 301.928Z" stroke="url(#paint13_radial_300_4582)" stroke-width="0.709494"/>
<path d="M164.547 224.265C164.115 225.237 163.989 226.318 164.186 227.363C164.383 228.408 164.894 229.369 165.65 230.118L457.325 521.568C458.075 522.323 459.036 522.833 460.082 523.029C461.128 523.226 462.209 523.1 463.182 522.669C470.73 519.288 478.085 515.493 485.214 511.303C488.164 509.57 488.617 505.531 486.197 503.114L184.117 201.268C181.698 198.85 177.656 199.303 175.922 202.25C171.728 209.374 167.931 216.724 164.547 224.265Z" stroke="url(#paint14_radial_300_4582)" stroke-width="0.709494"/>
<path d="M202.996 172.828C201.025 170.858 200.902 167.696 202.766 165.624C244.13 119.661 304.106 90.7561 370.836 90.7561C495.631 90.7561 596.797 191.844 596.797 316.541C596.797 383.219 567.87 443.148 521.871 484.48C519.797 486.342 516.635 486.22 514.662 484.25L202.996 172.828Z" stroke="url(#paint15_radial_300_4582)" stroke-width="0.709494"/>
<defs>
<linearGradient id="paint0_linear_300_4582" x1="370.999" y1="90.7562" x2="370.999" y2="398.239" gradientUnits="userSpaceOnUse">
<stop stop-color="#6663F6"/>
<stop offset="1" stop-color="#6663F6" stop-opacity="0"/>
</linearGradient>
<linearGradient id="paint1_linear_300_4582" x1="370.999" y1="90.7561" x2="370.999" y2="398.239" gradientUnits="userSpaceOnUse">
<stop stop-color="#6663F6"/>
<stop offset="1" stop-color="#6663F6" stop-opacity="0"/>
</linearGradient>
<linearGradient id="paint2_linear_300_4582" x1="370.999" y1="90.7561" x2="370.999" y2="398.239" gradientUnits="userSpaceOnUse">
<stop stop-color="#6663F6"/>
<stop offset="1" stop-color="#6663F6" stop-opacity="0"/>
</linearGradient>
<linearGradient id="paint3_linear_300_4582" x1="371" y1="90.7561" x2="371" y2="398.239" gradientUnits="userSpaceOnUse">
<stop stop-color="#6663F6"/>
<stop offset="1" stop-color="#6663F6" stop-opacity="0"/>
</linearGradient>
<linearGradient id="paint4_linear_300_4582" x1="370.999" y1="90.7561" x2="370.999" y2="343.665" gradientUnits="userSpaceOnUse">
<stop stop-color="#6663F6"/>
<stop offset="1" stop-color="#6663F6" stop-opacity="0"/>
</linearGradient>
<linearGradient id="paint5_linear_300_4582" x1="370.999" y1="90.7561" x2="370.999" y2="343.664" gradientUnits="userSpaceOnUse">
<stop stop-color="#6663F6"/>
<stop offset="1" stop-color="#6663F6" stop-opacity="0"/>
</linearGradient>
<linearGradient id="paint6_linear_300_4582" x1="370.999" y1="90.7561" x2="370.999" y2="343.664" gradientUnits="userSpaceOnUse">
<stop stop-color="#6663F6"/>
<stop offset="1" stop-color="#6663F6" stop-opacity="0"/>
</linearGradient>
<linearGradient id="paint7_linear_300_4582" x1="371" y1="90.7561" x2="371" y2="343.665" gradientUnits="userSpaceOnUse">
<stop stop-color="#6663F6"/>
<stop offset="1" stop-color="#6663F6" stop-opacity="0"/>
</linearGradient>
<linearGradient id="paint8_linear_300_4582" x1="370.999" y1="90.756" x2="370.999" y2="412.216" gradientUnits="userSpaceOnUse">
<stop stop-color="#7877C6"/>
<stop offset="1" stop-color="#7877C6" stop-opacity="0"/>
</linearGradient>
<linearGradient id="paint9_linear_300_4582" x1="370.999" y1="90.7561" x2="370.999" y2="412.216" gradientUnits="userSpaceOnUse">
<stop stop-color="#7877C6"/>
<stop offset="1" stop-color="#7877C6" stop-opacity="0"/>
</linearGradient>
<linearGradient id="paint10_linear_300_4582" x1="370.999" y1="90.7561" x2="370.999" y2="412.216" gradientUnits="userSpaceOnUse">
<stop stop-color="#7877C6"/>
<stop offset="1" stop-color="#7877C6" stop-opacity="0"/>
</linearGradient>
<linearGradient id="paint11_linear_300_4582" x1="371" y1="90.7561" x2="371" y2="412.216" gradientUnits="userSpaceOnUse">
<stop stop-color="#7877C6"/>
<stop offset="1" stop-color="#7877C6" stop-opacity="0"/>
</linearGradient>
<radialGradient id="paint12_radial_300_4582" cx="0" cy="0" r="1" gradientUnits="userSpaceOnUse" gradientTransform="translate(370.999 137.93) rotate(90) scale(310.228 310.469)">
<stop stop-color="white"/>
<stop offset="1" stop-color="white" stop-opacity="0"/>
</radialGradient>
<radialGradient id="paint13_radial_300_4582" cx="0" cy="0" r="1" gradientUnits="userSpaceOnUse" gradientTransform="translate(370.999 137.93) rotate(90) scale(310.228 310.469)">
<stop stop-color="white"/>
<stop offset="1" stop-color="white" stop-opacity="0"/>
</radialGradient>
<radialGradient id="paint14_radial_300_4582" cx="0" cy="0" r="1" gradientUnits="userSpaceOnUse" gradientTransform="translate(370.999 137.93) rotate(90) scale(310.228 310.469)">
<stop stop-color="white"/>
<stop offset="1" stop-color="white" stop-opacity="0"/>
</radialGradient>
<radialGradient id="paint15_radial_300_4582" cx="0" cy="0" r="1" gradientUnits="userSpaceOnUse" gradientTransform="translate(371 137.93) rotate(90) scale(310.228 310.47)">
<stop stop-color="white"/>
<stop offset="1" stop-color="white" stop-opacity="0"/>
</radialGradient>
</defs>
</svg>
